<?xml version="1.0" encoding="utf-8"?>
<!-- Generator: Adobe Illustrator 18.1.1, SVG Export Plug-In . SVG Version: 6.00 Build 0)  -->
<svg version="1.1" id="Layer_1" xmlns="http://www.w3.org/2000/svg" xmlns:xlink="http://www.w3.org/1999/xlink" x="0px" y="0px"
	 viewBox="0 0 160.9 152.5" enable-background="new 0 0 160.9 152.5" xml:space="preserve">
<g>
	<g>
		<path fill="#FFFFFF" d="M12.2,41.1c13.5,24.2,22.6,50.5,27.3,77.8c0.3,1.9,3.2,1.1,2.9-0.8c-4.7-27.6-14-54.1-27.6-78.6
			C13.9,37.9,11.3,39.4,12.2,41.1L12.2,41.1z"/>
	</g>
</g>
<g>
	<g>
		<path fill="#FFFFFF" d="M8.2,47.8c8.3,22.8,16.6,45.6,24.9,68.4c2.6,7.2,14.2,4.1,11.6-3.2c-8.3-22.8-16.6-45.6-24.9-68.4
			C17.1,37.4,5.5,40.5,8.2,47.8L8.2,47.8z"/>
	</g>
</g>
<g>
	<g>
		<path fill="#FFFFFF" d="M2.9,126.5c14.3,8.4,28.7,16.8,43,25.2c4.3,2.5,8.5-0.8,9-5.2c1.8-15.8,5.2-31.3,9.9-46.4
			c2.3-7.4-9.3-10.6-11.6-3.2c-5,16.2-8.4,32.8-10.3,49.6c3-1.7,6-3.5,9-5.2c-14.3-8.4-28.7-16.8-43-25.2
			C2.3,112.2-3.8,122.6,2.9,126.5L2.9,126.5z"/>
	</g>
</g>
<g>
	<g>
		<path fill="#FFFFFF" d="M90.8,9.1c10.2,21.6,20.4,43.1,30.6,64.7c3.3,7,13.6,0.9,10.4-6.1c-10.2-21.6-20.4-43.1-30.6-64.7
			C97.8-3.9,87.5,2.2,90.8,9.1L90.8,9.1z"/>
	</g>
</g>
<g>
	<g>
		<path fill="#FFFFFF" d="M90.9,82.5c16.3,9.6,32,20.1,47.1,31.5c3,2.3,8.1-0.1,8.8-3.6c4.6-21.4,9.3-42.9,13.9-64.3
			c1.6-7.5-9.9-10.7-11.6-3.2c-4.6,21.4-9.3,42.9-13.9,64.3c2.9-1.2,5.9-2.4,8.8-3.6C129,92.3,113.3,81.8,97,72.1
			C90.3,68.2,84.3,78.6,90.9,82.5L90.9,82.5z"/>
	</g>
</g>
</svg>
