<?xml version="1.0" encoding="utf-8"?>
<!-- Generator: Adobe Illustrator 18.1.1, SVG Export Plug-In . SVG Version: 6.00 Build 0)  -->
<svg version="1.1" xmlns="http://www.w3.org/2000/svg" xmlns:xlink="http://www.w3.org/1999/xlink" x="0px" y="0px"
	 viewBox="0 0 406.7 173.4" enable-background="new 0 0 406.7 173.4" xml:space="preserve">
<g id="Layer_2">
	<g>
		<g>
			<path fill="#AF1717" d="M232.3,83.2c-7.2-4.6-17.2-4.8-23.9,1c-6,5.2-8.1,14.3-4.3,21.5c3.8,7.2,12.6,10.3,20.3,8.2
				c8.2-2.2,13.4-9.6,15.5-17.4c1.2-4.4-1.5-10.2-6.3-11.1c-7-1.3-14.3-0.7-20,4.1c-5.3,4.5-7.9,12-5.9,18.7
				c4.2,14.1,25.5,14.5,29.2-0.1c1.6-6.3-4.3-13.3-11.1-11.1c-7.3,2.4-13.1,8.4-13.8,16.3c-0.3,3.5,0.4,7.3,3,9.9
				c2.8,2.8,6.1,2.7,9.1,3.9c-1.3-0.8-2.6-1.5-4-2.3c0.2,0.2,0.4,0.5,0.7,0.7c-0.8-1.3-1.5-2.6-2.3-4c0.4,2.4,0.3,5.5,1.9,8.2
				c1.6,2.9,4.3,5.3,7.1,6.9c6.6,3.8,14.4,2.6,21.4,0.9c11.3-2.7,6.5-20.1-4.8-17.4c-2.4,0.6-4.8,0.6-7.2,1c-0.5,0.1-0.7-0.3-1-0.5
				c0.1,0.3,0.2,0.5,0.3,0.8c0.2-0.8,0.1-1.6-0.1-2.4c-0.3-3.1-1.7-5.8-4.2-7.7c-1.2-0.9-2.6-1.6-4-2c-0.4-0.1-0.7-0.1-1.1-0.2
				c-2.9-0.4-3.2-0.4-0.9-0.1c1.1,1.1,2.2,2.2,3.2,3.2c-0.2-0.3-0.3-0.7-0.5-1c0.4,1.5,0.8,3,1.2,4.5c-0.1-0.9-0.7-1.1,0.6-1.5
				c-3.7-3.7-7.4-7.4-11.1-11.1c0.2-0.7,1.6-2,2.4-2.1c2.2-0.2,2.9,2.4,3,2.4c1,0,2.1-1.1,3.9-0.8c-2.1-3.7-4.2-7.4-6.3-11.1
				c-0.5,1.8-1.7,3-2.3,4.6c-0.4,1.1-0.5-0.3-0.6,0.7c-0.2,1.3,1,0.9,0.8,0.8c0.4-0.1,0.2-0.1-0.5,0.1c0.5,0,0.9,0,1.4,0
				c0.7,0.3,1.2,0.5,1.9,1C233.1,104.9,242.1,89.4,232.3,83.2L232.3,83.2z"/>
		</g>
	</g>
	<g>
		<g>
			<path fill="#AF1717" d="M247.9,133.8c6.7,3.5,13.9,6.2,21.5,4c6.1-1.8,10.7-6.2,14.5-11.1c3.4-4.4,5.9-9.3,9.4-13.6
				c3.5-4.3,7.7-7.9,12.4-10.7c9.2-5.6,19.9-8.3,30.7-7.7c4.8,0.3,9.7,1.3,14.1,3.2c2,0.8,5,1.9,6.4,3.6c1.7,2,1.4,6.6,1.7,9
				c1.1,7.8,3.5,15.7,9.4,21.3c5.9,5.6,14.9,8.4,22.7,5.3c7-2.7,9.3-12.2,2.1-16.4c-4.8-2.9-5.4-9.9-6.4-14.9
				c-1.3-7-2.5-13.7-5.7-20.1c-6.9-13.9-20.8-22.4-34.8-27.9c-16.4-6.5-34.6-9-52-10.3c-20.1-1.5-40.3-0.2-60.2,3.4
				c-4.8,0.9-7.5,6.7-6.3,11.1c1.4,5,6.3,7.2,11.1,6.3c18.6-3.4,37.5-4.2,56.3-2.7c15.8,1.2,32.5,3.8,47.2,10
				c11.2,4.7,21.8,12.3,25,24.6c3.5,13.4,3.4,28.1,16.7,36.1c0.7-5.5,1.4-11,2.1-16.4c-6.9,2.7-9-7.5-9.7-12.4
				c-1.2-9.1-2.5-16.5-10.7-21.8c-12.7-8.3-28.8-10.2-43.5-7.9c-14.3,2.2-28.1,9.1-38.2,19.4c-5.2,5.3-8.7,11.6-13,17.6
				c-1.5,2.1-3.4,5-5.9,5.9c-2.7,0.9-5.4-0.9-7.8-2.1C246.8,113,237.7,128.5,247.9,133.8L247.9,133.8z"/>
		</g>
	</g>
	<g>
		<g>
			<path fill="#AF1717" d="M351.3,68.9c-7.7-4.2-16-5.2-24.6-5.7c-9.7-0.6-19.5-1.1-29.2-1.5c-17.5-0.8-35.8-2.1-53.3-0.1
				c-13.2,1.5-36.7,10.2-31.7,28c2.2,7.8,10.7,12.7,18.5,12.2c8.4-0.5,14.8-6.6,19.8-12.8c2.5-3.2,3.6-7.2,1.4-10.9
				c-1.9-3.2-6.5-5.6-10.2-4.1c-8.3,3.3-14.6,9.4-16.6,18.3c-0.9,4.1,0.7,7.8,4.1,10.2c10.2,6.8,25.5,0.6,28-11.4
				c1.4-6.9-4.1-12.5-11.1-11.1c-10.6,2.2-18.7,12.7-17.6,23.6c0.5,5,3.7,8.8,9,9c7.5,0.2,13.5-3.4,17.6-9.5
				c4.8-7.1-3.1-14.5-10.2-13.2c-8.8,1.6-15.8,8.6-17.9,17.3c-1.4,5.6,2.7,11.5,8.7,11.4c4.4-0.1,8.1-1.1,12-3.1
				c-3.6-4.7-7.3-9.4-10.9-14.1c-3.1,3.5-5.3,7.2-6.6,11.8c-1.7,5.9,2.9,11,8.7,11.4c7,0.4,13.1-3.2,16.7-9.1
				c4.6-7.7-4.6-17-12.3-12.3c-4.7,2.9-8,8-7.3,13.6c0.7,5.8,5.2,10.3,11.4,8.7c5.4-1.4,9.8-4,14-7.6c3.4-2.9,3.3-8.5,0.7-11.8
				c-3-3.8-7.4-4.1-11.6-2.3c-7.4,3.1-7,13.8-1.3,18.3c3.1,2.4,6.9,2.9,10.6,1.8c1.9-0.6,3.4-1.5,4.9-2.7c0.4-0.4,3.7-3.1,2.4-2.6
				c-3.4-4.4-6.8-8.8-10.2-13.2c-4.2,6.1-0.9,15.3,6.2,17.5c7.8,2.4,12.4-3.5,16.3-9.1c6.3-9.3,15.9-16.1,26.5-19.5
				c8-2.6,8.2-11.8,2.1-16.4c-6.9-5.3-15.8-5.1-23.3-1.4c-7.4,3.7-4.7,14.1,2.1,16.4c0.2,0.1,0.5,0.2,0.7,0.2
				c-1.8-1.4-3.6-2.8-5.4-4.1c-0.1-0.3-0.3-0.6-0.4-0.9c0-1.6,0-3.2,0-4.8c0.7-0.9,1.5-1.9,2.2-2.8c1.5-0.4,3-0.8,4.5-1.2
				c-2.2,0.1-4.3-1.2-6.6-1.3c-2.7,0-5.4,0.5-7.8,1.7c-4.4,2.3-7.9,6.5-8.8,11.5c-0.9,5.2,2.3,12,8.7,11.4
				c9.4-0.9,17.3-9.7,13.7-19.5c-1.8-4.9-5.9-7.1-11.1-6.3c-9.5,1.6-16.5,8.6-19.7,17.4c-2.4,6.6,4.9,12.8,11.1,11.1
				c7.1-1.9,12.2-8.4,11.8-15.9c-0.2-3.9-2.6-7.7-6.6-8.7c-10-2.4-20.8,1.9-25.5,11.4c-2.7,5.6,0.4,14.2,7.8,13.5
				c5.7-0.5,10.5-3.1,13.3-8.2c2.6-4.8,2.6-11.3-0.8-15.6c-3.8-4.8-11.2-4.9-16.1-1.8c-5.4,3.4-7.3,9.3-6.1,15.3
				c5.5-2.3,11-4.6,16.4-6.9c-7.1-9.8-20.4-9.8-27.5,0c-2.3,3.2-1.2,8.3,1.4,10.9c3,3,7.2,3.1,10.9,1.4c6.8-3,8.6-12.3,5.1-18.4
				c-3.7-6.6-11.2-7.8-17.9-8.8C219.5,71,204.5,69,189.5,70c-13.7,1-30.4,4-40.9,13.6c-12.2,11.3-4.5,28.2,10.4,31.3
				c15.4,3.2,32.1-6.2,38.5-20.2c3.3-7.1-2.1-15.1-10.2-13.2c-8.9,2-15.9,9-18.2,17.8c-1.3,4.8,1.6,9.7,6.3,11.1
				c11.5,3.5,25-2,30-13.2c3-6.7-0.7-12.6-7.8-13.5c-9.8-1.2-19.6,2.6-26.5,9.5c-5.5,5.5-1.5,15.4,6.4,15.4
				c11.2-0.1,15.9-14.6,7-21.3c-8.4-6.3-19-1.1-24.3,6.5c-2.7,3.8-0.8,10.2,3.2,12.3c10.4,5.4,21.5-7.5,13.2-16.6
				c-6.3-6.9-18.9-4.6-24.4,2c-6.6,8-1.9,20.2,8.5,21.1c8.9,0.8,18.6-3,25.6-8.3c-4.5-2.6-9-5.2-13.5-7.8c0.1,11.3,9.9,18,20.4,16.4
				c4.4-0.6,7-5.9,6.4-9.9c-0.7-4.7-4.3-7.3-8.8-7.8c-12.3-1.2-24.3,7.9-26.8,19.9c-0.9,4.2,0.7,7.8,4.1,10.2
				c4.5,3.1,9.5,5.5,14.8,6.9c5.2,1.4,10.4,0.7,15.5,1.7c5.4,1,10.3,2.8,15.9,2.9c6,0.1,12-0.9,17.6-2.8c8.3-2.9,8.8-14.7,0-17.4
				c-12.8-3.9-24.7-9.7-35.9-17.2c0,5.2,0,10.4,0,15.5c3.7-2.2,7.3-4.4,11-6.6c-4.4-3.4-8.8-6.8-13.2-10.2c-0.7,2-5.7,3-7.3,3.5
				c-4.5,1.4-8.8,3-12.6,5.8c-4.2,3.1-7.2,7.3-8,12.5c-0.9,6.4,3.4,14.3,10.8,13.4c4.4-0.5,8.3-3,8.8-7.8c0.5-4-2-9.2-6.4-9.9
				c-8.8-1.3-17.7-2.6-26.5-3.9c-11.5-1.7-15.6,12.9-4.8,17.4c2.7,1.1,5.3,2.2,8,3.3c0.8-5.9,1.6-11.8,2.4-17.7
				c-9.7-1.2-19.5-2.3-29.2-3.5c2.6,1.5,5.2,3,7.8,4.5c-0.9-1.9,0-4.9,1.6-6.2c2.6-2.1,5.8-0.9,8.2,0.9c-0.6-4.7-1.2-9.4-1.8-14.1
				c-2.9,2.3-5.9,4.5-8.8,6.8c-7,5.4,0.6,18.2,8.8,15c1.7-0.7,3.3-1.3,5-2c6.3-2.5,8.9-9.7,4-15c-8.4-9-25.3,0.4-20.9,12.4
				c1.7,4.6,6.1,7.6,11.1,6.3c4.4-1.2,8-6.5,6.3-11.1c-0.2,3.5-1.6,5.8-4.2,6.8c-1.5-0.4-3-0.8-4.5-1.2c-0.2-0.1-0.3-0.3-0.5-0.4
				c1.3-5,2.6-10,4-15c-1.7,0.7-3.3,1.3-5,2c2.9,5,5.8,10,8.8,15c2.9-2.3,5.9-4.5,8.8-6.8c5.1-3.9,2.2-11.1-1.8-14.1
				c-13.3-9.9-33.4-2.2-36.6,14.1c-1.6,8.1,0.3,19.1,9.9,20.3c9.7,1.2,19.5,2.3,29.2,3.5c4.4,0.5,8.4-3.8,8.8-7.8
				c0.6-4.8-2.2-8.1-6.4-9.9c-2.7-1.1-5.3-2.2-8-3.3c-1.6,5.8-3.2,11.6-4.8,17.4c8.8,1.3,17.7,2.6,26.5,3.9
				c0.8-5.9,1.6-11.8,2.4-17.7c-0.3,0-0.6,0.1-0.9,0.1c2.1,0.9,4.2,1.8,6.4,2.6c-0.3-0.3-0.5-0.6-0.8-0.9c0.8,1.3,1.5,2.6,2.3,4
				c0.6,2.3,1.6,0,3.7-0.9c2.6-1.2,5.6-1.7,8.3-2.8c7.3-2.8,12.9-7,15.6-14.6c2.6-7.5-6.8-14-13.2-10.2c-3.7,2.2-7.3,4.4-11,6.6
				c-6,3.6-5.6,11.8,0,15.5c12.4,8.3,25.9,14.6,40.2,19c0-5.8,0-11.6,0-17.4c-4.2,1.5-8.4,2.3-12.9,2.2c-4.6-0.1-8.3-1.9-12.7-2.9
				c-4.2-1-8.8,0.2-13.1-0.8c-4.2-1-7.7-2.8-11.3-5.3c1.4,3.4,2.8,6.8,4.1,10.2c1-4.8,4.6-7.1,9.5-6.6c-0.8-5.9-1.6-11.8-2.4-17.7
				c1.3-0.2,2.3,0,2.3,0.9c-0.1-6.2-7.8-12-13.5-7.8c-4.7,3.5-10.5,6.6-16.6,5.8c1.5,0.4,3,0.8,4.5,1.2c-2.4,6.2-2.2,8.7,0.4,7.5
				c0.9-0.5,1.4-0.4,1.3,0.3c-1.3-0.8-2.6-1.5-4-2.3c0.3,0.3,0.6,0.6,0.8,0.9c-0.8-1.3-1.5-2.6-2.3-4c0.1,0.3,0.1,0.6,0.2,0.9
				c0-1.6,0-3.2,0-4.8c-0.1,0.3-0.2,0.6-0.3,0.9c0.8-1.3,1.5-2.6,2.3-4c-0.2,0.2-0.4,0.5-0.7,0.7c1.3-0.8,2.6-1.5,4-2.3
				c-0.3,0.1-0.5,0.2-0.8,0.3c2.3,0.3,4.6,0.6,6.9,0.9c-0.2-0.1-0.5-0.3-0.7-0.4c1.1,4.1,2.2,8.2,3.2,12.3c1.2-1.7,1.8,2.9-2.2-1.2
				c-0.8-1.3-1.5-2.6-2.3-4c0.1-1,0.2-2,0.3-3.1c1.1-1.1,2.2-2.2,3.2-3.2c-0.3,0.2-0.6,0.3-0.8,0.5c1.5-0.4,3-0.8,4.5-1.2
				c-0.3,0-0.7,0-1,0c2.1,5.1,4.2,10.2,6.4,15.4c3.9-3.9,8.4-4.9,13.8-4.3c-2.6-4.5-5.2-9-7.8-13.5c-1.8,4.1-5.2,6.2-9.7,4.9
				c2.1,3.7,4.2,7.4,6.3,11.1c0.8-3,2.6-4.6,5.6-5.2c-3.4-4.4-6.8-8.8-10.2-13.2c-3.2,6.9-10.6,13.3-18.9,11.8
				c-0.6-0.1-2.6-1.3-3.1-1.2c0,0,0.3,1.4,0.1,1.4c0.1,0,1.5-1.5,1.7-1.6c4.1-3,9.6-4.6,14.4-5.8c10.4-2.7,21.2-2.8,31.8-2
				c5.5,0.4,10.9,1,16.4,1.8c2.8,0.4,5.6,0.8,8.4,1.3c1.1,0.2,2.6,0.8,3.7,0.7c0.5,0.1,0.9,0.3,1.4,0.4c-2.6-2-2.6-4.4,0.2-7.2
				c4.1,4.1,8.2,8.2,12.3,12.3c-1.1,1.6-2.2,1.8-3.6,0c6,8.2,18.4,3.4,16.4-6.9c-1.5,1.8-3.1,3.6-4.6,5.3c-1.8-1.4-3.6-2.8-5.4-4.1
				c-1-2.2-0.2-3.9,2.3-4.1c2.6,4.5,5.2,9,7.8,13.5c1-2.2,2.6-3.7,5.1-3.1c-2.2-2.9-4.4-5.8-6.6-8.7c0,0,1.3-1.4,1.4-1.5
				c3.7,3.7,7.4,7.4,11.1,11.1c1.2-3.2,4.1-4.3,7.2-4.8c-3.7-2.1-7.4-4.2-11.1-6.3c-0.6-1.6,3.5-3.3,3.6-3.3
				c2.9,3.8,5.8,7.6,8.7,11.4c0.6-3.6-1,1-1.3,0c0.2,0.7,3.7,1,4.4,1.1c3.9,0.5,7.7-0.6,10.4-3.5c5.7-6.2,3.2-15.5-4.6-18.2
				c0.7,5.5,1.4,11,2.1,16.4c2-1,3.6,0.1,5.2,1.4c0.7-5.5,1.4-11,2.1-16.4c-8.4,2.7-15.9,6.7-22.8,12.1c-3.2,2.5-6.2,5.3-8.9,8.4
				c-1.5,1.7-2.9,3.5-4.3,5.4c-0.6,0.8-1.2,1.7-1.7,2.5c-1.3,1.6-1.1,1.7,0.7,0.4c1.6,0,3.2,0,4.8,0c-0.3-0.1-0.6-0.1-1-0.2
				c1.3,0.8,2.6,1.5,4,2.3c0.3,0.5,0.6,1,0.8,1.5c0,1.6,0,3.2,0,4.8c-0.1,0.1-0.1,0.2-0.2,0.4c4.4-6.4-2.9-15.6-10.2-13.2
				c-2.1,0.7-3.8,1.5-5.5,2.8c-0.7,0.5-1.4,1.1-1.9,1.7c-1.5,1.2-1.3,1.4,0.6,0.8c1.5,0.4,3,0.8,4.5,1.2c-0.3-0.1-0.5-0.3-0.8-0.4
				c1.1,1.1,2.2,2.2,3.2,3.2c0.2,0.7,0.3,1.4,0.5,2.1c-0.4,1.5-0.8,3-1.2,4.5c0.1-0.2,0.3-0.4,0.4-0.7c-1.1,1.1-2.2,2.2-3.2,3.2
				c0.2-0.1,0.5-0.2,0.7-0.3c-3.6-4.7-7.3-9.4-10.9-14.1c-1.8,1.6-3.7,2.3-6,2.9c3.8,2.9,7.6,5.8,11.4,8.7c-0.1-2.3-0.6-1.6-1.6,1.9
				c-4.1-4.1-8.2-8.2-12.3-12.3c-0.6,1,1.1,0.3-1.1,0.2c2.9,3.8,5.8,7.6,8.7,11.4c0.4-1.5,0.9-2.6,2-3.8c6.8-7.6-1.7-18.9-10.9-14.1
				c-1.2,0.6-1.4,0.6-2.9,0.6c2.9,3.8,5.8,7.6,8.7,11.4c0.7-3,2.4-4.2,5.3-4.7c-3.4-4.4-6.8-8.8-10.2-13.2c-0.8,1.1-0.7,0.6-2.1,0.6
				c3,3,6,6,9,9c-0.3-3.4,0.9-5.5,4.4-6.2c-3.7-3.7-7.4-7.4-11.1-11.1c-0.3,1.4-0.4,1.4-1.5,0.7c1.4,3.4,2.8,6.8,4.1,10.2
				c0.5-2.4,1.6-4.7,4-5.7c-2.9-5-5.8-10-8.8-15c-1.7,2.1-3.4,4.3-5.4,6c-0.7,0.6-2.7,1.2-2.9,1.5c0,0-0.3-0.1-0.3-0.1
				c0.5,0.6,0.6,1.3,0.4,2c-0.2,1.1-0.2,1.2,0.2,0.4c0.9-0.1,3.7-3.2,4.9-3.8c9.2-4.7,21.5-3.4,31.5-3.4c13.3,0.1,26.7,0.6,40,1.2
				c6.8,0.3,13.6,0.7,20.5,1.1c5.3,0.3,10.7,0.6,15.5,3.2C352.3,90.1,361.4,74.6,351.3,68.9L351.3,68.9z"/>
		</g>
	</g>
	<g>
		<g>
			<path fill="#AF1717" d="M125.5,133.4c4.1,2.2,8.5,2.7,13,1.7c4.6-1,7.7-6.6,6.3-11.1c-1.6-4.8-6.1-7.4-11.1-6.3
				c-0.3,0.1-0.5,0.1-0.8,0.2c0.8-0.1,1.6-0.2,2.4-0.3c-0.8,0.1-1.5,0.1-2.3,0c0.8,0.1,1.6,0.2,2.4,0.3c-0.8-0.1-1.5-0.3-2.2-0.6
				c0.7,0.3,1.4,0.6,2.1,0.9c-0.2-0.1-0.5-0.2-0.7-0.4c-4.1-2.2-10-1.2-12.3,3.2C120,125.3,121,131,125.5,133.4L125.5,133.4z"/>
		</g>
	</g>
	<g>
		<g>
			<path fill="#AF1717" d="M244.8,75.1c3.6-20.1-23.8-23.3-38.1-22.9c-16.6,0.5-32.3,7.6-41.6,21.7c-3.6,5.4,1.1,14.1,7.8,13.5
				c8-0.7,16.2,0,21.2-7.6c4.3-6.5,2.7-15.3-4.4-19.1c-6.8-3.6-15.9-0.2-22.2,3.1c-5.9,3.1-14.3,9-14.5,16.4
				c-0.2,7.7,7.3,13.4,14.8,11.7c8-1.8,11.5-10.7,7.8-17.9c-3.9-7.4-12.8-9.3-20.1-5.9c-6.9,3.2-11.1,9.4-13.9,16.2
				c-2.5,5.9,3.6,10.9,8.7,11.4c13.1,1.2,16.9-17.3,6.4-23.5c-9.9-5.8-23.6,2.3-26.6,12.6c-1.7,5.7,1.3,12.2,7.1,13.9
				c6,1.8,12.1-1.8,16-6.2c9.1-10.3-0.8-27.2-14.3-20.5c-8.3,4.1-19.8,17.9-14.5,27.6c6.1,11.2,20.6,4.2,25.4-4.3
				c5.9-10.4-2.8-21.5-13.9-21.1c-10.2,0.3-21.5,13.7-18.6,23.9c4.7,16.4,29.3,0.9,26.3-11.8c-1.5-6.3-8.2-9.6-14.3-8.1
				c-2.4,0.6-4.7,1.9-6.4,3.7c-1.7,1.8-2.4,4.7-4.2,6.1c-3.8,3.1-3.2,9.5,0,12.7c3.7,3.7,9,3.1,12.7,0c1.4-1.1,2.5-2.6,3.4-4.1
				c0.3-0.5,0.6-1.1,0.9-1.7c2.1-3.1-0.4-3.4-7.4-0.8c-0.8-1.3-1.5-2.6-2.3-4c0.1,0.3,0.1,0.5,0.2,0.8c0-1.6,0-3.2,0-4.8
				c-0.1,0.4-0.3,0.9-0.4,1.3c0.8-1.3,1.5-2.6,2.3-4c-1.3,1.6-2.9,3.8-4.7,4.7c1.5-0.4,3-0.8,4.5-1.2c-0.4,0-0.7,0.1-1.1,0.1
				c1.5,0.4,3,0.8,4.5,1.2c-0.3-0.2-0.6-0.4-0.9-0.6c1.4,1.8,2.8,3.6,4.1,5.4c-0.1-0.5-0.1-0.9-0.2-1.4c0,1.6,0,3.2,0,4.8
				c0.5-1.4,1.4-2.7,2.2-3.9c0.3-0.3,0.7-0.7,1-1c-0.2,0.1-0.4,0.3-0.7,0.4c-1.8,0-2.4-1-2.1-3.2c0.1-2.8-0.2-3.6-0.9-2.4
				c0.9,3-2.2,0.5-0.5,0.7c1.5,0.4,3,0.8,4.5,1.2c-0.3-0.1-0.5-0.3-0.8-0.4c1.1,1.1,2.2,2.2,3.2,3.2c0.1,0.1,0.1,0.1,0.2,0.2
				c0,1.6,0,3.2,0,4.8c0.5-2.3,3.9-7.6,6.6-8.1c-1.6,0-3.2,0-4.8,0c0.5,0.1,1,0.2,1.5,0.4c-1.3-0.8-2.6-1.5-4-2.3
				c1-4.8,0.7-6.6-0.8-5.2c-0.2,0.2-0.5,0.4-0.7,0.5c1.6,0,3.2,0,4.8,0c-0.4-0.1-0.9-0.2-1.3-0.2c1.3,0.8,2.6,1.5,4,2.3
				c-0.3-0.2-0.5-0.5-0.8-0.7c0.8,1.3,1.5,2.6,2.3,4c-0.1-0.3-0.2-0.7-0.2-1c0,1.6,0,3.2,0,4.8c0.1-0.5,1-1,1.4-1.8
				c0.3-0.3,0.6-0.5,0.9-0.7c-2.2-0.8-2.5-0.7-0.9,0.3c-1.1-1.1-2.2-2.2-3.2-3.2c0.2-1.7,0.4-3.4,0.6-5.2c1.3-0.8,2.6-1.5,4-2.3
				c0.1,0,0.3-0.1,0.4-0.1c2.9,3.8,5.8,7.6,8.7,11.4c0.5-1.3,1.6-2.7,2.7-3.6c0.5-0.6,1-1,1.7-1.2c-2.2,0.5-3.6-1-4.2-4.7
				c0.8-1.3,1.5-2.6,2.3-4c2.4,0,4.9-0.1,7.3-0.1c0.8,1.3,1.5,2.6,2.3,4c0,0.3,0,0.5,0.1,0.8c-0.4,1.5-0.8,3-1.2,4.5
				c1-2,4-3.9,6.1-5c1.2-0.7,2.4-1.2,3.7-1.6c0.8-0.3,1.5-0.5,2.3-0.7c2.5-0.3,2.1-0.7-1.1-1.1c-0.8-1.3-1.5-2.6-2.3-4
				c0-0.9,0.3-1.8,0.7-2.6c1.2-0.6,1.2-0.8,0-0.6c-1.4-0.6-4.7,0.1-6.2,0.2c2.6,4.5,5.2,9,7.8,13.5c4.7-7.1,12.8-11,21-12.3
				c4.9-0.8,10.2-0.6,15.1,0.1c2.7,0.4,5.5,0.8,8.1,1.6c0.6,0.2,1.7,0.8,2.3,0.8c2.3,0.1-1,4.4,0.3-2.9c-0.8,4.8,1.3,9.7,6.3,11.1
				C238,82.5,243.9,79.9,244.8,75.1L244.8,75.1z"/>
		</g>
	</g>
	<g>
		<g>
			<path fill="#AF1717" d="M87.3,43.7c-13.5,11.1-27,22.2-40.5,33.2c-10.6,8.7-22.3,18.7-24.3,33.1c-0.5,4,0.4,8,4.1,10.2
				c9.4,5.5,17.4-1.2,23.4-8.1c5.7-6.6,12.4-11.7,20.1-15.7c4.3-2.2,5.6-8.3,3.2-12.3c-2.7-4.6-7.8-5.2-12.3-3.2
				c-4.1,1.8-6.9,4.7-9.5,8.2c-4.6,6,3.1,16.2,10.2,13.2c6.1-2.6,12.3-5.1,18.4-7.7c-2.9-5-5.8-10-8.8-15c-1.2,1-2.3,2.1-3.5,3.1
				c-7.2,6.4,0.6,16.7,8.8,15c4.9-1,10.2-2.1,15.2-1.4c4.7,0.6,8.1,3.4,11.3,6.8c7.3,7.8,12.9,17.1,17.3,26.8
				c2,4.4,8.4,5.5,12.3,3.2c4.5-2.7,5.2-7.9,3.2-12.3c-5.5-12.2-13.3-24.8-23.5-33.7c-11.9-10.4-26-9.6-40.6-6.7
				c2.9,5,5.8,10,8.8,15c1.2-1,2.3-2.1,3.5-3.1c6.4-5.7-0.4-18.6-8.8-15c-6.1,2.6-12.3,5.1-18.4,7.7c3.4,4.4,6.8,8.8,10.2,13.2
				c0.7-0.9,2.2-1.3,3.1-1.7c-3-5.2-6.1-10.4-9.1-15.5c-6.2,3.1-11.9,7.1-17,11.7c-2.4,2.1-4.7,4.4-6.7,6.8c-1,1.1-1.9,2.3-2.9,3.4
				c-0.5,0.5-1,1.1-1.6,1.5c-1.4,0.7-0.5,0.9,2.9,0.4c1.4,3.4,2.8,6.8,4.1,10.2c1.7-12.5,13.6-20.2,22.7-27.7
				C75.1,76.9,87.5,66.7,100,56.4c3.8-3.1,3.2-9.5,0-12.7C96.3,40,91.1,40.6,87.3,43.7L87.3,43.7z"/>
		</g>
	</g>
	<g>
		<g>
			<path fill="#AF1717" d="M134,63.6c-6.7-5.9-17.3-7.5-23.9-0.3c-6.1,6.7-4.8,18.5,3.4,22.9c8,4.3,17.7-1.3,19.4-9.7
				c2.3-11-10.3-18.1-19.5-13.3c-8.3,4.4-10.9,17.3-4.4,24.2c5.9,6.3,16.5,4.5,21-2.5c5.6-8.9-1.9-20-11.7-20.7
				c-9.9-0.7-16.5,7.8-16.8,17.1c-0.2,4.7,4.3,9.2,9,9c12-0.4,19.3-15.7,10.1-24.5c-4.5-4.3-11.6-4.5-16.7-1.3
				c-5.7,3.4-7.5,9.2-6.6,15.5c0.5,3.8,5.1,6.6,8.7,6.6c14.2-0.2,20-19,6.9-26.1c-11.5-6.2-28.1,9.6-17.8,20.3
				c9.5,9.9,25.8-2.9,19.5-14.7c-2.5-4.8-8-7.5-13.3-7.3c-6.8,0.3-11.9,5.2-15.1,10.8c-2,3.5-1.4,8,1.4,10.9
				c9.8,10,26.6-2.6,19.1-14.8c-3.4-5.5-11.1-7.7-16.8-4.7c-6.2,3.3-8.3,10-6.8,16.5c1.9,8.5,15.5,8.6,17.4,0c0.5-2.4,0.8-4.6,0.5-7
				c-0.9-6.9-6.9-11-13.5-7.8c-4,2-7.6,4.7-10.4,8.2c-7.3,8.8,4.5,21.1,12.7,12.7c4.5-4.6,5.3-10.9,2.2-16.5
				c-3.3-5.9-12.2-5.8-15.5,0c-0.3,0.6-0.3,0.6,0.1,0.2c2.9,5,5.8,10,8.8,15c6.5-6.2,13.7-11.3,21.7-15.3c3.8-1.9,6.8-3.2,11.1-2.4
				c4.7,0.8,9.2,2,13.9,2.6c19.9,2.8,39.9,2.1,59.9,1.1c11.6-0.6,11.5-17.2,0-18c-21.8-1.5-42.3,6.3-62.2,14.2
				c3.7,3.7,7.4,7.4,11.1,11.1c0.3-1.8,0.2-1.9,2-2.3c11.3-2.5,6.5-19.8-4.8-17.4c-7.3,1.6-13.3,7.5-14.6,14.9
				c-1.1,5.9,4.1,13.9,11.1,11.1c18.4-7.4,37.2-15,57.4-13.6c0-6,0-12,0-18c-21.4,1.1-43.3,2.4-64.4-2c-5.6-1.2-10.9-2.7-16.7-1.7
				c-4.8,0.8-9.3,3.1-13.6,5.2c-9,4.6-17.3,10.7-24.6,17.7c-6.3,6,0.2,18,8.8,15c4.7-1.6,8.2-4.2,10.7-8.5c-5.2,0-10.4,0-15.5,0
				c-0.2-0.3-0.4-0.6-0.6-1c0.4-1.5,0.8-3,1.2-4.5c0,0.1,0,0.1,0,0.2c4.2,4.2,8.5,8.5,12.7,12.7c2-2.4,4-4,6.8-5.4
				c-4.5-2.6-9-5.2-13.5-7.8c0.2,0.7,0.2,1.5,0.1,2.2c5.8,0,11.6,0,17.4,0c-0.8,1.5-1.6,3-2.4,4.5c-1.6,0-3.2,0-4.8,0
				c-0.5-0.5-1-0.9-1.5-1.4c-0.4-1.5-0.8-3-1.2-4.5c1.6-1.7,3.3-3.4,4.9-5.1c1.5,0.4,3,0.8,4.5,1.2c0.1,0.1,0.3,0.3,0.4,0.4
				c0.5,3.6,0.9,7.3,1.4,10.9c0.1-0.2,1.4-2,1.4-2.1c0.5-0.4,0.2-0.4-0.9-0.1c-2.2,0.6-3.6-0.7-4.2-3.9c0.4-1.5,0.8-3,1.2-4.5
				c1-0.8,2.1-1.4,3.3-1.9c1.5,0.4,3,0.8,4.5,1.2c0.2,0.1,0.3,0.2,0.5,0.3c0.8,1.3,1.5,2.6,2.3,4c-0.1-0.4-0.2-0.7-0.3-1.1
				c0,1.6,0,3.2,0,4.8c-0.3,1.9-3.1,2.1-0.1,1.2c-1.6,0-3.2,0-4.8,0c0.4-2.7,0.8-5.4,1.3-8.1c2.9,2.2,5.8,4.4,8.7,6.6
				c1.8,12.5-14.9-2.5-4.1-2.8c3,3,6,6,9,9c-0.1-0.2,0-0.3,0.1-0.4c-1.9,2.1-2.7,1.2-2.4-2.9c-2.5-5.8-0.4-6.1,6.3-0.8
				c-0.7,3.1-3.3,2.9-7.9-0.6c0-1.6,0-3.2,0-4.8c-0.1,0.6,12.1-1.2,7.4,3.6c-0.9,0.9-1.3,1.4-1.7,1.1C130,83.9,142.8,71.3,134,63.6
				L134,63.6z"/>
		</g>
	</g>
	<g>
		<g>
			<path fill="#AF1717" d="M141.5,50.9c-6.1-4.6-12.7-11.3-20-13.6c-3.6-1.2-7.4-1.1-11-0.1c-1.7,0.5-5.2,2.5-6.6,2
				c0.7,5.5,1.4,11,2.1,16.4c7.1-5.4,14.8-10,23.1-13.3c-2.3-5.5-4.6-11-6.9-16.4c-7.8,4.6-9.9,13.6-6,21.5
				c5.1,10.4,20.7,1.3,15.5-9.1c0.4,0.8,0.5,2.5-0.5,3.1c8.5-5,2.9-20.3-6.9-16.4c-9.8,3.8-19,8.7-27.4,15.1
				c-6.2,4.7-5.6,13.7,2.1,16.4c3.1,1.1,6.5,1.1,9.7,0.3c2-0.5,6.4-2.8,7.5-2.6c1,0.2,5.2,3.9,6.7,5.1c3.1,2.4,6.3,4.7,9.4,7.1
				c3.9,2.9,10.1,0.6,12.3-3.2C147.4,58.6,145.4,53.8,141.5,50.9L141.5,50.9z"/>
		</g>
	</g>
	<g>
		<g>
			<path fill="#AF1717" d="M144,69.7c17.9-1.6,35.9-1.5,53.8,0.3c6.5,0.7,11.6-8.3,7.8-13.5c-3.5-4.8-7.8-6.6-13.6-5.5
				c-9.8,1.8-7.7,19,2.4,17.7c16.8-2.2,33.8-2.3,50.6,0.5c4.8,0.8,9.7-1.3,11.1-6.3c1.2-4.3-1.5-10.3-6.3-11.1
				c-18.4-3.1-36.9-3.6-55.4-1.2c0.8,5.9,1.6,11.8,2.4,17.7c0.3-0.1,0.7-0.1,1-0.2c-1.6,0-3.2,0-4.8,0c-0.1-0.1-0.2-0.1-0.3-0.2
				c-1.1-1.1-2.2-2.2-3.2-3.2c0.2,0.3,0.4,0.6,0.6,0.8c2.6-4.5,5.2-9,7.8-13.5c-17.9-1.8-35.9-1.9-53.8-0.3c-4.8,0.4-9,3.8-9,9
				C135,65.2,139.1,70.1,144,69.7L144,69.7z"/>
		</g>
	</g>
	<g>
		<g>
			<path fill="#AF1717" d="M274.5,87c-1.1,0.4-0.9,0.4,0.6,0c-1.6-5.8-3.2-11.6-4.8-17.4c-8.3,3-15.6,7.6-21.5,14.2
				c4.7,3.6,9.4,7.3,14.1,10.9c6.1-12.7-3.4-24.5-16.4-25.8c-6.2-0.6-12.7,0.7-18.7,2.3c-6.4,1.8-13.6,4.4-15.1,11.6
				c-1,4.6,1.3,9.9,6.3,11.1c5.6,1.3,11.7,1.4,16.1-2.9c4.5-4.3,5-10.8,1.6-15.9c-5.8-8.5-18.4-8.8-26.7-4.3
				c-7.9,4.3-4.2,16.8,4.5,16.8c5.8,0,10.4-2.7,13.4-7.6c2.6-4.2,0.8-9.7-3.2-12.3c-7.2-4.6-15.6-7.2-24.1-7.4
				c-4.8-0.1-10.3,0.3-14,3.8c-3.4,3.1-4.6,7.8-4.8,12.2c-0.5,8,3.4,16.6,11.9,18.5c8.6,2,17.3-4.1,17.4-13.1
				c0-6.4-5.7-9.6-11.4-8.7c-12.9,2-24,13.1-25.9,26c-0.7,4.8,1.2,9.7,6.3,11.1c4.3,1.2,10.3-1.5,11.1-6.3
				c1.1-7.5,5.9-12.3,13.4-13.5c-3.8-2.9-7.6-5.8-11.4-8.7c0-7.7,4.5-3.9,6.8-3c-0.1,0,0-0.4-0.1-0.4c0-0.5,0-1,0-1.4
				c0-1-0.8-0.5-2.3,1.6c0,0,3.8-0.1,4-0.1c5.2,0.2,9.9,2.1,14.2,4.9c-1.1-4.1-2.2-8.2-3.2-12.3c0.7-0.4,1.4-0.9,2.1-1.3
				c1.5,5.6,3,11.2,4.5,16.8c1.7-0.9,3-0.9,4.1,0.6c-0.8-1.3-1.5-2.6-2.3-4c0,0,0,0,0,0c0.4-1.5,0.8-3,1.2-4.5
				c0.1-0.2,0.1-0.4,0.2-0.5c1.5-0.4,3-0.8,4.5-1.2c-1.1,0.3-2.1,0.3-3.1-0.1c2.1,3.7,4.2,7.4,6.3,11.1c0.1-0.4,0.2-0.8,0.3-1.2
				c-0.8,1.3-1.5,2.6-2.3,4c2-2.4,9.9-3.2,13-3.5c1.8-0.2,3.6,0.2,5.4,0.2c1.9,0-0.3,1.3,1-1.4c-1.9,4-1.4,8.8,2.3,11.6
				c3.4,2.5,8.8,2.7,11.8-0.7c3.8-4.3,8.1-7.6,13.5-9.6c10.9-3.9,6.6-19.7-4.8-17.4c-3.4,0.7-6,2.4-8.6,4.6
				C253.2,82.1,265.9,94.8,274.5,87L274.5,87z"/>
		</g>
	</g>
	<g>
		<g>
			<path fill="#AF1717" d="M192.3,114.3c-3.5,1.6-7,3.3-10.6,4.9c-4.3,2-5.7,8.5-3.2,12.3c2.8,4.4,7.7,5.4,12.3,3.2
				c3.5-1.6,7-3.3,10.6-4.9c4.3-2,5.7-8.5,3.2-12.3C201.8,113.1,196.9,112.1,192.3,114.3L192.3,114.3z"/>
		</g>
	</g>
	<g>
		<g>
			<path fill="#AF1717" d="M185.1,117.6c-8.6,0.6-16.5-0.7-24.4-4.1c-4.5-1.9-9.9,2-11.1,6.3c-1.4,5.2,1.8,9.2,6.3,11.1
				c9.2,3.9,19.3,5.5,29.2,4.7c4.8-0.3,9-3.9,9-9C194.1,122,189.9,117.2,185.1,117.6L185.1,117.6z"/>
		</g>
	</g>
	<g>
		<g>
			<path fill="#AF1717" d="M129.4,37.5c4.4-1.9,8.6-4.1,12.7-6.6c4.2-2.5,1.5-10-3.5-8.2c-5.5,2-9.7,5.2-13.1,10.1
				c-2.7,3.8,2.5,8.3,6.2,6.2c4.7-2.8,9.4-5.6,14.5-7.6c5-2,10.4-3,15.7-4.1c10.8-2.3,21.7-4.5,32.5-6.8c5.7-1.2,3.3-9.9-2.4-8.7
				c-11.5,2.4-23,4.8-34.4,7.2c-11.2,2.4-20.6,6.4-30.4,12.2c2.1,2.1,4.1,4.1,6.2,6.2c2-2.8,4.5-4.8,7.7-5.9
				c-1.2-2.7-2.3-5.5-3.5-8.2c-4.1,2.5-8.3,4.7-12.7,6.6C119.5,32.1,124.1,39.8,129.4,37.5L129.4,37.5z"/>
		</g>
	</g>
	<g>
		<g>
			<path fill="#AF1717" d="M126.7,31.8c23.6-8.3,47.9-14.2,72.7-17.4c5.5-0.7,6-9.1,0-9c-5.7,0.1-11.3,0.9-16.9,2.3
				c-5.6,1.5-3.2,10.1,2.4,8.7c2.1-0.5,4.2-1,6.3-1.6c5.6-1.4,3.2-10.1-2.4-8.7c-2.1,0.5-4.2,1-6.3,1.6c0.8,2.9,1.6,5.8,2.4,8.7
				c4.8-1.2,9.5-1.9,14.5-2c0-3,0-6,0-9c-25.6,3.3-50.7,9.2-75.1,17.7C118.9,25.1,121.3,33.8,126.7,31.8L126.7,31.8z"/>
		</g>
	</g>
	<g>
		<g>
			<path fill="#AF1717" d="M197.7,13.2c12.6-1.9,25.3,0.2,38-1.5c5.4-0.7,3.4-8.4-1.2-8.8c-6-0.6-11.9-0.5-17.9,0.2
				c-5.6,0.7-6,8.8,0,9c8,0.2,15.9,1.1,23.7,2.6c3.2,0.6,6.7-2.1,5.5-5.5c-1.2-3.7-3.6-6.2-7.5-7.1c-5.6-1.3-8,7.3-2.4,8.7
				c0.4,0.3,0.8,0.6,1.2,0.9c1.8-1.8,3.7-3.7,5.5-5.5c-8.6-1.7-17.3-2.7-26.1-3c0,3,0,6,0,9c6-0.7,11.9-0.8,17.9-0.2
				c-0.4-2.9-0.8-5.9-1.2-8.8c-12.6,1.7-25.3-0.4-38,1.5C189.6,5.4,192.1,14.1,197.7,13.2L197.7,13.2z"/>
		</g>
	</g>
	<g>
		<g>
			<path fill="#AF1717" d="M228.8,7.7c-7.1-1.2-14.2-1.6-21.4-0.6c-5,0.7-12.4,1.1-15.2,6c-1.7,2.9,0.5,6.8,3.9,6.8
				c7.8-0.1,15.6-0.1,23.4-0.2c3.3,0,7-0.4,10.3,0.3c4.2,0.8,6.1,3.9,8.2,7.3c3,4.9,10.8,0.4,7.8-4.5c-4.7-7.6-10.1-11.8-19.3-12.1
				c-10.1-0.3-20.3,0.1-30.4,0.2c1.3,2.3,2.6,4.5,3.9,6.8c-0.8,0.6-0.4,0.5,1.4-0.2c1.2-0.3,2.4-0.6,3.6-0.9c2.3-0.5,4.6-0.8,7-0.9
				c4.8-0.3,9.6-0.1,14.4,0.8C232,17.4,234.5,8.7,228.8,7.7L228.8,7.7z"/>
		</g>
	</g>
	<g>
		<g>
			<path fill="#AF1717" d="M237.8,17.7c0,0-0.1,0-0.1-0.1c0.4,0.2,0.7,0.3,1.1,0.5c-0.4-0.2-0.8-0.4-1.2-0.7
				c0.3,0.2,0.6,0.5,0.9,0.7c-0.3-0.3-0.6-0.6-0.9-0.9c0.2,0.3,0.5,0.6,0.7,0.9c-0.1-0.1-0.2-0.2-0.3-0.4c-0.6-1-1.5-1.8-2.7-2.1
				c-1.1-0.3-2.5-0.2-3.5,0.5c-1,0.6-1.8,1.5-2.1,2.7c-0.3,1.1-0.2,2.5,0.5,3.5c0.5,0.8,1.1,1.6,1.8,2.2c1.1,0.9,2,1.4,3.3,1.9
				c1,0.4,2.6,0.1,3.5-0.5c0.9-0.5,1.8-1.6,2.1-2.7c0.3-1.2,0.2-2.4-0.5-3.5c-0.2-0.3-0.5-0.6-0.7-0.9
				C239.2,18.3,238.5,17.9,237.8,17.7L237.8,17.7z"/>
		</g>
	</g>
	<g>
		<g>
			<path fill="#AF1717" d="M235.8,26.7c0.7,3.1,2.8,5.7,5.5,7.3c2,1.2,5,0.5,6.2-1.6c1.1-2.2,0.5-4.9-1.6-6.2
				c-0.1-0.1-0.3-0.3-0.5-0.3c0.5,0.4,0.6,0.5,0.4,0.3c-0.1-0.1-0.1-0.1-0.2-0.2c-0.1-0.1-0.3-0.3-0.4-0.4c-0.1-0.1-0.1-0.1-0.2-0.2
				c-0.2-0.3-0.1-0.1,0.3,0.4c-0.1-0.3-0.4-0.7-0.6-1c-0.4-0.7,0.2,0.7,0.1,0.2c-0.1-0.2-0.1-0.4-0.2-0.7c-0.6-2.3-3.3-3.9-5.5-3.1
				C236.6,22,235.2,24.3,235.8,26.7L235.8,26.7z"/>
		</g>
	</g>
	<g>
		<g>
			<path fill="#AF1717" d="M240.9,32.7c3.9,2.9,5.6,7.6,3.3,12.1c-2.7,5.1,5.1,9.7,7.8,4.5c4.8-9.2,1.4-18.5-6.5-24.4
				C240.8,21.5,236.3,29.3,240.9,32.7L240.9,32.7z"/>
		</g>
	</g>
	<g>
		<g>
			<path fill="#AF1717" d="M253.9,52.7c1.7-1,3.1-2.5,5.2-2.5c2.1-0.1,4.3,0.8,6.2,1.5c4.2,1.4,6.5-3.4,5.1-6.6
				c-0.9-2.2-2.1-4.2-3.5-6.1c-2.4,1.8-4.7,3.6-7.1,5.5c2,1.8,3.6,3.6,5.1,5.8c3.2,4.9,10.3,0.7,7.8-4.5c-1.3-2.6-3.6-4.4-6.5-5
				c-5.7-1.2-8.1,7.5-2.4,8.7c1.1,0.2,0.6-0.1,1.1,0.9c2.6-1.5,5.2-3,7.8-4.5c-1.9-2.8-4-5.4-6.5-7.7c-3.6-3.2-10.3,1.2-7.1,5.5
				c1.5,1.9,2.6,3.9,3.5,6.1c1.7-2.2,3.4-4.4,5.1-6.6c-3.1-1.1-6.3-2-9.6-1.8c-3.5,0.3-5.8,2.1-8.7,3.7
				C244.4,47.8,248.9,55.6,253.9,52.7L253.9,52.7z"/>
		</g>
	</g>
	<g>
		<g>
			<path fill="#AF1717" d="M195.3,18.8c-0.8,1.5-1.4,3-1.8,4.7c1,0.3,1.9,0.5,2.9,0.8c0.2-0.5,0.5-1,0.7-1.6
				c-0.9-0.4-1.7-0.7-2.6-1.1c0.1,8-1.2,15.8-3.9,23.2c-1.1,2.8-2.8,6.6,1.5,7.2c0.5,0.1,1.1-0.3,1.3-0.7c1.2-2-1.3-3.9-0.8-1.5
				c0.3,1.5,1.5,2.6,2.7,3.3c1.6,1,3.1-1.6,1.5-2.6c-1.4-0.9-1.2-3-1.8-4.4c-0.2-0.5-0.8-0.7-1.3-0.7c-1.2,0-2,0.3-2.5,1.5
				c-0.4,1-0.6,2.2,1.2,1.2c0.9-0.5,1.6-4.2,1.9-5c2.3-7,3.2-14.2,3.2-21.5c0-1.3-1.7-2-2.6-1.1c-1.1,1.2-1.2,1.3-1.5,2.9
				c-0.3,1.9,2.4,2.7,2.9,0.8c0.2-1.4,0.7-2.7,1.5-4C198.8,18.6,196.2,17.1,195.3,18.8L195.3,18.8z"/>
		</g>
	</g>
	<g>
		<g>
			<path fill="#AF1717" d="M242,48.4c-3.9-1.1-8-1-11.8,0.4c-1.8,0.7-1,3.6,0.8,2.9c3.4-1.2,6.7-1.4,10.2-0.4
				C243.1,51.8,243.9,48.9,242,48.4L242,48.4z"/>
		</g>
	</g>
	<g>
		<g>
			<path fill="#AF1717" d="M132.6,36.7c-1.9,3.5-2.4,7.3-1.6,11.2c0.4,1.9,3.3,1.1,2.9-0.8c-0.7-3.1-0.2-6.2,1.3-8.9
				C136.1,36.5,133.6,35,132.6,36.7L132.6,36.7z"/>
		</g>
	</g>
	<g>
		<g>
			<path fill="#AF1717" d="M96.7,39.3c-2,0.5-3.5,2-4.1,3.9C92.1,45,95,45.8,95.5,44c0.3-0.9,1-1.5,2-1.8
				C99.4,41.7,98.6,38.8,96.7,39.3L96.7,39.3z"/>
		</g>
	</g>
	<g>
		<g>
			<path fill="#AF1717" d="M67,59c-6.5,5.6-13.2,11.1-19.3,17.2c-1.4,1.4,0.8,3.5,2.1,2.1c6-6.1,12.8-11.6,19.3-17.2
				C70.6,59.8,68.4,57.7,67,59L67,59z"/>
		</g>
	</g>
	<g>
		<g>
			<path fill="#AF1717" d="M59.6,99.5c-2,2.4-4.2,4.5-6.7,6.2c-1.6,1.1-0.1,3.7,1.5,2.6c2.8-1.9,5.2-4.1,7.4-6.7
				C62.9,100.2,60.8,98.1,59.6,99.5L59.6,99.5z"/>
		</g>
	</g>
	<g>
		<g>
			<path fill="#AF1717" d="M358.7,102c-1-1.2-1.9-2.6-2.6-4c-0.9-1.7-3.5-0.2-2.6,1.5c0.9,1.6,1.9,3.2,3.1,4.6
				c0.5,0.6,1.6,0.5,2.1,0C359.3,103.5,359.2,102.6,358.7,102L358.7,102z"/>
		</g>
	</g>
	<g>
		<g>
			<path fill="#AF1717" d="M280.3,126.2c-0.6,2.2-1.2,4.5-1.8,6.7c-0.4,1.4,1.5,2.6,2.5,1.5c2.3-2.5,3.9-5.3,4.8-8.6
				c0.5-1.6-2-2.7-2.7-1.2c-1.5,3.1-3,6.2-4.5,9.2c-0.9,1.9-1.5,2.1-3.6,1.9c-1.6-0.1-3.3-0.3-4.9-0.4c0.3,0.9,0.5,1.9,0.8,2.8
				c2.4-1.5,4.8-2.5,7.5-3.1c1.9-0.5,1.1-3.3-0.8-2.9c-2.9,0.7-5.7,1.9-8.2,3.4c-1.3,0.8-0.7,2.7,0.8,2.8c2.6,0.2,7.8,1.8,9.8-0.5
				c1.2-1.3,1.7-3.3,2.5-4.9c1.1-2.3,2.2-4.5,3.3-6.8c-0.9-0.4-1.8-0.8-2.7-1.2c-0.8,2.8-2.1,5.1-4,7.3c0.8,0.5,1.7,1,2.5,1.5
				c0.6-2.2,1.2-4.5,1.8-6.7C283.7,125.1,280.8,124.3,280.3,126.2L280.3,126.2z"/>
		</g>
	</g>
	<g>
		<g>
			<path fill="#AF1717" d="M254.4,133.2c-1.7-0.6-3.7-0.1-4.8,1.3c-0.6,0.7-0.6,1.9,0.3,2.4c1.1,0.6,2.2,1.1,3.3,1.7
				c1.7,0.9,3.2-1.7,1.5-2.6c-1.1-0.6-2.2-1.1-3.3-1.7c0.1,0.8,0.2,1.6,0.3,2.4c0.6-0.7,1.2-0.8,1.9-0.5c0.8,0.3,1.6-0.3,1.8-1
				C255.7,134.2,255.2,133.5,254.4,133.2L254.4,133.2z"/>
		</g>
	</g>
	<g>
		<g>
			<path fill="#AF1717" d="M252.6,56.5c-5.2,0.1-10.2,0.6-15.2,1.7c-1.4,0.3-1.5,2.7,0,2.9c3,0.5,6.1,0.9,9.1,1.4c0-1,0-1.9,0-2.9
				c-1.5,0.3-2.9,0.6-4.3,1.1c-1.2,0.4-1.5,2.1-0.4,2.7c1.5,0.9,2.8,1.3,4.5,1.5c1.8,0.2,1.9-2.4,0.4-2.9c-7.8-3-15.8-5.8-24.2-5.4
				c-9.2,0.4-18.7,5.4-27.9,3.1c0,1,0,1.9,0,2.9c6-2.4,12.1-3.3,18.5-2.7c1.9,0.2,1.9-2.8,0-3c-6.7-0.6-13.1,0.3-19.3,2.8
				c-1.3,0.5-1.6,2.5,0,2.9c8.1,2,15.8-1.3,23.8-2.5c10.1-1.5,19,1.3,28.3,4.8c0.1-1,0.3-2,0.4-2.9c-1-0.4-2-0.7-3-1.1
				c-0.1,0.9-0.2,1.8-0.4,2.7c1.5-0.5,2.8-0.8,4.3-1.1c1.4-0.3,1.4-2.7,0-2.9c-3-0.5-6.1-0.9-9.1-1.4c0,1,0,1.9,0,2.9
				c4.8-1,9.5-1.5,14.4-1.6C254.5,59.4,254.5,56.4,252.6,56.5L252.6,56.5z"/>
		</g>
	</g>
	<g>
		<g>
			<path fill="#AF1717" d="M141.8,131.8c2.6,1.4,5.4,2,8.3,1.7c1.9-0.2,1.9-3.2,0-3c-2.4,0.2-4.6-0.2-6.7-1.3
				C141.6,128.3,140.1,130.9,141.8,131.8L141.8,131.8z"/>
		</g>
	</g>
	<g>
		<g>
			<path fill="#AF1717" d="M190.7,133.9c3,0.6,6,1.2,8.9,1.8c1.9,0.4,2.7-2.5,0.8-2.9c-3-0.6-6-1.2-8.9-1.8
				C189.6,130.6,188.8,133.5,190.7,133.9L190.7,133.9z"/>
		</g>
	</g>
	<g>
		<g>
			<path fill="#AF1717" d="M20.7,116.4c1,1.8,4.9,5.9,2.8,8c-0.7,0.7-3.2,1.2-4.1,1.8c-1.5,1.1-2.7,2.6-2.2,4.6
				c1.3,5.4,9,3.6,12.4,2.1c-0.6-0.8-1.2-1.6-1.8-2.4c-0.6,0.5-1.1,1-1.7,1.6c-0.8,0.7-0.4,1.8,0.3,2.4c3.4,2.4,8.2-4.7,10.1-6.6
				c-0.8-0.5-1.7-1-2.5-1.5c-0.5,1.2-0.9,2.4-1.4,3.5c-0.5,1.4,1.6,2.6,2.5,1.5c3.6-4.5,7.1-9.1,10.4-13.8c-0.9-0.4-1.8-0.8-2.7-1.2
				c-2.4,6.7-7,11.8-13.3,15c-1.7,0.9-0.2,3.5,1.5,2.6c7.1-3.5,12.1-9.4,14.7-16.8c0.6-1.7-1.8-2.4-2.7-1.2
				c-3.2,4.5-6.5,8.9-10,13.2c0.8,0.5,1.7,1,2.5,1.5c0.5-1.2,0.9-2.4,1.4-3.5c0.6-1.5-1.5-2.5-2.5-1.5c-0.4,0.4-6,6.5-6.4,6.2
				c0.1,0.8,0.2,1.6,0.3,2.4c0.6-0.5,1.1-1,1.7-1.6c1.3-1.2-0.4-3-1.8-2.4c-0.9,0.3-1.7,0.7-2.6,1c-0.7-1.2-1.4-2.4-2.1-3.6
				c0.1-0.2,1.9-0.9,2.2-1.1c0.8-0.6,1.6-1.3,2-2.3c1.3-3.7-2.6-6.6-4.2-9.4C22.3,113.1,19.8,114.7,20.7,116.4L20.7,116.4z"/>
		</g>
	</g>
	<g>
		<g>
			<path fill="#AF1717" d="M36.8,125.7c1.2-0.8,1.4-2.3,0.4-3.3c-0.3-0.4-1-0.5-1.5-0.4c-2.8,0.9-5.2,2.8-6.5,5.5
				c-0.5,1.1,0.4,2.6,1.7,2.2c2.3-0.8,4-2.5,4.8-4.8c0.4-1.1-0.8-2.1-1.8-1.8c-2.5,0.5-4.6,2.6-5.1,5.1c-0.3,1.4,1.4,2.6,2.5,1.5
				c0.6-0.7,1.3-1.3,1.9-2c1.3-1.4-0.8-3.5-2.1-2.1c-0.6,0.7-1.3,1.3-1.9,2c0.8,0.5,1.7,1,2.5,1.5c0.4-1.6,1.4-2.6,3-3
				c-0.6-0.6-1.2-1.2-1.8-1.8c-0.4,1.3-1.4,2.3-2.7,2.7c0.6,0.7,1.1,1.5,1.7,2.2c1-2,2.6-3.5,4.7-4.1c-0.5-0.1-1-0.3-1.5-0.4
				c0.1-0.5,0.1-0.9,0.2-1.4C33.6,124.2,35.1,126.8,36.8,125.7L36.8,125.7z"/>
		</g>
	</g>
	<g>
		<g>
			<path fill="#AF1717" d="M34.6,125.5c0.2-0.5,0.3-1,0.5-1.5c0.2-0.7-0.3-1.7-1-1.8c-0.8-0.2-1.6,0.3-1.8,1c-0.2,0.5-0.3,1-0.5,1.5
				c-0.2,0.7,0.3,1.7,1,1.8C33.6,126.7,34.4,126.3,34.6,125.5L34.6,125.5z"/>
		</g>
	</g>
	<g>
		<g>
			<path fill="#AF1717" d="M29.6,128c0.3,0,0.7,0,1,0c0.8,0,1.5-0.7,1.5-1.5c0-0.8-0.7-1.5-1.5-1.5c-0.3,0-0.7,0-1,0
				c-0.8,0-1.5,0.7-1.5,1.5C28.1,127.4,28.7,128,29.6,128L29.6,128z"/>
		</g>
	</g>
	<g>
		<g>
			<path fill="#AF1717" d="M27.1,125c0,0.4,0,0.9,0,1.3c0,1.4,1.6,1.9,2.6,1.1c1.9-1.6,2.7-3.4,2.7-5.9c0-1.4-1.6-1.9-2.6-1.1
				c-0.7,0.6-1.5,1.2-2.2,1.8c0.7,0.7,1.4,1.4,2.1,2.1c1.3-1.3,1.5-2.3,1.2-4.1c-0.2-1.2-1.7-1.3-2.5-0.7c-1.3,1-1.6,1.9-1.8,3.5
				c-0.1,1.1,1.4,1.9,2.3,1.3c1.5-1,2-2.1,1.5-3.9c-0.4-1.2-1.6-1.4-2.5-0.7c-2.7,2.2-4.1,5-4.3,8.5c-0.1,1.2,1.3,1.8,2.3,1.3
				c0.4-0.2,0.8-0.4,1.2-0.7c-0.8-0.4-1.5-0.9-2.3-1.3c0,0.4-0.1,0.9-0.1,1.3c-0.1,0.9,1,1.8,1.9,1.4c1.4-0.5,1.6-0.6,2.6-1.7
				c-0.8-0.6-1.6-1.2-2.4-1.8c-0.6,0.9-0.7,1.1-1.1,2.1c-0.6,1.5,1.5,2.3,2.5,1.5c0.9-0.8,1.8-1.6,2.8-2.4c-0.7-0.7-1.4-1.4-2.1-2.1
				c-1.3,1.2-1.7,2.2-1.8,3.9c0.9-0.4,1.7-0.7,2.6-1.1c-2.3-2.1-5-0.5-4.4,2.5c0.3-0.6,0.7-1.2,1-1.8c-1.6,0.4-2.5,1-3.2,2.5
				c-0.7,1.4,0.7,2.7,2.1,2.1c4.6-2.2,6.8-5.5,10.2-9.2c1.7-1.8,3.9-2.2,5.7-3.6c1.9-1.5,3-4,5.5-4.7c1.9-0.5,1.1-3.4-0.8-2.9
				c-1.6,0.5-2.7,1.2-3.9,2.5c-2,2-3.9,3.1-6.3,4.6c-1.6,1-2.6,2.4-3.8,3.9c-2.3,3-4.6,5.2-8.1,6.8c0.7,0.7,1.4,1.4,2.1,2.1
				c0.5-0.4,0.9-0.8,1.4-1.1c0.8-0.2,1.2-1.1,1-1.8c-0.2,0.1-0.4,0.2-0.6,0.4c1,0.9,2.5,0.3,2.6-1.1c0.3-0.6,0.6-1.2,0.9-1.8
				c1.4-1.3-0.7-3.4-2.1-2.1c-0.9,0.8-1.8,1.6-2.8,2.4c0.8,0.5,1.7,1,2.5,1.5c0.3-0.4,0.5-0.9,0.8-1.3c1-1.4-1.2-3.1-2.4-1.8
				c-0.4,0.3-0.8,0.6-1.3,0.9c0.6,0.5,1.3,1,1.9,1.4c0-0.4,0.1-0.9,0.1-1.3c0.1-1.2-1.4-1.8-2.3-1.3c-0.4,0.2-0.8,0.4-1.2,0.7
				c0.8,0.4,1.5,0.9,2.3,1.3c0.2-2.8,1.3-4.7,3.4-6.4c-0.8-0.2-1.7-0.4-2.5-0.7c0,0.2-0.1,0.3-0.1,0.5c0.8,0.4,1.5,0.9,2.3,1.3
				c0.3-0.5,0.6-0.9,0.9-1.4c-0.8-0.2-1.7-0.4-2.5-0.7c-0.1,0.4-0.3,0.8-0.4,1.2c-1.4,1.4,0.7,3.3,2.1,2.1c0.7-0.6,1.5-1.2,2.2-1.8
				c-0.9-0.4-1.7-0.7-2.6-1.1c0.2,1.7-0.4,2.9-1.8,3.8c0.9,0.4,1.7,0.7,2.6,1.1c0-0.4,0-0.9,0-1.3C30,123.1,27,123.1,27.1,125
				L27.1,125z"/>
		</g>
	</g>
	<g>
		<g>
			<path fill="#AF1717" d="M24.6,132c1.9,0,1.9-3,0-3C22.6,129,22.6,132,24.6,132L24.6,132z"/>
		</g>
	</g>
	<g>
		<g>
			<path fill="#AF1717" d="M22.6,130.7c-0.8,1.4-0.4,3.2,1,4.1c1.4,0.9,3.2,0.3,4.1-1.1c0.4-0.7,0.1-1.7-0.5-2.1
				c-0.7-0.4-1.6-0.1-2.1,0.5c0.1-0.1,0.1-0.1,0,0c0,0,0.1,0,0.1-0.1c-0.1,0.1-0.1,0.1,0,0c0.1,0,0.1,0-0.1,0c-0.2,0-0.2,0-0.1,0
				c0.1,0,0.1,0-0.1,0c0.2,0,0.2,0,0.1,0c-0.1,0-0.1,0,0.1,0c0,0,0.1,0.1,0.1,0.1c-0.1-0.1-0.1-0.1,0,0c0,0,0-0.1-0.1-0.1
				c0.1,0.2,0.1,0.2,0,0c0,0,0,0.1,0,0.1c0-0.2,0-0.2,0-0.1c0,0.1,0,0.1,0-0.1c-0.1,0.2-0.1,0.2,0,0c0.4-0.7,0.2-1.6-0.5-2.1
				C24,129.8,23.1,130,22.6,130.7L22.6,130.7z"/>
		</g>
	</g>
	<g>
		<g>
			<path fill="#AF1717" d="M42.1,114.9c-4.3,2.8-8.3,5.9-12.1,9.3c0.8,0.6,1.6,1.2,2.4,1.8c3.6-6.4,11.4-8,16.2-13.3
				c2.8-3.1,4.9-5.7,8.6-7.6c3-1.6,5.8-3,8.2-5.4c1.4-1.4-0.8-3.5-2.1-2.1c-2.9,2.9-6.6,4.1-10,6.2c-3.3,2.1-5,5.1-7.7,7.7
				c-5,4.8-12.1,6.6-15.7,12.9c-0.9,1.5,1.1,2.9,2.4,1.8c3.6-3.2,7.4-6.2,11.5-8.8C45.2,116.4,43.7,113.8,42.1,114.9L42.1,114.9z"/>
		</g>
	</g>
	<g>
		<g>
			<path fill="#AF1717" d="M365.6,129.5c0.6,8.6,9.8,9.7,16.6,9.4c1.9-0.1,1.9-3.1,0-3c-4.8,0.2-13.1,0.3-13.6-6.4
				C368.4,127.5,365.4,127.5,365.6,129.5L365.6,129.5z"/>
		</g>
	</g>
	<g>
		<g>
			<path fill="#AF1717" d="M387.1,102.6c0.4-7.7-3.4-16.1-7.1-22.7c-3.3-5.8-8.2-10.5-15-11.7c-1.9-0.3-2.7,2.6-0.8,2.9
				c6.6,1.2,10.9,6,13.9,11.7c3,5.9,6.4,13.1,6,19.8C384,104.5,387,104.5,387.1,102.6L387.1,102.6z"/>
		</g>
	</g>
	<g>
		<g>
			<path fill="#AF1717" d="M396.3,126.3c0.8-0.4,3.4,0.3,3.8,1.4c0.1-0.4,0.1-0.8,0.2-1.2c-0.7,1.4-3.3,2.8-4.5,3.7
				c-1.6,1.2-3.2,2.3-4.8,3.3c-1.1,0.8-0.8,2.9,0.8,2.8c5.8-0.4,10.8-4.6,12-10.4c0.2-1.1-0.7-2.1-1.8-1.8c-3.2,0.8-6.4,1.7-9.7,2.5
				c-1.9,0.5-1.1,3.4,0.8,2.9c3.2-0.8,6.4-1.7,9.7-2.5c-0.6-0.6-1.2-1.2-1.8-1.8c-0.9,4.4-4.6,7.8-9.1,8.2c0.3,0.9,0.5,1.9,0.8,2.8
				c2.2-1.4,4.3-2.9,6.3-4.5c1.3-1,3.8-2.3,4.2-4c0.4-1.7-1.5-2.9-2.7-3.6c-1.8-1-3.5-1.3-5.4-0.4
				C393.1,124.6,394.6,127.2,396.3,126.3L396.3,126.3z"/>
		</g>
	</g>
	<g>
		<g>
			<path fill="#AF1717" d="M241.3,13.8c-0.9,1.8-1.5,3.4-2,5.4c-0.3,1.4,1.5,2.6,2.5,1.5c1.3-1.4,1.7-2.5,1.8-4.4c-1,0-2,0-3,0
				c-0.1,1.8-0.1,1.6,0.5,3.3c0.4,1.2,2.1,1.5,2.7,0.4c1.5-2.7,0.2-5.4-3.1-5c0.5,0.6,1,1.3,1.4,1.9c0.2-0.8,0.3-1.6,0.5-2.4
				c0.4-1.6-1.8-2.7-2.7-1.2c-1.2,2-1.1,4,1.3,4.8c0.6,0.2,1.4-0.1,1.7-0.7c0.4-1,0.8-1.9,1.3-2.9c-0.9-0.4-1.8-0.8-2.7-1.2
				c-0.4,1.4-0.4,1.4-0.3,2.8c0,0.8,0.7,1.5,1.5,1.5c1.3,0,1.9-0.2,2.7-1.2c0.6-0.8,0.9-4.5,1.6-4.8c-0.6-0.2-1.1-0.5-1.7-0.7
				c2.7,4.9,5.6,9.7,8.8,14.3c2.9,4.4,7.8,9,8.9,14.3c0.3-0.6,0.7-1.2,1-1.8c-2.3,0.7-4.6,1.3-6.9,2c0.6,0.6,1.2,1.2,1.8,1.8
				c0.2-1.1,0.3-2.2,0.5-3.3c0.2-1.4-1.4-2.6-2.5-1.5c-0.8,0.8-1.5,1.6-2.3,2.4c-1.2,1.2,0.3,3.3,1.8,2.4c2.2-1.4,3-3.2,2.3-5.7
				c-0.3-1-1.4-1.4-2.2-0.9c-2.2,1.2-2.9,3-2.3,5.3c0.2,0.9,1.4,1.4,2.2,0.9c2.2-1.5,3-3.5,2.3-6.1c-0.4-1.3-2-1.4-2.7-0.4
				c-1.1,1.5-1.8,4.1,0.6,5c2.9,1.1,3.8-2.7,4.5-4.4c0.6-1.4-1.1-3.2-2.4-1.8c-1.4,1.5-1.8,2.6-1.7,4.6c0.1,1.7,2.4,2,2.9,0.4
				c0.7-2.4,0.7-4.4-0.2-6.7c-0.4-1.2-2.1-1.5-2.7-0.4c-1.5,2.6-1.5,5,0.3,7.5c0.7,1,2.5,1,2.7-0.4c0.4-2,0.5-3.7,0.3-5.8
				c-0.1-1-0.9-1.7-1.9-1.4c-3,0.7-5.6,4.3-2.6,6.9c2.7,2.4,5.5-0.1,5.8-3c-1,0.1-2,0.3-2.9,0.4c0.2,0.8,0.3,1.7,0.5,2.5
				c0.2,0.9,1.4,1.4,2.2,0.9c0.9-0.6,1.2-0.9,1.4-1.9c-1,0-1.9,0-2.9,0c0.3,1.4,0.7,2.7,1.1,4.1c0.8-0.5,1.7-1,2.5-1.5
				c-3.4-3.7-6.8-7.4-10.1-11.2c-3-3.4-8.8-9.4-6.6-14.4c-0.9,0-1.7,0-2.6,0c4.7,6.8,8.4,14,11.2,21.8c0.8-0.5,1.7-1,2.5-1.5
				c-3.6-4.4-9.5-9.5-10.6-15.3c-1,0.3-1.9,0.5-2.9,0.8c2.1,7.2,5.2,14,9.3,20.3c0.7,1.1,2.4,0.9,2.7-0.4c0.7-2.4,0.8-4.5,0.2-6.9
				c-0.4-1.7-2.8-1.2-2.9,0.4c-0.1,1.3-0.2,2.5-0.3,3.8c0.9-0.4,1.7-0.7,2.6-1.1c-5.2-4.4-5.9-11.2-6.3-17.5
				c-0.1-1.6-2.6-2.2-2.9-0.4c-0.9,5.2,3.4,6.3,6.7,9.3c2,1.9,3.4,4.2,5.3,6.2c0.7,0.8,1.5,1.6,2.4,2.3c0.4,0.3,4,3.3,3.3,3.4
				c-1.9,0-1.9,3,0,3c3.7-0.1,4.2-4.1,1.9-6.4c-2.6-2.6-5.5-4.3-7.8-7.2c-1.4-1.7-9.2-7.8-8.8-9.7c-1-0.1-2-0.3-2.9-0.4
				c0.5,7.2,1.4,14.8,7.2,19.7c1,0.9,2.5,0.3,2.6-1.1c0.1-1.3,0.2-2.5,0.3-3.8c-1,0.1-2,0.3-2.9,0.4c0.6,1.8,0.5,3.6-0.2,5.3
				c0.9-0.1,1.8-0.2,2.7-0.4c-4-6.1-6.9-12.6-9-19.6c-0.5-1.9-3.3-1.1-2.9,0.8c1.2,6.4,7.4,11.8,11.4,16.6c0.9,1.1,3-0.1,2.5-1.5
				c-2.8-8-6.6-15.5-11.5-22.5c-0.6-0.8-2.1-1.1-2.6,0c-2.1,4.9,0.4,9.5,3.4,13.6c4.1,5.6,9.2,10.5,13.8,15.6c1,1.1,2.9-0.1,2.5-1.5
				c-0.4-1.4-0.8-2.7-1.1-4.1c-0.3-1.4-2.6-1.5-2.9,0c0,0.1,0,0.1,0,0.2c0.7,0.3,1.5,0.6,2.2,0.9c-0.2-0.8-0.3-1.7-0.5-2.5
				c-0.3-1.8-2.8-1.2-2.9,0.4c0.2-0.3,0.4-0.7,0.6-1c-0.6-0.5-1.3-1-1.9-1.4c0.3,1.7,0.2,3.4-0.2,5c0.9-0.1,1.8-0.2,2.7-0.4
				c-0.1-1.5-0.2-3-0.3-4.4c-0.9-0.1-1.8-0.2-2.7-0.4c0.8,1.7,0.9,3.4,0.2,5.1c1,0.1,2,0.3,2.9,0.4c0.3-0.8,0.6-1.7,0.9-2.5
				c-0.8-0.6-1.6-1.2-2.4-1.8c1.1-2.5-1.9,5.2,0.1,2.4c-0.9-0.1-1.8-0.2-2.7-0.4c-0.3,0.9-0.6,1.8-0.9,2.7c0.7,0.3,1.5,0.6,2.2,0.9
				c0.3-0.6,0.6-1.3,0.9-1.9c-0.7-0.3-1.5-0.6-2.2-0.9c-0.3,0.8-0.6,1.6-1,2.4c0.6,0.8,1.2,1.6,1.8,2.4c0.8-0.8,1.5-1.6,2.3-2.4
				c-0.8-0.5-1.7-1-2.5-1.5c-0.2,1.1-0.3,2.2-0.5,3.3c-0.2,1.1,0.6,2.2,1.8,1.8c2.3-0.7,4.6-1.3,6.9-2c0.8-0.2,1.2-1,1-1.8
				c-1.1-5.2-5.3-9.3-8.2-13.5c-3.5-5.1-6.7-10.4-9.8-15.8c-0.3-0.5-1.1-0.9-1.7-0.7c-1,0.4-1.4,0.5-2,1.4c-0.5,0.7-1.3,4.5-1.6,4.5
				c0.5,0.5,1,1,1.5,1.5c0.1-0.7,0.2-1.4,0.2-2c0.5-1.6-2-2.7-2.7-1.2c-0.4,1-0.8,1.9-1.3,2.9c0.6-0.2,1.1-0.5,1.7-0.7
				c0.2-0.1,0.3-0.3,0.5-0.4c-0.9-0.4-1.8-0.8-2.7-1.2c-0.2,0.8-0.3,1.6-0.5,2.4c-0.2,0.8,0.4,2,1.4,1.9c0.2,0.2,0.4,0.3,0.5,0.5
				c0.9,0.1,1.8,0.2,2.7,0.4c-0.1-0.8-0.3-1.7-0.4-2.5c0.1-1.9-2.9-1.9-3,0c-0.3,0.8-0.6,1.6-1,2.3c0.8,0.5,1.7,1,2.5,1.5
				c0.3-1.7,0.9-3.2,1.7-4.7C244.7,13.6,242.2,12.1,241.3,13.8L241.3,13.8z"/>
		</g>
	</g>
</g>
<g id="Layer_3">
	<g>
		<g>
			<path fill="#C0E7F9" d="M183.3,24.8c-2.6,1.8-3.9,4.1-3.7,7.3c0.1,1.1,0.9,1.6,1.9,1.4c4.1-0.6,6.8-3.3,7.4-7.3
				c0.2-1-0.4-1.8-1.4-1.9c-3-0.3-5.1,1.8-4.8,4.8c0.1,1.1,1.2,1.9,2.3,1.3c2-1,2.9-2.5,2.9-4.8c0-0.7-0.5-1.3-1.1-1.4
				c-3.8-1.1-6.2,2.2-4.4,5.5c0.5,0.9,1.7,1,2.4,0.3c1.9-1.9,3.8-3.5,6-5c-0.8-0.4-1.5-0.9-2.3-1.3c-0.2,3.1-0.7,6.1-1.5,9.1
				c1,0.3,1.9,0.5,2.9,0.8c0.5-2.3,1.3-4.2,2.5-6.2c-0.9-0.3-1.9-0.5-2.8-0.8c-0.4,6.7-3.1,12.7-5.9,18.7c-0.7,1.5,1.1,3.1,2.4,1.8
				c5.5-5.6,7.3-13.4,5-20.9c-0.2-0.8-1-1.3-1.8-1c-10.2,2.8-20.4,5.6-30.5,8.4c-5.1,1.4-10.2,2.8-15.3,4.2c-2.1,0.6-5,1-6.1,3.2
				c-4.9,10,32.6,6.8,36,6.7c2.6-0.1,7.8,0.7,10-1.2c1.8-1.5,2-5.1,2.6-7.1c0.6-2.3,2.3-10.1-3-7.6c-2,0.9-6.1,5.9-2.6,7.5
				c4.2,2,5.3-4.4,3.5-6.8c-0.5-0.6-1.3-1-2.1-0.5c-2,1.4-5,3.8-2.9,6.5c1.4,1.8,4.2,1.5,5.2-0.5c1-2-0.2-4.2-2.5-4.6
				c-3.4-0.5-4.7,2.9-4.9,5.6c-0.1,0.9,1,1.8,1.9,1.4c2.6-1.1,6.9-3.1,6.7-6.6c-0.1-2.2-2.6-4-4.5-2.4c-1.7,1.4-1.2,3.9,0.5,5
				c2.8,1.8,5.5-0.8,7-3c1-1.4-1.2-2.9-2.4-1.8c-1,0.9-1.1,1.4-0.8,2.7c0.1,0.5,0.6,1,1,1c1.3,0.2,1.8,0.2,2.7-0.9
				c1.2-1.5-0.8-3.6-2.1-2.1c-1.1,1.2-2,2.4-2.9,3.9c0.9,0.5,1.7,1,2.6,1.5c3-5.8-3-9.1-8.2-8.4c0.6,0.7,1.1,1.5,1.7,2.2
				c0.9-1.8,1.9-3.5,3-5.2c0.8-1.2-0.5-2.4-1.7-2.2c-10.1,1.6-20.4,5.4-30.1,8.6c-5,1.6-16.8,3.4-15.3,10.8c0.4,1.9,3.3,1.1,2.9-0.8
				c-0.9-4.5,20.3-9.4,23.4-10.3c6.5-1.9,13.2-4.3,19.9-5.4c-0.6-0.7-1.1-1.5-1.7-2.2c-1.1,1.7-2,3.4-3,5.2
				c-0.7,1.3,0.4,2.4,1.7,2.2c1.6,1.3,3.2,2.6,4.8,4c-0.9,1.7,1.6,3.2,2.6,1.5c0.6-1.2,1.4-2.3,2.4-3.3c-0.7-0.7-1.4-1.4-2.1-2.1
				c0.4,0.4,0.9,0.9,1.3,1.3c-0.8-0.6-1.6-1.2-2.4-1.8c-2.3,2.4-4.9,4.3-7.9,5.6c0.6,0.5,1.3,1,1.9,1.4c1.2-1.5,2.4-2.9,3.5-4.4
				c-0.7-0.2-1.4-0.4-2.1-0.5c1.1,2.3,2.1,2.5,3,0.7c-0.4,0.7-0.7,1.5-0.8,2.3c-0.5,1.5-0.7,3.5-1.4,5c0,1.8-1.1,2.7-3.1,2.5
				c-0.9,0.1-1.9,0.1-2.8,0.1c-2.2,0.1-4.4,0.2-6.6,0.3c-8,0.2-16.8,1.1-24.7-0.1c-0.8-0.1-1.7-0.2-2.4-0.5c-1-2.4-0.4-3.6,1.8-3.5
				c1.5-0.8,4.1-1.1,5.7-1.6c4.5-1.2,8.9-2.5,13.4-3.7c8.9-2.5,17.8-4.9,26.7-7.4c-0.6-0.3-1.2-0.7-1.8-1c2,6.5,0.5,13-4.3,17.9
				c0.8,0.6,1.6,1.2,2.4,1.8c3-6.5,5.8-13,6.3-20.2c0.1-1.5-2.1-2-2.8-0.8c-1.4,2.2-2.2,4.4-2.8,6.9c-0.4,1.9,2.4,2.7,2.9,0.8
				c0.9-3.3,1.4-6.5,1.6-9.9c0.1-1.1-1.3-1.9-2.3-1.3c-2.4,1.6-4.6,3.4-6.6,5.5c0.8,0.1,1.6,0.2,2.4,0.3c0.3-0.4,0.7-0.7,1-1.1
				c-0.4-0.5-0.7-1-1.1-1.4c-0.5,0.7-0.9,1.5-1.4,2.2c0.8,0.4,1.5,0.9,2.3,1.3c0.6-0.6,1.2-1.2,1.8-1.8c-0.5-0.6-1-1.3-1.4-1.9
				c-0.4,2.4-3,4.9-5.4,5.2c0.6,0.5,1.3,1,1.9,1.4c-0.3-2,0.4-3.6,2.2-4.7C186.5,26.3,185,23.7,183.3,24.8L183.3,24.8z"/>
		</g>
	</g>
	<g>
		<g>
			<path fill="#C0E7F9" d="M176.7,24.5c-7.5,1.8-15.2,3.2-22.6,5.5c-4.5,1.4-12.3,3.2-14.5,7.9c-0.8,1.7,1.8,3.3,2.6,1.5
				c1.4-2.9,6.6-4.3,9.3-5.3c2.9-1.1,5.9-1.9,8.9-2.6c5.7-1.4,11.4-2.7,17.1-4C179.4,26.9,178.6,24,176.7,24.5L176.7,24.5z"/>
		</g>
	</g>
	<g>
		<g>
			<path fill="#C0E7F9" d="M189.6,23.2c-5.3-0.5-10.5,0.2-15.5,2.2c-1.8,0.7-1,3.6,0.8,2.9c4.7-1.8,9.6-2.5,14.7-2.1
				C191.5,26.4,191.5,23.4,189.6,23.2L189.6,23.2z"/>
		</g>
	</g>
	<g>
		<g>
			<path fill="#C0E7F9" d="M186.2,29.2c-1.6,1.5-2.8,3-3.8,4.9c0.9,0.5,1.7,1,2.6,1.5c0.5-1.1,1.1-2.2,1.6-3.4
				c-0.9-0.3-1.9-0.5-2.8-0.8c-0.1,0.2-0.2,0.5-0.3,0.7c-1,1.1,0,2.9,1.5,2.5c2.3-0.7,3.3-2.1,3.6-4.4
				C188.7,29.2,187.2,28.7,186.2,29.2c-3.1,1.5-5.1,3.8-6.1,7.2c-0.4,1.3,1.1,2.3,2.2,1.7c1-0.5,1.9-1,2.9-1.6
				c-0.6-0.8-1.2-1.6-1.8-2.4c-2.5,2-2.4,5-3.9,7.6c-0.8,1.4,0.8,2.7,2.1,2.1c2-0.9,3.2-2.1,4.4-3.9c1-1.5-1.1-2.9-2.4-1.8
				c-1.3,1.2-1.3,1.3-1.9,3c-0.3,1.1,0.8,2.1,1.8,1.8c2.4-0.6,3.5-2.1,3.7-4.5c0.1-1.3-1.3-1.7-2.3-1.3c-2.5,1.1-4.8,2.4-7,3.8
				c-0.9,0.6-1,2,0,2.6c0.1,0.1,0.2,0.1,0.2,0.2c0.6,0.3,1.4,0.2,1.8-0.2c0.7-0.7,0.8-1.2,0.6-2.1c-0.2-0.6-0.8-1.2-1.4-1.1
				c-1.9,0.2-1.9,1.2-3,2.5c-0.9,1-0.1,3.1,1.5,2.5c2-0.7,2.9-1.4,3.8-3.4c0.6-1.3-0.4-2.4-1.7-2.2c-2.2,0.3-3,1.2-3.8,3.2
				c-0.4,1.1,0.8,2.2,1.8,1.8c2.2-0.8,5.7-3.4,3-5.9c-2.4-2.2-4.6,0.8-5.4,2.8c-0.6,1.4,1.2,2.2,2.2,1.7c1.9-0.8,3-1.9,3.9-3.8
				c0.4-0.8,0.1-2-0.9-2.2c-1.8-0.3-3.1-0.3-4.9,0.3c0.6,0.6,1.2,1.2,1.8,1.8c1-3.9,2-7.9,2.8-11.9c0.2-1.2-0.7-2.1-1.8-1.8
				c-4.3,0.9-8.4,2.3-12.4,4.2c-1.4,0.7-0.7,2.8,0.8,2.8c2.9,0,5.6-0.3,8.4-1.4c0.5-0.2,1.1-0.5,1.6-0.7c1.6-0.6,1.9-0.8,1-0.7
				c-0.2,0.3-1.4,1.1-1.7,1.6c-1,1.4,1.3,3.1,2.4,1.8c0.4-0.5,0.7-0.9,1.1-1.4c1.2-1.5-0.7-3.5-2.1-2.1c-2.2,2.1-5,2.9-7.3,4.9
				c-1.3,1.1,0.4,3.2,1.8,2.4c1.6-0.9,2.7-1.8,3.9-3.1c1-1.1,0-2.9-1.5-2.5c-2.2,0.6-8.7,3.7-6.8,7c2,3.6,5.8-1.5,6.6-3.3
				c0.6-1.3-0.4-2.4-1.7-2.2c-3,0.4-5.2,2-6.8,4.6c-0.6,1.1,0.4,2.6,1.7,2.2c2.9-1,4.9-2.5,6.7-5c0.6-0.9-0.2-2.3-1.3-2.3
				c-4.3,0.1-7.6,2.1-9.7,5.9c-0.6,1.1,0.4,2.6,1.7,2.2c2.3-0.7,4.4-1.9,5.3-4.3c0.2-0.5,0-1.1-0.4-1.5c-3.2-2.7-7.6,1.5-9.8,3.8
				c-0.9,0.9-0.3,2.6,1.1,2.6c3.6-0.1,6.4-1.3,8.9-3.9c0.7-0.8,0.5-2.3-0.7-2.5c-4.2-0.9-7.9,0.6-10.2,4.3c-0.7,1.1,0.5,2.6,1.7,2.2
				c1.5-0.5,2.5-1,3.5-2.2c0.8-1,0.3-2.6-1.1-2.6c-3.2,0-5.7,1.1-7.8,3.4c-0.8,0.9-0.3,2.7,1.1,2.6c3.4-0.3,5.8-1.8,7.4-4.8
				c0.7-1.2-0.4-2.4-1.7-2.2c-3.4,0.6-5.7,2.2-7.8,4.9c-0.9,1.2,0.6,2.4,1.7,2.2c2.2-0.3,5.5-2.8,2.9-5.1c-2.6-2.3-6.5,1.1-7.9,3.1
				c-0.7,1.1,0.5,2.5,1.7,2.2c1.8-0.5,3-1,4.6-2.1c0.9-0.7,1-2.5-0.4-2.7c-3.1-0.6-5.7,0.5-7.1,3.5c-0.4,0.8-0.1,2,0.9,2.2
				c2.2,0.5,3.8-0.2,4.9-2.2c0.5-1-0.1-2.3-1.3-2.3c-2.7,0-4.3,0.9-5.9,3.1c-0.8,1.1,0.5,2.5,1.7,2.2c1.7-0.5,2.8-1.1,3.9-2.6
				c0.6-0.8,0.6-2.3-0.7-2.5c-6.6-1.3-6.3,6.7-2.2,5.4c5-1.7-1.3-9-3.9-3.1c-0.6,1.4,0.6,2.7,2.1,2.1c1.3-0.6,1.2-0.5,2.1-1.6
				c0.7-0.8,0.5-2.2-0.7-2.5c-2.4-0.5-4.2,0.4-4.8,2.9c-0.3,1.3,1,2.2,2.2,1.7c1.6-0.8,2.3-1.6,2.7-3.3c0.2-0.9-0.4-2-1.4-1.9
				c-2.1,0.1-3.1,0.7-4.1,2.6c-0.7,1.3,0.7,2.8,2.1,2.1c1.5-0.8,1.4-0.7,2.6-2c0.7-0.8,0.5-2.3-0.7-2.5c-2.4-0.4-4.1,0.5-4.7,2.9
				c-0.2,0.9,0.5,2,1.4,1.9c2.4-0.2,6.9-2.8,3.7-5.5c-3.1-2.6-5,2.1-4.3,4.5c0.2,0.8,1.1,1.2,1.8,1c2.7-0.6,4.2-2.1,5.2-4.6
				c0.5-1.2-1.2-2.4-2.2-1.7c-1.4,1-1.6,1.1-2.5,2.5c-0.7,1.1,0.5,2.5,1.7,2.2c2.6-0.7,3.8-2.3,4-5c0.1-1.1-1.3-2-2.3-1.3
				c-2.1,1.6-3.5,3.2-4.7,5.5c0.9,0.4,1.8,0.8,2.7,1.2c0.3-1.4,0.4-1.4,0.2-2.8c-0.1-1.1-1.2-1.9-2.3-1.3c-1.6,0.9-2.5,1.8-3.5,3.4
				c-0.8,1.2,0.5,2.4,1.7,2.2c2.1-0.3,3-1.3,3.6-3.2c0.3-0.9-0.5-2-1.4-1.9c-2.2,0.2-3.3,0.8-4.4,2.9c-0.8,1.5,1.1,3,2.4,1.8
				c0.7-0.7,0.9-1.1,0.9-2.2c0-0.9-0.7-1.4-1.5-1.5c-3-0.2-6.4,1.6-4.3,5c0.5,0.9,1.6,0.9,2.4,0.3c1.3-1.1,1.3-1.2,2.4-2.6
				c-0.9-0.4-1.8-0.8-2.7-1.2c-0.5,1.2-1,2.4-1.4,3.6c0.7-0.3,1.5-0.6,2.2-0.9c-1.3-0.8-1.7-0.8-3.1,0c-1,0.5-0.9,2,0,2.6
				c4.1,2.5,8.5,2.5,12.7,0.2c1.1-0.6,0.9-2.4-0.4-2.7c-1.9-0.5-3.7-0.9-5.6-1.4c-0.3,1-0.5,1.9-0.8,2.9c8.8,1.5,16.5-2.4,24.8-4.5
				c-0.4-0.9-0.8-1.8-1.2-2.7c-1.8,1-3.7,1.7-5.7,2.2c-1.7,0.4-1.3,3,0.4,2.9c4.7,0,8.6-2.4,10.7-6.6c0.5-1-0.4-2.7-1.7-2.2
				c-1.9,0.7-3.4,1.6-4.8,3c-1.3,1.2,0.3,3.1,1.8,2.4c2-1.1,3.6-2.3,5.3-3.8c-0.7-0.7-1.4-1.4-2.1-2.1c-0.9,1-1.9,2.1-2.8,3.1
				c-1,1.2,0,2.8,1.5,2.5c3-0.5,3.7-2.2,5.9-3.9c1.7-1.3,3-1.1,3.5-3.6c0.3-1.3-1-2.3-2.2-1.7c-2.2,1.2-3.9,2.5-5.6,4.3
				c-1.4,1.4,0.7,3.3,2.1,2.1c1-0.8,2-1.6,3-2.5c-0.7-0.7-1.4-1.4-2.1-2.1c-2.6,2.6-4.6,5.5-6.1,8.9c-0.8,1.7,1.5,3.2,2.6,1.5
				c0.6-0.9,1.1-1.7,1.7-2.6c1-1.5-1.1-2.8-2.4-1.8c-1.3,1-2,1.9-2.7,3.3c-0.4,0.8-0.1,2,0.9,2.2c2.2,0.4,3.9-0.2,4.8-2.3
				c0.5-1-0.3-2.7-1.7-2.2c-1.7,0.7-2.5,1.4-2.9,3.2c-0.2,0.9,0.4,2,1.4,1.9c1-0.1,1.5-0.2,2.4-0.6c-0.6-0.8-1.2-1.6-1.8-2.4
				c-0.6,0.7-0.8,0.9-1.2,1.7c-0.4,1,0,2.3,1.3,2.3c0.1,0,0.2,0,0.3,0c0.7,0,1.3-0.4,1.4-1.1c0.2-0.8,0.2-1.3-0.3-2
				c-0.3-0.4-0.8-0.8-1.3-0.7c-1.5,0.2-4,1.1-4.9-0.8c-0.3-0.6-1.1-0.8-1.7-0.7c-1.2,0.3-2,1.2-1.8,2.5c0.4,2.4,2.9,1.2,4,2.6
				c0.6-0.8,1.2-1.6,1.8-2.4c-4.3-2.6-8.2,1.3-12.6,0.1c-0.3,1-0.5,1.9-0.8,2.9c7.3,1.5,15.5-4.2,22.2-0.3c0.3-0.9,0.5-1.9,0.8-2.8
				c-4.4,0.2-8.8,0.2-13.2,0.1c-1.9,0-1.9,3,0,3c4.4,0.1,8.8,0,13.2-0.1c1.5-0.1,2.1-2,0.8-2.8c-7.6-4.5-15,1.5-22.9,0
				c-1.9-0.4-2.7,2.4-0.8,2.9c3.8,1,8.6-2.4,11.9-0.4c1.6,0.9,2.8-1.1,1.8-2.4c-0.4-0.6-0.6-0.9-1.2-1.1c-1.9-0.7-0.6,0.6-2.3,0.9
				c-0.6-0.2-1.1-0.5-1.7-0.7c0.7,1.5,1.7,2.6,3.4,3c0.6,0.1,1.4,0.3,2,0.1c2.3-0.7,0.3-0.1,0.8-1.9c0.5-0.4,1-0.7,1.4-1.1
				c-0.1,0-0.2,0-0.3,0c0.4,0.8,0.9,1.5,1.3,2.3c0.2-0.4,0.5-0.8,0.7-1.1c1.2-1.3-0.3-3-1.8-2.4c-0.3,0.1-0.6,0.2-0.9,0.2
				c0.5,0.6,1,1.3,1.4,1.9c0.3-0.4,0.5-0.8,0.8-1.2c-0.6-0.7-1.1-1.5-1.7-2.2c-0.5,0.3-1,0.6-1.5,0.9c0.3,0.7,0.6,1.5,0.9,2.2
				c0.4-1.2,1.1-2.1,2.2-2.7c-0.8-0.6-1.6-1.2-2.4-1.8c-0.6,0.9-1.1,1.7-1.7,2.6c0.9,0.5,1.7,1,2.6,1.5c1.4-3.1,3.2-5.8,5.7-8.3
				c1.4-1.4-0.7-3.3-2.1-2.1c-1,0.8-2,1.6-3,2.5c0.7,0.7,1.4,1.4,2.1,2.1c1.5-1.6,3.1-2.8,5-3.8c-0.7-0.6-1.5-1.1-2.2-1.7
				c-0.6,0.4-1.2,0.9-1.8,1.3c-0.5,0-1.1,0.3-1.3,0.7c-0.6,2-2.1,3.2-4.3,3.4c0.5,0.8,1,1.7,1.5,2.5c0.9-1,1.9-2.1,2.8-3.1
				c1.3-1.4-0.7-3.5-2.1-2.1c-1.4,1.4-2.9,2.4-4.7,3.3c0.6,0.8,1.2,1.6,1.8,2.4c1-1.1,2.1-1.8,3.5-2.3c-0.6-0.7-1.1-1.5-1.7-2.2
				c-1.7,3.3-4.4,5.1-8.1,5.1c0.1,1,0.3,2,0.4,2.9c2.4-0.5,4.3-1.3,6.5-2.5c1.5-0.8,0.5-3.2-1.2-2.7c-7.6,2-15.2,5.9-23.2,4.5
				c-1.9-0.3-2.7,2.4-0.8,2.9c1.9,0.5,3.7,0.9,5.6,1.4c-0.1-0.9-0.2-1.8-0.4-2.7c-3.3,1.8-6.5,1.7-9.7-0.2c0,0.9,0,1.7,0,2.6
				c0,0,0.1,0,0.1,0c0.9,0.6,1.9,0,2.2-0.9c0.5-1.2,1-2.4,1.4-3.6c0.7-1.7-1.8-2.4-2.7-1.2c-0.6,0.7-1.3,1.3-1.9,2
				c0.8,0.1,1.6,0.2,2.4,0.3c0,0,1.4-0.5,1.7-0.5c-0.5-0.5-1-1-1.5-1.5c0,0,0,0,0,0c0.8,0.6,1.6,1.2,2.4,1.8
				c0.6-0.5,1.2-0.9,1.8-1.4c-0.5-0.6-1-1.3-1.4-1.9c-0.5,0.4-1,0.8-1.5,1.2c0.6,0.7,1.1,1.5,1.7,2.2c0.8-0.8,1.6-1.5,2.4-2.3
				c-0.8-0.4-1.5-0.9-2.3-1.3c0,0.7-0.1,1.3-0.1,2c-0.4,1.6,2,2.7,2.7,1.2c0.9-1.8,2-3.2,3.6-4.4c-0.8-0.4-1.5-0.9-2.3-1.3
				c-0.6,0.7-1.2,1.4-1.8,2.1c0.6,0.7,1.1,1.5,1.7,2.2c0.5-0.5,1-1,1.5-1.5c-0.7-0.6-1.5-1.1-2.2-1.7c-1.1,0.8-2.1,1.7-3.2,2.5
				c0.6,0.3,1.2,0.7,1.8,1c-0.7-0.4-1.5-0.8-2.2-1.2c0.5,0.6,1,1.3,1.4,1.9c0.4-0.3,0.7-0.5,1.1-0.8c-0.2-0.8-0.4-1.7-0.7-2.5
				c-0.7,0.5-1.3,1-2,1.5c0.7,0.7,1.4,1.4,2.1,2.1c0.5-0.4,1-0.7,1.5-1.1c-0.5-0.6-1-1.3-1.4-1.9c-0.4,0.5-0.9,1-1.3,1.6
				c0.7,0.6,1.5,1.1,2.2,1.7c0.4-0.3,0.8-0.5,1.1-0.8c-0.2-0.8-0.4-1.7-0.7-2.5c-0.5,0.4-1,0.7-1.5,1.1c0.7,0.7,1.4,1.4,2.1,2.1
				c0.9-0.3,1.8-0.6,2.7-0.9c-0.2-0.8-0.4-1.7-0.7-2.5c-0.9,0.6-1.7,1.2-2.6,1.8c0.6,0.7,1.1,1.5,1.7,2.2c1.1-0.5,2.2-1.1,3.3-1.6
				c-0.4-0.8-0.9-1.5-1.3-2.3c-0.5,0.3-1,0.5-1.5,0.8c0.3,0.7,0.6,1.5,0.9,2.2c1.3-0.7,2.5-1.4,3.8-2.1c-0.1-0.9-0.2-1.8-0.4-2.7
				c-1.1,1-2.4,1.6-3.8,1.8c0.6,0.7,1.1,1.5,1.7,2.2c0.5-0.8,1.1-1.6,1.6-2.4c0.6,0.7,1.1,1.5,1.7,2.2c1.7-2.2,3.5-3.1,6-3.5
				c-0.6-0.7-1.1-1.5-1.7-2.2c-0.9,2-2.5,3.1-4.8,3.3c0.4,0.9,0.7,1.7,1.1,2.6c1.7-1.8,3.3-2.5,5.7-2.5c-0.4-0.9-0.7-1.7-1.1-2.6
				c-0.7,0.5-1.5,1-2.2,1.5c0.6,0.7,1.1,1.5,1.7,2.2c1.6-2.5,3.9-3.5,6.8-2.9c-0.2-0.8-0.4-1.7-0.7-2.5c-1.8,2-4.1,3-6.8,3.1
				c0.4,0.9,0.7,1.7,1.1,2.6c1.5-1.6,7-4.6,2-3.1c0.6,0.7,1.1,1.5,1.7,2.2c1.5-2.9,3.9-4.3,7.1-4.4c-0.4-0.8-0.9-1.5-1.3-2.3
				c-1.1,1.9-2.8,3.1-4.9,3.7c0.6,0.7,1.1,1.5,1.7,2.2c1.1-1.9,2.8-2.9,5-3.2c-0.6-0.7-1.1-1.5-1.7-2.2c-1.3,2.6,2.4,1,3.6,0.6
				c-0.5-0.8-1-1.7-1.5-2.5c-0.9,1.2-2,2-3.3,2.6c0.6,0.8,1.2,1.6,1.8,2.4c1.8-1.5,2.7-1,4.1-2c1.1-0.8,2.1-1.9,3.1-2.9
				c-0.7-0.7-1.4-1.4-2.1-2.1c-0.4,0.5-0.7,0.9-1.1,1.4c0.8,0.6,1.6,1.2,2.4,1.8c1.4-2.1,2.9-1.9,2.9-4.5c0-0.5-0.3-1-0.7-1.3
				c-1.2-0.7-1.9-0.7-3.2-0.3c-4,1.2-6.5,2.9-10.9,2.9c0.3,0.9,0.5,1.9,0.8,2.8c3.8-1.8,7.6-3.1,11.6-3.9c-0.6-0.6-1.2-1.2-1.8-1.8
				c-0.8,4-1.8,7.9-2.8,11.9c-0.3,1.1,0.7,2.2,1.8,1.8c1.1-0.1,2.2-0.2,3.3-0.3c-0.3-0.7-0.6-1.5-0.9-2.2c-0.6,1.4-1.5,2.3-2.9,2.7
				c0.7,0.6,1.5,1.1,2.2,1.7c-0.4-0.2-0.9-0.4-1.3-0.6c0.6,0.6,1.2,1.2,1.8,1.8c0.6-0.4,1.1-0.7,1.7-1.1c-0.6-0.7-1.1-1.5-1.7-2.2
				c-0.7,0.7-1.4,1.3-2,2c0.5,0.8,1,1.7,1.5,2.5c-0.1,0.1,1.2-1.6,0.9-1.6c-0.5-0.4-1-0.7-1.4-1.1c0.1-0.3,0.1-0.5,0.2-0.8
				c0.6-0.1,1.2-0.2,1.8-0.2c-0.1-0.1-0.2-0.1-0.2-0.2c0,0.9,0,1.7,0,2.6c2.3-1.5,4.6-2.7,7-3.8c-0.8-0.4-1.5-0.9-2.3-1.3
				c-0.5,0.5-1,1.1-1.5,1.6c0.6,0.6,1.2,1.2,1.8,1.8c0.4-0.6,0.7-1.1,1.1-1.7c-0.8-0.6-1.6-1.2-2.4-1.8c-0.8,1.4-1.9,2.3-3.3,2.8
				c0.7,0.7,1.4,1.4,2.1,2.1c0,0,4.4-7.7,3.5-7c1.4-1.1-0.4-3.1-1.8-2.4c-1,0.5-1.9,1-2.9,1.6c0.7,0.6,1.5,1.1,2.2,1.7
				c0.8-2.5,2.4-4.3,4.8-5.5c-0.8-0.4-1.5-0.9-2.3-1.3c-0.5,0.5-0.9,1-1.4,1.5c0.5,0.8,1,1.7,1.5,2.5c1-1.1,1.1-1.4,1.2-2.9
				c0-1.4-2.1-2.1-2.8-0.8c-0.5,1.1-1.1,2.2-1.6,3.4c-0.8,1.7,1.6,3.2,2.6,1.5c0.9-1.7,2-3,3.4-4.3C189.8,30,187.6,27.9,186.2,29.2
				L186.2,29.2z"/>
		</g>
	</g>
	<g>
		<g>
			<path fill="#C0E7F9" d="M171.4,46.6c-1.8-1-3.8-1.5-5.9-1.4c-1.9,0-1.9,3,0,3c1.5,0,3,0.3,4.3,1
				C171.6,50.1,173.1,47.5,171.4,46.6L171.4,46.6z"/>
		</g>
	</g>
	<g>
		<g>
			<path fill="#C0E7F9" d="M200.1,22.8c-1.7,1.3-3.2,4.2-0.9,5.8c1.9,1.3,4.5-0.5,3.7-2.7c-0.4-0.9-1.3-1.4-2.2-0.9
				c-1.7,0.9-2.4,2.7-1.9,4.5c0.3,1,1.4,1.4,2.2,0.9c1.7-0.9,2.7-2.2,3.4-3.9c0.5-1.2-1.2-2.5-2.2-1.7c-2.4,1.8-3.7,4.2-3.9,7.3
				c0,1.1,1,1.6,1.9,1.4c1.4-0.2,2.4-1.2,2.7-2.6c0.3-1.4-1.4-2.5-2.5-1.5c-1.4,1.4-2.4,2.9-3.2,4.8c-0.3,0.6,0.2,1.3,0.7,1.7
				c1.6,1.1,3.4,0.2,4.1-1.5c0.7-1.8-2.2-2.6-2.9-0.8c0.1-0.1,0.2-0.2,0.3-0.3c0.2,0.6,0.5,1.1,0.7,1.7c0.6-1.3,1.4-2.4,2.4-3.4
				c-0.8-0.5-1.7-1-2.5-1.5c-0.2,0.2-0.4,0.3-0.6,0.5c0.6,0.5,1.3,1,1.9,1.4c0.1-1.9,0.9-3.5,2.4-4.7c-0.7-0.6-1.5-1.1-2.2-1.7
				c-0.4,1-1.1,1.6-2,2.1c0.7,0.3,1.5,0.6,2.2,0.9c-0.2-0.6,0-0.9,0.5-1.1c-0.7-0.3-1.5-0.6-2.2-0.9c0.1,0.2,1.9-1.4,2.3-1.7
				C203.7,23.7,201.6,21.6,200.1,22.8L200.1,22.8z"/>
		</g>
	</g>
	<g>
		<g>
			<path fill="#C0E7F9" d="M198,35.1c-0.6,1.8-2.4,5.3-1,7.1c0.6,0.8,1.6,1,2.4,0.3c0.1-0.1,0.1-0.1,0.2-0.2c0.7-0.6,0.5-1.5,0-2.1
				c0-0.1-0.1-0.1-0.1-0.2c-0.9-1.1-2.4-0.1-2.6,1.1c-0.2,1.6-0.3,3.2-0.5,4.7c-0.1,0.8,0.8,1.5,1.5,1.5c14.4,0.4,28.8-1.5,43.1-0.2
				c0.8,0.1,1.5-0.8,1.5-1.5c0.1-1.4,0.1-2.7-0.1-4.1c-0.2-1.9-3.2-1.9-3,0c0.1,1.4,0.2,2.7,0.1,4.1c0.5-0.5,1-1,1.5-1.5
				c-14.3-1.3-28.8,0.7-43.1,0.2c0.5,0.5,1,1,1.5,1.5c0.2-1.6,0.3-3.2,0.5-4.7c-0.9,0.4-1.7,0.7-2.6,1.1c0,0.1,0.1,0.1,0.1,0.2
				c0-0.7,0-1.4,0-2.1c-0.1,0.1-0.1,0.1-0.2,0.2c0.8,0.1,1.6,0.2,2.4,0.3c-0.4-0.5,1.2-4.4,1.3-4.8C201.6,34.1,198.7,33.3,198,35.1
				L198,35.1z"/>
		</g>
	</g>
	<g>
		<g>
			<path fill="#C0E7F9" d="M241.1,48.5c0.2,0,0.3,0,0.5,0c0.8,0,1.5-0.7,1.5-1.5c0-0.8-0.7-1.5-1.5-1.5c-0.2,0-0.3,0-0.5,0
				c-0.8,0-1.5,0.7-1.5,1.5C239.6,47.9,240.2,48.5,241.1,48.5L241.1,48.5z"/>
		</g>
	</g>
	<g>
		<g>
			<path fill="#C0E7F9" d="M241.9,48.4c0.3-0.2,0.7-0.3,1-0.5c0.7-0.4,0.9-1.4,0.5-2.1c-0.4-0.7-1.3-0.9-2.1-0.5
				c-0.3,0.2-0.7,0.3-1,0.5c-0.7,0.4-0.9,1.4-0.5,2.1C240.2,48.6,241.1,48.8,241.9,48.4L241.9,48.4z"/>
		</g>
	</g>
	<g>
		<g>
			<path fill="#C0E7F9" d="M244.2,46.2c4.4-6.2-1.8-12.4-6.3-16.3c-3.1-2.7-6.6-5.2-10.3-7.1c-4-2-7.7-1.7-12.1-1.4
				c-4.4,0.2-16.3-1.2-17.7,5c-0.4,1.7,0.2,3.5,2,4.1c2.5,0.8,4.3-1.3,5.7-3c-0.9-0.5-1.7-1-2.6-1.5c-0.9,1.4-1.4,2.7-1.8,4.3
				c-0.3,1.2,0.7,2.1,1.8,1.8c7.4-1.4,3.9-11.3-1.5-5.2c-4.6,5.2,4,10.2,5.6,2.1c0.2-1.2-1-2.5-2.2-1.7c-2.5,1.6-6.5,4.3-5.6,7.8
				c0.5,2,2.6,3.4,4.5,2.3c1.5-0.8,2.3-3.4,0.5-4.4c-2.5-1.4-4.8,3.2-5.6,4.7c-0.6,0.9,0.1,2.3,1.3,2.3c1.8-0.1,2.1-0.2,3.7-0.9
				c-0.7-0.7-1.4-1.4-2.1-2.1c-1.2,1.6-1.9,3.2-2.5,5.1c-0.5,1.5,1.4,2.4,2.5,1.5c1.5-1.3,2.1-2.3,2.4-4.2c0.2-1.3-1.4-2.7-2.5-1.5
				c-1.5,1.7-2.5,3.5-3.4,5.6c-0.6,1.5,1.5,2.3,2.5,1.5c1.1-0.9,2.3-1.8,3.4-2.8c-0.7-0.7-1.4-1.4-2.1-2.1c-0.8,0.9-1.6,1.8-2.1,2.9
				c-0.3,0.6-0.3,1.3,0.2,1.8c2.4,2.6,5.3-1.2,6.9-2.7c1.3-1.2-0.3-3.1-1.8-2.4c-1.7,0.9-2.4,1.8-2.8,3.7c-0.2,1.1,0.7,2.2,1.8,1.8
				c2.4-0.6,3.8-1.7,5.3-3.7c1.1-1.6-1.5-3.1-2.6-1.5c-1.2,0.8-2.3,1.5-3.5,2.3c0.6,0.6,1.2,1.2,1.8,1.8c0.5-0.7,0.9-1.3,1.4-2
				c-0.6-0.8-1.2-1.6-1.8-2.4c-1,0.8-1.8,1.8-2.6,2.7c0.1,0.6,0.2,1.2,0.2,1.8c0.4-0.8,1-1.6,1.6-2.3c1.3-1.5-0.6-3.3-2.1-2.1
				c-1.1,0.9-2.3,1.8-3.4,2.8c0.8,0.5,1.7,1,2.5,1.5c0.6-1.6,1.5-3,2.6-4.3c-0.8-0.5-1.7-1-2.5-1.5c-0.5,1-1.1,1.9-1.6,2.9
				c0.8,0.5,1.7,1,2.5,1.5c0.5-1.8,1.1-2.9,2.2-4.3c1-1.4-0.9-2.6-2.1-2.1c-0.7,0.2-1.5,0.4-2.2,0.5c0.4,0.8,0.9,1.5,1.3,2.3
				c0.3-0.4,0.5-0.9,0.8-1.3c1.5-1,2-2.3,1.5-3.9c0.6-2.8,0-2.2,2.9-4.1c-0.7-0.6-1.5-1.1-2.2-1.7c-0.2,1.2-0.2,1.4-0.2,0.8
				c0.2-0.9-0.4-0.8-1.8,0.2c0.6,0.6,1.2,1.2,1.8,1.8c0.2-1.3,0.7-2.5,1.5-3.5c1.1-1.7-1.5-3-2.6-1.5c-1.9,0-1.6-0.2,0.7-0.7
				c1.3-0.2,2.6-0.3,3.9-0.3c1.8-0.1,3.5-0.2,5.3-0.3c4.2-0.2,8.5-0.9,12.5,0.6c5.5,2.2,21.2,12.5,16.2,19.5
				C240.5,46.3,243.1,47.8,244.2,46.2L244.2,46.2z"/>
		</g>
	</g>
	<g>
		<g>
			<path fill="#C0E7F9" d="M209.1,42.5c0.7,0,1.3,0,2,0c0.8,0,1.5-0.7,1.5-1.5c0-0.8-0.7-1.5-1.5-1.5c-0.7,0-1.3,0-2,0
				c-0.8,0-1.5,0.7-1.5,1.5C207.6,41.9,208.2,42.5,209.1,42.5L209.1,42.5z"/>
		</g>
	</g>
	<g>
		<g>
			<path fill="#C0E7F9" d="M211,42.5c0.5-0.2,1-0.3,1.5-0.5c0.8-0.3,1.3-1,1-1.8c-0.2-0.7-1.1-1.3-1.8-1c-0.5,0.2-1,0.3-1.5,0.5
				c-0.8,0.3-1.3,1-1,1.8C209.3,42.2,210.2,42.7,211,42.5L211,42.5z"/>
		</g>
	</g>
	<g>
		<g>
			<path fill="#C0E7F9" d="M212.3,41.9c0.5-0.3,1-0.7,1.5-1c0.7-0.4,1-1.3,0.5-2.1c-0.4-0.7-1.4-1-2.1-0.5c-0.5,0.3-1,0.7-1.5,1
				c-0.7,0.4-1,1.3-0.5,2.1C210.7,42,211.7,42.3,212.3,41.9L212.3,41.9z"/>
		</g>
	</g>
	<g>
		<g>
			<path fill="#C0E7F9" d="M212.7,40.2c0.4-0.5,0.8-1,1.2-1.6c0.7-0.9,0.4-2.7-1.1-2.6c-2.1,0.2-4.2,1-5.4,2.8
				c-1,1.5-1.3,3.5,0.5,4.4c4.2,2.3,8.8-3.5,9.5-7c0.2-1.1-0.7-2.2-1.8-1.8c-2.1,0.6-4.5,1.9-5.3,4.1c-0.6,1.6,0.1,3.1,1.8,3.5
				c3.6,0.7,7.9-3.9,5.9-7.3c-2.6-4.3-8.2,0.6-9.5,3.5c-2,4.6,2.7,5.5,6,3.6c2.8-1.7,8-7.9,5-11.3c-3-3.5-8.8,2.2-9.7,5
				c-0.4,1.4-0.5,3.3,0.9,4.1c1.9,1.2,4.1-0.9,5.3-2.3c1.9-2.4,4.5-9.8-1.1-9.3c-3.3,0.3-10.9,7.3-5.9,10.1c5.4,3,8.4-8.4,8.3-11.6
				c0-0.9-1-1.8-1.9-1.4c-4.5,1.7-7.2,5.6-7.3,10.4c0,1.2,1.3,1.8,2.3,1.3c2.9-1.4,7.7-5.5,6.3-9.4c-1.4-3.8-6-0.5-7.6,1.4
				c-1.3,1.7-4.1,7.8,0,8.2c3.4,0.3,5.5-5.3,5.6-7.9c0.3-11.2-13.3,1.1-8.8,5.2c2.9,2.7,6.1-0.9,6.8-3.7c0.7-2.6-0.5-6.1-3.7-4.6
				c-2.5,1.2-7.5,7.5-3.3,9.5c5,2.4,6-6.7,5.9-9.5c-0.1-1.1-1.2-1.9-2.3-1.3c-1,0.6-1.2,0.8-1.8,1.9c-0.5,1.1,0.4,2.7,1.7,2.2
				c2.3-0.9,3.1-4,0.9-5.6c-3.5-2.5-6.3,2.1-7,4.8c-0.4,1.3,1.1,2.3,2.2,1.7c0.6-0.3,1.1-0.6,1.7-0.9c-0.7-0.6-1.5-1.1-2.2-1.7
				c-0.6,3.4-1.3,6.8-2.2,10.2c-0.5,1.9,2.3,2.6,2.9,0.8c0.5-1.5,1-3.1,1.5-4.6c0.4-1.4-1.6-2.6-2.5-1.5c-1.4,1.8-5.6,7.3-1.9,9
				c3.5,1.7,6.6-4.3,7.4-6.8c0.5-1.5-1.4-2.4-2.5-1.5c-1.9,1.7-2.8,3.7-3.1,6.2c-0.2,1.4,1.7,1.8,2.6,1.1c1.5-1.2,2.1-2.8,2.1-4.7
				c0-1.3-1.7-2-2.6-1.1c-1.3,1.4-1.8,2.7-1.7,4.6c0.1,0.9,0.9,1.8,1.9,1.4c3.4-1.2,5.4-4,5.4-7.6c0-1.9-3-1.9-3,0
				c0,2.2-1.1,3.9-3.2,4.7c0.6,0.5,1.3,1,1.9,1.4c0.3-0.8,0.5-1.6,0.8-2.4c-0.9-0.4-1.7-0.7-2.6-1.1c0.1,1.1-0.3,2-1.2,2.6
				c0.9,0.4,1.7,0.7,2.6,1.1c0.2-1.8,0.9-3,2.2-4.1c-0.8-0.5-1.7-1-2.5-1.5c-0.2,0.6-2.6,4.1-2.6,4.2c-0.1-0.9,1.8-3.1,2.2-3.6
				c-0.8-0.5-1.7-1-2.5-1.5c-0.5,1.5-1,3.1-1.5,4.6c1,0.3,1.9,0.5,2.9,0.8c0.9-3.4,1.6-6.7,2.2-10.2c0.2-1.3-1-2.3-2.2-1.7
				c-0.6,0.3-1.1,0.6-1.7,0.9c0.7,0.6,1.5,1.1,2.2,1.7c0.5-1.8,0.6-2.3,2.5-3c0.6,0.7,1.1,1.5,1.7,2.2c0.2-0.3,0.5-0.5,0.7-0.8
				c-0.8-0.4-1.5-0.9-2.3-1.3c0.1,2.3-0.5,3.9-1,6.1c0.1-0.5,1-2.7,1.9-2.9c0.6-0.7,0.7-0.5,0.3,0.6c0,1.3-0.4,1.7-1.3,1.2
				c0-1,1.9-2.8,2.7-2.6c1.3,0.4,0,3.1-0.5,3.8c-1.8,2.9-0.1-0.4,0.4-1.2c0.9-1.3,3.3-3.2,1.9-0.4c-0.8,1.6-2.5,2.7-4.1,3.4
				c0.8,0.4,1.5,0.9,2.3,1.3c0-3.4,1.8-6.2,5.1-7.5c-0.6-0.5-1.3-1-1.9-1.4c0.1,2-0.3,4-1.2,5.8c-0.3,0.6-0.8,1.6-1.4,2
				c-1.3,0.9-0.5-0.2,0-1c0.3-0.5,2.2-2.4,2.9-2.1c1,0.4,0.2,2.6-0.1,3.1c-0.2,0.3-1.3,2.2-1.7,2.2c0,0,1.2-2,1.5-2.2
				c0.6-0.6,1.3-1.4,2.2-1c0.9,0.4,0.4,0.9,0.1,1.8c-0.7,1.7-2,3.3-3.6,4.2c-0.1,0.1-1.8,1-2,0.6c-0.2-0.5,1.3-2.2,1.6-2.5
				c1-1.3,1.4-1.2,1.3,0.1c0.3,0.6,0.2,1.1-0.3,1.5c-0.7,0.7-0.6,0.6,0.4-0.3c0.6-0.8,1.4-1.2,2.4-1.3c-0.6-0.6-1.2-1.2-1.8-1.8
				c-0.3,1.3-0.7,2.5-1.7,3.4c-0.6,0.6-2.9,2.4-3.7,1.4c0.1,0.5,0.3,1,0.4,1.5c0.3-1.8,1.4-2.8,3.3-2.8c-0.4-0.9-0.7-1.7-1.1-2.6
				c-0.4,0.5-0.8,1-1.2,1.6C209.4,39.5,211.5,41.7,212.7,40.2L212.7,40.2z"/>
		</g>
	</g>
	<g>
		<g>
			<path fill="#C0E7F9" d="M212.6,34c1.9,0,1.9-3,0-3C210.6,31,210.6,34,212.6,34L212.6,34z"/>
		</g>
	</g>
	<g>
		<g>
			<path fill="#C0E7F9" d="M230.7,32.8c-1.5-3.4-5.6-4.8-8.5-2.3c-1.8,1.6-3.1,5.6,0.1,6.5c3.1,0.9,7.8-1.6,7.4-5.1
				c-0.4-3.6-4.5-3.5-6.7-1.7c-2.1,1.6-3.7,5.9-0.7,7.5c3,1.6,6.2-1.9,6.4-4.7c0.2-2.9-2.9-5.7-5.8-4.3c-2.7,1.2-2.6,5.5,0.3,6.5
				c3.5,1.2,6-4,4.7-6.7c-1.5-3.1-6.2-2.2-6.2,1.3c0,1.2,1.2,1.7,2.3,1.3c2.3-1,4.8-3.9,2.4-6.2c-2.5-2.4-5,0.7-5.6,3.1
				c-0.3,1.3,1,2.3,2.2,1.7c2-1,4.4-3.3,2.4-5.6c-2.4-2.8-4.9,1.1-6.3,2.8c-0.9,1.1-0.1,2.9,1.5,2.5c2.3-0.6,3.7-2,4.1-4.4
				c0.2-1-0.4-1.8-1.4-1.9c-3.7-0.2-6.6,1.9-7.6,5.5c-0.2,0.9,0.5,2,1.4,1.9c2.7-0.2,4.4-1.5,5.1-4.1c0.3-1.2-0.7-2-1.8-1.8
				c-2.8,0.4-4.7,1.9-5.9,4.5c-0.5,1,0.1,2.2,1.3,2.3c2.5,0.1,6.4-0.8,5.7-4.3c-0.8-3.7-7-2.3-9.5-2.2c0.5,0.6,1,1.3,1.4,1.9
				c-0.1,0.1,4.2-0.1,4.4,0.2c0.4-0.2,0.5-0.1,0.3,0.2c-0.3,1.2-0.9,2.2-1.8,3c-1.1,1.1,0,2.8,1.5,2.5c1.2-0.2,2-0.6,2.9-1.3
				c1.5-1.1,0.2-3.7-1.5-2.6c-2,1.3-1.8,4.1,0.5,5.1c2.2,0.9,5.5-1.4,5.4-3.8c0-0.6-0.4-1.3-1.1-1.4c-0.1,0-0.2,0-0.4-0.1
				c-0.8-0.2-1.5,0.2-1.8,1c0,0.1-0.1,0.2-0.1,0.3c-0.3,0.7,0.3,1.7,1,1.8c2.7,0.4,4.5-0.4,6.1-2.5c1-1.3-0.8-2.7-2.1-2.1
				c-2,1.1-2.9,4.1-0.8,5.7c2.1,1.5,4.8-0.2,5.1-2.5c-1-0.1-2-0.3-2.9-0.4c0,0.9,0.1,1.8,0.1,2.7c0,1.2,1.2,1.8,2.3,1.3
				c1.3-0.6,2-1.4,2.2-2.9c0.2-1.2-0.6-2-1.8-1.8c0.2-0.2,0.4-0.3,0.6-0.5c-0.1-1.9-3.1-1.9-3,0c0.1,2.1,0.9,3.7,3.2,3.4
				c-0.6-0.6-1.2-1.2-1.8-1.8c-0.3,0.4-0.5,0.7-0.8,1.1c0.8,0.4,1.5,0.9,2.3,1.3c0-0.9-0.1-1.8-0.1-2.7c0-1.6-2.7-2.1-2.9-0.4
				c0,0.1,0,0.1,0.1,0.2c-0.7-0.7-1.4-1.4-2.1-2.1c-0.9,0.4-1.8,0.8-2.7,1.1c0.3,0.6,0.7,1.2,1,1.8c0-0.1,0.1-0.2,0.1-0.3
				c-0.6,0.3-1.2,0.7-1.8,1c0.1,0,0.2,0,0.4,0.1c-0.4-0.5-0.7-1-1.1-1.4c-0.4,0.4-0.9,0.9-1.3,1.3c-0.5-0.9-1-1.7-1.5-2.6
				c-0.6,0.6-1.3,0.9-2.2,1c0.5,0.8,1,1.7,1.5,2.5c1.8-1.9,4.6-6.7,1.3-8.5c-0.7-0.4-3.3,0-3.7,0c-0.8-0.1-1.5-0.4-2.4-0.3
				c-1.7,0.1-2.6,1-3.2,2.5c-0.4,0.9,0.6,1.9,1.4,1.9c1.3,0,3-0.3,4.3-0.1c0.5,0,1,0,1.4,0c-0.4,0.8-1.1,1-1.9,0.7
				c0.4,0.8,0.9,1.5,1.3,2.3c0.7-1.6,2.3-2.8,4.1-3.1c-0.6-0.6-1.2-1.2-1.8-1.8c-0.7,0.6-1.5,1.3-2.2,1.9c0.5,0.6,1,1.3,1.4,1.9
				c0.6-2.3,2.4-3.4,4.7-3.3c-0.5-0.6-1-1.3-1.4-1.9c-0.7,0.8-1.3,1.5-2,2.3c0.5,0.8,1,1.7,1.5,2.5c0.5-0.6,1.7-1.5,1.8-2.2
				c0.5-0.5,0.5-0.6-0.1-0.3c-0.5,0.1-1,0.3-1.4,0.6c0.7,0.6,1.5,1.1,2.2,1.7c-0.1-0.8-0.5-0.9-1.2-0.3c0.8,0.4,1.5,0.9,2.3,1.3
				c-1.5,3.7-1.4,4.7,0.3,3c1.4-1.3,1.4-0.9-0.1,1.1c-0.5,0.1-1,0.2-1.6,0.2c0.8-2.2,2.4-2.1,4.8,0.2
				C228.8,36.1,231.4,34.6,230.7,32.8L230.7,32.8z"/>
		</g>
	</g>
	<g>
		<g>
			<path fill="#C0E7F9" d="M228.1,32c1.9,0,1.9-3,0-3C226.1,29,226.1,32,228.1,32L228.1,32z"/>
		</g>
	</g>
	<g>
		<g>
			<path fill="#C0E7F9" d="M237.5,38.5c-4.6-3-10.2-1.8-13.4,2.6c-0.7,1,0.3,2.2,1.3,2.3c2.6,0.2,9.6-0.2,5.7-4.7
				c-2.6-3-6.8-1.3-8.8,1.4c-0.6,0.8,0.1,1.9,0.9,2.2c2.1,0.8,5.9,1.9,7.9-0.1c1.2-1.2,1.2-2.7,0.1-4c-3.6-4.3-10.2,0.1-12.2,3.7
				c-0.5,0.9,0,1.9,0.9,2.2c3.3,1.1,9.1,0.1,6.9-4.7c-2.1-4.7-9.1-2.7-12.2-0.5c-2.6,1.8-5.7,6-0.9,7.2c5.1,1.3,9.8-3.4,10.4-8
				c0.1-0.9-0.4-1.9-1.4-1.9c-4.4,0.2-7.8,2.1-10.4,5.7c-0.7,1,0.3,2.2,1.3,2.3c4.6,0.2,8.1-2.3,9.6-6.6c0.3-0.8-0.3-1.6-1-1.8
				c-4.6-1.4-8.9,1-10.2,5.6c-0.3,0.9,0.5,1.9,1.4,1.9c3.6,0,6.2-1.6,8-4.7c0.6-1-0.2-2.3-1.3-2.3c-5.5,0.1-10,2.5-13.1,7
				c-0.8,1.1,0.5,2.5,1.7,2.2c3.4-0.8,6.1-2.2,8.7-4.6c1-0.9,0.2-2.5-1.1-2.6c-1.5,0-2.9,0.1-4.3,0.7c-0.5,0.2-3.7,2.6-3.7,2.6
				c-0.4,0.9-0.7,1.7-1.1,2.6c2.4,0,4.7-0.3,7.1-0.7c4.1-0.6,7.7-0.2,11.7,0.6c4.3,0.8,8.3,1,12.1-1.3c1.5-0.9,0.5-3.1-1.2-2.7
				c-2.1,0.4-3.5,1.2-5.2,2.5c-1,0.8-0.2,2.7,1.1,2.6c2.5-0.2,4.3-0.8,6.4-2.4c0.9-0.7,1-2.4-0.4-2.7c-3.2-0.7-5.4,1-5.7,4.2
				c-0.1,1,1,1.6,1.9,1.4c1.4-0.3,2.4-0.7,3.6-1.5c-0.7-0.6-1.5-1.1-2.2-1.7c-0.9,2.1,0.4,3.3,2.4,3.6c0.5,0.1,1.1-0.3,1.3-0.7
				c1.8-3.4,0.3-7-3.3-8.1c-1.2-0.4-2.4,1.1-1.7,2.2c0.9,1.3,1.8,2.2,3,3.1c1,0.7,2.2-0.3,2.3-1.3c0.1-2.6-0.6-4.2-2.3-6.2
				c-0.9-1-2.6-0.2-2.6,1.1c0.1,2.7,1,4.3,3.4,5.6c1.2,0.7,2.5-0.4,2.2-1.7c-0.3-1.3-0.5-2.6-0.8-3.9c-0.4-1.9-3.3-1.1-2.9,0.8
				c0.3,1.8,1,2.9,2.1,4.3c0.8,1.1,2.5,0.1,2.6-1.1c0.1-4.4-2.8-7-6.3-9.2c-3.4-2.1-6.8-6.3-11.1-5.6c-1.4,0.3-1.3,2.1-0.4,2.7
				c4.3,3,7.4,6.8,9.6,11.5c0.7,1.4,2.8,0.7,2.8-0.8c-0.1-2.5-1-4.1-3.2-5.3c-1-0.6-2.2,0.2-2.3,1.3c-0.1,2.9,1.3,4.7,3.9,5.8
				c1.2,0.5,2-0.9,1.8-1.8c-0.2-1.2-0.4-2.4-0.6-3.6c-0.2-1.1-1.4-1.2-2.2-0.9c-2.8,1.2-4.1,3.5-4,6.5c0,0.9,0.7,1.4,1.5,1.5
				c2.7,0.2,5-3,3-5.3c-2.1-2.5-5.3-0.4-6.3,1.9c-0.2,0.6,0.2,1.4,0.7,1.7c2.5,1.3,5.6-0.5,4.6-3.5c-1.3-4.1-6.2-2.4-8.6-0.6
				c-1.1,0.8-0.9,2.9,0.8,2.8c6.9-0.5,1.3-9.2-2-4.7c-3.8,5.3,9,6.7,10.7,2c1.2-3.1-3-7.9-4.9-10c-2.3-2.5-4.3-3-6.9-0.6
				c-4.8,4.7-2.1,14.4,5.5,11.9c-0.6-0.5-1.3-1-1.9-1.4c0,2.3,0.1,4.7,0.1,7c0.6-0.5,1.3-1,1.9-1.4c-1.8-0.4-3.4-0.9-5.1-1.7
				c-1.8-0.8-3.3,1.8-1.5,2.6c1.9,0.8,3.8,1.5,5.9,2c0.9,0.2,1.9-0.4,1.9-1.4c0-2.3-0.1-4.7-0.1-7c0-0.9-1-1.8-1.9-1.4
				c-1.4-1.4-2.8-2.7-4.2-4.1c0.6-0.9,1.1-1.8,1.7-2.8c2.2-0.8,4,2.2,4.8,3.6c0.6,0.9,1.4,2,1.1,3.1c-0.5,1.9-3,1.3-5.1,1.5
				c0.3,0.9,0.5,1.9,0.8,2.8c1.1-1,2.4-1.4,3.9-1c0.2,0.6,0.5,1.1,0.7,1.7c0.1-0.1,0.3-0.3,0.4-0.4c0.5,0.5,1,1,1.5,1.5
				c0.8-1.3,1.7-2.6,2.5-3.9c-0.7-0.3-1.5-0.6-2.2-0.9c0.2,1.2,0.4,2.4,0.6,3.6c0.6-0.6,1.2-1.2,1.8-1.8c-0.6-1-1.1-2-1.7-2.9
				c-0.8,0.4-1.5,0.9-2.3,1.3c0.6,0.9,1.1,1.8,1.7,2.7c0.9-0.3,1.9-0.5,2.8-0.8c-2.5-5.2-6-9.2-10.7-12.6c-0.1,0.9-0.2,1.8-0.4,2.7
				c1.8-0.3,5.2,3.1,6.7,4c3.1,1.9,7,3.5,6.9,7.8c0.9-0.4,1.7-0.7,2.6-1.1c-0.4-1-0.9-2-1.3-3c-1,0.3-1.9,0.5-2.9,0.8
				c0.3,1.3,0.5,2.6,0.8,3.9c0.7-0.6,1.5-1.1,2.2-1.7c-0.6-1-1.3-2-1.9-3c-0.9,0.4-1.7,0.7-2.6,1.1c0.5,1.4,0.9,2.7,1.4,4.1
				c0.8-0.4,1.5-0.9,2.3-1.3c-0.6-0.7-1.3-1.3-1.9-2c-0.6,0.7-1.1,1.5-1.7,2.2c1.1,1,2.2,2.1,3.2,3.1c0.5-1.2-1.2-2.4-2.2-1.7
				c-0.8,0.7-1.8,1.1-2.9,1.2c0.6,0.5,1.3,1,1.9,1.4c0.6-0.4,1.3-0.9,1.9-1.3c-0.1-0.9-0.2-1.8-0.4-2.7c-1.3,1.2-3,1.9-4.9,2
				c0.4,0.9,0.7,1.7,1.1,2.6c1.1-1,2.4-1.6,3.8-1.7c-0.4-0.9-0.8-1.8-1.2-2.7c-5.1,3.1-10.4,0.4-15.8-0.1c-4.6-0.4-9,1.1-13.6,1
				c-1.3,0-2,1.7-1.1,2.6c3.4,3.3,6.5-2.6,10.1-2.5c-0.4-0.9-0.7-1.7-1.1-2.6c-2.2,2-4.4,3.1-7.4,3.8c0.6,0.7,1.1,1.5,1.7,2.2
				c2.5-3.6,6.1-5.5,10.5-5.5c-0.4-0.8-0.9-1.5-1.3-2.3c-1.1,2.3-2.9,3.3-5.4,3.2c0.5,0.6,1,1.3,1.4,1.9c0.8-2.9,3.8-4.4,6.5-3.5
				c-0.3-0.6-0.7-1.2-1-1.8c-1.1,3-3.6,4.5-6.7,4.3c0.4,0.8,0.9,1.5,1.3,2.3c1.9-2.7,4.5-4.1,7.8-4.2c-0.5-0.6-1-1.3-1.4-1.9
				c-0.2,1.4-0.7,2.9-1.6,3.9c-0.7,0.8-4.6,3.6-4.5,1.5c0.1-1.1,2.5-2.2,3.4-2.4c0.9-0.7,1.6-0.6,2.2,0.5c1.4,1,1.4,1.2-0.1,0.5
				c0.3,0.7,0.6,1.5,0.9,2.2c1.5-2.6,6.1-2.7,2.4-4c0.3,0.7,0.6,1.5,0.9,2.2c4.1-0.6,5-0.9,3-1c-0.8-0.1-1.6-0.1-2.4-0.2
				c0.4,0.8,0.9,1.5,1.3,2.3c2.2-3.1,6.2-3.6,9.3-1.5C237.6,42.2,239.1,39.6,237.5,38.5L237.5,38.5z"/>
		</g>
	</g>
	<ellipse fill="none" stroke="#000000" stroke-width="5" stroke-miterlimit="10" cx="80.8" cy="137.4" rx="34.8" ry="33.5"/>
	<ellipse fill="none" stroke="#000000" stroke-width="5" stroke-miterlimit="10" cx="326.8" cy="136.4" rx="34.8" ry="33.5"/>
</g>
<g id="Layer_5">
	<g>
		<g>
			<path fill="#585959" d="M87.2,125.8c-7.9-5.2-18.8,2.8-15.1,11.9c1.3,3.3,3.8,4.7,7.4,4.2c7-1,11.9-8.9,7.8-15.3
				c-4.7-7.5-14.1-3.8-17.5,2.7c-4.2,7.9,4,13.9,11.3,11.1c7.9-3,8.8-12.1,4-18.2c-2.2-2.7-6.2-1.8-8.5,0
				c-4.3,3.5-11.4,11.1-7.9,17.1c4,6.9,11.8,3.2,15.7-1.5c4.3-5.3,3.9-14.2-3.4-16.7c-6.7-2.2-12.1,4.4-14,10.1
				c-1.9,5.7,0.1,14.9,8.1,13.1c6.7-1.5,8.3-11.8,5.5-17.1c-1.7-3.3-5.3-4.7-8.7-3.5c-3.1,1.1-5.2,4.4-6.7,7.1
				c-3.1,5.6-3.4,12.6,1.6,17.3c5.6,5.3,14.1-3.2,8.5-8.5c-1.5-1.4,1.6-4.9,2.5-5.9c-0.9,0.5-1.8,1-2.6,1.5c0.3-0.1,0.6-0.2,0.8-0.3
				c-1.5-0.2-3.1-0.4-4.6-0.6c0.2,0.1,0.5,0.2,0.7,0.3c-0.7-0.7-1.4-1.4-2.2-2.2c0.2,0.4-1.1,2.7,0.1,1.6c0.9-0.5,1.8-1,2.6-1.5
				c-0.2,0.1-0.5,0.1-0.7,0.2c1.1,0,2.1,0,3.2,0c-0.2-0.1-0.4-0.1-0.6-0.2c0.9,0.5,1.8,1,2.6,1.5c-0.1-0.2-0.3-0.3-0.4-0.5
				c0.5,0.9,1,1.8,1.5,2.6c-0.3-0.8-0.2-0.7-0.2,0.1c0-0.7,0.4-1.6,0.7-2.2c0.5-1,1.1-1.8,2.1-2.3c-1,0.3-2,0.5-3,0.8
				c-0.7-1-1.4-2.1-2.1-3.1c-0.2,0.4-0.4,0.6-0.7,0.9c-0.2,0.3-0.5,0.5-0.8,0.8c-1,0.8-0.4,0.8,1.9-0.2c0.9,0.5,1.8,1,2.6,1.5
				c-0.2-0.2-0.3-0.4-0.5-0.6c0.6,1.4,1.2,2.8,1.8,4.2c-0.1-1.6,4-4.7,5.2-5.6c-2.8,0-5.7,0-8.5,0c-0.7-0.9,0.2-2.1,1.4-1.3
				c0.7,0.7,1.4,1.4,2.2,2.2c-0.1-0.2-0.2-0.5-0.3-0.7c0.3,1,0.5,2,0.8,3c-0.2,0.8-0.1,1,0.2,0.5c1.3-1.4,0.1-2.7-3.7-3.8
				c-0.4-0.1,1.5-0.6-0.8-0.3c2.5,1.4,4.9,2.8,7.4,4.2c-1.2-2.9-1.2,2.5-2.5,1.6C87.6,140.4,93.6,130,87.2,125.8L87.2,125.8z"/>
		</g>
	</g>
	<g>
		<g>
			<path fill="#585959" d="M96.6,129.4c-4.6-6.3-12.2-4.7-16.1,1.4c-4,6.1,0.6,14.1,8.2,11.9c6.1-1.7,10.3-9.3,7.2-15.2
				c-3.4-6.6-13.2-5.4-15.1,1.7c-0.9,3.3,1.1,6.3,4.2,7.4c5.8,2,11.5-3.8,9.4-9.6c-2-5.4-9.3-6.8-13.3-2.8
				c-3.6,3.6-3.5,10.1,0.3,13.6c4.8,4.4,12,1.9,13.8-4.1c2.3-7.5-9-10.4-11.6-3.2c-1.2,3.3-1.6,6.7-1.2,10.2c0.5,4.7,4.7,7.3,9,5.2
				c4.5-2.2,5.6-7.6,3.3-11.8c-1.8-3.3-6.9-4-9.4-1.2c-2.7,2.9-4.6,6.2-5.5,10c-1,4,2.9,9.3,7.4,7.4c5.1-2.2,7.9-6.4,6.6-12.1
				c-0.7-3-4.4-5.3-7.4-4.2c-5.2,1.9-8.6,5.3-10.4,10.5c-2.3,6.6,7.5,10.3,11,4.6c1-1.6,1.6-3.2,2-5c0.8-4.1-2.7-9.1-7.4-7.4
				c-3.1,1.1-5.6,2.5-7.9,5c3.1,2.4,6.3,4.8,9.4,7.3c2-2.9,1.6-5.6,0.3-8.7c-1.5-3.6-7-3.7-9.4-1.2c-2.6,2.7-4.4,6.3-2.9,10.1
				c1.6,4,5.9,5.7,9.8,4.1c3.5-1.4,6.6-4.6,7-8.5c0.4-4-2.5-8.1-6.8-8.2c-8.9-0.2-9.4,12.5-1.2,14.5c8.3,2,14.4-6.3,15.1-13.5
				c0.3-3.2-3-6-6-6c-3.5,0-5.7,2.8-6,6c-0.2,1.4-1.4,1.8-2.5,2c1.1,0,2.1,0,3.2,0c0.5,0.5,0.9,1,1.4,1.4c0.3,1,0.5,2,0.8,3
				c0-0.3,0-0.5,0-0.8c-0.6,1.4-1.2,2.8-1.8,4.2c-0.5,0.3-0.9,0.6-1.4,0.8c-1.5-0.2-3.1-0.4-4.6-0.6c0.2,0.1,0.4,0.3,0.6,0.4
				c-0.9-1.2-1.8-2.4-2.8-3.6c0.1,0.3,0.2,0.7,0.3,1c0-1.1,0-2.1,0-3.2c0.1,0,0.2-0.1,0.2-0.1c1.1,0,2.1,0,3.2,0
				c-0.3-0.1-0.6-0.2-0.9-0.3c1.2,0.9,2.4,1.8,3.6,2.8c-0.2-0.3-0.4-0.6-0.5-0.9c0.3,1,0.5,2,0.8,3c0,0.2-0.1,0.5-0.1,0.7
				c-3.1-0.4-6.3-0.8-9.4-1.2c0.1,0.3,0.2,0.6,0.4,0.9c-0.3-1-0.5-2-0.8-3c0,0.3-0.1,0.6-0.1,1c0.3-1,0.5-2,0.8-3
				c-0.2,0.3-0.4,0.5-0.5,0.8c-3.9,5.6,4.8,12.2,9.4,7.3c0.8-0.9,1.4-1.5,2.6-1.9c-2.5-2.5-4.9-4.9-7.4-7.4c0,0.8-0.3,1.5-0.8,2.1
				c3.7,1.5,7.3,3.1,11,4.6c0.3-1,1-1.8,2-2.1c-2.5-1.4-4.9-2.8-7.4-4.2c0.6-0.9,1.2-1.8,1.8-2.7c2.5,2.5,4.9,4.9,7.4,7.4
				c0.5-1.9,1.2-3.3,2.5-4.7c-3.1-0.4-6.3-0.8-9.4-1.2c0.1,0.3,0.3,0.5,0.4,0.8c-0.3-1-0.5-2-0.8-3c0.5-0.8,0.9-1.6,1.4-2.4
				c3,1.7,6,3.5,9,5.2c-0.3-2.6-0.1-4.6,0.8-7.1c-3.9-1.1-7.7-2.1-11.6-3.2c1-0.8,1.9-1.7,2.9-2.5c1,0.3,2,0.5,3,0.8
				c-0.3,1.6-0.6,3.1-1,4.7c-1.1,0-2.1,0-3.2,0c-0.5-0.4-1.1-0.8-1.6-1.2c-0.2-1.5-0.4-3.1-0.6-4.6c0.9-0.8,1.8-1.6,2.6-2.4
				c1.1,0,2.1,0,3.2,0c-0.3-0.1-0.5-0.2-0.8-0.3c1.4,2.5,2.8,4.9,4.2,7.4c-0.8,0.8-1.6,1.6-2.3,2.3c-1.1,0-2.1,0-3.2,0
				c-3.2-2.4-3.2-3.7,0-3.8c1.2,0.9,2.4,1.8,3.6,2.8c-0.1-0.2-0.3-0.4-0.4-0.6c0.3,1,0.5,2,0.8,3c0-0.4,0-0.9,0.1-1.3
				c-0.3,1-0.5,2-0.8,3c0.8-0.9,0.8-1.2,0-0.7c-1-0.3-2-0.5-3-0.8c-0.3-0.3-0.6-0.7-0.9-1c1.9,2.6,5.2,3.9,8.2,2.2
				C97,136.2,98.5,132.1,96.6,129.4L96.6,129.4z"/>
		</g>
	</g>
	<g>
		<g>
			<path fill="#585959" d="M326,121.9c2.5,0.3-0.1-0.8-1.3-1.5c-1.4-0.8-3.2-1.4-4.9-1.3c-3.5,0.1-6.9,2.7-9.1,5.1
				c-6.1,6.7-1.7,17,7.6,16.3c7.7-0.5,14.6-10.4,6.5-15.8c-6.4-4.4-15.7,3.2-15.9,10.1c-0.2,8.8,9.8,11.8,15.7,6.2
				c2.7-2.5,4.4-6.3,2.5-9.9c-1.8-3.4-5.9-4.4-9.3-2.7c-5.5,2.8-12.2,13.2-6.4,18.5c5.9,5.4,15.7,0.6,18.8-5.6
				c2.6-5-2.9-11.7-8.2-8.2c-4.8,3.2-11.3,10.4-7.1,16.4c4.4,6.3,13.4,2.7,17.6-1.9c3.8-4.2,0.2-11.9-5.8-10c-3.4,1.1-6.8,3-7.7,6.8
				c-0.8,3.6,0.8,7.6,4.3,9c6.7,2.8,16.6-2.2,17.6-9.4c0.6-4.6-2.5-8.4-7.4-7.4c-3.5,0.7-6,2.7-7.7,5.8c-2.4,4.5,1.6,10.3,6.8,8.8
				c5.6-1.5,13.7-5.9,12.9-12.8c-0.8-7.6-9.5-8.3-14.7-4.9c2.4,3.1,4.8,6.3,7.3,9.4c4.7-3.7,7.5-10.2,3-15.3
				c-5.1-5.9-12.5-1.8-15.4,3.9c-2,3.9,0.4,9.2,5.2,9c8-0.3,10.3-7.6,8.5-14.3c-1.3-4.7-6.6-5.4-10-2.6c-4,3.2-4.7,9.6,0.1,12.6
				c4.6,2.8,10.2-0.7,10.7-5.7c1.2-12-17.5-15.5-19.9-3.6c-1,5.1,2.8,9.9,8.1,9.4c4.8-0.5,8.5-5.2,8.4-10c-0.1-4.9-4-11-9.4-10.9
				c-6,0.1-8.7,6.9-8.8,11.9c-0.1,7.7,11.9,7.7,12,0c0.3-1.1,0.2-1.4-0.2-0.8c-1.5,0.2-3.1,0.4-4.6,0.6c-3-1.6-1.5-2.3,4.5-2
				c0.6,1.4,1.2,2.8,1.8,4.2c-1.3-0.1-2.6-0.2-3.9-0.4c0.9-1.2,1.8-2.4,2.8-3.6c-0.3,0.2-0.5,0.4-0.8,0.6c1.5-0.2,3.1-0.4,4.6-0.6
				c-0.2-0.1-0.5-0.2-0.7-0.2c1.2,0.9,2.4,1.8,3.6,2.8c0.1,1.4,0.1,2.7,0.2,4.1c-3.3-0.9-6.7-1.8-10-2.6c0.2,2.4,1.2,2.1,3.1-0.9
				c1.7,3,3.5,6,5.2,9c1.8-2.4,0.2-4-4.5-4.8c-0.6,0.6-1.2,1.1-1.9,1.6c-5.3,4.2,1.6,13.1,7.3,9.4c1.5-0.8,1.3-1-0.7-0.6
				c-0.9-1.2-1.8-2.4-2.8-3.6c-0.7-1.8,2.5-3.5-0.8-1.4c-1,0.7-2.1,1-3.2,1.3c2.3,2.9,4.5,5.9,6.8,8.8c0.2-0.1,0.3-0.2,0.5-0.3
				c-2.5-2.5-4.9-4.9-7.4-7.4c-0.2,1.5-2.4,1.2-3.7,1.1c1.4,0.6,2.8,1.2,4.2,1.8c-0.2-0.3-0.5-0.5-0.7-0.8c0.6,1.4,1.2,2.8,1.8,4.2
				c-0.3,0.7-0.7,1.3-1,2c-1.9-3.3-3.9-6.7-5.8-10c-0.4,0.5-1.5,1.9-2.3,1.6c1.2,0.9,2.4,1.8,3.6,2.8c-0.2-0.3-0.4-0.6-0.5-0.8
				c0.2,1.5,0.4,3.1,0.6,4.6c0.3-1.8,1.3-2.8,2.7-3.8c-2.7-2.7-5.5-5.5-8.2-8.2c-0.2,0.8-0.6,1.3-1.4,1.7c-1.4,0.1-1.1,0.4,0.9,0.9
				c0.6,1.4,1.2,2.8,1.8,4.2c0.2-2.5,4.4-2.7,0.3-2.5c-1.7-1-3.5-2-5.2-3c0.1,0.2,0.3,0.4,0.4,0.6c-0.2-1.5-0.4-3.1-0.6-4.6
				c-0.8,3.9,5.6,4.4,5.7,2.7c-2.4-1.8-2.7-3.2-0.9-4c-2.3-0.7-3-0.8-2.1-0.3c-0.2,1.7,6.5,2.9,7.1,3
				C333.7,134.8,333.7,122.8,326,121.9L326,121.9z"/>
		</g>
	</g>
	<g>
		<g>
			<path fill="#585959" d="M18.8,119.8c1.4-0.8,2.5-2.2,2.8-3.8c0.1-0.8-0.2-1.6-1-1.8c-0.7-0.2-1.7,0.2-1.8,1
				c-0.2,0.9-0.6,1.6-1.4,2C15.6,118.1,17.1,120.7,18.8,119.8L18.8,119.8z"/>
		</g>
	</g>
	<g>
		<g>
			<path fill="#585959" d="M18.2,118.8c0.7,1.6,1.6,2.4-0.8,2.1c-0.7-0.1-1.4-0.3-2.1-0.3c-1.5-0.1-2.7,0.3-3.8,1.3
				c-1.1,0.9-0.1,2.5,1.1,2.6c0.8,0.1,1.6,0.1,2.3,0.2c1.7,0.1,2.1-2.6,0.4-2.9c-1.6-0.3-3.4-0.5-4.4,1c-0.8,1.2-0.6,2.6,0.5,3.5
				c0.6-0.8,1.2-1.6,1.8-2.4c-1.4-1-3.1-1.8-4.8-1c-0.5,0.2-0.7,0.8-0.7,1.3c0,0.1,0,0.3,0,0.4c0,0.7,0.5,1.2,1.1,1.4
				c0.1,0,0.2,0.1,0.3,0.1c1.6,0.6,2.6-1.9,1.2-2.7c-1.9-1.1-3.7-1.7-6-1.9c0.3,0.9,0.5,1.9,0.8,2.8c4.3-2.2,8.8-3.3,13.6-3.4
				c1.9,0,1.9-3,0-3c-5.4,0-10.4,1.3-15.1,3.8c-1.4,0.8-0.6,2.6,0.8,2.8c1.7,0.2,3,0.7,4.4,1.5c0.4-0.9,0.8-1.8,1.2-2.7
				c-0.1,0-0.2-0.1-0.3-0.1c0.4,0.5,0.7,1,1.1,1.4c0-0.1,0-0.3,0-0.4c-0.2,0.4-0.5,0.9-0.7,1.3c0.7,0.2,1.2,0.5,1.8,1
				c1.4,1,3.1-1.2,1.8-2.4c0.4,0.2,0.7,0.3,1.1,0.5c0.1-1,0.3-2,0.4-2.9c-0.8-0.1-1.6-0.1-2.3-0.2c0.4,0.9,0.7,1.7,1.1,2.6
				c1.9-1.6,5.5,1.1,7.8-0.6c2.2-1.6,0.2-4.3-0.7-6.1C20,115.6,17.4,117.1,18.2,118.8L18.2,118.8z"/>
		</g>
	</g>
	<g>
		<g>
			<path fill="#585959" d="M12.1,123.5c0-0.5,0-1,0-1.5c0-0.8-0.7-1.5-1.5-1.5c-0.8,0-1.5,0.7-1.5,1.5c0,0.5,0,1,0,1.5
				c0,0.8,0.7,1.5,1.5,1.5C11.4,125,12.1,124.4,12.1,123.5L12.1,123.5z"/>
		</g>
	</g>
	<g>
		<g>
			<path fill="#585959" d="M14.6,124.5c1.3,1.1,3.3,1.4,4.8,0.4c0.7-0.4,1-1.3,0.5-2.1c-0.4-0.7-1.4-1-2.1-0.5
				c-0.5,0.3-0.9,0.3-1.1,0.1c-0.6-0.5-1.5-0.6-2.1,0C14.1,122.9,14,124,14.6,124.5L14.6,124.5z"/>
		</g>
	</g>
</g>
<g id="Layer_4">
	<ellipse fill="none" stroke="#000000" stroke-width="5" stroke-miterlimit="10" cx="80.4" cy="136.6" rx="16.7" ry="17"/>
	<ellipse fill="none" stroke="#000000" stroke-width="5" stroke-miterlimit="10" cx="326.4" cy="136.6" rx="16.7" ry="17"/>
	<g>
		<g>
			<path d="M91.5,111.3c-3.3,1.4-4.3,6.1-0.9,8.1c3.1,1.8,6.7-1.8,4.9-4.9c-0.5-0.8-1.7-1-2.4-0.3c-1.6,1.7-1.6,4.1-0.2,5.8
				c0.4,0.5,1.3,0.6,1.8,0.2c1.7-1.2,2.7-3,2.8-5.1c0.1-1.3-1.7-2-2.6-1.1c-1.1,1.2-1.7,2.6-1.8,4.2c-0.1,1.9,2.9,1.9,3,0
				c0-0.8,0.3-1.5,0.9-2.1c-0.9-0.4-1.7-0.7-2.6-1.1c0,1-0.5,1.9-1.3,2.5c0.6,0.1,1.2,0.2,1.8,0.2c-0.4-0.5-0.2-1.2,0.2-1.6
				c-0.8-0.1-1.6-0.2-2.4-0.3c0.5,0.9-0.8,1.1-1.3,0.4c-0.7-1.1,0.5-2.1,1.4-2.5C94.7,113.1,93.2,110.5,91.5,111.3L91.5,111.3z"/>
		</g>
	</g>
	<g>
		<g>
			<path d="M75,104.7c-18.5,2.8-31,21.4-26.6,39.6c4.4,18.5,25.5,30.8,43,20.8c-2-3.5-4-6.9-6.1-10.4c-1.8,1.2-3.7,2.4-5.5,3.6
				c-5.7,3.8-2.1,12.3,4.6,11c11-2.2,20.8-8.9,26.9-18.4c6.9-10.8,4.3-22.1-3.5-31.6c-7.1-8.6-17.5-16.3-29.3-14.4
				c-10,1.6-22.4,7.7-25.8,17.8c-2.1,6.3,5.8,9.1,10,5.8c5.6-4.3,13-8.9,20.3-7.2c6.6,1.5,13.2,9.9,12.9,16.7
				c-0.3,7.7,11.7,7.7,12,0c0.4-11.5-9.3-24.3-20.2-27.8c-12.3-4-24.1,2.5-33.6,9.8c3.3,1.9,6.7,3.9,10,5.8
				c1.7-5.1,12.7-9.2,17.6-9.3c7-0.2,13.4,6.2,17.4,11.3c5.2,6.6,5.2,12.9-0.2,19.5c-4.6,5.6-10.9,9-18,10.4c1.5,3.7,3.1,7.3,4.6,11
				c1.8-1.2,3.7-2.4,5.5-3.6c6.4-4.2,0.7-14.2-6.1-10.4c-11.3,6.5-23.7-3.6-25.6-15c-2-11.9,7.2-21.7,18.5-23.5
				C85.8,115.1,82.5,103.6,75,104.7L75,104.7z"/>
		</g>
	</g>
	<g>
		<g>
			<path d="M95.3,138.5c-0.3,0.8-0.7,1.7-1,2.5c-0.3,0.8-0.3,1.6-0.1,2.4c0,0.8,0.3,1.5,0.7,2.2c0.7,1.2,2.2,2.4,3.6,2.8
				c1.5,0.3,3.3,0.3,4.6-0.6c0.4-0.3,0.8-0.6,1.2-0.9c0.7-0.7,1.3-1.6,1.5-2.6c0.3-0.8,0.7-1.7,1-2.5c0.3-0.8,0.3-1.6,0.1-2.4
				c0-0.8-0.3-1.5-0.7-2.2c-0.7-1.2-2.2-2.4-3.6-2.8c-1.5-0.3-3.3-0.3-4.6,0.6c-0.4,0.3-0.8,0.6-1.2,0.9
				C96.1,136.6,95.6,137.4,95.3,138.5L95.3,138.5z"/>
		</g>
	</g>
	<g>
		<g>
			<path d="M100.6,148.5c7.7,0,7.7-12,0-12C92.9,136.5,92.8,148.5,100.6,148.5L100.6,148.5z"/>
		</g>
	</g>
	<g>
		<g>
			<path d="M94.1,141.9c-1.8,4.5-6,7.3-10.6,8.3c-7.5,1.7-4.3,13.2,3.2,11.6c8.9-2,15.6-8.4,19-16.7c1.2-3-1.3-6.6-4.2-7.4
				C98,136.7,95.3,138.8,94.1,141.9L94.1,141.9z"/>
		</g>
	</g>
	<g>
		<g>
			<path d="M77,152.7c-6-0.6-9.2-2.1-12.1-7.5c-3.3-6.2-2.5-10.3,0.6-16.4c3.4-6.9-6.9-13-10.4-6.1c-2.2,4.5-4.6,9.3-4.7,14.4
				c-0.2,5.1,1.8,9.8,4.2,14.2c5,9.3,12.2,12.4,22.4,13.4C84.7,165.5,84.7,153.4,77,152.7L77,152.7z"/>
		</g>
	</g>
	<g>
		<g>
			<path d="M345.6,125.5c7.7,0,7.7-12,0-12C337.9,113.5,337.8,125.5,345.6,125.5L345.6,125.5z"/>
		</g>
	</g>
	<g>
		<g>
			<path d="M339.3,123.1c2.7,5.2,5.7,11.7,4.9,17.8c-0.7,5.9-7.4,9.7-12.4,12c-6.7,3.1-12,1.6-17.4-3.1c-2.3-2-4.6-4.3-5.9-7
				c-1.4-3-0.5-5.6,0.4-8.6c1.7-5.5,3.7-11.1,9.3-13.5c2.4-1,5-1.5,7.5-1.7c1.4-0.1,3.1,0.2,4.4-0.2c1.6-0.4,1-0.4,1.6,0.1
				c2,1.8,3,4,5.5,5.4c2.1,1.2,4.4,1.9,6.2,3.6c3.3,3.1,4.8,8.6,3,12.9c-1.3,3-0.9,6.4,2.2,8.2c2.5,1.5,6.9,0.8,8.2-2.2
				c5.5-13,0-26-12.3-32.3c-3.1-1.6-3.9-5-7.1-6.6c-3.1-1.6-6.9-1.3-10.3-1.1c-6.8,0.4-13.7,1.8-19.2,6c-6.1,4.7-8.9,11.8-11,18.9
				c-2.3,7.7-1.3,14.5,3.6,20.9c4.3,5.7,10.7,11.1,17.7,13.2c7.8,2.3,15.9-0.3,22.6-4.3c7.5-4.5,13.9-10,15-19.1
				c1-8.8-2.4-17.7-6.4-25.3C346,110.2,335.7,116.2,339.3,123.1L339.3,123.1z"/>
		</g>
	</g>
	<g>
		<g>
			<path d="M350.3,142.9c-5.6,7.9-14.9,12-24.5,11.6c-5.9-0.2-8.2,8.4-3,11.2c5.1,2.7,10.1,3.4,15.8,2.6c6.7-1,5.1-12-1.6-11.8
				c-0.6,0-1.2,0-1.8,0.1c-7.7,0.3-7.7,12.3,0,12c0.6,0,1.2,0,1.8-0.1c-0.5-3.9-1.1-7.9-1.6-11.8c-2.4,0.3-4.5-0.2-6.5-1.3
				c-1,3.7-2,7.5-3,11.2c14,0.6,26.8-6.2,34.9-17.5C365.1,142.7,354.7,136.7,350.3,142.9L350.3,142.9z"/>
		</g>
	</g>
	<g>
		<g>
			<path d="M329.9,156.3c-11.8,2.5-26.6-10.4-24.8-22.7c1.9-13.7,16.9-18,28.6-15.2c6.7,1.6,10.3-7.2,4.6-11
				c-5.4-3.6-11.8-4.4-17.9-2.5c-7.3,2.3-4.2,13.9,3.2,11.6c3.3-1,5.8-0.7,8.6,1.3c1.5-3.7,3.1-7.3,4.6-11
				c-19.3-4.6-41.8,4.8-43.8,26.5c-1.9,20.5,20.5,38.7,40,34.5C340.6,166.2,337.4,154.7,329.9,156.3L329.9,156.3z"/>
		</g>
	</g>
	<g>
		<g>
			<path d="M333.3,118.2c3.7,1,7.6,2.2,10.3,5c2,2.1,6,8.2,5.3,11.3c-1.6,7.5,9.9,10.7,11.6,3.2c1.6-7.2-2.2-14.9-6.5-20.6
				c-4.4-5.8-10.8-8.6-17.6-10.5C329,104.6,325.9,116.2,333.3,118.2L333.3,118.2z"/>
		</g>
	</g>
	<g>
		<g>
			<path d="M293.1,125.4c-2.6,0.1-5,1-7,2.8c-0.8,0.7-1.4,1.6-1.9,2.5c-0.8,1.5-1,2.6-1.2,4.3c-0.2,1.4,0.8,3.3,1.8,4.2
				c1,1,2.7,1.8,4.2,1.8c1.6-0.1,3.2-0.6,4.2-1.8c0.3-0.4,0.6-0.8,0.9-1.2c0.5-0.9,0.8-1.9,0.8-3c0-0.1,0-0.2,0-0.2
				c-0.1,0.5-0.1,1.1-0.2,1.6c0.1-0.3,0.1-0.6,0.3-0.9c-0.2,0.5-0.4,1-0.6,1.4c0.2-0.4,0.4-0.7,0.6-1c-0.3,0.4-0.6,0.8-0.9,1.2
				c0.2-0.2,0.4-0.4,0.7-0.6c-0.4,0.3-0.8,0.6-1.2,0.9c0.3-0.2,0.6-0.4,1-0.6c-0.5,0.2-1,0.4-1.4,0.6c0.4-0.1,0.7-0.2,1.1-0.3
				c-0.5,0.1-1.1,0.1-1.6,0.2c0.2,0,0.3,0,0.5,0c3.1-0.1,6.1-2.7,6-6C298.9,128.3,296.4,125.4,293.1,125.4L293.1,125.4z"/>
		</g>
	</g>
	<g>
		<g>
			<path d="M296.2,135.2c2-2.3,4-4.6,6-6.8c3.8-4.4,0.2-11.7-5.8-10c-1.1,0.3-2.1,0.6-3.2,0.9c1.9,3.3,3.9,6.7,5.8,10
				c3.6-4.2,7.2-8.4,10.9-12.7c4.5-5.3-1-12.4-7.3-9.4c-1.4,0.6-2.7,1.3-4.1,1.9c2.4,3.1,4.8,6.3,7.3,9.4
				c7.7-6.7,17.2-12.8,27.8-12.2c4.8,0.2,9.3,1.9,12.7,5.4c2.1,2.1,6.3,8.2,3.4,11.1c-5.5,5.5,3,13.9,8.5,8.5
				c12.1-12.1-2.2-30.5-14.5-35c-16.9-6.2-33.9,3-46.4,13.8c-5.5,4.7,1.5,12.2,7.3,9.4c1.4-0.6,2.7-1.3,4.1-1.9
				c-2.4-3.1-4.8-6.3-7.3-9.4c-3.6,4.2-7.2,8.4-10.9,12.7c-3.7,4.4-0.3,11.7,5.8,10c1.1-0.3,2.1-0.6,3.2-0.9
				c-1.9-3.3-3.9-6.7-5.8-10c-2,2.3-4,4.6-6,6.8C282.7,132.5,291.2,141.1,296.2,135.2L296.2,135.2z"/>
		</g>
	</g>
	<g>
		<g>
			<path d="M40.9,128.6c0,0.2,0,0.3,0,0.5c0.3-1,0.5-2,0.8-3c1.4-1.1,1.6-1.3,0.7-0.8c-0.4,0.2-0.8,0.4-1.2,0.6
				c-0.8,0.4-1.6,0.8-2.4,1.2c-2.7,1.3-3.5,4.9-2.5,7.5c1.2,2.7,4.2,4.3,7.1,3.5c3.5-0.9,5.8-3.3,7.8-6.2c0.7-1,1.4-2.1,2-3.1
				c0.4-0.5,0.3-0.5-0.1,0.1c0.2-0.2,0.4-0.5,0.6-0.7c0.2-0.2,0.4-0.4,0.6-0.6c-0.6,0.5-0.7,0.5-0.1,0.2c2.8-1.7,3.8-5.4,2.2-8.2
				c-1.6-2.8-5.4-3.8-8.2-2.2c-2.6,1.6-4.4,3.9-6,6.5c-0.6,0.9-1.1,1.8-1.7,2.7c1-1.3-0.2,0.1-0.5,0.4c0.7-0.5,0.7-0.6,0.2-0.2
				c0.8-0.3,0.9-0.4,0.2-0.2c1.5,3.7,3.1,7.3,4.6,11c3.9-1.9,8.1-3.7,8.1-8.8c0-3.1-2.7-6.1-6-6C43.6,122.7,40.8,125.2,40.9,128.6
				L40.9,128.6z"/>
		</g>
	</g>
	<g>
		<g>
			<path d="M52.1,127.5c7.7,0,7.7-12,0-12C44.4,115.5,44.3,127.5,52.1,127.5L52.1,127.5z"/>
		</g>
	</g>
	<g>
		<g>
			<path d="M69.8,113.7c0.6-3.5,14.8-4.3,17.7-4.1c3,0.1,2.9,0.3,4.4,2.6c0.8,1.2,1.8,2.1,2.9,2.9c0.3,0.2,0.6,0.4,0.9,0.6
				c1.3,1,1.3,0.7,0-0.7c3.7-1.5,7.3-3.1,11-4.6c-1.2-2.7-2.9-4.9-5.1-6.8c-5.9-5-14.4,3.5-8.5,8.5c1.6,1.3,2.4,2.5,3.3,4.4
				c2.8,6.2,12.9,1.8,11-4.6c-0.7-2.3-1.8-3.8-3.7-5.3c-1.8-1.4-2-2.4-3.5-4.2c-3.3-4-8.6-4.8-13.5-4.8c-8.8,0-26.4,2-28.4,13
				C56.9,118,68.4,121.3,69.8,113.7L69.8,113.7z"/>
		</g>
	</g>
	<g>
		<g>
			<path d="M108.1,112c-0.3,0-0.7,0-1,0c-1.5,0-3.2,0.7-4.2,1.8c-1,1-1.8,2.7-1.8,4.2c0.1,1.6,0.6,3.2,1.8,4.2
				c1.2,1.1,2.6,1.8,4.2,1.8c0.3,0,0.7,0,1,0c1.5,0,3.2-0.7,4.2-1.8c1-1,1.8-2.7,1.8-4.2c-0.1-1.6-0.6-3.2-1.8-4.2
				C111.1,112.7,109.7,112,108.1,112L108.1,112z"/>
		</g>
	</g>
	<g>
		<g>
			<path d="M110,115.9c-0.4-2.4-1.7-4.5-3.4-6.2c-4.7-4.6-13.5,1.5-9.4,7.3c3.5,5,6.8,10.2,9.8,15.5c3.8,6.7,14.2,0.7,10.4-6.1
				c-3-5.3-6.3-10.5-9.8-15.5c-3.1,2.4-6.3,4.8-9.4,7.3c0.5,0.4-0.1-1.5,0.3,0.9c0.6,3.2,4.5,5,7.4,4.2
				C109.1,122.4,110.5,119.1,110,115.9L110,115.9z"/>
		</g>
	</g>
	<g>
		<g>
			<path d="M116.4,123c0.2-3-2.2-5.7-4.9-6.5c-1.2-0.3-2.5-0.4-3.7,0c-1.7,0.5-2.9,1.6-3.9,3c-0.4,0.7-0.7,1.4-0.7,2.2
				c-0.2,0.8-0.1,1.6,0.1,2.4c0.4,1.4,1.5,2.9,2.8,3.6c1.4,0.7,3.1,1.1,4.6,0.6c0.5-0.2,1-0.4,1.4-0.6c0.9-0.5,1.6-1.3,2.2-2.2
				c0,0,0-0.1,0.1-0.1c-0.3,0.4-0.6,0.8-0.9,1.2c0,0,0,0,0.1-0.1c-0.4,0.3-0.8,0.6-1.2,0.9c0,0,0.1-0.1,0.2-0.1
				c-0.5,0.2-1,0.4-1.4,0.6c0.1,0,0.1,0,0.2,0c-0.5,0.1-1.1,0.1-1.6,0.2c0.1,0,0.1,0,0.2,0c-0.5-0.1-1.1-0.1-1.6-0.2
				c0.1,0,0.2,0,0.3,0.1c-0.5-0.2-1-0.4-1.4-0.6c0.1,0,0.1,0.1,0.2,0.1c-0.4-0.3-0.8-0.6-1.2-0.9c0,0,0.1,0.1,0.1,0.1
				c-0.3-0.4-0.6-0.8-0.9-1.2c0,0,0.1,0.1,0.1,0.2c-0.2-0.5-0.4-1-0.6-1.4c0,0,0,0.1,0,0.1c-0.1-0.5-0.1-1.1-0.2-1.6
				c0,0.1,0,0.1,0,0.2c-0.1,1.5,0.7,3.2,1.8,4.2c1,1,2.7,1.8,4.2,1.8c1.6-0.1,3.2-0.6,4.2-1.8c0.3-0.4,0.6-0.8,0.9-1.2
				C116.2,125.1,116.4,124.1,116.4,123L116.4,123z"/>
		</g>
	</g>
	<g>
		<g>
			<path d="M112.1,124.5c-0.2,0-0.3,0-0.5,0c-1.5,0-3.2,0.7-4.2,1.8c-1,1-1.8,2.7-1.8,4.2c0.1,1.6,0.6,3.2,1.8,4.2
				c1.2,1.1,2.6,1.8,4.2,1.8c0.2,0,0.3,0,0.5,0c1.5,0,3.2-0.7,4.2-1.8c1-1,1.8-2.7,1.8-4.2c-0.1-1.6-0.6-3.2-1.8-4.2
				C115.1,125.2,113.7,124.5,112.1,124.5L112.1,124.5z"/>
		</g>
	</g>
	<g>
		<g>
			<path d="M108.6,131.5c0,0.2,0,0.3,0,0.5c0,1.5,0.7,3.2,1.8,4.2c1,1,2.7,1.8,4.2,1.8c1.6-0.1,3.2-0.6,4.2-1.8
				c1.1-1.2,1.8-2.6,1.8-4.2c0-0.2,0-0.3,0-0.5c0-1.5-0.7-3.2-1.8-4.2c-1-1-2.7-1.8-4.2-1.8c-1.6,0.1-3.2,0.6-4.2,1.8
				C109.3,128.5,108.6,129.9,108.6,131.5L108.6,131.5z"/>
		</g>
	</g>
</g>
<g id="Layer_1">
	<g>
		<g>
			<path d="M244,4.6c0.3,0.3,0.7,0.7,1,1c0.6,0.6,1.5,0.6,2.1,0c0.6-0.6,0.6-1.5,0-2.1c-0.3-0.3-0.7-0.7-1-1c-0.6-0.6-1.5-0.6-2.1,0
				C243.4,3.1,243.4,4,244,4.6L244,4.6z"/>
		</g>
	</g>
	<g>
		<g>
			<path d="M245.2,0.3c-70.6-3.5-141.8,22-194.4,69.2c-14.2,12.8-31,28.1-35.3,47.6c0.6-0.3,1.2-0.7,1.8-1
				c-6.8-1.1-12.9,1.4-17.1,6.9c-0.4,0.5-0.2,1.4,0.2,1.8c4.6,3.9,9.9,5.3,15.9,4.2c-0.6-0.5-1.3-1-1.9-1.4c-0.5,4.7-0.4,7,4.3,9.1
				c4.1,1.9,8.9,1.4,13-0.3c10.3-4.3,14.8-16.7,22.5-24.1c9.8-9.4,25.2-17,39-12.7c7.5,2.3,12.3,8.8,16.9,14.8
				c4.3,5.7,8.2,11.8,8.5,19.2c0.1,1.9,3.1,1.9,3,0c-0.5-11.3-8.7-21.9-16.4-29.8c-8.5-8.7-20.4-10.1-31.7-6.6
				c-11.3,3.5-21,11-28,20.4c-3.9,5.3-7.4,11.7-13.3,15c-2.9,1.6-6.2,2.4-9.5,2c-1.6-0.2-3.6-0.7-4.7-2c-1.4-1.6-0.9-3.1-0.6-5.2
				c0.1-1-1-1.6-1.9-1.4c-4.8,0.9-9.3-0.3-13-3.4c0.1,0.6,0.2,1.2,0.2,1.8c3.3-4.3,8.3-6.3,13.7-5.5c0.8,0.1,1.7-0.2,1.8-1
				c3.9-17.8,18.7-31.6,31.6-43.6C62.7,62.6,76.6,52.1,91.3,43c29.2-17.9,61.9-30.3,95.7-36.2c19.2-3.3,38.7-4.5,58.1-3.5
				C247.1,3.4,247.1,0.4,245.2,0.3L245.2,0.3z"/>
		</g>
	</g>
	<g>
		<g>
			<path d="M120.1,134.2c53.4,1.5,106.7,4.2,160.1,6.8c0.5,0,1.1-0.3,1.3-0.7c7.1-16.3,16.3-33.2,32.9-41.5
				c15.8-7.9,39.5-4.4,44.8,15.1c1.8,6.5,1.2,13.7,4.4,19.7c2.9,5.6,8.5,8,14.6,8c9.7,0,28.9-4.2,28.5-17c0-0.8-0.7-1.5-1.5-1.5
				c-9.4-0.3-15.3-7.3-15.9-16.3c-0.4-6.2-0.3-11.7-2.6-17.7c-4.4-11.5-13.6-20.5-24.1-26.5c-12.2-6.9-26.3-10.6-40-13.3
				c-15.3-3-31-4.4-46.6-4.1c-1.9,0-1.9,3,0,3c16.3-0.3,32.6,1.2,48.6,4.6c14.6,3.1,29.8,7.2,42.2,16c5.9,4.2,11.1,9.6,14.7,16
				c3.8,6.8,4.6,13.5,4.9,21.2c0.4,10.9,7.4,19.8,18.9,20.2c-0.5-0.5-1-1-1.5-1.5c0.3,10.6-18.2,14.3-26.2,14
				c-13.5-0.6-12.8-13.6-14.9-23.5c-3.7-17.7-22.9-26.4-39.6-22.6c-20.5,4.7-33.4,22.9-41.7,40.9c-1.5,3.2-1.6,4.2-5.1,4.5
				c-3.2,0.2-6.7-0.3-9.9-0.5c-6.6-0.3-13.2-0.7-19.8-1c-13.2-0.6-26.3-1.3-39.5-1.9c-29-1.3-58-2.5-87-3.3
				C118.2,131.1,118.2,134.1,120.1,134.2L120.1,134.2z"/>
		</g>
	</g>
	<g>
		<g>
			<path d="M241.1,2.8c5.6,7.9,11.3,15.8,16.9,23.7c5.3,7.4,11.8,14.8,15.1,23.3c0.7,1.8,3.6,1,2.9-0.8c-3.3-8.3-9.2-15.3-14.3-22.4
				c-6-8.4-12-16.9-18.1-25.3C242.6-0.3,240,1.2,241.1,2.8L241.1,2.8z"/>
		</g>
	</g>
	<g>
		<g>
			<path d="M243.1,27c0.3,0,0.7,0,1,0c0.8,0,1.5-0.7,1.5-1.5c0-0.8-0.7-1.5-1.5-1.5c-0.3,0-0.7,0-1,0c-0.8,0-1.5,0.7-1.5,1.5
				C241.6,26.4,242.2,27,243.1,27L243.1,27z"/>
		</g>
	</g>
	<g>
		<g>
			<path d="M244.5,25.2c8-15.5-33.7-11.5-40.2-11.1c-19,1.2-37.9,4.8-56,10.6c-37.1,11.8-71.4,32.6-98.6,60.5
				c-4,4.1-8.1,10.3-13.7,12.3c-4.4,1.5-9.2,0.5-12.9,3.8c-6.1,5.4-3.4,15.2-1,21.7c0.4,1.1,1.6,1.5,2.5,0.7
				c9.9-9,17.9-19.8,23.6-31.9c0.8-1.7-1.8-3.3-2.6-1.5c-5.6,11.9-13.4,22.4-23.1,31.3c0.8,0.2,1.7,0.4,2.5,0.7
				c-3.2-8.5-5.1-19.3,6.7-20.9c8.1-1.1,12-5.3,17.4-11.1c11.8-12.6,25.1-23.8,39.4-33.4c28.3-19,60.7-31.9,94.3-37.3
				c9.5-1.5,19-2.4,28.6-2.7c4.7-0.1,9.5-0.1,14.2,0c3.7,0.1,20-0.2,16.3,6.9C241,25.4,243.6,26.9,244.5,25.2L244.5,25.2z"/>
		</g>
	</g>
	<g>
		<g>
			<path d="M23.5,122c-2.3,2.1-5.3,2.8-8.3,1.9c-1.8-0.6-2.6,2.3-0.8,2.9c4,1.2,8.2,0.2,11.2-2.6C27.1,122.8,24.9,120.7,23.5,122
				L23.5,122z"/>
		</g>
	</g>
	<g>
		<g>
			<path d="M240.7,21.4c2.2,3.7,4.4,7.4,6.6,11.1c1.8,2.9,8.5,10.8,1.8,13.6c-1.6,0.7-4.5,0.1-6.2,0.1c-2.3,0-4.6,0.1-7,0.1
				c-4,0.1-8,0.1-11.9,0.2c-17.2,0.3-34.5,0.6-51.7,1c-8.3,0.2-16.8,0.8-25.1,0.4c-2.9-0.1-7-0.4-9.2-2.6c-5-5.1,3.5-9.1,7.1-10.5
				c15.2-5.8,31.4-10.6,47.7-12c-0.5-0.4-1-0.7-1.4-1.1c2.6,9,0.7,18.4-5.4,25.6c-1.2,1.5,0.9,3.6,2.1,2.1c6.7-8,9-18.4,6.2-28.5
				c-0.2-0.6-0.8-1.2-1.4-1.1c-16.6,1.4-32.9,6.4-48.5,12.1c-4.2,1.5-9.7,3.9-10.6,9c-0.7,4.1,2.1,7.2,5.7,8.7
				c6.4,2.6,14.3,1.3,20.9,1.2c9.3-0.2,18.6-0.3,27.8-0.5c18.6-0.3,37.1-0.7,55.7-1c5-0.1,12.9,0.1,11.8-7.2c-0.5-3.2-2.7-6-4.3-8.7
				c-2.7-4.5-5.4-8.9-8-13.4C242.3,18.2,239.7,19.7,240.7,21.4L240.7,21.4z"/>
		</g>
	</g>
	<g>
		<g>
			<path d="M204.2,19c-5.3-3.4-8.2,3.4-7.8,7.6c0.3,2.8,0.8,5.1,0,7.8c-0.6,2.2-1.7,4.2-2.2,6.4c-0.7,3.1-0.5,6,1.4,8.6
				c1.1,1.5,3.7,0,2.6-1.5c-3.2-4.4,0.2-8.9,1.3-13.4c0.4-1.7,0.5-3.2,0.4-5c0-0.6-1.9-11,2.8-7.9C204.3,22.6,205.8,20,204.2,19
				L204.2,19z"/>
		</g>
	</g>
	<g>
		<g>
			<path d="M203.5,20.9c-0.9-0.2-1.8-0.4-2.7-0.6c-0.1,1-0.3,2-0.4,2.9c5.3-0.3,10.6-0.6,15.9-0.9c4.9-0.3,10.5-1.5,14.6,1.7
				c7.6,5.8,15.7,16.2,11.6,26c-0.7,1.8,2.2,2.6,2.9,0.8c4.5-10.9-3.5-20.6-11-27.7c-3.4-3.3-6.7-4.3-11.4-4.2
				c-7.5,0.3-15.1,0.8-22.6,1.3c-1.6,0.1-2.1,2.6-0.4,2.9c0.9,0.2,1.8,0.4,2.7,0.6C204.6,24.3,205.4,21.4,203.5,20.9L203.5,20.9z"/>
		</g>
	</g>
	<g>
		<g>
			<path d="M190.7,47.3c-0.2-0.2-0.4-0.3-0.6-0.5c-0.4-0.3-0.9-0.6-1.5-0.4c-4.9,1.7-4.8,10.3-5.7,14.5c-1.7,7.9-3.3,15.9-4.8,23.9
				c-3,15.8-5.4,31.7-7.5,47.6c-0.2,1.9,2.8,1.9,3,0c1.8-14.1,4-28.1,6.5-42c1.2-6.4,2.4-12.8,3.7-19.1c0.7-3.5,1.5-7,2.2-10.5
				c0.3-1.4,3.2-10.7,2.5-11.4C190,50.7,192.2,48.6,190.7,47.3L190.7,47.3z"/>
		</g>
	</g>
	<g>
		<g>
			<path d="M384,83.1c-19.2-12.6-41.2-19.4-63.6-23.7c-24.2-4.6-48.9-7.1-73.5-8c-25.1-0.9-50.2-0.1-75.1,2.6
				c-23,2.5-46.2,6-68.5,12.4C81,72.8,59.6,83,43.2,99.7c-1.4,1.4,0.8,3.5,2.1,2.1c30.9-31.5,78.7-39.2,120.6-44.1
				c48.1-5.7,97.2-4.8,145,3.1c25.1,4.1,50,10.9,71.5,24.9C384.1,86.7,385.6,84.1,384,83.1L384,83.1z"/>
		</g>
	</g>
	<g>
		<g>
			<path d="M58.7,88.4c0.1,0,0.2,0,0.3,0c-0.5-0.4-1-0.7-1.4-1.1c0,0.1,0,0.2,0.1,0.2c0,0.9,0.9,1.8,1.9,1.4
				c13.2-4.9,30.7-12.1,44-4.1c15.5,9.3,18,32.1,19.9,48.3c0.2,1.9,3.2,1.9,3,0c-2-17.1-4.7-39.5-20.3-50.1
				c-14.1-9.7-33.2-2.3-47.4,3.1c0.6,0.5,1.3,1,1.9,1.4c0-0.4-0.1-0.7-0.2-1c-0.2-0.7-0.8-1-1.4-1.1c-0.1,0-0.2,0-0.3,0
				C56.8,85.2,56.8,88.2,58.7,88.4L58.7,88.4z"/>
		</g>
	</g>
	<g>
		<g>
			<path d="M262.7,138.5c8.9-21.2,25.8-38.2,46.4-48.3c10.3-5.1,21.4-8.3,32.8-9.4c12.1-1.2,25.9-0.7,36.2,6.3
				c1.6,1.1,3.1-1.5,1.5-2.6c-10.4-7.1-24.1-7.8-36.3-6.8c-12,1-23.6,4.2-34.5,9.4c-21.9,10.4-39.6,28.4-49,50.8
				C259.1,139.4,262,140.2,262.7,138.5L262.7,138.5z"/>
		</g>
	</g>
</g>
</svg>
