<?xml version="1.0" encoding="utf-8"?>
<!-- Generator: Adobe Illustrator 18.1.1, SVG Export Plug-In . SVG Version: 6.00 Build 0)  -->
<svg version="1.1" id="Layer_1" xmlns="http://www.w3.org/2000/svg" xmlns:xlink="http://www.w3.org/1999/xlink" x="0px" y="0px"
	 viewBox="0 0 9307 578.1" enable-background="new 0 0 9307 578.1" xml:space="preserve">
<g>
	<g>
		<path fill="#96CA2D" d="M690.1,366.9c80-69.2,173.1-121.2,271.1-160.2c97.9-38.9,200.2-65.5,303.3-86.5
			c115.9-23.5,233.3-43.3,351.9-38.7c117.6,4.6,233.4,29.4,345.6,63.9c112.5,34.6,221.7,78.7,330.1,124.1
			c13.7,5.7,27.3,11.5,41,17.2c1.8,0.7,2.6-2.2,0.8-2.9c-110.2-46.4-220.8-92.5-334.5-129.7c-111.5-36.5-226.5-64.4-343.7-73.4
			c-60.1-4.6-120.4-3.8-180.3,2.2c-58.9,5.9-117.3,16.1-175.5,27.2c-104.7,20-208.9,45-309,81.9c-97.3,35.9-190.8,83.4-272.6,147.6
			c-10.4,8.1-20.5,16.5-30.4,25.1C686.6,366.1,688.7,368.2,690.1,366.9L690.1,366.9z"/>
	</g>
</g>
<g>
	<g>
		<path fill="#96CA2D" d="M2216.7,238.5c88.5-60.3,185.8-107.2,287.7-140.3c101.7-33.1,207.7-52.7,314.5-59.5
			c108.8-6.9,218.1-0.2,325.5,18.4c108.2,18.8,214.3,49.5,316.4,89.8c103.2,40.7,202.5,91.3,296.9,149.5
			c11.8,7.3,23.5,14.7,35.2,22.2c1.6,1.1,3.1-1.5,1.5-2.6c-93.4-60.3-191.7-113.1-294.2-156.3c-102.5-43.2-209.1-77-318.3-98.7
			c-107-21.3-216.4-31.1-325.5-27.2c-106.7,3.8-213.1,20.2-315.7,50c-102.6,29.8-201.4,73.1-291.9,130c-11.3,7.1-22.5,14.5-33.5,22
			C2213.6,237,2215.1,239.6,2216.7,238.5L2216.7,238.5z"/>
	</g>
</g>
<g>
	<g>
		<path fill="#96CA2D" d="M3614,207.4c107.2-35.5,218.4-63.6,331.9-66.3c97.9-2.4,197,15.5,284.5,60.5
			c47.2,24.3,90.2,56.5,125.6,96.2c1.3,1.4,3.4-0.7,2.1-2.1c-63.3-71.1-150.3-117-241.9-139.8c-103.7-25.8-212.1-21.4-316.3-1.5
			c-63.3,12.1-125.5,29.8-186.6,50.1C3611.4,205.1,3612.2,208,3614,207.4L3614,207.4z"/>
	</g>
</g>
<g>
	<g>
		<path fill="#96CA2D" d="M4292.1,235.8c89.8-38,180.1-76.3,275.2-99.2c87.2-21,178.9-28.2,267.3-9.8c47.7,9.9,93.8,27.4,135.1,53.5
			c1.6,1,3.1-1.6,1.5-2.6c-74.3-46.8-162.7-65.3-249.7-64.4c-95.1,1-188,25.6-276.8,57.9c-52,18.9-103,40.5-154,62.1
			C4288.8,234,4290.3,236.6,4292.1,235.8L4292.1,235.8z"/>
	</g>
</g>
<g>
	<g>
		<path fill="#96CA2D" d="M1231.6,198.3c-32.7,20.5-60.5,48.3-80.3,81.5c-10,16.8-18,35.4-23.5,54.2c-9.3,31.6-6.2,63.4,15.5,89.1
			c19.9,23.5,56.8,30.6,85,19.8c22.1-8.5,40.9-21.8,56.4-39.8c12.9-14.9,24.5-31,32.5-49c4.8-10.8,9.6-21.7,12.8-33.1
			c1-3.6,1.9-7.2,2.6-10.9c2-10.9,3.1-20.8,0-31.9c-3.1-11.3-9.4-19.5-16.8-28.1c-48.8-57.1-132.2-56.2-199.1-41.2
			c-32.1,7.2-63.6,18.1-94.7,28.7c-34.1,11.7-67.8,24.4-101,38.2c-78.6,32.5-155.1,69.5-228.6,112.5c30.1,17.3,60.2,34.5,90.3,51.8
			c0.1-2.5,0.3-4.9,0.6-7.4c-0.7,5.3-1.4,10.6-2.1,16c1.1-8.1,3.3-15.9,6.5-23.5c-2,4.8-4,9.6-6,14.3c4.1-9.1,9.2-17.5,15.2-25.6
			c-3.1,4-6.3,8.1-9.4,12.1c17.4-22.4,39.6-40.5,61.9-57.8c-4,3.1-8.1,6.3-12.1,9.4c58.4-45.1,122.9-81.4,190.8-110.1
			c-4.8,2-9.6,4-14.3,6c82.4-34.6,169-58.3,256.9-74.3c25.1-4.6,50.3-8.5,75.6-12c-5.3,0.7-10.6,1.4-16,2.1
			c123.2-16.5,248.9-23.7,372.5-7.3c-5.3-0.7-10.6-1.4-16-2.1c114.7,15.5,226.1,48.9,334,90.1c31.1,11.9,61.9,24.4,92.6,37.3
			c-4.8-2-9.6-4-14.3-6c59.5,25.1,118.3,51.8,177,78.7c15.1,6.9,29.7,10.6,46.2,6c13.9-3.8,29-14.6,35.9-27.6
			c7.4-13.9,11-30.8,6-46.2c-4.5-14-13.6-29.5-27.6-35.9c-112.7-51.5-225.9-102.8-343-143.7C1877,92,1756,63.1,1632.5,55.1
			c-122.4-8-247,3.9-367.8,23.9c-110.4,18.2-217.9,48.6-319.9,94.8c-48.1,21.8-94.4,47.5-137.7,77.8c-25.1,17.5-49.6,36.2-72.7,56.4
			c-22.4,19.7-44.2,43.4-56.4,70.9c-9,20.3-14.3,38.8-15.2,61.2c-2,46,52.3,74,90.3,51.8c65.5-38.3,133.5-72.4,203.4-101.9
			c-4.8,2-9.6,4-14.3,6c40.4-17,81.3-32.5,122.9-46.4c36.1-12.1,72.6-24.6,110.4-29.8c-5.3,0.7-10.6,1.4-16,2.1
			c17.5-2.3,35.2-3,52.8-0.7c-5.3-0.7-10.6-1.4-16-2.1c9.6,1.4,19,3.8,28,7.4c-4.8-2-9.6-4-14.3-6c7.5,3.2,14.5,7.2,21,12.2
			c-4-3.1-8.1-6.3-12.1-9.4c4.9,4,9.4,8.4,13.4,13.3c-5.1-19.5-10.3-38.9-15.4-58.4c-2,9.8-5,19.3-8.8,28.6c2-4.8,4-9.6,6-14.3
			c-5,11.5-11.3,22.2-18.9,32.2c3.1-4,6.3-8.1,9.4-12.1c-6.6,8.4-14,16.2-22.3,22.9c4-3.1,8.1-6.3,12.1-9.4
			c-3.6,2.7-7.3,4.9-11.3,6.8c4.8-2,9.6-4,14.3-6c-3.4,1.4-6.6,2.4-10.2,3c5.3-0.7,10.6-1.4,16-2.1c-2,0.2-3.9,0.2-5.9,0
			c5.3,0.7,10.6,1.4,16,2.1c-1.3-0.2-2.5-0.5-3.7-0.9c4.8,2,9.6,4,14.3,6c-1.9-0.8-3.3-1.7-5-2.9c4,3.1,8.1,6.3,12.1,9.4
			c-1.1-0.9-2-2-2.8-3.2c3.1,4,6.3,8.1,9.4,12.1c-0.8-1.2-1.5-2.5-2-3.8c2,4.8,4,9.6,6,14.3c-0.5-1.4-0.9-2.8-1.1-4.2
			c0.7,5.3,1.4,10.6,2.1,16c-0.4-3.1-0.3-6-0.1-9c-0.7,5.3-1.4,10.6-2.1,16c1.5-11,5.4-21.7,9.6-31.9c-2,4.8-4,9.6-6,14.3
			c6.1-14.2,13.8-27.4,23.2-39.6c-3.1,4-6.3,8.1-9.4,12.1c9.5-12.1,20.3-22.9,32.5-32.4c-4,3.1-8.1,6.3-12.1,9.4
			c4.5-3.4,9.2-6.6,14-9.6c13-8.2,23.4-20.9,27.6-35.9c4-14.4,2.2-33.5-6-46.2C1296.5,193.1,1260,180.4,1231.6,198.3L1231.6,198.3z"
			/>
	</g>
</g>
<g>
	<g>
		<path fill="#96CA2D" d="M2249.9,342.6c12-15.2,25.9-28.6,41.2-40.4c-4,3.1-8.1,6.3-12.1,9.4c24.7-18.7,52.2-33,80.6-45.1
			c-4.8,2-9.6,4-14.3,6c52.3-21.9,107.3-38.1,161.5-54.7c59.5-18.2,119.4-34.9,180.3-48c34.5-7.4,69.2-13.6,104.1-18.3
			c-5.3,0.7-10.6,1.4-16,2.1c100.4-13.3,201.8-12.2,302.1,1.2c-5.3-0.7-10.6-1.4-16-2.1c115.4,15.6,228.2,46.7,337.3,87
			c31.1,11.5,61.9,23.8,92.5,36.7c-4.8-2-9.6-4-14.3-6c89,37.7,175.6,80.6,260.7,126.5c14,7.6,30.7,10.3,46.2,6
			c13.9-3.8,29-14.6,35.9-27.6c14.8-27.9,8-66.2-21.5-82.1C3697,238.8,3593.8,188.9,3487.4,146c-101.2-40.8-205.7-74.3-312.9-95.5
			c-110.8-21.9-224.7-32-337.5-23.4c-119.5,9.1-236.3,36.9-350.8,71.5c-51.4,15.6-103.2,31.1-153.4,50.4
			c-52.4,20.1-102.5,44.5-144.1,83c-8.6,7.9-16.5,16.6-23.7,25.7c-10.3,13-17.6,25.1-17.6,42.4c0,14.7,6.5,32.3,17.6,42.4
			c11.4,10.5,26.4,18.3,42.4,17.6C2222.3,359.5,2240.3,354.8,2249.9,342.6L2249.9,342.6z"/>
	</g>
</g>
<g>
	<g>
		<path fill="#96CA2D" d="M3640.9,324.1c61.7-23,125.3-40.7,190-52.7c18.5-3.4,37.1-6.4,55.7-8.9c-5.3,0.7-10.6,1.4-16,2.1
			c73.7-9.8,150-14.7,223.9-4.8c-5.3-0.7-10.6-1.4-16-2.1c33.6,4.6,66.8,12.6,98.2,25.7c-4.8-2-9.6-4-14.3-6
			c24,10.1,46.8,23.1,67.4,39.1c-4-3.1-8.1-6.3-12.1-9.4c16.4,12.8,31.2,27.4,44,43.8c-3.1-4-6.3-8.1-9.4-12.1
			c8.9,11.6,16.7,24.1,23.2,37.3c6.3,12.9,22.4,23.9,35.9,27.6c14.4,4,33.5,2.2,46.2-6c12.8-8.3,24.1-20.6,27.6-35.9
			c0.7-5.3,1.4-10.6,2.1-16c0-10.8-2.8-20.9-8.2-30.3c-23.3-47.5-62.4-86.1-106.1-115c-21.9-14.5-45.7-25.3-70-35
			c-23.9-9.5-48.9-16.1-74.2-20.6c-57.3-10.1-115.1-11.7-173.1-8.4c-58.2,3.3-116.3,10.9-173.4,22.4c-59,11.9-117,28.4-173.4,49.5
			c-7.8,1.9-14.6,5.4-20.4,10.7c-6.5,4.2-11.7,9.8-15.5,16.8c-7.5,12.9-10.7,31.8-6,46.2c4.7,14.5,13.7,28.5,27.6,35.9
			C3608.2,325.2,3625.9,329.7,3640.9,324.1L3640.9,324.1z"/>
	</g>
</g>
<g>
	<g>
		<path fill="#96CA2D" d="M4322.8,369.9c43.4-29.1,89.5-54,137.6-74.3c-4.8,2-9.6,4-14.3,6c65-27.3,133.4-46.3,203.3-55.8
			c-5.3,0.7-10.6,1.4-16,2.1c64.6-8.7,130.3-9.1,194.9-0.5c-5.3-0.7-10.6-1.4-16-2.1c41.7,5.7,84.8,13.7,123.7,30.1
			c-4.8-2-9.6-4-14.3-6c12.5,5.4,24.5,11.9,35.4,20.2c-4-3.1-8.1-6.3-12.1-9.4c4.3,3.3,8.4,6.9,12.3,10.7
			c11,10.8,26.9,17.6,42.4,17.6c14.7,0,32.3-6.5,42.4-17.6c10.5-11.4,18.3-26.4,17.6-42.4c-0.7-15.8-6-31.1-17.6-42.4
			c-42-41.4-100.6-58.5-157-69.7c-52.8-10.4-107-15.8-160.9-15.1c-53.9,0.7-108.1,7.2-160.9,18.1c-48.4,10-95.8,24.6-141.6,43.4
			c-55.8,22.9-109.4,49.9-159.6,83.6c-13,8.8-23.3,20.4-27.6,35.9c-4,14.4-2.2,33.5,6,46.2c8.3,12.8,20.6,24.1,35.9,27.6
			C4291.7,379.4,4309.4,378.9,4322.8,369.9L4322.8,369.9z"/>
	</g>
</g>
<g>
	<g>
		<path fill="#96CA2D" d="M4312.2,355.7c51.9-17.9,103.8-35.9,155.8-53.8c50.9-17.6,101.6-36.3,153.2-52
			c28.3-8.6,57.1-15.8,86.5-19.8c-5.3,0.7-10.6,1.4-16,2.1c28.5-3.7,57.1-4,85.7-0.2c-5.3-0.7-10.6-1.4-16-2.1
			c56,7.7,108.8,28.8,160.6,50.6c-4.8-2-9.6-4-14.3-6c4,1.7,8,3.4,12,5.1c6.9,4.4,14.3,6.8,22.3,7.1c8,1.8,16,1.4,23.9-1.1
			c13.9-3.8,29-14.6,35.9-27.6c7.4-13.9,11-30.8,6-46.2c-2-4.8-4-9.6-6-14.3c-5.3-9-12.5-16.2-21.5-21.5
			c-44.4-18.8-88.9-38.3-135.5-51.1c-46.2-12.6-95-18.9-142.8-13.9c-49.4,5.2-96.6,17.4-143.5,33c-43.4,14.5-86.6,29.8-129.9,44.7
			c-49.4,17.1-98.8,34.1-148.3,51.2c-14.9,5.1-27.7,13.7-35.9,27.6c-7.5,12.9-10.7,31.8-6,46.2c4.7,14.5,13.7,28.5,27.6,35.9
			C4279.7,356.9,4296.9,361,4312.2,355.7L4312.2,355.7z"/>
	</g>
</g>
<g>
	<g>
		<path fill="#96CA2D" d="M727.1,544.7c16.7,8.2,32.1,12.9,50.9,13.1c12.5,0.1,25.5-2,37.6-5.4c20.9-6,40.3-16.4,60.2-24.8
			c-4.8,2-9.6,4-14.3,6c39.3-16.5,80.7-27.7,123-33.5c-5.3,0.7-10.6,1.4-16,2.1c41.7-5.5,83.9-5.6,125.7-0.2
			c8.3,0.3,16-1.4,23.1-5.2c7.4-2.4,13.9-6.6,19.3-12.4c10.4-10.4,18.2-27.5,17.6-42.4c-0.7-15.5-5.8-31.6-17.6-42.4
			c-4-3.1-8.1-6.3-12.1-9.4c-9.4-5.4-19.5-8.2-30.3-8.2c-37.2-4.8-74.9-5.3-112.3-1.4c-41.8,4.4-83.1,12.1-122.9,25.9
			c-24.4,8.4-47.6,19.5-71.3,29.5c4.8-2,9.6-4,14.3-6c-10.2,4.2-20.7,7.9-31.7,9.4c5.3-0.7,10.6-1.4,16-2.1c-4.9,0.6-9.8,0.6-14.8,0
			c5.3,0.7,10.6,1.4,16,2.1c-3.8-0.6-7.5-1.6-11.1-3c4.8,2,9.6,4,14.3,6c-1-0.4-2.1-0.9-3.1-1.4c-14.6-7.2-30.1-10.5-46.2-6
			c-13.9,3.8-29,14.6-35.9,27.6c-7.4,13.9-11,30.8-6,46.2C704.1,523.1,713.2,537.9,727.1,544.7L727.1,544.7z"/>
	</g>
</g>
<g>
	<g>
		<path fill="#96CA2D" d="M888.9,575.7c122.6-38.9,246.6-50.6,374.7-54.2c132-3.8,264.3-2.1,396.4-1.1c269.5,2,539,7.2,808.5,11.6
			c539.5,8.7,1079,17.5,1618.4,26.2c305.5,4.9,611,9.9,916.6,14.8c27.7,0.4,49.3-19.2,57.9-44c19.2-55.5,33.2-121.3,15.4-179.1
			c-10.4-33.6-30.9-62.8-60.7-82c-34.4-22.2-75.8-25.3-115.3-30.1c-161.1-19.7-323.7-15.2-484,9.5c-77.5,11.9-180,30.7-184.1,128.6
			c-1.4,32.2,28.6,60.3,60,60c230.4-2.1,460.6,11.3,689.2,40c0-40,0-80,0-120c-261.3-24.1-523.7-9-785.4-2.1
			c-259.4,6.9-518.9,5.9-778.3,1.4c-519-9-1037.7-32-1556.7-34.2c-292-1.2-584.1,4.2-875.6,22.3c10.1,37.3,20.2,74.5,30.3,111.8
			c67.8-35.7,135.7-71.4,203.5-107c32.5-17.1,66.9-32.2,95.3-55.8c33.1-27.6,44.5-62.9,38.7-104.8c-4-29.1-39.7-46.9-65.8-43
			c-30.5,4.6-50,28.4-52,58.9c-6.1,94.2,141.1,134.7,182.4,48.8c10.6-22,11.2-46.7-4.7-66.6c-13.9-17.4-40.5-29.9-63.1-21.5
			c-51.1,19.1-85.1,61.7-86.3,117.4c-0.5,24.8,18.9,52.7,44,57.9c73,15,132.2-45.5,118.7-117.9c-7-37.8-57.4-55.2-88.1-35.9
			c-25.8,16.2-42.8,40.6-47.3,70.9c-4.7,31.9,5.3,57.2,24.7,82.2c16.7,21.5,51.1,20.5,72.7,9.4c44.1-22.6,69.7-68.7,71.1-117.5
			c1.3-45.6-51.9-74.7-90.3-51.8c-62.9,37.4-40.5,130.8,25.5,150.1c67.8,19.7,111.1-41,128.9-97.3c16.5-52.3-43.9-91-88.1-67.8
			c-51,26.8-78.5,76.7-84.5,132.5c-4.2,39.2,41.7,67.7,76,57.9c52.9-15.2,98.7-50.8,124-100c11.1-21.6,10.9-47.1-4.7-66.6
			c-14.1-17.7-40.2-29.5-63.1-21.5c-54.1,18.9-91.6,66.3-91.2,124.8c0.3,40.2,38,66.7,76,57.9c50.9-11.8,97.2-47.7,119.1-95.5
			c11.3-24.6,10.8-52.6-9.4-72.7c-18.7-18.7-49.9-23-72.7-9.4c-47.5,28.2-69.8,83.5-56.1,136.8c7.8,30.2,43.3,52,73.8,41.9
			c47.3-15.6,86.2-45.6,111.7-88.7c18.8-31.8,2.3-80-35.9-88.1c-74.4-15.9-115.3,65.7-77.8,124.6c20.4,32.1,59.5,41.8,94.7,31.3
			c33.4-9.9,56.4-38.5,74-66.8c17.1-27.6,5.9-66-21.5-82.1c-30.9-18.1-62.4-4.3-82.1,21.5c-20.3,26.6-29.7,60.9-29,94.1
			c0.9,39.4,37.6,67.6,76,57.9c43.9-11.2,82.8-41.1,103.2-81.8c23.6-47.1-15.2-100.3-67.8-88.1c-51.3,11.8-84.5,58-86.6,109.2
			c-1.5,35.4,28.9,55.9,60,60c32.3,4.2,65.3-9.3,89.5-30c26.3-22.5,37.3-51.3,41.5-84.8c5.6-44.7-55.3-75.5-90.3-51.8
			c-34.1,23.2-54.3,56.6-54.6,98.4c-0.2,26,18.7,51.3,44,57.9c66.4,17.3,134.8-10.7,171.1-68.5c-36.6-15.4-73.1-30.8-109.7-46.2
			c-5.4,16.3-10.9,32.6-16.3,48.8c-12.9,38.7,21,74.2,57.9,76c57.8,2.7,103.4-35.1,123.6-86.7c6.8-17.3-0.1-38.5-10.7-52.3
			c-12.5-16.2-27.5-21.1-47.1-23.6c-66-8.5-92.7,77.6-62.4,124.2c40.4,62.1,118.8,35.5,157.6-12.3c-31.4-4-62.8-8.1-94.2-12.1
			c28.6,59.3,97.3,67.8,155.7,63.8c24.1-1.7,48.4-4.7,72.6-3.4c1.4,0.1,8.4-0.5,9.4,0.8c-0.1-0.1-14.2-3.4-5.3-0.4
			c2.4,0.8,5.9,2.1,8.3,2.2c6.5,0.2-10.9-4.9-5.1-2.4c0.8,0.4,7.1,3.5,7,4c0,0.1-11.3-9.5-4.8-3.2c6.5,6.2-3.3-4.4-3.2-4.4
			c1-0.1,4.6,8.8,4.9,9.5c22.6-29.4,45.2-58.8,67.8-88.1c-80.3-24-160.5-48.1-240.8-72.1c-41.4-12.4-82.8-24.9-124.3-37.2
			c-42.3-12.5-86-20.9-129.2-7.3c-38.9,12.2-72,35.9-105.7,58c-35.6,23.4-71.2,46.7-106.7,70.1c-72.3,47.5-144.6,95-216.9,142.5
			c-51.2,33.6-29.2,107.4,30.3,111.8c243.2,18,487.2,23.7,731,17.1c32.4-0.9,60-26.9,60-60c0-31.8-27.5-60.9-60-60
			c-243.8,6.6-487.8,0.9-731-17.1c10.1,37.3,20.2,74.5,30.3,111.8c68.9-45.2,137.7-90.5,206.6-135.7c34.4-22.6,68.9-45.2,103.3-67.8
			c27.7-18.2,60.1-44,88.4-54.5c8.8-3.3,19.7-4.7,31.2-2.9c17.6,2.8,35.1,9.2,52.2,14.3c38.8,11.6,77.7,23.3,116.5,34.9
			c77.7,23.3,155.3,46.5,233,69.8c22.8,6.8,49.1-2.8,63.1-21.5c15.6-20.9,14.8-43.5,4.7-66.6c-26.2-59.8-96.2-68.6-153.5-64.7
			c-24.2,1.6-48.6,4.7-72.9,3.5c-1.5-0.1-8.5,0.5-9.5-0.7c0.2,0.2,14.1,3.3,5.1,0.5c-3.7-1.1-17.6-6.7-9.3-2.1
			c9.8,5.5-0.7-0.8-1.6-1.5c1.6,1.3,9.8,9.1,4.5,3.3c-5.9-6.4,2.1,4.4,2.9,4.5c-1.3-0.2-4.8-8.4-5.2-9.3
			c-15.7-32.6-70.9-40.9-94.2-12.1c-3.9,4.7-7.9,9.2-12,13.7c-7.3,8-1.5,2.1,4.6,0.7c19.9-4.5,38.9,15,40.7,32.8
			c2.2,21.2-19.9,48.8-43.6,45.7c-19.3-25.3-38.6-50.6-57.9-76c3-7.6-3.5-0.4-0.5-1.2c5.2-1.3-9.2,5.3-0.1-0.9
			c-3.6,2.5-6.8,3.4-1.1,0.6c-10.4,5,5,0.5-6.3,0c19.3,25.3,38.6,50.6,57.9,76c5.4-16.3,10.9-32.6,16.3-48.8
			c9.4-28-8.5-60.2-34.7-70.8c-28.1-11.3-58.6-1.3-74.9,24.5c-3.9,5.9-4.1,6.4-0.7,1.6c-2.5,2.8-5.2,5.5-8.1,7.9
			c10.8-8.8-16.3,6.8-2.9,1.6c-3.7,1.4-23.3,3.5-11.8,3.4c-3.8,0.2-7.6,0.1-11.3-0.2c6.6,0.9,6.3,0.5-0.8-1
			c14.7,19.3,29.4,38.6,44,57.9c-0.4,1.2-0.8,2.5-1.3,3.7c1.7-6.5,2.1-7.9,1.1-4.4c1.3,0.1-5,6.2-4.7,5.9
			c-30.1-17.3-60.2-34.5-90.3-51.8c-0.6-2.6-0.2-4.9,1.1-7c1.8-3.7,1.2-2.8-1.8,2.8c3.3-4,3.5-4.4,0.6-1.4c-3,2.9-2.6,2.7,1.3-0.6
			c-1.6,0.9-3.2,1.9-4.8,2.8c5.9-2.2,5.4-2.3-1.3-0.2c1.7-0.2,3.3-0.5,5-0.7c-3.7,0.1-7.4-0.2-11.1-0.9c20,20,40,40,60,60
			c-1.5,6.7-1.4,6.6,0.5-0.4c-0.4,3-1.7,5.5-4.1,7.5c5-4.9,5.3-5.2,0.9-1c-5.9,2.2-5.5,2.3,1.3,0.5c-22.6-29.4-45.2-58.8-67.8-88.1
			c-2.6,5.2-5.3,10.8-9,15.4c6.1-7.7-6.5,5.2-6.7,5.4c7.4-6-6.4,3.2-7.7,3.8c8.7-4.2-6.3,1.5-8.1,2c25.3,19.3,50.6,38.6,76,57.9
			c-0.4-16.5,0.4-17.6,12.6-33.6c-34.5-20.2-69.1-40.4-103.6-60.6c-1.2,2-11.5,20.5-7.2,11.1c-5.2,4.8-5.3,5.4-0.2,1.7
			c-6.1,3.6-6,3.7,0.1,0.4c18-3.6,32.6,3,43.7,19.7c3.3,9.4,4,11,2.2,4.9c6,29.3-21.7,57.1-57.9,49.4c-12-29.4-23.9-58.8-35.9-88.1
			c-9.6,16.2-24,28.2-40,33.5c24.6,14,49.2,27.9,73.8,41.9c-0.4-1.7-0.9-3.5-1.3-5.2c0.8,6.2,1.2,7.1,1.2,2.6c0.2-3.6,0.1-3.6,0,0
			c-0.5,4.4,0,3.6,1.5-2.5c0.3,0-4.8,7.5,1.4,0c-2.5,3.1-11.1,9.4-1.7,3.8c-27.4-27.4-54.7-54.7-82.1-82.1
			c-3.3,7.1-6.8,14.2-11.5,20.5c5.8-7.7-8.5,8-10.4,9.5c7.3-6.1-10,5.7-12.3,6.8c8.9-4.4-10.7,2.9-13.3,3.5
			c25.3,19.3,50.6,38.6,76,57.9c-0.1-10.6-2,1.4,0.2-4.3c1.1-3.4,1.1-3.7,0.1-1c-1.5,3.6-0.8,2.5,2.3-3.3c-5.2,4.4-0.2-0.3,1.9-1.3
			c-10.9,5.6,10.9-3.4-1.3,0.9c-22.6-29.4-45.2-58.8-67.8-88.1c-12.6,24.5-28.4,38-52.3,44.9c25.3,19.3,50.6,38.6,76,57.9
			c-1.2,11.1,1.8-5.1,2.7-7.5c-3.1,8.9,4.4-7.5,6-9.7c2.3-3.4,2.3-3.3-0.1,0.4c2-2.2,4.1-4.3,6.4-6.3c3.1-2.7,3-2.7-0.4,0.2
			c3.3-2.2,6.8-4.2,10.4-5.9c-29.4-22.6-58.8-45.2-88.1-67.8c-0.8,2.4-9.1,21.9-4.2,12.6c-1.7,3.4-3.6,6.7-5.7,9.8
			c0.9-2.2,2.4-3.9,4.4-4.9c1.9-1.5,4-2.5,6.4-3c13.5-3.6,25.4-0.6,35.4,8.9c-4.6-4.7-4.1-3.9,1.6,2.4c10.6,18.5,5.2,37.4-16.1,56.9
			c-30.1-17.3-60.2-34.5-90.3-51.8c-0.3,10.5,1.9-1.2-0.7,4.2c-3,6.1,7.4-5-2.3,4.3c4.7-4.5,0.8-0.4-1.6,1.5c7.9-6-6.1,3.3-7,3.8
			c24.2,3.1,48.5,6.3,72.7,9.4c6.3,5.7,9.2,12.5,8.8,20.3c0.1-5.9,0.1-6.5-0.2-1.7c-1.7,7-3.6,12.6-10.3,16.7
			c-29.4-12-58.8-23.9-88.1-35.9c-3.7-20,7.5-34.2,28.9-29.8c14.7,19.3,29.4,38.6,44,57.9c0.1-5.5,0.8-6.5-0.2-0.6
			c1.2-7.2,2.8-4.5-1,0.5c-2.1,2.2-2,2,0.4-0.5c2.5-2.4,2.6-2.7,0.1-0.9c-2.6,1.6-2.4,1.5,0.6-0.3c3.7-2.1,3.1-2-1.7,0.2
			c-22.6-29.4-45.2-58.8-67.8-88.1c-3.1,5.8-2.1,4.9,3-2.6c3.8-4,8.4-6.8,13.8-8.4c9.8-0.8,11.3-1,4.6-0.7c9.4,1.7,10.8,1.9,4.3,0.5
			c-6.2-2-5.1-1.4,3.4,1.7c-5.5-3.4-4.5-2.6,3,2.6c3.9,4,6.5,8.7,7.8,14.1c0.7,9.9,1.1,11.4,1.3,4.6c-39.3,5.3-78.6,10.6-117.9,16
			c1.2,8.7-3.1-26.3,4.9-23.9c0.8,0.2-13.5,12.6-5.3,6.2c-9.3,7.3-20.7,12.5-31.1,18c-27.9,14.7-55.7,29.3-83.6,44
			c-55.7,29.3-111.4,58.6-167.1,87.9c-51.6,27.2-29,115.5,30.3,111.8c520.6-32.2,1042.6-24,1563.7-10.2
			c518.8,13.8,1037.8,33,1556.8,22.8c291.7-5.7,584.3-26.9,875.5,0c32.3,3,60-29.7,60-60c0-35.8-27.7-55.9-60-60
			c-228.6-28.7-458.8-42.1-689.2-40c20,20,40,40,60,60c-1.6,7.8-1.6,8.3,0.1,1.8c-0.7,4.2-2.6,7.8-5.7,10.8c4.9-4.5,4.5-4.5-0.9-0.1
			c2.8-1.9,5.8-3.7,8.8-5.3c6.2-3,6.3-3.2,0.2-0.5c3.4-1.3,6.8-2.5,10.2-3.5c6.7-2.1,13.6-3.7,20.5-5.1
			c39.1-8.1,78.5-13.8,117.8-18.2c84.4-9.4,169.4-12.5,254.3-9.3c42.4,1.6,84.8,4.8,127,9.5c19.8,2.2,31.9,3.1,49.8,7.3
			c4.3,1,8.6,2.1,12.8,3.5c-4.1-2.1-2.9-1.5,3.7,2c5.8,3.9,5.8,3.7,0.2-0.5c2.4,2.1,4.7,4.4,6.9,6.8c-9.5-9.4,1.7,3.7,3.7,7.6
			c-6.7-13,0.6,5.3,1.6,8.7c1.2,6.9,1.3,6.5,0.2-1c0.3,3.4,0.6,6.9,0.7,10.4c0.3,7.1,0.1,14.3-0.4,21.4c-0.3,3.6-0.6,7.3-1,10.9
			c0.9-6.8,0.9-6.6-0.3,0.5c-1.5,7.3-2.8,14.6-4.6,21.9c-3.4,14.1-7.7,28-12.5,41.7c19.3-14.7,38.6-29.4,57.9-44
			c-545-8.8-1090-17.6-1635-26.5c-542-8.8-1084-20-1626.1-25.4c-149.2-1.5-298.5-3.3-447.6-0.3c-147.3,2.9-296.6,14.4-437.8,59.2
			c-30.9,9.8-50.7,41.7-41.9,73.8C823.4,564.1,857.9,585.5,888.9,575.7L888.9,575.7z"/>
	</g>
</g>
<g>
	<g>
		<path fill="#96CA2D" d="M2520.8,338.8c35.3-15.4,66.7-36.4,96.8-60.5c5.9-5.4,10-11.9,12.4-19.3c3.8-7.2,5.5-14.9,5.2-23.1
			c0-14.7-6.5-32.3-17.6-42.4c-11.4-10.5-26.4-18.3-42.4-17.6c-5.3,0.7-10.6,1.4-16,2.1c-10.2,2.9-19,8-26.5,15.4
			c-1.8,1.5-3.7,2.9-5.6,4.4c4-3.1,8.1-6.3,12.1-9.4c-24.4,18.7-50.9,34.4-79.1,46.7c-7,3.8-12.6,8.9-16.8,15.5
			c-5.3,5.8-8.9,12.6-10.7,20.4c-4,14.4-2.2,33.5,6,46.2c8.3,12.8,20.6,24.1,35.9,27.6c5.3,0.7,10.6,1.4,16,2.1
			C2501.3,347,2511.4,344.2,2520.8,338.8L2520.8,338.8z"/>
	</g>
</g>
<g>
	<g>
		<path fill="#96CA2D" d="M2594.9,181.9c-39.5-4.1-79.9-0.6-118.7,7.9c-38.4,8.4-76.3,23.6-110.2,43.5c-21.2,12.4-41,27.4-59.6,43.4
			c-3.1,4-6.3,8.1-9.4,12.1c-4.4,6.9-6.8,14.3-7.1,22.3c-1.6,12.1-0.5,28,7.1,38.3c9.3,12.5,16,20.1,28.7,29
			c7.3,5.1,16,8.5,24.3,11.3c8.7,2.9,18.4,3.7,27.4,4.3c7.4,0.5,14.7-0.7,22.1-1.7c28.8-3.9,53.7-16,80.3-27.2c-4.8,2-9.6,4-14.3,6
			c41.1-17.1,84.4-27.6,128.5-33.5c-5.3,0.7-10.6,1.4-16,2.1c55.7-7.3,112-7.6,168-5.5c59.4,2.2,118.7,6.5,178,10
			c124.2,7.5,248.4,14.9,372.5,22.4c66.9,4,134.1,7,200.6,15.9c-5.3-0.7-10.6-1.4-16-2.1c44.4,6,88.4,14.9,131,28.8
			c5.3-39.3,10.6-78.6,16-117.9c-122.5-2.5-245-4.9-367.4-7.4c-122.8-2.5-245.5-4.9-368.3-7.4c-33.8-0.7-67.6-1.3-101.4-2.1
			c-30.5-0.7-61.7,0.2-92-3.7c5.3,0.7,10.6,1.4,16,2.1c-11.5-1.6-22.8-4.1-33.6-8.6c4.8,2,9.6,4,14.3,6c-5.7-2.4-11-5.4-15.9-9.1
			c4,3.1,8.1,6.3,12.1,9.4c-3-2.4-5.8-5.1-8.2-8.1c3.1,4,6.3,8.1,9.4,12.1c-2.1-2.7-3.7-5.5-5.2-8.6c2,4.8,4,9.6,6,14.3
			c-1.6-3.9-2.6-7.8-3.2-11.9c0.7,5.3,1.4,10.6,2.1,16c-0.3-3.5-0.3-7,0.2-10.5c-0.7,5.3-1.4,10.6-2.1,16c0.6-3.4,1.5-6.6,2.7-9.9
			c-2,4.8-4,9.6-6,14.3c2.1-4.9,4.8-9.3,8-13.5c-3.1,4-6.3,8.1-9.4,12.1c4.3-5.3,9.2-10,14.6-14.3c-4,3.1-8.1,6.3-12.1,9.4
			c9.8-7.5,20.6-13.3,32-18.2c-4.8,2-9.6,4-14.3,6c31.9-13.4,65.5-21.6,99.7-26.3c-5.3,0.7-10.6,1.4-16,2.1
			c48.5-6.5,97.6-6.4,146.5-4.4c50.7,2.1,101.2,6.5,151.5,13.2c-5.3-0.7-10.6-1.4-16-2.1c90.5,12.2,180,31.7,267.4,58.6
			c25,7.7,49.8,16,74.4,24.8c0-38.6,0-77.1,0-115.7c-2.8,0.7-5.6,1.2-8.4,1.6c5.3-0.7,10.6-1.4,16-2.1c-7,0.8-13.9,0.7-20.9-0.3
			c5.3,0.7,10.6,1.4,16,2.1c-11.5-1.8-22.4-5.4-33-9.8c4.8,2,9.6,4,14.3,6c-30.7-13-59.3-29.9-91.3-40c-31.8-10.1-66-14.6-99.4-15.3
			c-64.2-1.4-128.4,13.2-188.7,34.1c-33,11.5-65.3,24.8-97.5,38.1c-7.8,1.9-14.6,5.4-20.4,10.7c-6.5,4.2-11.7,9.8-15.5,16.8
			c-7.5,12.9-10.7,31.8-6,46.2c4.7,14.5,13.7,28.5,27.6,35.9c13.3,7,31.7,12.1,46.2,6c68.3-28.2,137.5-56.7,211.2-66.7
			c-5.3,0.7-10.6,1.4-16,2.1c31.6-4.1,63.5-4.8,95.2-0.7c-5.3-0.7-10.6-1.4-16-2.1c23.9,3.3,47.2,9.3,69.5,18.6c-4.8-2-9.6-4-14.3-6
			c24.7,10.6,48.1,23.6,73.1,33.5c28.7,11.3,60.1,14,90.2,6.7c12.6-3,23.5-11.5,31.2-21.5c7.8-10.1,13.5-23.2,12.9-36.4
			c-0.5-10.7-3.2-20.9-8.2-30.3c-7.4-14-21.6-22.4-35.9-27.6c-123.9-44.6-252.2-73.3-382.9-88.7c-62.1-7.3-124.8-11.7-187.3-11.2
			c-64.6,0.4-132,6.8-192.6,30.6c-16.3,6.4-33.1,12.9-47.8,22.7c-18.5,12.3-32.5,25.6-45.2,43.7c-11.6,16.5-18.1,39.4-17.1,59.5
			c1.3,25,10.3,46.4,26.6,65.3c19.2,22.4,50.1,35.2,78.7,39.9c32.4,5.3,65,5.4,97.8,6.2c133.4,3.3,266.9,5.5,400.4,8.2
			c134.5,2.7,268.9,5.4,403.4,8.1c16.2,0.3,32.3,0.7,48.5,1c29.9,0.6,55.1-23.3,58.9-52c4.1-30.2-14.3-56.4-43-65.8
			c-79.7-26.1-164.3-34.9-247.6-40.7c-82-5.7-164.1-10-246.1-15c-83.1-5-166.1-10-249.2-15c-77.2-4.6-154.7-11-232.1-9.6
			c-46.3,0.9-92.6,5.1-138.1,13.6c-20.7,3.9-41.1,8.9-61.2,15.3c-23.6,7.5-46.1,17.7-68.8,27.4c4.8-2,9.6-4,14.3-6
			c-12.8,5.4-25.9,10-39.6,12.1c5.3-0.7,10.6-1.4,16-2.1c-6,0.8-12,1-18.1,0.2c5.3,0.7,10.6,1.4,16,2.1c-3.6-0.6-7-1.5-10.3-2.8
			c4.8,2,9.6,4,14.3,6c-2.8-1.3-5.3-2.8-7.8-4.7c4,3.1,8.1,6.3,12.1,9.4c-2.1-1.7-3.9-3.6-5.6-5.7c3.1,4,6.3,8.1,9.4,12.1
			c-0.3-0.5-0.7-0.9-1-1.4c-3.1,24.2-6.3,48.5-9.4,72.7c4.7-4.1,9.6-8.1,14.5-11.9c-4,3.1-8.1,6.3-12.1,9.4
			c21.6-16.5,45.2-30.1,70.2-40.9c-4.8,2-9.6,4-14.3,6c27-11.4,55.3-19.2,84.3-23.3c-5.3,0.7-10.6,1.4-16,2.1
			c25.6-3.4,51.4-3.9,77-1.2c14.3,1.5,32.6-7.8,42.4-17.6c10.4-10.4,18.2-27.5,17.6-42.4c-0.7-15.5-5.8-31.6-17.6-42.4
			c-4-3.1-8.1-6.3-12.1-9.4C2615.8,184.6,2605.7,181.9,2594.9,181.9L2594.9,181.9z"/>
	</g>
</g>
<g>
	<g>
		<path fill="#96CA2D" d="M3738.9,390.6c5.2-2.7,10.5-5.2,15.9-7.5c-4.8,2-9.6,4-14.3,6c26.1-10.9,53.8-16.7,81.7-20.5
			c-5.3,0.7-10.6,1.4-16,2.1c41.9-5.5,84.3-8.2,126.4-11.8c42.3-3.7,84.7-8.4,127.2-10.3c23.5-1,47-0.8,70.3,2.2
			c-5.3-0.7-10.6-1.4-16-2.1c19.4,2.6,38.5,7.1,56.6,14.7c-4.8-2-9.6-4-14.3-6c9.7,4.1,18.8,9.2,27.2,15.6c-4-3.1-8.1-6.3-12.1-9.4
			c5.3,4.2,10,8.9,14.2,14.2c-3.1-4-6.3-8.1-9.4-12.1c1.3,1.7,2.5,3.3,3.6,5.1c17.3-30.1,34.5-60.2,51.8-90.3
			c-113.5-2-227,7.6-338.8,26.9c-30,5.2-59.8,11.2-89.5,17.9c-14.3,3.3-28.6,15.1-35.9,27.6c-7.5,12.9-10.7,31.8-6,46.2
			c4.7,14.5,13.7,28.5,27.6,35.9c14.6,7.7,29.9,9.8,46.2,6c50.5-11.5,101.5-20.7,152.8-27.7c-5.3,0.7-10.6,1.4-16,2.1
			c67-9,134.6-14.1,202.2-15.1c19.1-0.3,38.2-0.3,57.3,0.1c21,0.4,41.3-11.7,51.8-29.7c10.4-17.7,11.7-43,0-60.6
			c-13.8-20.8-31.8-38.1-53.8-50.2c-18.4-10.1-38.9-17.7-59.3-22.5c-40.5-9.4-82.4-10.6-123.7-8.1c-38.4,2.4-76.8,6.3-115.1,9.7
			c-37.7,3.3-75.5,5.9-113.1,10.2c-24,2.8-48.2,5.8-71.7,11.6c-23.7,5.8-46.9,14.8-68.5,26.1c-13,6.8-23.8,22-27.6,35.9
			c-4,14.4-2.2,33.5,6,46.2c8.3,12.8,20.6,24.1,35.9,27.6C3708.8,400.3,3724.1,398.4,3738.9,390.6L3738.9,390.6z"/>
	</g>
</g>
<g>
	<g>
		<path fill="#96CA2D" d="M931.4,246.4c-55.5-26.6-113.7-47.8-173.7-61.5c-60-13.7-122-21.2-183.6-22.1
			c-61.8-0.9-123.7,5.3-184.4,17c-60.8,11.7-119.1,30.8-176,55c-52.2,22.1-102,49.6-148,82.6c-5.9,4.2-11.7,8.5-17.4,12.9
			c-7,3.8-12.6,8.9-16.8,15.5c-5.3,5.8-8.9,12.6-10.7,20.4c-4,14.4-2.2,33.5,6,46.2c8.3,12.8,20.6,24.1,35.9,27.6
			c5.3,0.7,10.6,1.4,16,2.1c10.8,0,20.9-2.8,30.3-8.2c50.8-38.7,106.6-70.6,165.4-95.5c-4.8,2-9.6,4-14.3,6
			c51.8-21.8,105.8-38.1,160.9-48.8c15.7-3,31.5-5.6,47.3-7.7c-5.3,0.7-10.6,1.4-16,2.1c56.5-7.5,113.7-9.3,170.5-5.1
			c16.2,1.2,32.3,2.9,48.4,5c-5.3-0.7-10.6-1.4-16-2.1c52.8,7.2,104.9,19.5,155.1,37.2c14.3,5,28.5,10.5,42.5,16.4
			c-4.8-2-9.6-4-14.3-6c10.9,4.6,21.7,9.5,32.4,14.6c6.9,4.4,14.3,6.8,22.3,7.1c8,1.8,16,1.4,23.9-1.1c13.9-3.8,29-14.6,35.9-27.6
			c7.4-13.9,11-30.8,6-46.2C954.4,268,945.3,253.1,931.4,246.4L931.4,246.4z"/>
	</g>
</g>
<g>
	<g>
		<path fill="#96CA2D" d="M83,365.5c-17.4,12.2-34.8,24.3-52.3,36.5c30.1,17.3,60.2,34.5,90.3,51.8c-0.6-5.1-0.5-10.2,0.1-15.3
			c-0.7,5.3-1.4,10.6-2.1,16c0.8-5.1,2.1-10,4-14.7c-2,4.8-4,9.6-6,14.3c2-4.7,4.6-9.1,7.6-13.2c-3.1,4-6.3,8.1-9.4,12.1
			c1.9-2.4,3.9-4.7,6.2-6.8c-28.3-28.3-56.6-56.6-84.9-84.9c-11.1,11.7-18.8,24.7-23.5,40.1c-2.3,7.5-3.1,16-3.6,23.7
			c-0.4,5.9,0.5,11.4,1.3,17.3c1.9,14.4,5.6,25.5,12.2,38.9c1.4,2.8,2.9,5.3,4.7,7.9c4.6,6.6,9.5,13.4,15.3,19.1
			c34.3,34,83.9,39.5,129.8,38c80.3-2.6,160.1-15,239.3-27.6c42-6.7,84-13.5,126.2-19.2c-5.3,0.7-10.6,1.4-16,2.1
			c65.6-8.8,131.9-14.7,198.1-11.4c18.6,0.9,37.2,2.6,55.8,5c-5.3-0.7-10.6-1.4-16-2.1c17.1,2.3,34.1,5.3,51,9.1
			c-14-24.6-27.9-49.2-41.9-73.8c-0.5,2-1.1,3.9-1.9,5.8c2-4.8,4-9.6,6-14.3c-1.4,3.2-3.1,6.2-5.2,9c3.1-4,6.3-8.1,9.4-12.1
			c-2.4,3-5,5.7-8,8.1c4-3.1,8.1-6.3,12.1-9.4c-4.5,3.4-9.3,6.1-14.4,8.3c4.8-2,9.6-4,14.3-6c-9.6,4-19.7,6.2-30,7.6
			c5.3-0.7,10.6-1.4,16-2.1c-12.7,1.6-25.5,1.6-38.3,1.7c-17.6,0-35.3,0-52.9,0c-35.3,0-70.6,0-105.9,0c-70.6,0-141.1,0.1-211.7,0.1
			c-39.9,0-79.9,0-119.8,0c-14.7,0-32.3,6.5-42.4,17.6c-3.1,4-6.3,8.1-9.4,12.1c-4.4,6.9-6.8,14.3-7.1,22.3c-1.4,5.3-1.4,10.6,0,16
			c0.4,8,2.7,15.4,7.1,22.3c7.9,12.3,20.8,25.2,35.9,27.6c92.2,14.7,185.1,19.4,278.3,15.7c93.5-3.7,186.6-15,279.2-28.2
			c49.9-7.1,99.6-15,149.3-22.9c7.8-1.9,14.6-5.4,20.4-10.7c6.5-4.2,11.7-9.8,15.5-16.8c7.5-12.9,10.7-31.8,6-46.2
			c-4.7-14.5-13.7-28.5-27.6-35.9c-4.8-2-9.6-4-14.3-6c-10.6-2.9-21.3-2.9-31.9,0c-61.4,9.8-122.8,19.5-184.4,27.7
			c5.3-0.7,10.6-1.4,16-2.1c-120.1,16.1-241.4,26.8-362.6,20.8c-33.7-1.7-67.4-4.7-100.9-9.2c5.3,0.7,10.6,1.4,16,2.1
			c-9-1.2-18.1-2.5-27.1-4c-5.3,39.3-10.6,78.6-16,117.9c87.9,0,175.8-0.1,263.6-0.1c44.3,0,88.5,0,132.8-0.1c22,0,43.9,0,65.9,0
			c18.7,0,37.7,0.8,56.3-0.7c13-1,26.1-2.6,38.8-5.4c12.2-2.7,24.1-7.6,35.2-13.1c25.8-12.7,45.9-37.6,53.2-65.3
			c8-30.2-9.9-66.6-41.9-73.8c-71.2-15.9-144.6-19.8-217.3-15.4c-73.4,4.5-146.2,16-218.7,27.6c-38.7,6.2-77.4,12.4-116.3,17.6
			c5.3-0.7,10.6-1.4,16-2.1c-30,4-60.1,7.4-90.3,9.7c-28.2,2.1-57.4,4.8-85.5,1.3c5.3,0.7,10.6,1.4,16,2.1c-9.1-1.2-18-3.4-26.5-6.9
			c4.8,2,9.6,4,14.3,6c-5.2-2.3-10.2-5.1-14.7-8.5c4,3.1,8.1,6.3,12.1,9.4c-3.4-2.7-6.4-5.8-9.1-9.2c3.1,4,6.3,8.1,9.4,12.1
			c-2.9-3.9-5.3-8-7.2-12.4c2,4.8,4,9.6,6,14.3c-1.8-4.4-3.1-8.9-3.7-13.6c0.7,5.3,1.4,10.6,2.1,16c-0.4-3.7-0.5-7.4-0.1-11.2
			c-0.7,5.3-1.4,10.6-2.1,16c0.5-3.2,1.3-6.3,2.5-9.4c-2,4.8-4,9.6-6,14.3c1.2-2.7,2.6-5.1,4.3-7.4c-3.1,4-6.3,8.1-9.4,12.1
			c0.8-1,1.6-1.9,2.5-2.8c10.8-11.3,17.6-26.6,17.6-42.4c0-14.7-6.5-32.3-17.6-42.4c-11.4-10.5-26.4-18.3-42.4-17.6
			c-16.1,0.7-30.7,6.2-42.4,17.6C22.1,375.3,13.4,391.6,6.5,410c-3.4,9.1-4.2,19-5.3,28.5c-0.6,5.1-0.7,10.1-0.1,15.3
			c0,10.8,2.8,20.9,8.2,30.3c5.3,9,12.5,16.2,21.5,21.5c17.4,10.2,43.4,12,60.6,0c17.4-12.2,34.8-24.3,52.3-36.5
			c13-9.1,23.2-20.1,27.6-35.9c4-14.4,2.2-33.5-6-46.2c-8.3-12.8-20.6-24.1-35.9-27.6C114.2,356.1,96.1,356.4,83,365.5L83,365.5z"/>
	</g>
</g>
<g>
	<g>
		<path fill="#96CA2D" d="M758.7,298.9c-0.6-0.1-1.2-0.1-1.8-0.2c5.3,0.7,10.6,1.4,16,2.1c-29.7-4.1-57.2-17.2-86.7-22.6
			c-16.4-3-33.1-5.3-49.7-3.2c-10.4,1.3-21,2.3-31,5.4c-9.7,3-19.3,7-28.2,11.8c-2.6,1.4-5.1,3.1-7.5,4.8c-6.1,4.4-12.5,9-17.9,14.3
			c-5.4,5.4-10,11.8-14.3,17.9c-1.9,2.7-3.5,5.4-4.9,8.3c-4.4,6.9-6.8,14.3-7.1,22.3c-1.8,8-1.4,16,1.1,23.9
			c4.8,14.9,13.8,27.8,27.6,35.9c32.3,18.8,71.8,23.7,107.8,14.1c20.7-5.5,37.9-15.7,54.2-29.2c22.7-18.8,33.3-53.5,23.7-81.5
			c-4.6-13.4-11.7-26.2-22.6-35.6c-12.3-10.5-22.4-16-37.4-21.7c-9.3-3.5-19.5-4.2-29.2-5.5c-5.3-0.7-10.7-1-16.1-0.7
			c-29.2,1.6-58.8,10.4-82.4,28c-8.4,6.3-17,12.6-24.1,20.3c-6.8,7.3-13,15.4-18.6,23.7c-9,13.4-15.7,29.3-18.8,45.2
			c-3,15.3-2.8,32.5,6,46.2c8.5,13.1,20.5,23.4,35.9,27.6c32.4,8.7,65.3-0.9,90-22.8c5.8-5.1,10.4-11.6,14.8-17.9
			c4.6-6.5,7.5-14.4,10.2-21.8c2.7-7.6,3.5-16.4,4-24.3c0.5-8.1-1.1-16.9-2.6-24.5c-1.5-7.7-5.1-14.9-8.3-22
			c-2.4-5.4-5.7-9.4-9.3-14.1c-3.6-4.7-6.7-8.9-11.2-12.6c-9.2-7.5-15.6-11.9-26.1-16.4c-5.3-2.2-10.1-4.4-15.7-5.4
			c-8-1.3-16.2-3-24.4-2.3c-17.2,1.4-31.1,5.1-46.3,13.5c-2.8,1.6-5.5,3.4-8.1,5.4c-6.6,4.9-13.3,9.8-19.2,15.6
			c-8.5,8.3-15.7,18.1-22.7,27.6c-4.4,6-8.6,12.3-12,18.8c-7.7,14.8-9.6,30.5-6,46.7c1.3,5.8,3.8,11.4,6.7,16.5
			c6.1,10.5,14.6,18.5,25,24.6c5,2.9,10.7,5.4,16.5,6.7c5.8,1.3,12.8,2.4,18.8,2.4c12-0.1,25-3.4,35.4-9.4
			c21.8-12.7,35-35.7,35.5-60.9c0.1-6.3-1-13.4-2.4-19.5c-1.4-6.1-4.4-12.1-7-17.8c-0.9-1.8-1.8-3.5-2.9-5.1
			c-3.7-5.3-7.7-11-12.4-15.5c-5.5-5.3-11.8-10.4-18.6-14c-6.6-3.6-14-6.8-21.3-8.8c-16.8-4.5-31.6-3.6-48.4-0.5
			c-10.8,2-21.8,6.7-31,12.8c-14,9.2-24.2,19.2-33.4,33.2c-4.2,6.4-7.2,14.3-9.7,21.4c-2.8,7.9-3.4,16.7-4.1,25
			c0.7,5.3,1.4,10.6,2.1,16c1.9,7.8,5.4,14.6,10.7,20.4c2.7,4.5,6.3,8.1,10.8,10.8c5.8,5.3,12.6,8.9,20.4,10.7
			c18.5,6.7,41.9,2.7,58.5-7.3c17.6-10.6,29.3-26.8,36-46c11.8-34.2-6.3-75-38.2-91c-13.9-6.9-29.2-11.5-44.9-10.2
			c-7.8,0.6-15.8,1.4-23.2,4c-12.1,4.4-17.5,7.3-26.8,14.6c-7.2,5.5-11.3,9.7-16.9,16.9c-3.6,4.6-7.1,8.9-9.6,14.2
			c-3.4,7.3-7,14.8-9.1,22.7c-2.3,8.2-3,17.1-3.9,25.4c0,10.8,2.8,20.9,8.2,30.3c3.8,7,8.9,12.6,15.5,16.8
			c15.5,11.9,33.3,15.1,52.3,10.7c7.1-1.6,14.1-5,20.6-8.1c2.4-1.2,4.6-2.5,6.7-4c12.7-9.1,22.5-18.3,30.7-31.8
			c13.2-21.8,16.7-48.9,10.3-73.5c-3.6-13.9-14.7-29.1-27.6-35.9c-4.8-2-9.6-4-14.3-6c-10.6-2.9-21.3-2.9-31.9,0
			c-12.1,2.4-24.1,7.5-34.9,13.3c-3.5,1.9-6.9,4.1-10.1,6.5c-6.9,5.1-14.1,10.3-20.1,16.4c-4.3,4.3-7.9,9.2-11.7,14.1
			c-3.9,5.1-7.8,10-10.8,15.6c-6,11-11.2,23.2-13.6,35.6c-2.9,10.6-2.9,21.3,0,31.9c2.9,10.2,8,19,15.4,26.5
			c14.8,14.8,38.1,21.7,58.4,15.4c45.8-14.1,81-49.7,95.6-95.2c1-3.2,1.8-6.4,2.4-9.7c1.2-6.7,2.8-13.5,2.8-20.2
			c0-10.8-2.8-20.9-8.2-30.3c-5.3-9-12.5-16.2-21.5-21.5c-16.7-11.6-38.4-13.1-57.7-8.9c-14,3.1-29.4,12-38.9,22.8
			c-8.4,9.6-14.6,18.8-18,31.3c-4.1,14.9-2.7,23.6-0.4,38.5c1.9,7.8,5.4,14.6,10.7,20.4c4.2,6.5,9.8,11.7,16.8,15.5
			c14.4,7.6,30.2,10.1,46.2,6c33.8-8.6,67.2-23,96.5-42c29.4-19.1,56.6-42.3,78.4-69.9c3.1-4,6.3-8.1,9.4-12.1
			c4.4-6.9,6.8-14.3,7.1-22.3c1.4-5.3,1.4-10.6,0-16c-0.4-8-2.7-15.4-7.1-22.3c-5.6-8.7-12.8-15.9-21.5-21.5
			c-13.6-8.7-31.1-9.2-46.2-6c-71.9,14.9-139.2,51.4-193.1,100.9c-13.5,12.3-25.9,25.7-37.2,40c-5.9,5.4-10,11.9-12.4,19.3
			c-3.8,7.2-5.5,14.9-5.2,23.1c0.7,5.3,1.4,10.6,2.1,16c2.9,10.2,8,19,15.4,26.5c16.1,18.2,45.4,25.9,68.5,18.8
			c7.1-2.2,14.4-4.8,20.6-9.1c11.2-7.8,17.3-13.9,25.3-25.2c24.2-34.5,9.5-84.8-26.3-104.7c-13.4-7.5-29.8-12.1-45.2-10.9
			c-8,0.6-16.6,1.4-24.3,4.2c-14.6,5.2-21,9.2-32.9,19c-19.6,16.1-29.4,41.4-36.5,64.9c-2.5,8-2.9,16-1.1,23.9
			c0.4,8,2.7,15.4,7.1,22.3c7.9,12.3,20.8,25.2,35.9,27.6c13.7,2.2,15.9,2.8,27.5,1.2c10.1-1.4,15.4-2,25.4-8
			c11.2-6.7,20.1-15.3,26.7-26.6c3.9-6.7,7.1-14.3,8.5-22c0.9-5.2,2.5-13.3,2.3-19.7c-0.2-6.6-1.1-14.1-2.8-20.6
			c-6.9-25.5-27.3-46.2-52.9-53c-14-3.7-29.1-3.7-43.1,0.2c-15.1,4.2-25.7,11.4-37.4,21.3c-7.3,6.2-13.6,14.4-18.3,22.5
			c-3.5,6.1-6.7,12.9-8.5,19.5c-4.7,16.5-2.4,34.4,6.4,49.3c16.1,27,50.6,39.9,80.4,29.7c30.1-10.4,53-36.8,52.9-69.8
			c-0.1-33.6-24.1-60.9-55-70.8c-22.5-7.2-51.3-3.6-70.4,10.5c-13.1,9.7-21.7,18.1-30.7,32c-3.4,5.3-6.1,11-8.7,16.8
			c-4.4,6.9-6.8,14.3-7.1,22.3c-1.8,8-1.4,16,1.1,23.9c4.1,12.6,10.9,23,21.5,31.2c10.1,7.8,23.2,13.5,36.4,12.9
			c5.3-0.7,10.6-1.4,16-2.1c10.2-2.9,19-8,26.5-15.4c4.5-3.6,7.6-7.9,11.1-12.5c3.6-4.7,6.8-8.7,9.2-13.9c6.8-14.7,12-30,10.7-46.6
			c-0.7-5.3-1.4-10.6-2.1-16c-1.9-7.8-5.4-14.6-10.7-20.4c-7.3-9.5-18.9-19.4-31.2-21.5c-7.6-1.3-15.6-3.1-23.4-2.5
			c-7.6,0.6-15.9,1.2-23.2,3.9c-7,2.5-14.7,5.3-21,9.5c-6.3,4.3-13.2,9-18.3,14.8c-4.9,5.6-10.2,11.6-13.6,18.3
			c-3.4,6.7-7,13.9-8.5,21.3c-1.3,6.2-2.3,13-2.6,19.3c0,0.7-0.1,1.4,0,2.1c0,3.3,1.3,13.4,2.2,16.6c4.1,14.8,14.6,27.8,27.6,35.9
			c4.8,2.9,11.3,5.7,16.6,7.1c28.4,7.4,58.1-5.9,72.8-30.8c5.3-8.9,7.3-17,8.6-26.8c0.6-4.5,1.1-6.6,1.1-10.4
			c-0.2-12.7-1.6-15.6-5.8-25.3c-5.6-13.2-14.5-24-27-31.5c-10.9-6.5-24.1-9.7-36.7-9.9c-16.6-0.3-33.2,5.9-47.2,14.4
			c-16.6,10.1-32.9,20.6-49.2,31.2c-13,8.4-23.4,20.6-27.6,35.9c-4,14.4-2.2,33.5,6,46.2c8.3,12.8,20.6,24.1,35.9,27.6
			c15.4,3.5,32.6,2.8,46.2-6c9.8-6.3,19.6-12.6,29.4-18.8c9.2-5.8,18.3-12.6,28.3-16.9c-4.8,2-9.6,4-14.3,6c2-0.7,3.9-1.3,6-1.6
			c-5.3,0.7-10.6,1.4-16,2.1c1.6-0.1,2.9-0.1,4.4,0.1c-5.3-0.7-10.6-1.4-16-2.1c1,0.2,1.9,0.5,2.8,0.9c-4.8-2-9.6-4-14.3-6
			c0.8,0.3,1.5,0.8,2.1,1.3c-4-3.1-8.1-6.3-12.1-9.4c0.2,0.2,0.4,0.4,0.7,0.7c-3.1-4-6.3-8.1-9.4-12.1c0.4,0.5,0.7,1,1,1.5
			c-2-4.8-4-9.6-6-14.3c0.3,0.6,0.4,1.2,0.5,1.8c-0.7-5.3-1.4-10.6-2.1-16c0.1,1,0.1,1.9,0.1,2.8c0.7-5.3,1.4-10.6,2.1-16
			c-0.2,1-0.4,1.9-0.7,2.8c2-4.8,4-9.6,6-14.3c-0.4,0.9-0.8,1.6-1.3,2.4c3.1-4,6.3-8.1,9.4-12.1c-0.6,0.7-1.1,1.2-1.8,1.8
			c4-3.1,8.1-6.3,12.1-9.4c-0.2,0.1-0.4,0.3-0.7,0.4c4.8-2,9.6-4,14.3-6c-0.4,0.2-0.9,0.3-1.4,0.4c5.3-0.7,10.6-1.4,16-2.1
			c-0.2,0-0.5,0-0.7,0c5.3,0.7,10.6,1.4,16,2.1c-0.3-0.1-0.5-0.1-0.8-0.2c4.8,2,9.6,4,14.3,6c-0.6-0.2-1.1-0.5-1.5-0.9
			c9.9,17.3,19.8,34.5,29.7,51.8c0-1.4,0-2.7,0.2-4.1c-0.7,5.3-1.4,10.6-2.1,16c0.3-2.3,0.9-4.4,1.7-6.5c-2,4.8-4,9.6-6,14.3
			c1.1-2.5,2.4-4.8,4-7.1c-3.1,4-6.3,8.1-9.4,12.1c1.7-2.2,3.6-4.1,5.8-5.8c-4,3.1-8.1,6.3-12.1,9.4c2.2-1.7,4.5-3,7-4.2
			c-4.8,2-9.6,4-14.3,6c2.5-1,5.1-1.7,7.8-2.2c-5.3,0.7-10.6,1.4-16,2.1c2.3-0.2,4.5-0.2,6.8,0c-5.3-0.7-10.6-1.4-16-2.1
			c0.5,0.1,0.9,0.2,1.4,0.2c-14.7-19.3-29.4-38.6-44-57.9c0.2,2.6,0.1,5-0.1,7.6c0.7-5.3,1.4-10.6,2.1-16c-0.5,3-1.3,5.9-2.4,8.8
			c2-4.8,4-9.6,6-14.3c-1.2,2.8-2.7,5.4-4.5,7.9c3.1-4,6.3-8.1,9.4-12.1c-1.9,2.4-4,4.5-6.4,6.4c31.4,24.2,62.8,48.5,94.2,72.7
			c3.1-6.9,6.3-13.7,10.8-19.8c-3.1,4-6.3,8.1-9.4,12.1c2.1-2.8,4.4-5.2,7.1-7.4c-4,3.1-8.1,6.3-12.1,9.4c2.1-1.6,4.3-3,6.8-4.1
			c-4.8,2-9.6,4-14.3,6c1.9-0.7,3.8-1.2,5.7-1.5c-5.3,0.7-10.6,1.4-16,2.1c2.4-0.3,4.7-0.3,7.1,0c-5.3-0.7-10.6-1.4-16-2.1
			c1.9,0.3,3.7,0.8,5.6,1.5c-4.8-2-9.6-4-14.3-6c1.4,0.6,2.6,1.3,3.9,2.2c-4-3.1-8.1-6.3-12.1-9.4c1.2,0.9,2.2,1.9,3.1,3
			c-3.1-4-6.3-8.1-9.4-12.1c0.7,0.9,1.2,1.8,1.7,2.8c-2-4.8-4-9.6-6-14.3c0.4,1,0.8,2,1,3.1c-0.7-5.3-1.4-10.6-2.1-16
			c0.1,1,0.2,1.8,0.1,2.8c0.7-5.3,1.4-10.6,2.1-16c-0.2,0.9-0.4,1.8-0.7,2.7c2-4.8,4-9.6,6-14.3c-0.5,1.2-1.2,2.2-1.9,3.2
			c3.1-4,6.3-8.1,9.4-12.1c-0.9,1-1.8,1.8-2.8,2.7c4-3.1,8.1-6.3,12.1-9.4c-1.1,0.8-2.2,1.4-3.4,2c4.8-2,9.6-4,14.3-6
			c-1.5,0.6-2.9,1-4.5,1.3c5.3-0.7,10.6-1.4,16-2.1c-0.9,0.1-1.7,0.1-2.6,0c5.3,0.7,10.6,1.4,16,2.1c-0.9-0.1-1.6-0.3-2.4-0.7
			c4.8,2,9.6,4,14.3,6c-0.5-0.2-1-0.5-1.4-0.8c4,3.1,8.1,6.3,12.1,9.4c-0.5-0.3-0.9-0.7-1.2-1.2c3.1,4,6.3,8.1,9.4,12.1
			c-0.6-0.8-1-1.5-1.4-2.4c2,15.4,4,30.8,6,46.2c0.3-0.9,0.6-1.8,1-2.7c-2,4.8-4,9.6-6,14.3c1.2-2.7,2.6-5.1,4.3-7.5
			c-3.1,4-6.3,8.1-9.4,12.1c2.1-2.7,4.4-5.1,7-7.2c-4,3.1-8.1,6.3-12.1,9.4c2.3-1.7,4.6-3.1,7.2-4.3c-4.8,2-9.6,4-14.3,6
			c2.1-0.8,4.2-1.4,6.5-1.8c-5.3,0.7-10.6,1.4-16,2.1c1.8-0.2,3.5-0.2,5.3,0c-5.3-0.7-10.6-1.4-16-2.1c1.8,0.3,3.5,0.7,5.3,1.4
			c-4.8-2-9.6-4-14.3-6c1.2,0.5,2.2,1.1,3.2,1.9c-4-3.1-8.1-6.3-12.1-9.4c0.9,0.8,1.7,1.6,2.5,2.6c-3.1-4-6.3-8.1-9.4-12.1
			c0.7,1,1.3,2,1.8,3.1c-2-4.8-4-9.6-6-14.3c0.7,1.7,1.2,3.5,1.4,5.3c-0.7-5.3-1.4-10.6-2.1-16c0.2,1.9,0.2,3.7,0,5.6
			c0.7-5.3,1.4-10.6,2.1-16c-0.3,2.1-0.8,4.1-1.6,6.1c2-4.8,4-9.6,6-14.3c-0.5,1-1,2-1.7,3c3.1-4,6.3-8.1,9.4-12.1
			c-0.7,0.9-1.4,1.6-2.2,2.4c4-3.1,8.1-6.3,12.1-9.4c-0.9,0.7-1.7,1.2-2.7,1.6c4.8-2,9.6-4,14.3-6c-0.8,0.3-1.5,0.5-2.4,0.6
			c5.3-0.7,10.6-1.4,16-2.1c-0.9,0.1-1.7,0.1-2.6,0c5.3,0.7,10.6,1.4,16,2.1c-0.3,0-0.6-0.1-0.9-0.1c14,24.6,27.9,49.2,41.9,73.8
			c1.8-6,3.7-12,6.2-17.8c-2,4.8-4,9.6-6,14.3c2.1-4.7,4.5-9.2,7.6-13.3c-3.1,4-6.3,8.1-9.4,12.1c2.2-2.7,4.6-5.2,7.3-7.3
			c-4,3.1-8.1,6.3-12.1,9.4c2-1.4,4.1-2.6,6.4-3.5c-4.8,2-9.6,4-14.3,6c2.3-0.9,4.7-1.5,7.1-1.9c-5.3,0.7-10.6,1.4-16,2.1
			c2.9-0.3,5.6-0.4,8.4,0c-5.3-0.7-10.6-1.4-16-2.1c1.9,0.3,3.8,0.8,5.6,1.5c-4.8-2-9.6-4-14.3-6c1.8,0.8,3.3,1.7,4.9,2.9
			c-4-3.1-8.1-6.3-12.1-9.4c0.9,0.8,1.6,1.5,2.4,2.4c-3.1-4-6.3-8.1-9.4-12.1c1,1.2,1.7,2.5,2.4,3.9c-2-4.8-4-9.6-6-14.3
			c0.4,1,0.6,1.9,0.8,3c-0.7-5.3-1.4-10.6-2.1-16c0.1,1,0.1,2,0,3c0.7-5.3,1.4-10.6,2.1-16c-0.2,1.4-0.5,2.6-1,3.9
			c2-4.8,4-9.6,6-14.3c-0.7,1.6-1.6,3.1-2.6,4.5c3.1-4,6.3-8.1,9.4-12.1c-1.1,1.4-2.3,2.6-3.7,3.7c4-3.1,8.1-6.3,12.1-9.4
			c-1.1,0.8-2.2,1.5-3.5,2.1c4.8-2,9.6-4,14.3-6c-1.2,0.5-2.4,0.9-3.7,1.1c5.3-0.7,10.6-1.4,16-2.1c-0.9,0.1-1.8,0.1-2.7,0.1
			c5.3,0.7,10.6,1.4,16,2.1c-0.9-0.1-1.7-0.3-2.6-0.6c4.8,2,9.6,4,14.3,6c-0.9-0.4-1.6-0.9-2.4-1.5c4,3.1,8.1,6.3,12.1,9.4
			c-0.5-0.4-1-0.9-1.4-1.5c0,28.3,0,56.6,0,84.9c17.5-22,37.5-41.7,59.7-58.9c-4,3.1-8.1,6.3-12.1,9.4
			c24.3-18.8,50.9-34.3,79.2-46.3c-4.8,2-9.6,4-14.3,6c21-8.8,42.7-15.6,65-20.2c-19.5-33.4-38.9-66.9-58.4-100.3
			c-13.8,17.6-29.8,33.3-47.4,47.1c4-3.1,8.1-6.3,12.1-9.4c-19,14.6-39.7,26.8-61.7,36.2c4.8-2,9.6-4,14.3-6
			c-12.8,5.4-25.9,9.8-39.3,13.2c24.6,14,49.2,27.9,73.8,41.9c-0.1-0.4-0.1-0.8-0.2-1.1c0.7,5.3,1.4,10.6,2.1,16
			c-0.1-1.2,0-2.2,0.1-3.3c-0.7,5.3-1.4,10.6-2.1,16c0.2-1.1,0.5-2.1,0.9-3.1c-2,4.8-4,9.6-6,14.3c0.6-1.4,1.3-2.6,2.2-3.8
			c-3.1,4-6.3,8.1-9.4,12.1c1-1.2,2-2.2,3.2-3.2c-4,3.1-8.1,6.3-12.1,9.4c1.6-1.2,3.1-2.1,4.9-2.9c-4.8,2-9.6,4-14.3,6
			c1.4-0.5,2.8-1,4.3-1.2c-5.3,0.7-10.6,1.4-16,2.1c1.5-0.2,2.9-0.2,4.4-0.1c-5.3-0.7-10.6-1.4-16-2.1c1.5,0.2,2.8,0.6,4.2,1.2
			c-4.8-2-9.6-4-14.3-6c1,0.5,1.9,1.1,2.8,1.8c-9.9-17.3-19.8-34.5-29.7-51.8c-0.1,0.5-0.1,0.9-0.2,1.4c0.7-5.3,1.4-10.6,2.1-16
			c-1,6.6-2.8,13-5.3,19.2c2-4.8,4-9.6,6-14.3c-2.9,6.6-6.5,12.7-10.8,18.5c3.1-4,6.3-8.1,9.4-12.1c-4.5,5.7-9.5,10.7-15.1,15.1
			c4-3.1,8.1-6.3,12.1-9.4c-5.3,4-11,7.4-17.2,10.1c4.8-2,9.6-4,14.3-6c-2.6,1.1-5.3,2.1-8.1,2.9c24.6,24.6,49.2,49.2,73.8,73.8
			c1-5.1,2.5-10,4.5-14.9c-2,4.8-4,9.6-6,14.3c2.5-5.6,5.6-10.9,9.2-15.8c-3.1,4-6.3,8.1-9.4,12.1c4.4-5.6,9.3-10.6,15-15
			c-4,3.1-8.1,6.3-12.1,9.4c4.9-3.7,10.2-6.8,15.8-9.3c-4.8,2-9.6,4-14.3,6c4.8-2,9.7-3.5,14.9-4.5c-24.6-14-49.2-27.9-73.8-41.9
			c0.3,1.3,0.6,2.6,0.8,3.9c-0.7-5.3-1.4-10.6-2.1-16c0.4,3.1,0.4,6.1,0,9.2c0.7-5.3,1.4-10.6,2.1-16c-0.5,3.1-1.3,6-2.4,8.9
			c2-4.8,4-9.6,6-14.3c-1.4,3.3-3.2,6.3-5.3,9.1c3.1-4,6.3-8.1,9.4-12.1c-2,2.4-4.1,4.5-6.5,6.5c4-3.1,8.1-6.3,12.1-9.4
			c-2.1,1.6-4.3,2.9-6.7,4c4.8-2,9.6-4,14.3-6c-2,0.9-4.1,1.5-6.3,2c25.3,19.3,50.6,38.6,76,57.9c0.1-0.5,0.1-1,0.2-1.5
			c-0.7,5.3-1.4,10.6-2.1,16c0.7-4.9,1.9-9.7,3.8-14.3c-2,4.8-4,9.6-6,14.3c1.6-3.6,3.5-7,5.8-10.1c-3.1,4-6.3,8.1-9.4,12.1
			c1.8-2.3,3.8-4.3,6.1-6.1c-4,3.1-8.1,6.3-12.1,9.4c1.9-1.4,3.8-2.6,5.8-3.6c-4.8,2-9.6,4-14.3,6c2.3-1,4.7-1.6,7.2-2.1
			c-5.3,0.7-10.6,1.4-16,2.1c2.5-0.3,5-0.3,7.5-0.1c-5.3-0.7-10.6-1.4-16-2.1c2.5,0.3,4.8,0.9,7.2,1.8c-4.8-2-9.6-4-14.3-6
			c1.9,0.8,3.6,1.8,5.2,3c-4-3.1-8.1-6.3-12.1-9.4c1.3,1,2.4,2.1,3.4,3.3c-3.1-4-6.3-8.1-9.4-12.1c1,1.3,1.8,2.6,2.6,4.1
			c-2-4.8-4-9.6-6-14.3c0.6,1.6,1,3,1.2,4.7c-0.7-5.3-1.4-10.6-2.1-16c0.1,1.2,0.1,2.4-0.1,3.6c0.7-5.3,1.4-10.6,2.1-16
			c-0.3,1.6-0.7,3.2-1.2,4.7c2-4.8,4-9.6,6-14.3c-0.8,1.9-1.8,3.7-3.1,5.3c3.1-4,6.3-8.1,9.4-12.1c-1,1.3-2.1,2.4-3.4,3.5
			c4-3.1,8.1-6.3,12.1-9.4c-1.3,1-2.6,1.7-4,2.4c4.8-2,9.6-4,14.3-6c-1.1,0.4-2.1,0.7-3.3,1c5.3-0.7,10.6-1.4,16-2.1
			c-1.2,0.1-2.2,0.2-3.4,0.1c5.3,0.7,10.6,1.4,16,2.1c-1.2-0.2-2.3-0.5-3.5-0.9c14.7,19.3,29.4,38.6,44,57.9c0-0.8,0.1-1.6,0.2-2.3
			c-0.7,5.3-1.4,10.6-2.1,16c0.4-2.7,1.1-5.2,2.1-7.8c-2,4.8-4,9.6-6,14.3c1.2-2.8,2.7-5.4,4.5-7.9c-3.1,4-6.3,8.1-9.4,12.1
			c2.4-3.1,5.1-5.7,8.2-8.1c-4,3.1-8.1,6.3-12.1,9.4c3.2-2.3,6.5-4.2,10.1-5.8c-4.8,2-9.6,4-14.3,6c3.6-1.4,7.4-2.4,11.2-3
			c-5.3,0.7-10.6,1.4-16,2.1c3.5-0.4,6.9-0.4,10.3,0.1c-5.3-0.7-10.6-1.4-16-2.1c2.7,0.4,5.2,1.1,7.7,2.1c-4.8-2-9.6-4-14.3-6
			c2.6,1.1,5,2.5,7.3,4.2c-4-3.1-8.1-6.3-12.1-9.4c2,1.6,3.7,3.4,5.3,5.4c-3.1-4-6.3-8.1-9.4-12.1c1.2,1.7,2.1,3.3,2.9,5.1
			c-2-4.8-4-9.6-6-14.3c0.5,1.4,0.9,2.7,1.1,4.1c-0.7-5.3-1.4-10.6-2.1-16c0.1,1.5,0.1,2.7,0,4.2c0.7-5.3,1.4-10.6,2.1-16
			c-0.2,1-0.4,1.9-0.8,2.8c2-4.8,4-9.6,6-14.3c-0.2,0.6-0.5,1.2-0.9,1.7c3.1-4,6.3-8.1,9.4-12.1c-0.6,0.8-1.2,1.4-2,2
			c4-3.1,8.1-6.3,12.1-9.4c-0.8,0.6-1.6,1-2.5,1.4c4.8-2,9.6-4,14.3-6c-1.2,0.5-2.4,0.8-3.8,1c5.3-0.7,10.6-1.4,16-2.1
			c-1,0.1-1.9,0.1-2.9,0c5.3,0.7,10.6,1.4,16,2.1c-0.9-0.1-1.8-0.3-2.7-0.6c4.8,2,9.6,4,14.3,6c-0.8-0.4-1.5-0.7-2.3-1.3
			c4,3.1,8.1,6.3,12.1,9.4c-0.4-0.4-0.8-0.8-1.2-1.2c3.1,4,6.3,8.1,9.4,12.1c-0.3-0.5-0.6-1-0.8-1.5c2,4.8,4,9.6,6,14.3
			c-0.2-0.6-0.4-1.2-0.4-1.8c-2,15.4-4,30.8-6,46.2c4.2-7.4,8.7-14.5,13.9-21.3c-3.1,4-6.3,8.1-9.4,12.1
			c5.5-7.1,11.5-13.7,18.5-19.2c-4,3.1-8.1,6.3-12.1,9.4c4-3.1,8.2-5.7,12.9-7.7c-4.8,2-9.6,4-14.3,6c3.2-1.3,6.5-2.3,9.9-2.8
			c-5.3,0.7-10.6,1.4-16,2.1c3-0.4,6-0.4,9-0.1c-5.3-0.7-10.6-1.4-16-2.1c3.2,0.5,6.2,1.3,9.2,2.4c-4.8-2-9.6-4-14.3-6
			c2.4,1.1,4.7,2.4,6.8,4c-4-3.1-8.1-6.3-12.1-9.4c2.4,2,4.6,4.1,6.5,6.6c-3.1-4-6.3-8.1-9.4-12.1c1.8,2.5,3.4,5.2,4.6,8
			c-2-4.8-4-9.6-6-14.3c1.2,2.9,2,5.8,2.5,8.9c-0.7-5.3-1.4-10.6-2.1-16c0.4,3.1,0.4,6.1,0,9.2c0.7-5.3,1.4-10.6,2.1-16
			c-0.4,2.7-1.1,5.1-2.2,7.6c2-4.8,4-9.6,6-14.3c-1.1,2.4-2.4,4.6-4,6.8c3.1-4,6.3-8.1,9.4-12.1c-2,2.4-4.1,4.5-6.6,6.5
			c4-3.1,8.1-6.3,12.1-9.4c-2.5,1.8-5.2,3.3-8.1,4.6c4.8-2,9.6-4,14.3-6c-2.9,1.1-5.8,1.9-8.9,2.4c5.3-0.7,10.6-1.4,16-2.1
			c-3.1,0.4-6.1,0.3-9.2-0.1c5.3,0.7,10.6,1.4,16,2.1c-1.3-0.2-2.6-0.5-3.9-0.9c14,24.6,27.9,49.2,41.9,73.8
			c1.1-5.8,2.8-11.3,5.1-16.7c-2,4.8-4,9.6-6,14.3c3.1-7,7-13.5,11.6-19.5c-3.1,4-6.3,8.1-9.4,12.1c5.1-6.4,10.8-12,17.2-17
			c-4,3.1-8.1,6.3-12.1,9.4c6.9-5.2,14.2-9.5,22.2-12.8c-4.8,2-9.6,4-14.3,6c7.5-3.1,15.3-5.2,23.3-6.4c-5.3,0.7-10.6,1.4-16,2.1
			c7.6-1,15.2-1,22.7,0c-5.3-0.7-10.6-1.4-16-2.1c5,0.8,9.8,1.9,14.5,3.8c-4.8-2-9.6-4-14.3-6c3,1.4,5.8,2.9,8.5,4.9
			c-4-3.1-8.1-6.3-12.1-9.4c2.1,1.7,4,3.5,5.7,5.6c-3.1-4-6.3-8.1-9.4-12.1c1,1.4,1.8,2.8,2.5,4.4c-2-4.8-4-9.6-6-14.3
			c0.5,1.2,0.8,2.3,1,3.6c-0.7-5.3-1.4-10.6-2.1-16c0.2,1.8,0.2,3.4,0.1,5.1c0.7-5.3,1.4-10.6,2.1-16c-0.3,1.5-0.7,2.9-1.3,4.4
			c2-4.8,4-9.6,6-14.3c-0.9,1.9-1.9,3.5-3.2,5.2c3.1-4,6.3-8.1,9.4-12.1c-2.1,2.4-4.3,4.4-6.8,6.4c4-3.1,8.1-6.3,12.1-9.4
			c-4.9,3.6-10.2,6.5-15.8,8.9c4.8-2,9.6-4,14.3-6c-6.6,2.7-13.4,4.5-20.5,5.4c5.3-0.7,10.6-1.4,16-2.1c-7.1,0.9-14.1,0.9-21.2,0
			c5.3,0.7,10.6,1.4,16,2.1c-7.1-1-13.9-2.7-20.5-5.4c4.8,2,9.6,4,14.3,6c-3.3-1.4-6.4-3-9.5-4.8c7.2,27.4,14.4,54.7,21.5,82.1
			c1.5-3.1,3.2-6,5.3-8.8c-3.1,4-6.3,8.1-9.4,12.1c2.9-3.7,6.1-6.9,9.8-9.8c-4,3.1-8.1,6.3-12.1,9.4c4.5-3.4,9.3-6.1,14.4-8.3
			c-4.8,2-9.6,4-14.3,6c7-2.9,14.3-4.7,21.9-5.8c-5.3,0.7-10.6,1.4-16,2.1c9.4-1.2,18.9-1.2,28.3,0c-5.3-0.7-10.6-1.4-16-2.1
			c16.3,2.3,32,7.4,47.7,12.3c8,2.5,16,5,24.1,7.1c12.8,3.3,25.7,4.9,38.8,6.6c8.3,0.3,16-1.4,23.1-5.2c7.4-2.4,13.9-6.6,19.3-12.4
			c10.4-10.4,18.2-27.5,17.6-42.4c-0.7-15.5-5.8-31.6-17.6-42.4c-4-3.1-8.1-6.3-12.1-9.4C779.6,301.7,769.5,298.9,758.7,298.9
			L758.7,298.9z"/>
	</g>
</g>
<g>
	<g>
		<path fill="#96CA2D" d="M4912.1,342.9c80-69.2,173.1-121.2,271.1-160.2c97.9-38.9,200.2-65.5,303.3-86.5
			c115.9-23.5,233.3-43.3,351.9-38.7c117.6,4.6,233.4,29.4,345.6,63.9c112.5,34.6,221.7,78.7,330.1,124.1
			c13.7,5.7,27.3,11.5,41,17.2c1.8,0.7,2.6-2.2,0.8-2.9c-110.2-46.4-220.8-92.5-334.5-129.7c-111.5-36.5-226.5-64.4-343.7-73.4
			c-60.1-4.6-120.4-3.8-180.3,2.2c-58.9,5.9-117.3,16.1-175.5,27.2c-104.7,20-208.9,45-309,81.9c-97.3,35.9-190.8,83.4-272.6,147.6
			c-10.4,8.1-20.5,16.5-30.4,25.1C4908.6,342.1,4910.7,344.2,4912.1,342.9L4912.1,342.9z"/>
	</g>
</g>
<g>
	<g>
		<path fill="#96CA2D" d="M6438.7,214.5c88.5-60.3,185.8-107.2,287.7-140.3c101.7-33.1,207.7-52.7,314.5-59.5
			c108.8-6.9,218.1-0.2,325.5,18.4c108.2,18.8,214.3,49.5,316.4,89.8c103.2,40.7,202.5,91.3,296.9,149.5
			c11.8,7.3,23.5,14.7,35.2,22.2c1.6,1.1,3.1-1.5,1.5-2.6c-93.4-60.3-191.7-113.1-294.2-156.3c-102.5-43.2-209.1-77-318.3-98.7
			c-107-21.3-216.4-31.1-325.5-27.2c-106.7,3.8-213.1,20.2-315.7,50C6660,89.8,6561.2,133,6470.8,190c-11.3,7.1-22.5,14.5-33.5,22
			C6435.6,213,6437.1,215.6,6438.7,214.5L6438.7,214.5z"/>
	</g>
</g>
<g>
	<g>
		<path fill="#96CA2D" d="M7836,183.4c107.2-35.5,218.4-63.6,331.9-66.3c97.9-2.4,197,15.5,284.5,60.5
			c47.2,24.3,90.2,56.5,125.6,96.2c1.3,1.4,3.4-0.7,2.1-2.1c-63.3-71.1-150.3-117-241.9-139.8c-103.7-25.8-212.1-21.4-316.3-1.5
			c-63.3,12.1-125.5,29.8-186.6,50.1C7833.4,181.1,7834.2,184,7836,183.4L7836,183.4z"/>
	</g>
</g>
<g>
	<g>
		<path fill="#96CA2D" d="M8514.1,211.8c89.8-38,180.1-76.3,275.2-99.2c87.2-21,178.9-28.2,267.3-9.8c47.7,9.9,93.8,27.4,135.1,53.5
			c1.6,1,3.1-1.6,1.5-2.6c-74.3-46.8-162.7-65.3-249.7-64.4c-95.1,1-188,25.6-276.8,57.9c-52,18.9-103,40.5-154,62.1
			C8510.8,210,8512.3,212.6,8514.1,211.8L8514.1,211.8z"/>
	</g>
</g>
<g>
	<g>
		<path fill="#96CA2D" d="M5453.6,174.3c-32.7,20.5-60.5,48.3-80.3,81.5c-10,16.8-18,35.4-23.5,54.2c-9.3,31.6-6.2,63.4,15.5,89.1
			c19.9,23.5,56.8,30.6,85,19.8c22.1-8.5,40.9-21.8,56.4-39.8c12.9-14.9,24.5-31,32.5-49c4.8-10.8,9.6-21.7,12.8-33.1
			c1-3.6,1.9-7.2,2.6-10.9c2-10.9,3.1-20.8,0-31.9c-3.1-11.3-9.4-19.5-16.8-28.1c-48.8-57.1-132.2-56.2-199.1-41.2
			c-32.1,7.2-63.6,18.1-94.7,28.7c-34.1,11.7-67.8,24.4-101,38.2c-78.6,32.5-155.1,69.5-228.6,112.5c30.1,17.3,60.2,34.5,90.3,51.8
			c0.1-2.5,0.3-4.9,0.6-7.4c-0.7,5.3-1.4,10.6-2.1,16c1.1-8.1,3.3-15.9,6.5-23.5c-2,4.8-4,9.6-6,14.3c4.1-9.1,9.2-17.5,15.2-25.6
			c-3.1,4-6.3,8.1-9.4,12.1c17.4-22.4,39.6-40.5,61.9-57.8c-4,3.1-8.1,6.3-12.1,9.4c58.4-45.1,122.9-81.4,190.8-110.1
			c-4.8,2-9.6,4-14.3,6c82.4-34.6,169-58.3,256.9-74.3c25.1-4.6,50.3-8.5,75.6-12c-5.3,0.7-10.6,1.4-16,2.1
			c123.2-16.5,248.9-23.7,372.5-7.3c-5.3-0.7-10.6-1.4-16-2.1c114.7,15.5,226.1,48.9,334,90.1c31.1,11.9,61.9,24.4,92.6,37.3
			c-4.8-2-9.6-4-14.3-6c59.5,25.1,118.3,51.8,177,78.7c15.1,6.9,29.7,10.6,46.2,6c13.9-3.8,29-14.6,35.9-27.6
			c7.4-13.9,11-30.8,6-46.2c-4.5-14-13.6-29.5-27.6-35.9c-112.7-51.5-225.9-102.8-343-143.7C6099,68,5978,39.1,5854.5,31.1
			c-122.4-8-247,3.9-367.8,23.9c-110.4,18.2-217.9,48.6-319.9,94.8c-48.1,21.8-94.4,47.5-137.7,77.8c-25.1,17.5-49.6,36.2-72.7,56.4
			c-22.4,19.7-44.2,43.4-56.4,70.9c-9,20.3-14.3,38.8-15.2,61.2c-2,46,52.3,74,90.3,51.8c65.5-38.3,133.5-72.4,203.4-101.9
			c-4.8,2-9.6,4-14.3,6c40.4-17,81.3-32.5,122.9-46.4c36.1-12.1,72.6-24.6,110.4-29.8c-5.3,0.7-10.6,1.4-16,2.1
			c17.5-2.3,35.2-3,52.8-0.7c-5.3-0.7-10.6-1.4-16-2.1c9.6,1.4,19,3.8,28,7.4c-4.8-2-9.6-4-14.3-6c7.5,3.2,14.5,7.2,21,12.2
			c-4-3.1-8.1-6.3-12.1-9.4c4.9,4,9.4,8.4,13.4,13.3c-5.1-19.5-10.3-38.9-15.4-58.4c-2,9.8-5,19.3-8.8,28.6c2-4.8,4-9.6,6-14.3
			c-5,11.5-11.3,22.2-18.9,32.2c3.1-4,6.3-8.1,9.4-12.1c-6.6,8.4-14,16.2-22.3,22.9c4-3.1,8.1-6.3,12.1-9.4
			c-3.6,2.7-7.3,4.9-11.3,6.8c4.8-2,9.6-4,14.3-6c-3.4,1.4-6.6,2.4-10.2,3c5.3-0.7,10.6-1.4,16-2.1c-2,0.2-3.9,0.2-5.9,0
			c5.3,0.7,10.6,1.4,16,2.1c-1.3-0.2-2.5-0.5-3.7-0.9c4.8,2,9.6,4,14.3,6c-1.9-0.8-3.3-1.7-5-2.9c4,3.1,8.1,6.3,12.1,9.4
			c-1.1-0.9-2-2-2.8-3.2c3.1,4,6.3,8.1,9.4,12.1c-0.8-1.2-1.5-2.5-2-3.8c2,4.8,4,9.6,6,14.3c-0.5-1.4-0.9-2.8-1.1-4.2
			c0.7,5.3,1.4,10.6,2.1,16c-0.4-3.1-0.3-6-0.1-9c-0.7,5.3-1.4,10.6-2.1,16c1.5-11,5.4-21.7,9.6-31.9c-2,4.8-4,9.6-6,14.3
			c6.1-14.2,13.8-27.4,23.2-39.6c-3.1,4-6.3,8.1-9.4,12.1c9.5-12.1,20.3-22.9,32.5-32.4c-4,3.1-8.1,6.3-12.1,9.4
			c4.5-3.4,9.2-6.6,14-9.6c13-8.2,23.4-20.9,27.6-35.9c4-14.4,2.2-33.5-6-46.2C5518.5,169.1,5482,156.4,5453.6,174.3L5453.6,174.3z"
			/>
	</g>
</g>
<g>
	<g>
		<path fill="#96CA2D" d="M6471.9,318.6c12-15.2,25.9-28.6,41.2-40.4c-4,3.1-8.1,6.3-12.1,9.4c24.7-18.7,52.2-33,80.6-45.1
			c-4.8,2-9.6,4-14.3,6c52.3-21.9,107.3-38.1,161.5-54.7c59.5-18.2,119.4-34.9,180.3-48c34.5-7.4,69.2-13.6,104.1-18.3
			c-5.3,0.7-10.6,1.4-16,2.1c100.4-13.3,201.8-12.2,302.1,1.2c-5.3-0.7-10.6-1.4-16-2.1c115.4,15.6,228.2,46.7,337.3,87
			c31.1,11.5,61.9,23.8,92.5,36.7c-4.8-2-9.6-4-14.3-6c89,37.7,175.6,80.6,260.7,126.5c14,7.6,30.7,10.3,46.2,6
			c13.9-3.8,29-14.6,35.9-27.6c14.8-27.9,8-66.2-21.5-82.1C7919,214.8,7815.8,164.9,7709.4,122c-101.2-40.8-205.7-74.3-312.9-95.5
			c-110.8-21.9-224.7-32-337.5-23.4c-119.5,9.1-236.3,36.9-350.8,71.5c-51.4,15.6-103.3,31.1-153.4,50.4
			c-52.4,20.1-102.5,44.5-144.1,83c-8.6,7.9-16.5,16.6-23.7,25.7c-10.3,13-17.6,25.1-17.6,42.4c0,14.7,6.5,32.3,17.6,42.4
			c11.4,10.5,26.4,18.3,42.4,17.6C6444.3,335.5,6462.3,330.8,6471.9,318.6L6471.9,318.6z"/>
	</g>
</g>
<g>
	<g>
		<path fill="#96CA2D" d="M7862.9,300.1c61.7-23,125.3-40.7,190-52.7c18.5-3.4,37.1-6.4,55.7-8.9c-5.3,0.7-10.6,1.4-16,2.1
			c73.7-9.8,150-14.7,223.9-4.8c-5.3-0.7-10.6-1.4-16-2.1c33.6,4.6,66.8,12.6,98.2,25.7c-4.8-2-9.6-4-14.3-6
			c24,10.1,46.8,23.1,67.4,39.1c-4-3.1-8.1-6.3-12.1-9.4c16.4,12.8,31.2,27.4,44,43.8c-3.1-4-6.3-8.1-9.4-12.1
			c8.9,11.6,16.7,24.1,23.2,37.3c6.3,12.9,22.4,23.9,35.9,27.6c14.4,4,33.5,2.2,46.2-6c12.8-8.3,24.1-20.6,27.6-35.9
			c0.7-5.3,1.4-10.6,2.1-16c0-10.8-2.8-20.9-8.2-30.3c-23.3-47.5-62.4-86.1-106.1-115c-21.9-14.5-45.7-25.3-70-35
			c-23.9-9.5-48.9-16.1-74.2-20.6c-57.3-10.1-115.1-11.7-173.1-8.4c-58.2,3.3-116.3,10.9-173.4,22.4c-59,11.9-117,28.4-173.4,49.5
			c-7.8,1.9-14.6,5.4-20.4,10.7c-6.5,4.2-11.7,9.8-15.5,16.8c-7.5,12.9-10.7,31.8-6,46.2c4.7,14.5,13.7,28.5,27.6,35.9
			C7830.2,301.2,7847.9,305.7,7862.9,300.1L7862.9,300.1z"/>
	</g>
</g>
<g>
	<g>
		<path fill="#96CA2D" d="M8544.8,345.9c43.4-29.1,89.5-54,137.6-74.3c-4.8,2-9.6,4-14.3,6c65-27.3,133.4-46.3,203.3-55.8
			c-5.3,0.7-10.6,1.4-16,2.1c64.6-8.7,130.3-9.1,194.9-0.5c-5.3-0.7-10.6-1.4-16-2.1c41.7,5.7,84.8,13.7,123.7,30.1
			c-4.8-2-9.6-4-14.3-6c12.5,5.4,24.5,11.9,35.4,20.2c-4-3.1-8.1-6.3-12.1-9.4c4.3,3.3,8.4,6.9,12.3,10.7
			c11,10.8,26.9,17.6,42.4,17.6c14.7,0,32.3-6.5,42.4-17.6c10.5-11.4,18.3-26.4,17.6-42.4c-0.7-15.8-6-31.1-17.6-42.4
			c-42-41.4-100.6-58.5-157-69.7c-52.8-10.4-107-15.8-160.9-15.1c-53.9,0.7-108.1,7.2-160.9,18.1c-48.4,10-95.8,24.6-141.6,43.4
			c-55.8,22.9-109.4,49.9-159.6,83.6c-13,8.8-23.3,20.4-27.6,35.9c-4,14.4-2.2,33.5,6,46.2c8.3,12.8,20.6,24.1,35.9,27.6
			C8513.7,355.4,8531.4,354.9,8544.8,345.9L8544.8,345.9z"/>
	</g>
</g>
<g>
	<g>
		<path fill="#96CA2D" d="M8534.2,331.7c51.9-17.9,103.8-35.9,155.8-53.8c50.9-17.6,101.6-36.3,153.2-52
			c28.3-8.6,57.1-15.8,86.5-19.8c-5.3,0.7-10.6,1.4-16,2.1c28.5-3.7,57.1-4,85.7-0.2c-5.3-0.7-10.6-1.4-16-2.1
			c56,7.7,108.8,28.8,160.6,50.6c-4.8-2-9.6-4-14.3-6c4,1.7,8,3.4,12,5.1c6.9,4.4,14.3,6.8,22.3,7.1c8,1.8,16,1.4,23.9-1.1
			c13.9-3.8,29-14.6,35.9-27.6c7.4-13.9,11-30.8,6-46.2c-2-4.8-4-9.6-6-14.3c-5.3-9-12.5-16.2-21.5-21.5
			c-44.4-18.8-88.9-38.3-135.5-51.1c-46.2-12.6-95-18.9-142.8-13.9c-49.4,5.2-96.6,17.4-143.5,33c-43.4,14.5-86.6,29.8-129.9,44.7
			c-49.4,17.1-98.8,34.1-148.3,51.2c-14.9,5.1-27.7,13.7-35.9,27.6c-7.5,12.9-10.7,31.8-6,46.2c4.7,14.5,13.7,28.5,27.6,35.9
			C8501.7,332.9,8518.9,337,8534.2,331.7L8534.2,331.7z"/>
	</g>
</g>
<g>
	<g>
		<path fill="#96CA2D" d="M4949.1,520.7c16.7,8.2,32.1,12.9,50.9,13.1c12.5,0.1,25.5-2,37.6-5.4c20.9-6,40.3-16.4,60.2-24.8
			c-4.8,2-9.6,4-14.3,6c39.3-16.5,80.7-27.7,123-33.5c-5.3,0.7-10.6,1.4-16,2.1c41.7-5.5,83.9-5.6,125.7-0.2
			c8.3,0.3,16-1.4,23.1-5.2c7.4-2.4,13.9-6.6,19.3-12.4c10.4-10.4,18.2-27.5,17.6-42.4c-0.7-15.5-5.8-31.6-17.6-42.4
			c-4-3.1-8.1-6.3-12.1-9.4c-9.4-5.4-19.5-8.2-30.3-8.2c-37.2-4.8-74.9-5.3-112.3-1.4c-41.8,4.4-83.1,12.1-122.9,25.9
			c-24.4,8.4-47.6,19.5-71.3,29.5c4.8-2,9.6-4,14.3-6c-10.2,4.2-20.7,7.9-31.7,9.4c5.3-0.7,10.6-1.4,16-2.1c-4.9,0.6-9.8,0.6-14.8,0
			c5.3,0.7,10.6,1.4,16,2.1c-3.8-0.6-7.5-1.6-11.1-3c4.8,2,9.6,4,14.3,6c-1-0.4-2.1-0.9-3.1-1.4c-14.6-7.2-30.1-10.5-46.2-6
			c-13.9,3.8-29,14.6-35.9,27.6c-7.4,13.9-11,30.8-6,46.2C4926.1,499.1,4935.2,513.9,4949.1,520.7L4949.1,520.7z"/>
	</g>
</g>
<g>
	<g>
		<path fill="#96CA2D" d="M5110.9,551.7c122.6-38.9,246.6-50.6,374.7-54.2c132-3.8,264.3-2.1,396.4-1.1c269.5,2,539,7.2,808.5,11.6
			c539.5,8.7,1079,17.5,1618.5,26.2c305.5,4.9,611,9.9,916.6,14.8c27.7,0.4,49.3-19.2,57.9-44c19.2-55.5,33.2-121.3,15.4-179.1
			c-10.4-33.6-30.9-62.8-60.7-82c-34.4-22.2-75.8-25.3-115.3-30.1c-161.1-19.7-323.7-15.2-484,9.5c-77.5,11.9-180,30.7-184.1,128.6
			c-1.4,32.2,28.6,60.3,60,60c230.4-2.1,460.6,11.3,689.2,40c0-40,0-80,0-120c-261.3-24.1-523.7-9-785.4-2.1
			c-259.4,6.9-518.9,5.9-778.3,1.4c-519-9-1037.7-32-1556.7-34.2c-292-1.2-584.1,4.2-875.6,22.3c10.1,37.3,20.2,74.5,30.3,111.8
			c67.8-35.7,135.7-71.4,203.5-107c32.5-17.1,66.9-32.2,95.3-55.8c33.1-27.6,44.5-62.9,38.7-104.8c-4-29.1-39.7-46.9-65.8-43
			c-30.5,4.6-50,28.4-52,58.9c-6.1,94.2,141.1,134.7,182.4,48.8c10.6-22,11.2-46.7-4.7-66.6c-13.9-17.4-40.5-29.9-63.1-21.5
			c-51.1,19.1-85.1,61.7-86.3,117.4c-0.5,24.8,18.9,52.7,44,57.9c73,15,132.2-45.5,118.7-117.9c-7-37.8-57.4-55.2-88.1-35.9
			c-25.8,16.2-42.8,40.6-47.3,70.9c-4.7,31.9,5.3,57.2,24.7,82.2c16.7,21.5,51.1,20.5,72.7,9.4c44.1-22.6,69.7-68.7,71.1-117.5
			c1.3-45.6-51.9-74.7-90.3-51.8c-62.9,37.4-40.5,130.8,25.5,150.1c67.8,19.7,111.1-41,128.9-97.3c16.5-52.3-43.9-91-88.1-67.8
			c-51,26.8-78.5,76.7-84.5,132.5c-4.2,39.2,41.7,67.7,76,57.9c52.9-15.2,98.7-50.8,124-100c11.1-21.6,10.9-47.1-4.7-66.6
			c-14.1-17.7-40.2-29.5-63.1-21.5c-54.1,18.9-91.6,66.3-91.2,124.8c0.3,40.2,38,66.7,76,57.9c50.9-11.8,97.2-47.7,119.1-95.5
			c11.3-24.6,10.8-52.6-9.4-72.7c-18.7-18.7-49.9-23-72.7-9.4c-47.5,28.2-69.8,83.5-56.1,136.8c7.8,30.2,43.3,52,73.8,41.9
			c47.3-15.6,86.2-45.6,111.7-88.7c18.8-31.8,2.3-80-35.9-88.1c-74.4-15.9-115.3,65.7-77.8,124.6c20.4,32.1,59.5,41.8,94.7,31.3
			c33.4-9.9,56.4-38.5,74-66.8c17.1-27.6,5.9-66-21.5-82.1c-30.9-18.1-62.4-4.3-82.1,21.5c-20.3,26.6-29.7,60.9-29,94.1
			c0.9,39.4,37.6,67.6,76,57.9c43.9-11.2,82.8-41.1,103.2-81.8c23.6-47.1-15.2-100.3-67.8-88.1c-51.3,11.8-84.5,58-86.6,109.2
			c-1.5,35.4,28.9,55.9,60,60c32.3,4.2,65.3-9.3,89.5-30c26.3-22.5,37.3-51.3,41.5-84.8c5.6-44.7-55.3-75.5-90.3-51.8
			c-34.1,23.2-54.3,56.6-54.6,98.4c-0.2,26,18.7,51.3,44,57.9c66.4,17.3,134.8-10.7,171.1-68.5c-36.6-15.4-73.1-30.8-109.7-46.2
			c-5.4,16.3-10.9,32.6-16.3,48.8c-12.9,38.7,21,74.2,57.9,76c57.8,2.7,103.4-35.1,123.6-86.7c6.8-17.3-0.1-38.5-10.7-52.3
			c-12.5-16.2-27.5-21.1-47.1-23.6c-66-8.5-92.7,77.6-62.4,124.2c40.4,62.1,118.8,35.5,157.6-12.3c-31.4-4-62.8-8.1-94.2-12.1
			c28.6,59.3,97.3,67.8,155.7,63.8c24.1-1.7,48.4-4.7,72.6-3.4c1.4,0.1,8.4-0.5,9.4,0.8c-0.1-0.1-14.2-3.4-5.3-0.4
			c2.4,0.8,5.9,2.1,8.3,2.2c6.5,0.2-10.9-4.9-5.1-2.4c0.8,0.4,7.1,3.5,7,4c0,0.1-11.3-9.5-4.8-3.2c6.5,6.2-3.3-4.4-3.2-4.4
			c1-0.1,4.6,8.8,4.9,9.5c22.6-29.4,45.2-58.8,67.8-88.1c-80.3-24-160.5-48.1-240.8-72.1c-41.4-12.4-82.8-24.9-124.3-37.2
			c-42.3-12.5-86-20.9-129.2-7.3c-38.9,12.2-72,35.9-105.7,58c-35.6,23.4-71.2,46.7-106.7,70.1c-72.3,47.5-144.6,95-216.9,142.5
			c-51.2,33.6-29.2,107.4,30.3,111.8c243.2,18,487.2,23.7,731,17.1c32.4-0.9,60-26.9,60-60c0-31.8-27.5-60.9-60-60
			c-243.8,6.6-487.8,0.9-731-17.1c10.1,37.3,20.2,74.5,30.3,111.8c68.9-45.2,137.7-90.5,206.6-135.7c34.4-22.6,68.9-45.2,103.3-67.8
			c27.7-18.2,60.1-44,88.4-54.5c8.8-3.3,19.7-4.7,31.2-2.9c17.6,2.8,35.1,9.2,52.2,14.3c38.8,11.6,77.7,23.3,116.5,34.9
			c77.7,23.3,155.3,46.5,233,69.8c22.8,6.8,49.1-2.8,63.1-21.5c15.6-20.9,14.8-43.5,4.7-66.6c-26.2-59.8-96.2-68.6-153.5-64.7
			c-24.2,1.6-48.6,4.7-72.9,3.5c-1.5-0.1-8.5,0.5-9.5-0.7c0.2,0.2,14.1,3.3,5.1,0.5c-3.7-1.1-17.6-6.7-9.3-2.1
			c9.8,5.5-0.7-0.8-1.6-1.5c1.6,1.3,9.8,9.1,4.5,3.3c-5.9-6.4,2.1,4.4,2.9,4.5c-1.3-0.2-4.8-8.4-5.2-9.3
			c-15.7-32.6-70.9-40.9-94.2-12.1c-3.9,4.7-7.9,9.2-12,13.7c-7.3,8-1.5,2.1,4.6,0.7c19.9-4.5,38.9,15,40.7,32.8
			c2.2,21.2-19.9,48.8-43.6,45.7c-19.3-25.3-38.6-50.6-57.9-76c3-7.6-3.5-0.4-0.5-1.2c5.2-1.3-9.2,5.3-0.1-0.9
			c-3.6,2.5-6.8,3.4-1.1,0.6c-10.4,5,5,0.5-6.3,0c19.3,25.3,38.6,50.6,57.9,76c5.4-16.3,10.9-32.6,16.3-48.8
			c9.4-28-8.5-60.2-34.7-70.8c-28.1-11.3-58.6-1.3-74.9,24.5c-3.9,5.9-4.1,6.4-0.7,1.6c-2.5,2.8-5.2,5.5-8.1,7.9
			c10.8-8.8-16.3,6.8-2.9,1.6c-3.7,1.4-23.3,3.5-11.8,3.4c-3.8,0.2-7.6,0.1-11.3-0.2c6.6,0.9,6.3,0.5-0.8-1
			c14.7,19.3,29.4,38.6,44,57.9c-0.4,1.2-0.8,2.5-1.3,3.7c1.7-6.5,2.1-7.9,1.1-4.4c1.3,0.1-5,6.2-4.7,5.9
			c-30.1-17.3-60.2-34.5-90.3-51.8c-0.6-2.6-0.2-4.9,1.1-7c1.8-3.7,1.2-2.8-1.8,2.8c3.3-4,3.5-4.4,0.6-1.4c-3,2.9-2.6,2.7,1.3-0.6
			c-1.6,0.9-3.2,1.9-4.8,2.8c5.9-2.2,5.4-2.3-1.3-0.2c1.7-0.2,3.3-0.5,5-0.7c-3.7,0.1-7.4-0.2-11.1-0.9c20,20,40,40,60,60
			c-1.5,6.7-1.4,6.6,0.5-0.4c-0.4,3-1.7,5.5-4.1,7.5c5-4.9,5.3-5.2,0.9-1c-5.9,2.2-5.5,2.3,1.3,0.5c-22.6-29.4-45.2-58.8-67.8-88.1
			c-2.6,5.2-5.3,10.8-9,15.4c6.1-7.7-6.5,5.2-6.7,5.4c7.4-6-6.4,3.2-7.7,3.8c8.7-4.2-6.3,1.5-8.1,2c25.3,19.3,50.6,38.6,76,57.9
			c-0.4-16.5,0.4-17.6,12.6-33.6c-34.5-20.2-69.1-40.4-103.6-60.6c-1.2,2-11.5,20.5-7.2,11.1c-5.2,4.8-5.3,5.4-0.2,1.7
			c-6.1,3.6-6,3.7,0.1,0.4c18-3.6,32.6,3,43.7,19.7c3.3,9.4,4,11,2.2,4.9c6,29.3-21.7,57.1-57.9,49.4c-12-29.4-23.9-58.8-35.9-88.1
			c-9.6,16.2-24,28.2-40,33.5c24.6,14,49.2,27.9,73.8,41.9c-0.4-1.7-0.9-3.5-1.3-5.2c0.8,6.2,1.2,7.1,1.2,2.6c0.2-3.6,0.1-3.6,0,0
			c-0.5,4.4,0,3.6,1.5-2.5c0.3,0-4.8,7.5,1.4,0c-2.5,3.1-11.1,9.4-1.7,3.8c-27.4-27.4-54.7-54.7-82.1-82.1
			c-3.3,7.1-6.8,14.2-11.5,20.5c5.8-7.7-8.5,8-10.4,9.5c7.3-6.1-10,5.7-12.3,6.8c8.9-4.4-10.7,2.9-13.3,3.5
			c25.3,19.3,50.6,38.6,76,57.9c-0.1-10.6-2,1.4,0.2-4.3c1.1-3.4,1.1-3.7,0.1-1c-1.5,3.6-0.8,2.5,2.3-3.3c-5.2,4.4-0.2-0.3,1.9-1.3
			c-10.9,5.6,10.9-3.4-1.3,0.9c-22.6-29.4-45.2-58.8-67.8-88.1c-12.6,24.5-28.4,38-52.3,44.9c25.3,19.3,50.6,38.6,76,57.9
			c-1.2,11.1,1.8-5.1,2.7-7.5c-3.1,8.9,4.4-7.5,6-9.7c2.3-3.4,2.3-3.3-0.1,0.4c2-2.2,4.1-4.3,6.4-6.3c3.1-2.7,3-2.7-0.4,0.2
			c3.3-2.2,6.8-4.2,10.4-5.9c-29.4-22.6-58.8-45.2-88.1-67.8c-0.8,2.4-9.1,21.9-4.2,12.6c-1.7,3.4-3.6,6.7-5.7,9.8
			c0.9-2.2,2.4-3.9,4.4-4.9c1.9-1.5,4-2.5,6.4-3c13.5-3.6,25.4-0.6,35.4,8.9c-4.6-4.7-4.1-3.9,1.6,2.4c10.6,18.5,5.2,37.4-16.1,56.9
			c-30.1-17.3-60.2-34.5-90.3-51.8c-0.3,10.5,1.9-1.2-0.7,4.2c-3,6.1,7.4-5-2.3,4.3c4.7-4.5,0.8-0.4-1.6,1.5c7.9-6-6.1,3.3-7,3.8
			c24.2,3.1,48.5,6.3,72.7,9.4c6.3,5.7,9.2,12.5,8.8,20.3c0.1-5.9,0.1-6.5-0.2-1.7c-1.7,7-3.6,12.6-10.3,16.7
			c-29.4-12-58.8-23.9-88.1-35.9c-3.7-20,7.5-34.2,28.9-29.8c14.7,19.3,29.4,38.6,44,57.9c0.1-5.5,0.8-6.5-0.2-0.6
			c1.2-7.2,2.8-4.5-1,0.5c-2.1,2.2-2,2,0.4-0.5c2.5-2.4,2.6-2.7,0.1-0.9c-2.6,1.6-2.4,1.5,0.6-0.3c3.7-2.1,3.1-2-1.7,0.2
			c-22.6-29.4-45.2-58.8-67.8-88.1c-3.1,5.8-2.1,4.9,3-2.6c3.8-4,8.4-6.8,13.8-8.4c9.8-0.8,11.3-1,4.6-0.7c9.4,1.7,10.8,1.9,4.3,0.5
			c-6.2-2-5.1-1.4,3.4,1.7c-5.5-3.4-4.5-2.6,3,2.6c3.9,4,6.5,8.7,7.8,14.1c0.7,9.9,1.1,11.4,1.3,4.6c-39.3,5.3-78.6,10.6-117.9,16
			c1.2,8.7-3.1-26.3,4.9-23.9c0.8,0.2-13.5,12.6-5.3,6.2c-9.3,7.3-20.7,12.5-31.1,18c-27.9,14.7-55.7,29.3-83.6,44
			c-55.7,29.3-111.4,58.6-167.1,87.9c-51.6,27.2-29,115.5,30.3,111.8c520.6-32.2,1042.6-24,1563.7-10.2
			c518.8,13.8,1037.8,33,1556.8,22.8c291.7-5.7,584.3-26.9,875.5,0c32.3,3,60-29.7,60-60c0-35.8-27.7-55.9-60-60
			c-228.6-28.7-458.8-42.1-689.2-40c20,20,40,40,60,60c-1.6,7.8-1.6,8.3,0.1,1.8c-0.7,4.2-2.6,7.8-5.7,10.8c4.9-4.5,4.5-4.5-0.9-0.1
			c2.8-1.9,5.8-3.7,8.8-5.3c6.2-3,6.3-3.2,0.2-0.5c3.4-1.3,6.8-2.5,10.2-3.5c6.7-2.1,13.6-3.7,20.5-5.1
			c39.1-8.1,78.5-13.8,117.8-18.2c84.4-9.4,169.4-12.5,254.3-9.3c42.4,1.6,84.8,4.8,127,9.5c19.8,2.2,31.9,3.1,49.8,7.3
			c4.3,1,8.6,2.1,12.8,3.5c-4.1-2.1-2.9-1.5,3.7,2c5.8,3.9,5.8,3.7,0.2-0.5c2.4,2.1,4.7,4.4,6.9,6.8c-9.5-9.4,1.7,3.7,3.7,7.6
			c-6.7-13,0.6,5.3,1.6,8.7c1.2,6.9,1.3,6.5,0.2-1c0.3,3.4,0.6,6.9,0.7,10.4c0.3,7.1,0.1,14.3-0.4,21.4c-0.3,3.6-0.6,7.3-1,10.9
			c0.9-6.8,0.9-6.6-0.3,0.5c-1.5,7.3-2.8,14.6-4.6,21.9c-3.4,14.1-7.7,28-12.5,41.7c19.3-14.7,38.6-29.4,57.9-44
			c-545-8.8-1090-17.6-1635-26.5c-542-8.8-1084-20-1626.1-25.4c-149.2-1.5-298.5-3.3-447.6-0.3c-147.3,2.9-296.6,14.4-437.8,59.2
			c-30.9,9.8-50.7,41.7-41.9,73.8C5045.4,540.1,5079.9,561.5,5110.9,551.7L5110.9,551.7z"/>
	</g>
</g>
<g>
	<g>
		<path fill="#96CA2D" d="M6742.8,314.8c35.3-15.4,66.7-36.4,96.8-60.5c5.9-5.4,10-11.9,12.4-19.3c3.8-7.2,5.5-14.9,5.2-23.1
			c0-14.7-6.5-32.3-17.6-42.4c-11.4-10.5-26.4-18.3-42.4-17.6c-5.3,0.7-10.6,1.4-16,2.1c-10.2,2.9-19,8-26.5,15.4
			c-1.8,1.5-3.7,2.9-5.6,4.4c4-3.1,8.1-6.3,12.1-9.4c-24.4,18.7-50.9,34.4-79.1,46.7c-7,3.8-12.6,8.9-16.8,15.5
			c-5.3,5.8-8.9,12.6-10.7,20.4c-4,14.4-2.2,33.5,6,46.2c8.3,12.8,20.6,24.1,35.9,27.6c5.3,0.7,10.6,1.4,16,2.1
			C6723.3,323,6733.4,320.2,6742.8,314.8L6742.8,314.8z"/>
	</g>
</g>
<g>
	<g>
		<path fill="#96CA2D" d="M6816.9,157.9c-39.5-4.1-79.9-0.6-118.7,7.9c-38.4,8.4-76.3,23.6-110.2,43.5c-21.2,12.4-41,27.4-59.6,43.4
			c-3.1,4-6.3,8.1-9.4,12.1c-4.4,6.9-6.8,14.3-7.1,22.3c-1.6,12.1-0.5,28,7.1,38.3c9.3,12.5,16,20.1,28.7,29
			c7.3,5.1,16,8.5,24.3,11.3c8.7,2.9,18.4,3.7,27.4,4.3c7.4,0.5,14.7-0.7,22.1-1.7c28.8-3.9,53.7-16,80.3-27.2c-4.8,2-9.6,4-14.3,6
			c41.1-17.1,84.4-27.6,128.5-33.5c-5.3,0.7-10.6,1.4-16,2.1c55.7-7.3,112-7.6,168-5.5c59.4,2.2,118.7,6.5,178,10
			c124.2,7.5,248.4,14.9,372.5,22.4c66.9,4,134.1,7,200.6,15.9c-5.3-0.7-10.6-1.4-16-2.1c44.4,6,88.4,14.9,131,28.8
			c5.3-39.3,10.6-78.6,16-117.9c-122.5-2.5-245-4.9-367.4-7.4c-122.8-2.5-245.5-4.9-368.3-7.4c-33.8-0.7-67.6-1.3-101.4-2.1
			c-30.5-0.7-61.7,0.2-92-3.7c5.3,0.7,10.6,1.4,16,2.1c-11.5-1.6-22.8-4.1-33.6-8.6c4.8,2,9.6,4,14.3,6c-5.7-2.4-11-5.4-15.9-9.1
			c4,3.1,8.1,6.3,12.1,9.4c-3-2.4-5.8-5.1-8.2-8.1c3.1,4,6.3,8.1,9.4,12.1c-2.1-2.7-3.7-5.5-5.2-8.6c2,4.8,4,9.6,6,14.3
			c-1.6-3.9-2.6-7.8-3.2-11.9c0.7,5.3,1.4,10.6,2.1,16c-0.3-3.5-0.3-7,0.2-10.5c-0.7,5.3-1.4,10.6-2.1,16c0.6-3.4,1.5-6.6,2.7-9.9
			c-2,4.8-4,9.6-6,14.3c2.1-4.9,4.8-9.3,8-13.5c-3.1,4-6.3,8.1-9.4,12.1c4.3-5.3,9.2-10,14.6-14.3c-4,3.1-8.1,6.3-12.1,9.4
			c9.8-7.5,20.6-13.3,32-18.2c-4.8,2-9.6,4-14.3,6c31.9-13.4,65.5-21.6,99.7-26.3c-5.3,0.7-10.6,1.4-16,2.1
			c48.5-6.5,97.6-6.4,146.5-4.4c50.7,2.1,101.2,6.5,151.5,13.2c-5.3-0.7-10.6-1.4-16-2.1c90.5,12.2,180,31.7,267.4,58.6
			c25,7.7,49.8,16,74.4,24.8c0-38.6,0-77.1,0-115.7c-2.8,0.7-5.6,1.2-8.4,1.6c5.3-0.7,10.6-1.4,16-2.1c-7,0.8-13.9,0.7-20.9-0.3
			c5.3,0.7,10.6,1.4,16,2.1c-11.5-1.8-22.4-5.4-33-9.8c4.8,2,9.6,4,14.3,6c-30.6-13-59.3-29.9-91.3-40c-31.8-10.1-66-14.6-99.4-15.3
			c-64.2-1.4-128.4,13.2-188.7,34.1c-33,11.5-65.3,24.8-97.5,38.1c-7.8,1.9-14.6,5.4-20.4,10.7c-6.5,4.2-11.7,9.8-15.5,16.8
			c-7.5,12.9-10.7,31.8-6,46.2c4.7,14.5,13.7,28.5,27.6,35.9c13.3,7,31.7,12.1,46.2,6c68.3-28.2,137.5-56.7,211.2-66.7
			c-5.3,0.7-10.6,1.4-16,2.1c31.6-4.1,63.5-4.8,95.2-0.7c-5.3-0.7-10.6-1.4-16-2.1c23.9,3.3,47.2,9.3,69.5,18.6c-4.8-2-9.6-4-14.3-6
			c24.7,10.6,48.1,23.6,73.1,33.5c28.7,11.3,60.1,14,90.2,6.7c12.6-3,23.5-11.5,31.2-21.5c7.8-10.1,13.5-23.2,12.9-36.4
			c-0.5-10.7-3.2-20.9-8.2-30.3c-7.4-14-21.6-22.4-35.9-27.6c-123.9-44.6-252.2-73.3-382.9-88.7c-62.1-7.3-124.8-11.7-187.3-11.2
			c-64.6,0.4-132,6.8-192.6,30.6c-16.3,6.4-33.1,12.9-47.8,22.7c-18.5,12.3-32.5,25.6-45.2,43.7c-11.6,16.5-18.1,39.4-17.1,59.5
			c1.3,25,10.3,46.4,26.6,65.3c19.2,22.4,50.1,35.2,78.7,39.9c32.4,5.3,65,5.4,97.8,6.2c133.4,3.3,266.9,5.5,400.4,8.2
			c134.5,2.7,268.9,5.4,403.4,8.1c16.2,0.3,32.3,0.7,48.5,1c29.9,0.6,55.1-23.3,58.9-52c4.1-30.2-14.3-56.4-43-65.8
			c-79.7-26.1-164.3-34.9-247.6-40.7c-82-5.7-164.1-10-246.1-15c-83.1-5-166.1-10-249.2-15c-77.2-4.6-154.7-11-232.1-9.6
			c-46.3,0.9-92.6,5.1-138.1,13.6c-20.7,3.9-41.1,8.9-61.2,15.3c-23.6,7.5-46.1,17.7-68.8,27.4c4.8-2,9.6-4,14.3-6
			c-12.8,5.4-25.9,10-39.6,12.1c5.3-0.7,10.6-1.4,16-2.1c-6,0.8-12,1-18.1,0.2c5.3,0.7,10.6,1.4,16,2.1c-3.6-0.6-7-1.5-10.3-2.8
			c4.8,2,9.6,4,14.3,6c-2.8-1.3-5.3-2.8-7.8-4.7c4,3.1,8.1,6.3,12.1,9.4c-2.1-1.7-3.9-3.6-5.6-5.7c3.1,4,6.3,8.1,9.4,12.1
			c-0.3-0.5-0.7-0.9-1-1.4c-3.1,24.2-6.3,48.5-9.4,72.7c4.7-4.1,9.6-8.1,14.5-11.9c-4,3.1-8.1,6.3-12.1,9.4
			c21.6-16.5,45.2-30.1,70.2-40.9c-4.8,2-9.6,4-14.3,6c27-11.4,55.3-19.2,84.3-23.3c-5.3,0.7-10.6,1.4-16,2.1
			c25.6-3.4,51.4-3.9,77-1.2c14.3,1.5,32.6-7.8,42.4-17.6c10.4-10.4,18.2-27.5,17.6-42.4c-0.7-15.5-5.8-31.6-17.6-42.4
			c-4-3.1-8.1-6.3-12.1-9.4C6837.8,160.6,6827.7,157.9,6816.9,157.9L6816.9,157.9z"/>
	</g>
</g>
<g>
	<g>
		<path fill="#96CA2D" d="M7960.9,366.6c5.2-2.7,10.5-5.2,15.9-7.5c-4.8,2-9.6,4-14.3,6c26.1-10.9,53.8-16.7,81.7-20.5
			c-5.3,0.7-10.6,1.4-16,2.1c41.9-5.5,84.3-8.2,126.4-11.8c42.3-3.7,84.7-8.4,127.2-10.3c23.5-1,47-0.8,70.3,2.2
			c-5.3-0.7-10.6-1.4-16-2.1c19.4,2.6,38.5,7.1,56.6,14.7c-4.8-2-9.6-4-14.3-6c9.7,4.1,18.8,9.2,27.2,15.6c-4-3.1-8.1-6.3-12.1-9.4
			c5.3,4.2,10,8.9,14.2,14.2c-3.1-4-6.3-8.1-9.4-12.1c1.3,1.7,2.5,3.3,3.6,5.1c17.3-30.1,34.5-60.2,51.8-90.3
			c-113.5-2-227,7.6-338.8,26.9c-30,5.2-59.8,11.2-89.5,17.9c-14.3,3.3-28.6,15.1-35.9,27.6c-7.5,12.9-10.7,31.8-6,46.2
			c4.7,14.5,13.7,28.5,27.6,35.9c14.6,7.7,29.9,9.8,46.2,6c50.5-11.5,101.5-20.7,152.8-27.7c-5.3,0.7-10.6,1.4-16,2.1
			c67-9,134.6-14.1,202.2-15.1c19.1-0.3,38.2-0.3,57.3,0.1c21,0.4,41.3-11.7,51.8-29.7c10.4-17.7,11.7-43,0-60.6
			c-13.8-20.8-31.8-38.1-53.8-50.2c-18.4-10.1-38.9-17.7-59.3-22.5c-40.5-9.4-82.4-10.6-123.7-8.1c-38.4,2.4-76.8,6.3-115.1,9.7
			c-37.7,3.3-75.5,5.9-113.1,10.2c-24,2.8-48.2,5.8-71.7,11.6c-23.7,5.8-46.9,14.8-68.5,26.1c-13,6.8-23.8,22-27.6,35.9
			c-4,14.4-2.2,33.5,6,46.2c8.3,12.8,20.6,24.1,35.9,27.6C7930.8,376.3,7946.1,374.4,7960.9,366.6L7960.9,366.6z"/>
	</g>
</g>
<g>
	<g>
		<path fill="#96CA2D" d="M5153.4,222.4c-55.5-26.6-113.7-47.8-173.7-61.5c-60-13.7-122-21.2-183.6-22.1
			c-61.8-0.9-123.7,5.3-184.4,17c-60.8,11.7-119.1,30.8-176,55c-52.2,22.1-102,49.6-148,82.6c-5.9,4.2-11.7,8.5-17.4,12.9
			c-7,3.8-12.6,8.9-16.8,15.5c-5.3,5.8-8.9,12.6-10.7,20.4c-4,14.4-2.2,33.5,6,46.2c8.3,12.8,20.6,24.1,35.9,27.6
			c5.3,0.7,10.6,1.4,16,2.1c10.8,0,20.9-2.8,30.3-8.2c50.8-38.7,106.6-70.6,165.4-95.5c-4.8,2-9.6,4-14.3,6
			c51.8-21.8,105.8-38.1,160.9-48.8c15.7-3,31.5-5.6,47.3-7.7c-5.3,0.7-10.6,1.4-16,2.1c56.5-7.5,113.7-9.3,170.5-5.1
			c16.2,1.2,32.3,2.9,48.4,5c-5.3-0.7-10.6-1.4-16-2.1c52.8,7.2,104.9,19.5,155.1,37.2c14.3,5,28.5,10.5,42.5,16.4
			c-4.8-2-9.6-4-14.3-6c10.9,4.6,21.7,9.5,32.4,14.6c6.9,4.4,14.3,6.8,22.3,7.1c8,1.8,16,1.4,23.9-1.1c13.9-3.8,29-14.6,35.9-27.6
			c7.4-13.9,11-30.8,6-46.2C5176.4,244,5167.3,229.1,5153.4,222.4L5153.4,222.4z"/>
	</g>
</g>
<g>
	<g>
		<path fill="#96CA2D" d="M4305,341.5c-17.4,12.2-34.8,24.3-52.3,36.5c30.1,17.3,60.2,34.5,90.3,51.8c-0.6-5.1-0.5-10.2,0.1-15.3
			c-0.7,5.3-1.4,10.6-2.1,16c0.8-5.1,2.1-10,4-14.7c-2,4.8-4,9.6-6,14.3c2-4.7,4.6-9.1,7.6-13.2c-3.1,4-6.3,8.1-9.4,12.1
			c1.9-2.4,3.9-4.7,6.2-6.8c-28.3-28.3-56.6-56.6-84.9-84.9c-11.1,11.7-18.8,24.7-23.5,40.1c-2.3,7.5-3.1,16-3.6,23.7
			c-0.4,5.9,0.5,11.4,1.3,17.3c1.9,14.4,5.6,25.5,12.2,38.9c1.4,2.8,2.9,5.3,4.7,7.9c4.6,6.6,9.5,13.4,15.3,19.1
			c34.3,34,83.9,39.5,129.8,38c80.3-2.6,160.1-15,239.3-27.6c42-6.7,84-13.5,126.2-19.2c-5.3,0.7-10.6,1.4-16,2.1
			c65.6-8.8,131.9-14.7,198.1-11.4c18.6,0.9,37.2,2.6,55.8,5c-5.3-0.7-10.6-1.4-16-2.1c17.1,2.3,34.1,5.3,51,9.1
			c-14-24.6-27.9-49.2-41.9-73.8c-0.5,2-1.1,3.9-1.9,5.8c2-4.8,4-9.6,6-14.3c-1.4,3.2-3.1,6.2-5.2,9c3.1-4,6.3-8.1,9.4-12.1
			c-2.4,3-5,5.7-8,8.1c4-3.1,8.1-6.3,12.1-9.4c-4.5,3.4-9.3,6.1-14.4,8.3c4.8-2,9.6-4,14.3-6c-9.6,4-19.7,6.2-30,7.6
			c5.3-0.7,10.6-1.4,16-2.1c-12.7,1.6-25.5,1.6-38.3,1.7c-17.6,0-35.3,0-52.9,0c-35.3,0-70.6,0-105.9,0c-70.6,0-141.1,0.1-211.7,0.1
			c-39.9,0-79.9,0-119.8,0c-14.7,0-32.3,6.5-42.4,17.6c-3.1,4-6.3,8.1-9.4,12.1c-4.4,6.9-6.8,14.3-7.1,22.3c-1.4,5.3-1.4,10.6,0,16
			c0.4,8,2.7,15.4,7.1,22.3c7.9,12.3,20.8,25.2,35.9,27.6c92.2,14.7,185.1,19.4,278.3,15.7c93.5-3.7,186.6-15,279.2-28.2
			c49.9-7.1,99.6-15,149.3-22.9c7.8-1.9,14.6-5.4,20.4-10.7c6.5-4.2,11.7-9.8,15.5-16.8c7.5-12.9,10.7-31.8,6-46.2
			c-4.7-14.5-13.7-28.5-27.6-35.9c-4.8-2-9.6-4-14.3-6c-10.6-2.9-21.3-2.9-31.9,0c-61.4,9.8-122.8,19.5-184.4,27.7
			c5.3-0.7,10.6-1.4,16-2.1c-120.1,16.1-241.4,26.8-362.6,20.8c-33.7-1.7-67.4-4.7-100.9-9.2c5.3,0.7,10.6,1.4,16,2.1
			c-9-1.2-18.1-2.5-27.1-4c-5.3,39.3-10.6,78.6-16,117.9c87.9,0,175.8-0.1,263.6-0.1c44.3,0,88.5,0,132.8-0.1c22,0,43.9,0,65.9,0
			c18.7,0,37.7,0.8,56.4-0.7c13-1,26.1-2.6,38.8-5.4c12.2-2.7,24.1-7.6,35.2-13.1c25.8-12.7,45.9-37.6,53.2-65.3
			c8-30.2-9.9-66.6-41.9-73.8c-71.2-15.9-144.6-19.8-217.3-15.4c-73.4,4.5-146.2,16-218.7,27.6c-38.7,6.2-77.4,12.4-116.3,17.6
			c5.3-0.7,10.6-1.4,16-2.1c-30,4-60.1,7.4-90.3,9.7c-28.2,2.1-57.4,4.8-85.5,1.3c5.3,0.7,10.6,1.4,16,2.1c-9.1-1.2-18-3.4-26.5-6.9
			c4.8,2,9.6,4,14.3,6c-5.2-2.3-10.2-5.1-14.7-8.5c4,3.1,8.1,6.3,12.1,9.4c-3.4-2.7-6.4-5.8-9.1-9.2c3.1,4,6.3,8.1,9.4,12.1
			c-2.9-3.9-5.3-8-7.2-12.4c2,4.8,4,9.6,6,14.3c-1.8-4.4-3.1-8.9-3.7-13.6c0.7,5.3,1.4,10.6,2.1,16c-0.4-3.7-0.5-7.4-0.1-11.2
			c-0.7,5.3-1.4,10.6-2.1,16c0.5-3.2,1.3-6.3,2.5-9.4c-2,4.8-4,9.6-6,14.3c1.2-2.7,2.6-5.1,4.3-7.4c-3.1,4-6.3,8.1-9.4,12.1
			c0.8-1,1.6-1.9,2.5-2.8c10.8-11.3,17.6-26.6,17.6-42.4c0-14.7-6.5-32.3-17.6-42.4c-11.4-10.5-26.4-18.3-42.4-17.6
			c-16.1,0.7-30.7,6.2-42.4,17.6c-14.4,13.9-23.2,30.2-30.1,48.6c-3.4,9.1-4.2,19-5.3,28.5c-0.6,5.1-0.7,10.1-0.1,15.3
			c0,10.8,2.8,20.9,8.2,30.3c5.3,9,12.5,16.2,21.5,21.5c17.4,10.2,43.4,12,60.6,0c17.4-12.2,34.8-24.3,52.3-36.5
			c13-9.1,23.2-20.1,27.6-35.9c4-14.4,2.2-33.5-6-46.2c-8.3-12.8-20.6-24.1-35.9-27.6C4336.2,332.1,4318.1,332.4,4305,341.5
			L4305,341.5z"/>
	</g>
</g>
<g>
	<g>
		<path fill="#96CA2D" d="M4980.7,274.9c-0.6-0.1-1.2-0.1-1.8-0.2c5.3,0.7,10.6,1.4,16,2.1c-29.7-4.1-57.2-17.2-86.7-22.6
			c-16.4-3-33.1-5.3-49.7-3.2c-10.4,1.3-21,2.3-31,5.4c-9.7,3-19.3,7-28.2,11.8c-2.6,1.4-5.1,3.1-7.5,4.8c-6.1,4.4-12.5,9-17.9,14.3
			c-5.4,5.4-10,11.8-14.3,17.9c-1.9,2.7-3.5,5.4-4.9,8.3c-4.4,6.9-6.8,14.3-7.1,22.3c-1.8,8-1.4,16,1.1,23.9
			c4.8,14.9,13.8,27.8,27.6,35.9c32.3,18.8,71.8,23.7,107.8,14.1c20.7-5.5,37.9-15.7,54.2-29.2c22.7-18.8,33.3-53.5,23.7-81.5
			c-4.6-13.4-11.7-26.2-22.6-35.6c-12.3-10.5-22.4-16-37.4-21.7c-9.3-3.5-19.5-4.2-29.2-5.5c-5.3-0.7-10.7-1-16.1-0.7
			c-29.2,1.6-58.8,10.4-82.4,28c-8.4,6.3-17,12.6-24.1,20.3c-6.8,7.3-13,15.4-18.6,23.7c-9,13.4-15.7,29.3-18.8,45.2
			c-3,15.3-2.8,32.5,6,46.2c8.5,13.1,20.5,23.4,35.9,27.6c32.4,8.7,65.3-0.9,90-22.8c5.8-5.1,10.4-11.6,14.8-17.9
			c4.6-6.5,7.5-14.4,10.2-21.8c2.7-7.6,3.5-16.4,4-24.3c0.5-8.1-1.1-16.9-2.6-24.5c-1.5-7.7-5.1-14.9-8.3-22
			c-2.4-5.4-5.7-9.4-9.3-14.1c-3.6-4.7-6.7-8.9-11.2-12.6c-9.2-7.5-15.6-11.9-26.1-16.4c-5.3-2.2-10.1-4.4-15.7-5.4
			c-8-1.3-16.2-3-24.4-2.3c-17.2,1.4-31.1,5.1-46.3,13.5c-2.8,1.6-5.5,3.4-8.1,5.4c-6.6,4.9-13.3,9.8-19.2,15.6
			c-8.5,8.3-15.7,18.1-22.7,27.6c-4.4,6-8.6,12.3-12,18.8c-7.7,14.8-9.6,30.5-6,46.7c1.3,5.8,3.8,11.4,6.7,16.5
			c6.1,10.5,14.6,18.5,25,24.6c5,2.9,10.7,5.4,16.5,6.7c5.8,1.3,12.8,2.4,18.8,2.4c12-0.1,25-3.4,35.4-9.4
			c21.8-12.7,35-35.7,35.5-60.9c0.1-6.3-1-13.4-2.4-19.5c-1.4-6.1-4.4-12.1-7-17.8c-0.9-1.8-1.8-3.5-2.9-5.1
			c-3.7-5.3-7.7-11-12.4-15.5c-5.5-5.3-11.8-10.4-18.6-14c-6.6-3.6-14-6.8-21.3-8.8c-16.8-4.5-31.6-3.6-48.4-0.5
			c-10.8,2-21.8,6.7-31,12.8c-14,9.2-24.2,19.2-33.4,33.2c-4.3,6.4-7.2,14.3-9.7,21.4c-2.8,7.9-3.4,16.7-4.1,25
			c0.7,5.3,1.4,10.6,2.1,16c1.9,7.8,5.4,14.6,10.7,20.4c2.7,4.5,6.3,8.1,10.8,10.8c5.8,5.3,12.6,8.9,20.4,10.7
			c18.5,6.7,41.9,2.7,58.5-7.3c17.6-10.6,29.3-26.8,36-46c11.8-34.2-6.3-75-38.2-91c-13.9-6.9-29.2-11.5-44.9-10.2
			c-7.8,0.6-15.8,1.4-23.2,4c-12.1,4.4-17.5,7.3-26.8,14.6c-7.2,5.5-11.3,9.7-16.9,16.9c-3.6,4.6-7.1,8.9-9.6,14.2
			c-3.4,7.3-7,14.8-9.1,22.7c-2.3,8.2-3,17.1-3.9,25.4c0,10.8,2.8,20.9,8.2,30.3c3.8,7,8.9,12.6,15.5,16.8
			c15.5,11.9,33.3,15.1,52.3,10.7c7.1-1.6,14.1-5,20.6-8.1c2.4-1.2,4.6-2.5,6.7-4c12.7-9.1,22.5-18.3,30.7-31.8
			c13.2-21.8,16.7-48.9,10.3-73.5c-3.6-13.9-14.7-29.1-27.6-35.9c-4.8-2-9.6-4-14.3-6c-10.6-2.9-21.3-2.9-31.9,0
			c-12.1,2.4-24.1,7.5-34.9,13.3c-3.5,1.9-6.9,4.1-10.1,6.5c-6.9,5.1-14.1,10.3-20.1,16.4c-4.3,4.3-7.9,9.2-11.7,14.1
			c-3.9,5.1-7.8,10-10.8,15.6c-6,11-11.2,23.2-13.6,35.6c-2.9,10.6-2.9,21.3,0,31.9c2.9,10.2,8,19,15.4,26.5
			c14.8,14.8,38.1,21.7,58.4,15.4c45.8-14.1,81-49.7,95.6-95.2c1-3.2,1.8-6.4,2.4-9.7c1.2-6.7,2.8-13.5,2.8-20.2
			c0-10.8-2.8-20.9-8.2-30.3c-5.3-9-12.5-16.2-21.5-21.5c-16.7-11.6-38.4-13.1-57.7-8.9c-14,3.1-29.4,12-38.9,22.8
			c-8.4,9.6-14.6,18.8-18,31.3c-4.1,14.9-2.7,23.6-0.4,38.5c1.9,7.8,5.4,14.6,10.7,20.4c4.2,6.5,9.8,11.7,16.8,15.5
			c14.4,7.6,30.2,10.1,46.2,6c33.8-8.6,67.2-23,96.5-42c29.4-19.1,56.6-42.3,78.4-69.9c3.1-4,6.3-8.1,9.4-12.1
			c4.4-6.9,6.8-14.3,7.1-22.3c1.4-5.3,1.4-10.6,0-16c-0.4-8-2.7-15.4-7.1-22.3c-5.6-8.7-12.9-15.9-21.5-21.5
			c-13.6-8.7-31.1-9.2-46.2-6c-71.9,14.9-139.2,51.4-193.1,100.9c-13.5,12.3-25.9,25.7-37.2,40c-5.9,5.4-10,11.9-12.4,19.3
			c-3.8,7.2-5.5,14.9-5.2,23.1c0.7,5.3,1.4,10.6,2.1,16c2.9,10.2,8,19,15.4,26.5c16.1,18.2,45.4,25.9,68.5,18.8
			c7.1-2.2,14.4-4.8,20.6-9.1c11.2-7.8,17.3-13.9,25.3-25.2c24.2-34.5,9.5-84.8-26.3-104.7c-13.4-7.5-29.8-12.1-45.2-10.9
			c-8,0.6-16.6,1.4-24.3,4.2c-14.6,5.2-21,9.2-32.9,19c-19.6,16.1-29.4,41.4-36.5,64.9c-2.5,8-2.9,16-1.1,23.9
			c0.4,8,2.7,15.4,7.1,22.3c7.9,12.3,20.8,25.2,35.9,27.6c13.7,2.2,15.9,2.8,27.5,1.2c10.1-1.4,15.4-2,25.4-8
			c11.2-6.7,20.1-15.3,26.7-26.6c3.9-6.7,7.1-14.3,8.5-22c0.9-5.2,2.5-13.3,2.3-19.7c-0.2-6.6-1.1-14.1-2.8-20.6
			c-6.9-25.5-27.3-46.2-52.9-53c-14-3.7-29.1-3.7-43.1,0.2c-15.1,4.2-25.7,11.4-37.4,21.3c-7.3,6.2-13.6,14.4-18.3,22.5
			c-3.5,6.1-6.7,12.9-8.5,19.5c-4.7,16.5-2.4,34.4,6.4,49.3c16.1,27,50.6,39.9,80.4,29.7c30.1-10.4,53-36.8,52.9-69.8
			c-0.1-33.6-24.1-60.9-55-70.8c-22.5-7.2-51.3-3.6-70.4,10.5c-13.1,9.7-21.7,18.1-30.7,32c-3.4,5.3-6.1,11-8.7,16.8
			c-4.4,6.9-6.8,14.3-7.1,22.3c-1.8,8-1.4,16,1.1,23.9c4.1,12.6,10.9,23,21.5,31.2c10.1,7.8,23.2,13.5,36.4,12.9
			c5.3-0.7,10.6-1.4,16-2.1c10.2-2.9,19-8,26.5-15.4c4.5-3.6,7.6-7.9,11.1-12.5c3.6-4.7,6.8-8.7,9.2-13.9c6.8-14.7,12-30,10.7-46.6
			c-0.7-5.3-1.4-10.6-2.1-16c-1.9-7.8-5.4-14.6-10.7-20.4c-7.3-9.5-18.9-19.4-31.2-21.5c-7.6-1.3-15.6-3.1-23.4-2.5
			c-7.6,0.6-15.9,1.2-23.2,3.9c-7,2.5-14.7,5.3-21,9.5c-6.3,4.3-13.2,9-18.3,14.8c-4.9,5.6-10.2,11.6-13.6,18.3
			c-3.4,6.7-7,13.9-8.5,21.3c-1.3,6.2-2.3,13-2.6,19.3c0,0.7-0.1,1.4,0,2.1c0,3.3,1.3,13.4,2.2,16.6c4.1,14.8,14.6,27.8,27.6,35.9
			c4.8,2.9,11.3,5.7,16.6,7.1c28.4,7.4,58.1-5.9,72.8-30.8c5.3-8.9,7.3-17,8.6-26.8c0.6-4.5,1.1-6.6,1.1-10.4
			c-0.2-12.7-1.6-15.6-5.8-25.3c-5.6-13.2-14.5-24-27-31.5c-10.9-6.5-24.1-9.7-36.7-9.9c-16.6-0.3-33.2,5.9-47.2,14.4
			c-16.6,10.1-32.9,20.6-49.2,31.2c-13,8.4-23.4,20.6-27.6,35.9c-4,14.4-2.2,33.5,6,46.2c8.3,12.8,20.6,24.1,35.9,27.6
			c15.4,3.5,32.6,2.8,46.2-6c9.8-6.3,19.6-12.6,29.4-18.8c9.2-5.8,18.3-12.6,28.3-16.9c-4.8,2-9.6,4-14.3,6c2-0.7,3.9-1.3,6-1.6
			c-5.3,0.7-10.6,1.4-16,2.1c1.6-0.1,2.9-0.1,4.4,0.1c-5.3-0.7-10.6-1.4-16-2.1c1,0.2,1.9,0.5,2.8,0.9c-4.8-2-9.6-4-14.3-6
			c0.8,0.3,1.5,0.8,2.1,1.3c-4-3.1-8.1-6.3-12.1-9.4c0.2,0.2,0.4,0.4,0.7,0.7c-3.1-4-6.3-8.1-9.4-12.1c0.4,0.5,0.7,1,1,1.5
			c-2-4.8-4-9.6-6-14.3c0.3,0.6,0.4,1.2,0.5,1.8c-0.7-5.3-1.4-10.6-2.1-16c0.1,1,0.1,1.9,0.1,2.8c0.7-5.3,1.4-10.6,2.1-16
			c-0.2,1-0.4,1.9-0.7,2.8c2-4.8,4-9.6,6-14.3c-0.4,0.9-0.8,1.6-1.3,2.4c3.1-4,6.3-8.1,9.4-12.1c-0.6,0.7-1.1,1.2-1.8,1.8
			c4-3.1,8.1-6.3,12.1-9.4c-0.2,0.1-0.4,0.3-0.7,0.4c4.8-2,9.6-4,14.3-6c-0.4,0.2-0.9,0.3-1.4,0.4c5.3-0.7,10.6-1.4,16-2.1
			c-0.2,0-0.5,0-0.7,0c5.3,0.7,10.6,1.4,16,2.1c-0.3-0.1-0.5-0.1-0.8-0.2c4.8,2,9.6,4,14.3,6c-0.6-0.2-1.1-0.5-1.5-0.9
			c9.9,17.3,19.8,34.5,29.7,51.8c0-1.4,0-2.7,0.2-4.1c-0.7,5.3-1.4,10.6-2.1,16c0.3-2.3,0.9-4.4,1.7-6.5c-2,4.8-4,9.6-6,14.3
			c1.1-2.5,2.4-4.8,4-7.1c-3.1,4-6.3,8.1-9.4,12.1c1.7-2.2,3.6-4.1,5.8-5.8c-4,3.1-8.1,6.3-12.1,9.4c2.2-1.7,4.5-3,7-4.2
			c-4.8,2-9.6,4-14.3,6c2.5-1,5.1-1.7,7.8-2.2c-5.3,0.7-10.6,1.4-16,2.1c2.3-0.2,4.5-0.2,6.8,0c-5.3-0.7-10.6-1.4-16-2.1
			c0.5,0.1,0.9,0.2,1.4,0.2c-14.7-19.3-29.4-38.6-44-57.9c0.2,2.6,0.1,5-0.1,7.6c0.7-5.3,1.4-10.6,2.1-16c-0.5,3-1.3,5.9-2.4,8.8
			c2-4.8,4-9.6,6-14.3c-1.2,2.8-2.7,5.4-4.5,7.9c3.1-4,6.3-8.1,9.4-12.1c-1.9,2.4-4,4.5-6.4,6.4c31.4,24.2,62.8,48.5,94.2,72.7
			c3.1-6.9,6.3-13.7,10.8-19.8c-3.1,4-6.3,8.1-9.4,12.1c2.1-2.8,4.4-5.2,7.1-7.4c-4,3.1-8.1,6.3-12.1,9.4c2.1-1.6,4.3-3,6.8-4.1
			c-4.8,2-9.6,4-14.3,6c1.9-0.7,3.8-1.2,5.7-1.5c-5.3,0.7-10.6,1.4-16,2.1c2.4-0.3,4.7-0.3,7.1,0c-5.3-0.7-10.6-1.4-16-2.1
			c1.9,0.3,3.7,0.8,5.6,1.5c-4.8-2-9.6-4-14.3-6c1.4,0.6,2.6,1.3,3.9,2.2c-4-3.1-8.1-6.3-12.1-9.4c1.2,0.9,2.2,1.9,3.1,3
			c-3.1-4-6.3-8.1-9.4-12.1c0.7,0.9,1.2,1.8,1.7,2.8c-2-4.8-4-9.6-6-14.3c0.4,1,0.8,2,1,3.1c-0.7-5.3-1.4-10.6-2.1-16
			c0.1,1,0.1,1.8,0.1,2.8c0.7-5.3,1.4-10.6,2.1-16c-0.2,0.9-0.4,1.8-0.7,2.7c2-4.8,4-9.6,6-14.3c-0.5,1.2-1.2,2.2-1.9,3.2
			c3.1-4,6.3-8.1,9.4-12.1c-0.9,1-1.8,1.8-2.8,2.7c4-3.1,8.1-6.3,12.1-9.4c-1.1,0.8-2.2,1.4-3.4,2c4.8-2,9.6-4,14.3-6
			c-1.5,0.6-2.9,1-4.5,1.3c5.3-0.7,10.6-1.4,16-2.1c-0.9,0.1-1.7,0.1-2.6,0c5.3,0.7,10.6,1.4,16,2.1c-0.9-0.1-1.6-0.3-2.4-0.7
			c4.8,2,9.6,4,14.3,6c-0.5-0.2-1-0.5-1.4-0.8c4,3.1,8.1,6.3,12.1,9.4c-0.5-0.3-0.9-0.7-1.2-1.2c3.1,4,6.3,8.1,9.4,12.1
			c-0.6-0.8-1-1.5-1.4-2.4c2,15.4,4,30.8,6,46.2c0.3-0.9,0.6-1.8,1-2.7c-2,4.8-4,9.6-6,14.3c1.2-2.7,2.6-5.1,4.3-7.5
			c-3.1,4-6.3,8.1-9.4,12.1c2.1-2.7,4.4-5.1,7-7.2c-4,3.1-8.1,6.3-12.1,9.4c2.3-1.7,4.6-3.1,7.2-4.3c-4.8,2-9.6,4-14.3,6
			c2.1-0.8,4.2-1.4,6.5-1.8c-5.3,0.7-10.6,1.4-16,2.1c1.8-0.2,3.5-0.2,5.3,0c-5.3-0.7-10.6-1.4-16-2.1c1.8,0.3,3.5,0.7,5.3,1.4
			c-4.8-2-9.6-4-14.3-6c1.2,0.5,2.2,1.1,3.2,1.9c-4-3.1-8.1-6.3-12.1-9.4c0.9,0.8,1.7,1.6,2.5,2.6c-3.1-4-6.3-8.1-9.4-12.1
			c0.7,1,1.3,2,1.8,3.1c-2-4.8-4-9.6-6-14.3c0.7,1.7,1.2,3.5,1.4,5.3c-0.7-5.3-1.4-10.6-2.1-16c0.2,1.9,0.2,3.7,0,5.6
			c0.7-5.3,1.4-10.6,2.1-16c-0.3,2.1-0.8,4.1-1.6,6.1c2-4.8,4-9.6,6-14.3c-0.5,1-1,2-1.7,3c3.1-4,6.3-8.1,9.4-12.1
			c-0.7,0.9-1.4,1.6-2.2,2.4c4-3.1,8.1-6.3,12.1-9.4c-0.9,0.7-1.7,1.2-2.7,1.6c4.8-2,9.6-4,14.3-6c-0.8,0.3-1.5,0.5-2.4,0.6
			c5.3-0.7,10.6-1.4,16-2.1c-0.9,0.1-1.7,0.1-2.6,0c5.3,0.7,10.6,1.4,16,2.1c-0.3,0-0.6-0.1-0.9-0.1c14,24.6,27.9,49.2,41.9,73.8
			c1.8-6,3.7-12,6.2-17.8c-2,4.8-4,9.6-6,14.3c2.1-4.7,4.5-9.2,7.6-13.3c-3.1,4-6.3,8.1-9.4,12.1c2.2-2.7,4.6-5.2,7.3-7.3
			c-4,3.1-8.1,6.3-12.1,9.4c2-1.4,4.1-2.6,6.4-3.5c-4.8,2-9.6,4-14.3,6c2.3-0.9,4.7-1.5,7.1-1.9c-5.3,0.7-10.6,1.4-16,2.1
			c2.9-0.3,5.6-0.4,8.4,0c-5.3-0.7-10.6-1.4-16-2.1c1.9,0.3,3.8,0.8,5.6,1.5c-4.8-2-9.6-4-14.3-6c1.8,0.8,3.3,1.7,4.9,2.9
			c-4-3.1-8.1-6.3-12.1-9.4c0.9,0.8,1.6,1.5,2.4,2.4c-3.1-4-6.3-8.1-9.4-12.1c1,1.2,1.7,2.5,2.4,3.9c-2-4.8-4-9.6-6-14.3
			c0.4,1,0.6,1.9,0.8,3c-0.7-5.3-1.4-10.6-2.1-16c0.1,1,0.1,2,0,3c0.7-5.3,1.4-10.6,2.1-16c-0.2,1.4-0.5,2.6-1,3.9
			c2-4.8,4-9.6,6-14.3c-0.7,1.6-1.6,3.1-2.6,4.5c3.1-4,6.3-8.1,9.4-12.1c-1.1,1.4-2.3,2.6-3.7,3.7c4-3.1,8.1-6.3,12.1-9.4
			c-1.1,0.8-2.2,1.5-3.5,2.1c4.8-2,9.6-4,14.3-6c-1.2,0.5-2.4,0.9-3.7,1.1c5.3-0.7,10.6-1.4,16-2.1c-0.9,0.1-1.8,0.1-2.7,0.1
			c5.3,0.7,10.6,1.4,16,2.1c-0.9-0.1-1.7-0.3-2.6-0.6c4.8,2,9.6,4,14.3,6c-0.9-0.4-1.6-0.9-2.4-1.5c4,3.1,8.1,6.3,12.1,9.4
			c-0.5-0.4-1-0.9-1.4-1.5c0,28.3,0,56.6,0,84.9c17.5-22,37.5-41.7,59.7-58.9c-4,3.1-8.1,6.3-12.1,9.4
			c24.3-18.8,50.9-34.3,79.2-46.3c-4.8,2-9.6,4-14.3,6c21-8.8,42.7-15.6,65-20.2c-19.5-33.4-38.9-66.9-58.4-100.3
			c-13.8,17.6-29.8,33.3-47.4,47.1c4-3.1,8.1-6.3,12.1-9.4c-19,14.6-39.7,26.8-61.7,36.2c4.8-2,9.6-4,14.3-6
			c-12.8,5.4-25.9,9.8-39.3,13.2c24.6,14,49.2,27.9,73.8,41.9c-0.1-0.4-0.1-0.8-0.2-1.1c0.7,5.3,1.4,10.6,2.1,16
			c-0.1-1.2,0-2.2,0.1-3.3c-0.7,5.3-1.4,10.6-2.1,16c0.2-1.1,0.5-2.1,0.9-3.1c-2,4.8-4,9.6-6,14.3c0.6-1.4,1.3-2.6,2.2-3.8
			c-3.1,4-6.3,8.1-9.4,12.1c1-1.2,2-2.2,3.2-3.2c-4,3.1-8.1,6.3-12.1,9.4c1.6-1.2,3.1-2.1,4.9-2.9c-4.8,2-9.6,4-14.3,6
			c1.4-0.5,2.8-1,4.3-1.2c-5.3,0.7-10.6,1.4-16,2.1c1.5-0.2,2.9-0.2,4.4-0.1c-5.3-0.7-10.6-1.4-16-2.1c1.5,0.2,2.8,0.6,4.2,1.2
			c-4.8-2-9.6-4-14.3-6c1,0.5,1.9,1.1,2.8,1.8c-9.9-17.3-19.8-34.5-29.7-51.8c-0.1,0.5-0.1,0.9-0.2,1.4c0.7-5.3,1.4-10.6,2.1-16
			c-1,6.6-2.8,13-5.3,19.2c2-4.8,4-9.6,6-14.3c-2.9,6.6-6.5,12.7-10.8,18.5c3.1-4,6.3-8.1,9.4-12.1c-4.5,5.7-9.5,10.7-15.1,15.1
			c4-3.1,8.1-6.3,12.1-9.4c-5.3,4-11,7.4-17.2,10.1c4.8-2,9.6-4,14.3-6c-2.6,1.1-5.3,2.1-8.1,2.9c24.6,24.6,49.2,49.2,73.8,73.8
			c1-5.1,2.5-10,4.5-14.9c-2,4.8-4,9.6-6,14.3c2.5-5.6,5.6-10.9,9.2-15.8c-3.1,4-6.3,8.1-9.4,12.1c4.4-5.6,9.3-10.6,15-15
			c-4,3.1-8.1,6.3-12.1,9.4c4.9-3.7,10.2-6.8,15.8-9.3c-4.8,2-9.6,4-14.3,6c4.8-2,9.7-3.5,14.9-4.5c-24.6-14-49.2-27.9-73.8-41.9
			c0.3,1.3,0.6,2.6,0.8,3.9c-0.7-5.3-1.4-10.6-2.1-16c0.4,3.1,0.4,6.1,0,9.2c0.7-5.3,1.4-10.6,2.1-16c-0.5,3.1-1.3,6-2.4,8.9
			c2-4.8,4-9.6,6-14.3c-1.4,3.3-3.2,6.3-5.3,9.1c3.1-4,6.3-8.1,9.4-12.1c-2,2.4-4.1,4.5-6.5,6.5c4-3.1,8.1-6.3,12.1-9.4
			c-2.1,1.6-4.3,2.9-6.7,4c4.8-2,9.6-4,14.3-6c-2,0.9-4.1,1.5-6.3,2c25.3,19.3,50.6,38.6,76,57.9c0.1-0.5,0.1-1,0.2-1.5
			c-0.7,5.3-1.4,10.6-2.1,16c0.7-4.9,1.9-9.7,3.8-14.3c-2,4.8-4,9.6-6,14.3c1.6-3.6,3.5-7,5.8-10.1c-3.1,4-6.3,8.1-9.4,12.1
			c1.8-2.3,3.8-4.3,6.1-6.1c-4,3.1-8.1,6.3-12.1,9.4c1.9-1.4,3.8-2.6,5.8-3.6c-4.8,2-9.6,4-14.3,6c2.3-1,4.7-1.6,7.2-2.1
			c-5.3,0.7-10.6,1.4-16,2.1c2.5-0.3,5-0.3,7.5-0.1c-5.3-0.7-10.6-1.4-16-2.1c2.5,0.3,4.8,0.9,7.2,1.8c-4.8-2-9.6-4-14.3-6
			c1.9,0.8,3.6,1.8,5.3,3c-4-3.1-8.1-6.3-12.1-9.4c1.3,1,2.4,2.1,3.4,3.3c-3.1-4-6.3-8.1-9.4-12.1c1,1.3,1.8,2.6,2.6,4.1
			c-2-4.8-4-9.6-6-14.3c0.6,1.6,1,3,1.2,4.7c-0.7-5.3-1.4-10.6-2.1-16c0.1,1.2,0.1,2.4-0.1,3.6c0.7-5.3,1.4-10.6,2.1-16
			c-0.3,1.6-0.7,3.2-1.2,4.7c2-4.8,4-9.6,6-14.3c-0.8,1.9-1.8,3.7-3.1,5.3c3.1-4,6.3-8.1,9.4-12.1c-1,1.3-2.1,2.4-3.4,3.5
			c4-3.1,8.1-6.3,12.1-9.4c-1.3,1-2.6,1.7-4,2.4c4.8-2,9.6-4,14.3-6c-1.1,0.4-2.1,0.7-3.3,1c5.3-0.7,10.6-1.4,16-2.1
			c-1.2,0.1-2.2,0.2-3.4,0.1c5.3,0.7,10.6,1.4,16,2.1c-1.2-0.2-2.3-0.5-3.5-0.9c14.7,19.3,29.4,38.6,44,57.9c0-0.8,0.1-1.6,0.2-2.3
			c-0.7,5.3-1.4,10.6-2.1,16c0.4-2.7,1.1-5.2,2.1-7.8c-2,4.8-4,9.6-6,14.3c1.2-2.8,2.7-5.4,4.5-7.9c-3.1,4-6.3,8.1-9.4,12.1
			c2.4-3.1,5.1-5.7,8.2-8.1c-4,3.1-8.1,6.3-12.1,9.4c3.2-2.3,6.5-4.2,10.1-5.8c-4.8,2-9.6,4-14.3,6c3.6-1.4,7.4-2.4,11.2-3
			c-5.3,0.7-10.6,1.4-16,2.1c3.5-0.4,6.9-0.4,10.3,0.1c-5.3-0.7-10.6-1.4-16-2.1c2.7,0.4,5.2,1.1,7.7,2.1c-4.8-2-9.6-4-14.3-6
			c2.6,1.1,5,2.5,7.3,4.2c-4-3.1-8.1-6.3-12.1-9.4c2,1.6,3.7,3.4,5.3,5.4c-3.1-4-6.3-8.1-9.4-12.1c1.2,1.7,2.1,3.3,2.9,5.1
			c-2-4.8-4-9.6-6-14.3c0.5,1.4,0.9,2.7,1.1,4.1c-0.7-5.3-1.4-10.6-2.1-16c0.1,1.5,0.1,2.7,0,4.2c0.7-5.3,1.4-10.6,2.1-16
			c-0.2,1-0.4,1.9-0.8,2.8c2-4.8,4-9.6,6-14.3c-0.2,0.6-0.5,1.2-0.9,1.7c3.1-4,6.3-8.1,9.4-12.1c-0.6,0.8-1.2,1.4-2,2
			c4-3.1,8.1-6.3,12.1-9.4c-0.8,0.6-1.6,1-2.5,1.4c4.8-2,9.6-4,14.3-6c-1.2,0.5-2.4,0.8-3.8,1c5.3-0.7,10.6-1.4,16-2.1
			c-1,0.1-1.9,0.1-2.9,0c5.3,0.7,10.6,1.4,16,2.1c-0.9-0.1-1.8-0.3-2.7-0.6c4.8,2,9.6,4,14.3,6c-0.8-0.4-1.5-0.7-2.3-1.3
			c4,3.1,8.1,6.3,12.1,9.4c-0.4-0.4-0.8-0.8-1.2-1.2c3.1,4,6.3,8.1,9.4,12.1c-0.3-0.5-0.6-1-0.8-1.5c2,4.8,4,9.6,6,14.3
			c-0.2-0.6-0.4-1.2-0.4-1.8c-2,15.4-4,30.8-6,46.2c4.2-7.4,8.7-14.5,13.9-21.3c-3.1,4-6.3,8.1-9.4,12.1
			c5.5-7.1,11.5-13.7,18.5-19.2c-4,3.1-8.1,6.3-12.1,9.4c4-3.1,8.2-5.7,12.9-7.7c-4.8,2-9.6,4-14.3,6c3.2-1.3,6.5-2.3,9.9-2.8
			c-5.3,0.7-10.6,1.4-16,2.1c3-0.4,6-0.4,9-0.1c-5.3-0.7-10.6-1.4-16-2.1c3.2,0.5,6.2,1.3,9.2,2.4c-4.8-2-9.6-4-14.3-6
			c2.4,1.1,4.7,2.4,6.8,4c-4-3.1-8.1-6.3-12.1-9.4c2.4,2,4.6,4.1,6.5,6.6c-3.1-4-6.3-8.1-9.4-12.1c1.8,2.5,3.4,5.2,4.6,8
			c-2-4.8-4-9.6-6-14.3c1.2,2.9,2,5.8,2.5,8.9c-0.7-5.3-1.4-10.6-2.1-16c0.4,3.1,0.4,6.1,0,9.2c0.7-5.3,1.4-10.6,2.1-16
			c-0.4,2.7-1.1,5.1-2.2,7.6c2-4.8,4-9.6,6-14.3c-1.1,2.4-2.4,4.6-4,6.8c3.1-4,6.3-8.1,9.4-12.1c-2,2.4-4.1,4.5-6.6,6.5
			c4-3.1,8.1-6.3,12.1-9.4c-2.5,1.8-5.2,3.3-8.1,4.6c4.8-2,9.6-4,14.3-6c-2.9,1.1-5.8,1.9-8.9,2.4c5.3-0.7,10.6-1.4,16-2.1
			c-3.1,0.4-6.1,0.3-9.2-0.1c5.3,0.7,10.6,1.4,16,2.1c-1.3-0.2-2.6-0.5-3.9-0.9c14,24.6,27.9,49.2,41.9,73.8
			c1.1-5.8,2.8-11.3,5.1-16.7c-2,4.8-4,9.6-6,14.3c3.1-7,6.9-13.5,11.6-19.5c-3.1,4-6.3,8.1-9.4,12.1c5.1-6.4,10.8-12,17.2-17
			c-4,3.1-8.1,6.3-12.1,9.4c6.9-5.2,14.2-9.5,22.2-12.8c-4.8,2-9.6,4-14.3,6c7.5-3.1,15.3-5.2,23.3-6.4c-5.3,0.7-10.6,1.4-16,2.1
			c7.6-1,15.2-1,22.7,0c-5.3-0.7-10.6-1.4-16-2.1c5,0.8,9.8,1.9,14.5,3.8c-4.8-2-9.6-4-14.3-6c3,1.4,5.8,2.9,8.5,4.9
			c-4-3.1-8.1-6.3-12.1-9.4c2.1,1.7,4,3.5,5.7,5.6c-3.1-4-6.3-8.1-9.4-12.1c1,1.4,1.8,2.8,2.5,4.4c-2-4.8-4-9.6-6-14.3
			c0.5,1.2,0.8,2.3,1,3.6c-0.7-5.3-1.4-10.6-2.1-16c0.2,1.8,0.2,3.4,0.1,5.1c0.7-5.3,1.4-10.6,2.1-16c-0.3,1.5-0.7,2.9-1.3,4.4
			c2-4.8,4-9.6,6-14.3c-0.9,1.9-1.9,3.5-3.2,5.2c3.1-4,6.3-8.1,9.4-12.1c-2.1,2.4-4.3,4.4-6.8,6.4c4-3.1,8.1-6.3,12.1-9.4
			c-4.9,3.6-10.2,6.5-15.8,8.9c4.8-2,9.6-4,14.3-6c-6.6,2.7-13.4,4.5-20.5,5.4c5.3-0.7,10.6-1.4,16-2.1c-7.1,0.9-14.1,0.9-21.2,0
			c5.3,0.7,10.6,1.4,16,2.1c-7.1-1-13.9-2.7-20.5-5.4c4.8,2,9.6,4,14.3,6c-3.3-1.4-6.4-3-9.5-4.8c7.2,27.4,14.4,54.7,21.5,82.1
			c1.5-3.1,3.2-6,5.3-8.8c-3.1,4-6.3,8.1-9.4,12.1c2.9-3.7,6.1-6.9,9.8-9.8c-4,3.1-8.1,6.3-12.1,9.4c4.5-3.4,9.3-6.1,14.4-8.3
			c-4.8,2-9.6,4-14.3,6c7-2.9,14.3-4.7,21.9-5.8c-5.3,0.7-10.6,1.4-16,2.1c9.4-1.2,18.9-1.2,28.3,0c-5.3-0.7-10.6-1.4-16-2.1
			c16.3,2.3,32,7.4,47.7,12.3c8,2.5,16,5,24.1,7.1c12.8,3.3,25.7,4.9,38.8,6.6c8.3,0.3,16-1.4,23.1-5.2c7.4-2.4,13.9-6.6,19.3-12.4
			c10.4-10.4,18.2-27.5,17.6-42.4c-0.7-15.5-5.8-31.6-17.6-42.4c-4-3.1-8.1-6.3-12.1-9.4C5001.6,277.7,4991.5,274.9,4980.7,274.9
			L4980.7,274.9z"/>
	</g>
</g>
<g>
	<g>
		<path fill="#96CA2D" d="M31,350.3c-4.9,7.4-11.4,13.3-19.1,17.6c-1.7,0.9-0.2,3.5,1.5,2.6c8.2-4.5,15-10.9,20.2-18.7
			C34.7,350.2,32.1,348.7,31,350.3L31,350.3z"/>
	</g>
</g>
<g>
	<g>
		<path fill="#96CA2D" d="M33.4,338.6c-6.5,2.2-8.7,7.7-13.5,11.9c-5.7,5-13.4,6.3-18.7,12.1c-3.9,4.3,2.5,10.7,6.4,6.4
			c4.7-5.1,11.5-6.6,16.9-10.6c4-3,6.6-9.5,11.4-11.1C41.3,345.4,39,336.7,33.4,338.6L33.4,338.6z"/>
	</g>
</g>
<g>
	<g>
		<path fill="#96CA2D" d="M11.4,362c-2.5,0.7-4.3,1.9-5.5,4.3c-1.3,2.6-0.2,5.8,2.7,6.6c7.4,2,12.5-3.2,16.2-8.9
			c2.1-3.3,4.1-4.7,7.3-6.7c2.8-1.8,4.7-3.7,5.8-6.9c1.9-5.5-6.8-7.8-8.7-2.4c-0.5,1.5-3.1,2.2-4.4,3c-1.8,1.1-3.4,2.4-4.8,4.1
			c-2,2.5-5.1,10.1-9,9c0.9,2.2,1.8,4.4,2.7,6.6c0-0.1,0.1-0.1,0.1-0.2C19.4,369.2,17.1,360.5,11.4,362L11.4,362z"/>
	</g>
</g>
<g>
	<g>
		<path fill="#96CA2D" d="M41.1,334.7c-5.7,6.6-12.5,10.4-20.3,13.9c-6.1,2.7-12.2,6.1-14.9,12.5c-2.2,5.3,5.5,9.9,7.8,4.5
			c2.7-6.3,9.6-8.4,15.4-11c7.1-3.2,13.3-7.8,18.4-13.6C51.3,336.7,45,330.3,41.1,334.7L41.1,334.7z"/>
	</g>
</g>
<g>
	<g>
		<path fill="#96CA2D" d="M4.6,373.8c5.8,0,5.8-9,0-9C-1.1,364.8-1.2,373.8,4.6,373.8L4.6,373.8z"/>
	</g>
</g>
<g>
	<g>
		<path fill="#96CA2D" d="M0.1,372.3c0,32,0,64,0,96c0,5.8,9,5.8,9,0c0-32,0-64,0-96C9.1,366.5,0.1,366.5,0.1,372.3L0.1,372.3z"/>
	</g>
</g>
<g>
	<g>
		<path fill="#96CA2D" d="M14.7,401.2c2.9-5.4,5.4-11,7.1-16.8c1.2-4.2,3.6-10.5-0.1-14.2c-8.4-8.1-15.8,8.3-16.6,14.4
			c-0.6,4.3-0.3,10,2.2,13.7c2.9,4.2,8,3.6,11.7,0.9c8.1-6,10.2-17.4,11.7-26.7c0.5-3-1.2-5.5-4.3-5.7c-3.5-0.3-6.7,0.1-10,1.2
			c-5.5,1.8-3.1,10.5,2.4,8.7c2.6-0.8,4.9-1.1,7.6-0.9c-1.4-1.9-2.9-3.8-4.3-5.7c-0.8,4.9-1.5,9.9-3.4,14.5c-1,2.6-2.7,4.3-4.1,6.6
			c-0.4,0.4-0.9,0.8-1.3,1.2c1.4,1.4,1.8,1.4,1.3,0.2c0.2-0.7-0.7-3.4-0.7-4.2c-0.1-2.8,0.6-5.8,1.9-8.3c0.2-0.4,1.9-2.3,1.9-2.7
			c-2-2.2-3.1-2.4-3.2-0.6c-0.1,0.6-0.3,1.2-0.4,1.8c-1.6,6.4-4,12.4-7.2,18.2C4.2,401.7,11.9,406.2,14.7,401.2L14.7,401.2z"/>
	</g>
</g>
<g>
	<g>
		<path fill="#96CA2D" d="M2.8,474.6c1,2.3,2,4.7,3,7c0.9,2.2,4.3,2.8,6.2,1.6c2.3-1.5,2.6-3.8,1.6-6.2c-1-2.3-2-4.7-3-7
			c-0.9-2.2-4.3-2.8-6.2-1.6C2.1,469.9,1.8,472.3,2.8,474.6L2.8,474.6z"/>
	</g>
</g>
<g>
	<g>
		<path fill="#96CA2D" d="M7.6,478.8c5.8,0,5.8-9,0-9C1.9,469.8,1.8,478.8,7.6,478.8L7.6,478.8z"/>
	</g>
</g>
<g>
	<g>
		<path fill="#96CA2D" d="M1.6,476.3c0.3,21,0.6,42,0.9,63c0.1,5.8,9.1,5.8,9,0c-0.3-21-0.6-42-0.9-63
			C10.5,470.5,1.5,470.5,1.6,476.3L1.6,476.3z"/>
	</g>
</g>
<g>
	<g>
		<path fill="#96CA2D" d="M8.1,488.3c0.1,4.6,0.2,9.1,0.2,13.7c0.1,4.1,6.5,6.6,8.4,2.3c0.7-1.5,1.3-3,2-4.4
			c-2.7-1.2-5.5-2.3-8.2-3.5c-1.2,5.3-1.3,12.8,5.2,14.6c4.7,1.3,10.4-1.9,9.9-7.1c-0.4-4.1-6.1-6.5-8.4-2.3
			c-0.4,0.8-0.9,1.6-1.3,2.4c2.7,1.2,5.5,2.3,8.2,3.5c0.9-6.6,2.6-12.9,5.4-18.9c-2.7-1.2-5.5-2.3-8.2-3.5c-3.3,8.8-5.9,18-7,27.3
			c-0.8,6.4,0.7,12.6,6.8,15.8c13.4,6.8,24-7.3,25.5-19.2c0.8-6.1-0.6-13.2-6.5-16.4c-4.6-2.5-10.7-1.4-14.5,1.9
			c-10.2,8.8,1,24.8,13,20.4c3.3-1.2,4.2-4.8,2-7.5c-3.5-4.2-8.8-9-14.6-9.1c-5.1-0.1-9.4,4.4-7.7,9.6c1.8,5.3,7.6,7.2,12.4,8.6
			c7.7,2.3,15.6,4.2,23.5,5.7c2.8,0.6,5.7-1.2,5.7-4.3c0-8.1-8.9-8.2-14.8-6.6c-10.4,2.9-20.9,2.5-30.7-2.1c0.5,2.1,1.1,4.1,1.6,6.2
			c0.9-1.3,1.8-1.9,3.2-2.5c-2.2-0.9-4.4-1.8-6.6-2.7c0.8,4.7,0.8,9.3,0.3,14.1c2.8-0.8,5.6-1.5,8.4-2.3c0-0.5,0.1-1,0.1-1.5
			c1.3-4.3-4.4-7.7-7.5-4.4c-5.1,5.4-10,13.9-3.5,20.4c6,6,16.6,4.7,24.2,5c23,0.6,46,1.3,68.9,1.9c5.9,0.2,5.7-8.5,0-9
			c-7.9-0.7-15.8-1.3-23.7-2c-5.8-0.5-14.5,0.3-18.7-4.5c-0.7,2.5-1.3,5-2,7.5c6.3-2.5,12.6-3.8,19.4-3.9c-1.1-2.6-2.1-5.1-3.2-7.7
			c-2.2,2.6-4.6,4.9-7.5,6.7c-1.3,0.8-2.7,1.5-4.2,2.1c-0.7,0.3-1.4,0.5-2.2,0.7c-1.3-0.3-2,0.2-2,1.6c-2.1,0-4.2,0-6.4,0
			c3.3,3.8,7.8,7,13.1,5.8c4.7-1.1,7.9-5.3,7.1-10.1c-1.7-11.2-17.3-14.3-26.4-12.9c-3.2,0.5-4.5,5.5-2,7.5c2.3,1.9,4.7,3.8,7,5.7
			c1.5-2.5,2.9-5,4.4-7.5c-7.6-2.4-16.2,1.1-19.5,8.4c-1.1,2.5-0.4,5.9,2.7,6.6c5.4,1.2,10.2,0.6,15.3-1.6c3.5-1.5,2.5-7.5-1.1-8.2
			c-5-1-8.6-3.7-10.8-8.3c-0.8-1.6-3.3-2.8-5.1-2.1c-6.7,2.7-11.1,7.1-13.9,13.8c2.2-0.9,4.4-1.8,6.6-2.7c-2.4-1.2-4.8-2.3-7.2-3.5
			c-5.2-2.5-9.5,4.7-4.5,7.8c9.1,5.6,19.2,7.3,29.7,5.7c4.2-0.7,3.9-6.3,1.1-8.2c-2.2-1.6-4.5-3.2-6.7-4.7c0.7,0.9,1.4,1.8,2.1,2.7
			c-5.5-19.6-11.8-39.1-15-59.2c-3.4-21.5-6.7-43-10.1-64.4c-0.9-5.7-9.6-3.3-8.7,2.4c3.7,23.8,6.9,47.8,11.3,71.5
			c2,10.7,5.2,21.2,8.1,31.7c1.6,5.9,3.3,11.7,4.9,17.6c1.5,5.4,5.1,7.1,9.5,10.2c0.4-2.7,0.7-5.5,1.1-8.2c-8,1.2-15.9-0.6-22.8-4.8
			c-1.5,2.6-3,5.2-4.5,7.8c2.4,1.2,4.8,2.3,7.2,3.5c2.9,1.4,5.4,0.1,6.6-2.7c1.4-3.4,4.2-6.1,7.6-7.5c-1.7-0.7-3.4-1.4-5.1-2.1
			c3.3,6.5,9.1,11,16.2,12.4c-0.4-2.7-0.7-5.5-1.1-8.2c-2.8,1.2-5.4,1.3-8.3,0.7c0.9,2.2,1.8,4.4,2.7,6.6c1.8-3.8,5.3-5.6,9.4-4.3
			c4.1,1.3,7.9-4.7,4.4-7.5c-2.3-1.9-4.7-3.8-7-5.7c-0.7,2.5-1.3,5-2,7.5c3.7-0.6,7.5,0.1,10.8,1.8c1.2,0.6,3.6,1.7,3.5,3.2
			c-0.1,2.1-3.7-2.2-4.3-2.9c-1.5-1.8-4.9-1.7-6.4,0c-5.4,6.2-0.1,14.2,7.5,14c8.1-0.2,16.2-6.4,21.1-12.3c2.4-2.9,1-7.7-3.2-7.7
			c-7.5,0.1-14.8,1.4-21.8,4.2c-3.2,1.3-4.4,4.8-2,7.5c4.9,5.6,12.4,6,19.4,6.6c9.8,0.8,19.6,1.7,29.4,2.5c0-3,0-6,0-9
			c-17.1-0.5-34.1-0.9-51.2-1.4c-8.5-0.2-17.1-0.4-25.6-0.7c-2.7-0.1-6,0.2-8.4-1.1c-4.3-2.2-0.3-6.3,1.9-8.7
			c-2.5-1.5-5-2.9-7.5-4.4c-0.9,3.1-0.5,5.5,0.8,8.4c2.1,4.5,8,1.7,8.4-2.3c0.5-5.6,0.3-11-0.6-16.5c-0.5-3.1-4.3-3.8-6.6-2.7
			c-2.8,1.3-4.7,3.2-6.4,5.7c-1.3,1.9-0.5,5.2,1.6,6.2c7,3.3,14.4,5.2,22.1,5.3c3.8,0,7.7-0.4,11.4-1.2c1.7-0.4,3.3-1,5-1.4
			c0.7-0.2,1.4-0.4,2.1-0.4c1.5,0.3,1.6-0.1,0.4-1.4c1.9-1.4,3.8-2.9,5.7-4.3c-7.3-1.4-14.5-3.2-21.7-5.2c-1.7-0.5-3.7-0.8-5.3-1.6
			c-1-0.5-4.5-3.2-2.5,1c0.3,0.7,2.6,1.6,3.3,2.2c1.4,1.2,2.7,2.5,3.9,3.9c0.7-2.5,1.3-5,2-7.5c-2.1,0.8-6.3-0.3-5.6-3.4
			c0.4-1.9,3.4-3.1,5.1-2.3c5.6,2.5,0.4,14.9-2.3,17.7c-2,2.1-4.9,3.3-7.8,2.2c-3.7-1.5-2.6-6.1-2.1-9.2c1.3-8.1,3.6-16,6.5-23.7
			c1.8-4.7-6.1-8.1-8.2-3.5c-3.1,6.8-5.3,13.7-6.3,21.1c-0.7,4.6,5.6,8.4,8.2,3.5c0.4-0.8,0.9-1.6,1.3-2.4c-2.8-0.8-5.6-1.5-8.4-2.3
			c1.5-0.5,2.3-1.5,2.2-2.8c0-0.8,0.2-1.5,0.4-2.2c1-4.7-6-8.4-8.2-3.5c-0.7,1.5-1.3,3-2,4.4c2.8,0.8,5.6,1.5,8.4,2.3
			c-0.1-4.6-0.2-9.1-0.2-13.7C17.1,482.5,8.1,482.5,8.1,488.3L8.1,488.3z"/>
	</g>
</g>
</svg>
