<?xml version="1.0" encoding="utf-8"?>
<!-- Generator: Adobe Illustrator 18.1.1, SVG Export Plug-In . SVG Version: 6.00 Build 0)  -->
<svg version="1.1" id="Layer_1" xmlns="http://www.w3.org/2000/svg" xmlns:xlink="http://www.w3.org/1999/xlink" x="0px" y="0px"
	 viewBox="0 0 406.8 361.3" enable-background="new 0 0 406.8 361.3" xml:space="preserve">
<g>
	<g>
		<path fill="#999999" d="M77.1,50.5c0.7-19.6,14.7-38,33.9-43c19.2-5,40.4,4.2,50.6,20.9c0.4,0.7,1.3,1,2.1,0.5
			c19-11.7,40.1-24.9,63.3-24.3c18.2,0.5,37.6,10.2,43,28.7c0.2,0.7,1.1,1.3,1.8,1c15.2-5.6,31.7-8.6,47.9-7.1
			c15.3,1.4,33.4,10.2,32.1,28.2c-0.1,1.1,1,1.6,1.9,1.4c18.1-2.6,38.2,3.6,46.3,21.3c7.4,16.1-1.5,37.5-20.7,38.7
			c-1.5,0.1-2,2-0.8,2.8c8.7,5.7,8,17.6,2.5,25.3c-5.8,8.3-16,13.9-25.4,17.1c-10.3,3.6-20.5,3.8-30.8,0.3
			c-9.5-3.2-18.1-6.7-28.4-5.7c-10.1,1-19.6,4.7-29.4,6.9c-10.4,2.4-21.2,3.2-31.8,2.3c-10.8-0.9-20.5-3.9-30.7-7.3
			c-9.5-3.2-16.9-0.6-26,2.7c-17.7,6.3-37.5,11.4-56.3,7.2c-4.4-1-8.7-2.5-12.7-4.6c-3.9-2-7.3-5.4-11.5-6.7c-3.8-1.1-7.4,0-11,1.2
			c-5.4,1.8-10.7,3.8-16.2,5c-10.2,2.4-20.9,2.4-30.1-3.1c-7.7-4.6-13.6-12.1-16.2-20.6c-2.6-8.3-0.5-16.1-0.3-24.5
			c0.2-6.3-1.4-12.6-7.3-15.8C12,96.7,6,96.4,3.8,90c-1.7-5-0.8-10.7,0.5-15.8c2.5-10.1,7.9-19.5,15.4-26.8
			c14.1-14,39.2-21.1,55.5-6.5c1.4,1.3,3.6-0.8,2.1-2.1c-12.9-11.5-32.1-10.9-46.8-3.1c-16,8.5-27.7,25.5-30.2,43.4
			c-1.1,7.6,0.1,16,7.6,19.8c4.8,2.5,10.3,3,12.5,8.7c1.8,4.8,0.8,10.4,0.3,15.4c-1.8,17,5.2,33.5,21.1,41.3
			c8.8,4.3,18.7,4.4,28.1,2.5c5.5-1.1,10.9-2.9,16.3-4.8c3.6-1.2,7.3-3,11.2-1.8c3,0.9,5.4,3.2,8,4.8c17,10.5,38.1,9.2,56.8,4.6
			c4.8-1.2,9.5-2.6,14.2-4.2c6.1-2,12.4-5.3,18.9-5.4c5.8,0,11.2,2.8,16.7,4.5c5.7,1.8,11.6,3.1,17.6,3.9c10.4,1.4,21,1.3,31.3-0.4
			c12.3-2,24.1-7.3,36.6-8.3c13.5-1.1,24.3,6.7,37.2,8.2c11.5,1.3,23-2.3,33-7.8c8.5-4.7,17.4-11.7,19.9-21.7
			c2-7.9-0.5-16.6-7.5-21.2c-0.3,0.9-0.5,1.9-0.8,2.8c19.8-1.1,31-22.3,24.5-40.1c-7.6-21-30.4-28.7-51-25.7c0.6,0.5,1.3,1,1.9,1.4
			c1.2-16.4-13.4-27.4-28.1-30.3c-18.4-3.6-38.4-0.2-55.8,6.2c0.6,0.3,1.2,0.7,1.8,1C267.5,14.2,249.2,3.8,230.9,2
			c-25.1-2.4-48.4,11.9-68.8,24.4c0.7,0.2,1.4,0.4,2.1,0.5C153.3,9,130.7-0.7,110.2,4.7C89.7,10,74.9,29.6,74.1,50.5
			C74,52.5,77,52.5,77.1,50.5L77.1,50.5z"/>
	</g>
</g>
<g>
	<g>
		<path fill="#999999" d="M85.6,38.2c-13.5,5.3-26.9,11.7-34,25.2c-9.8,18.6-5.7,42.7,12.9,54.1c12.8,7.9,28,7.5,41.5,1.8
			c6.6-2.8,11.9-6.9,17.4-11.5c1.1-0.9,6.5-5.3,2.2-2.1c-4,3-0.9,0.7,0,0.1c1.1-0.7,2.2-1.3,3.3-1.8c-2.4,1-4.8,2-7.2,3
			c2.8-1.1,5.5-1.8,8.4-2.3c-2.7,0.4-5.3,0.7-8,1.1c16.5-1.9,33.7-0.6,50.2,1.5c-2.7-0.4-5.3-0.7-8-1.1c13.4,1.8,27,4.3,39.8,8.6
			c-2.4-1-4.8-2-7.2-3c-1.4-1-2.8-2.1-4.1-3.1c-2.6-4.4-5.1-8.8-7.7-13.2c0.1,0.4,0.2,0.8,0.3,1.2c0-5.3,0-10.6,0-16
			c-0.1,0.4-0.2,0.8-0.2,1.2c1-2.4,2-4.8,3-7.2c-1.8,3.7,2.1-2.8,2.4-2.5c0,0-1.9,2.2-2.1,2.4c-0.7,0.8-1.5,1.5-2.2,2.3
			c-0.9,0.8-4.7,3.9-0.6,0.8c4.1-3.1-1.6,1-2.8,1.7c-2.1,1.2-4.2,2.2-6.4,3.2c2.4-1,4.8-2,7.2-3c-4,1.6-8.1,2.4-12.2,3.6
			c-7.6,2.2-14.4,5.5-20.3,10.8c-5.5,5-9.9,11.7-11.9,18.8c-2.5,8.8-0.4,15.9,1.1,24.4c-0.4-2.7-0.7-5.3-1.1-8
			c0,0.4-0.1,0.8-0.1,1.3c0.4-2.7,0.7-5.3,1.1-8c-0.2,0.4-0.3,0.8-0.5,1.2c1-2.4,2-4.8,3-7.2c0.7-1,5-6.1,1.6-2.6
			c-2,2.1,6.5-4.2,2.1-1.6c-2.1,1.2-4.1,2.4-6.3,3.4c2.4-1,4.8-2,7.2-3c-3.6,1.4-7.3,2.4-11.1,2.9c2.7-0.4,5.3-0.7,8-1.1
			c-3.4,0.3-6.7,0.3-10.1,0c2.7,0.4,5.3,0.7,8,1.1c-3.4-0.5-6.5-1.3-9.7-2.5c2.4,1,4.8,2,7.2,3c-7.8-3.3-14-8.6-22.4-10.8
			c-13.9-3.7-25.7,1.2-38.1,6.7c2.4-1,4.8-2,7.2-3c-6.2,2.6-12.4,4.3-19.1,5.2c2.7-0.4,5.3-0.7,8-1.1c-3.7,0.4-7.3,0.4-10.9-0.1
			c2.7,0.4,5.3,0.7,8,1.1c-2.2-0.4-4.4-0.9-6.5-1.7c2.4,1,4.8,2,7.2,3c-1.6-0.7-7-4.3-2.5-0.9c5.1,3.8-1.2-2.4,2.7,2.6
			c3.2,4.1,1,1,0.4-0.2c1,2.4,2,4.8,3,7.2c-0.4-1.2-0.7-2.2-0.9-3.4c0.4,2.7,0.7,5.3,1.1,8c-0.2-1.6-0.1-3.1,0.1-4.7
			c-0.4,2.7-0.7,5.3-1.1,8c0.2-1.2,0.5-2.3,0.9-3.5c-1,2.4-2,4.8-3,7.2c0.3-0.7,0.7-1.4,1-2.2c1.6-4-4.5,4.9-2.3,2.7
			c0.9-0.9,3.3-2.8-0.8,0.4c-4.1,3.2-1.3,1.2,0,0.5c-2.4,1-4.8,2-7.2,3c0.7-0.3,1.5-0.5,2.3-0.7c15.2-4,25.9-21.5,21-36.9
			c-4-12.5-12.4-22-23.9-28.2c-2.8-1.5-5.7-2.8-8.5-4.5c-0.7-0.4-1.3-0.9-2-1.3c-2.8-1.5,5.7,4.5,3.4,2.5c-0.9-0.8-2.8-3.3,0.4,0.9
			c3.2,4.1,1.2,1.3,0.6,0c1,2.4,2,4.8,3,7.2c-0.4-1.1-0.7-2.2-0.9-3.3c0.4,2.7,0.7,5.3,1.1,8c-0.2-1.6-0.1-3.1,0.1-4.6
			c-0.4,2.7-0.7,5.3-1.1,8c0.3-1.6,0.7-3.1,1.3-4.6c-1,2.4-2,4.8-3,7.2c0.5-1.1,1.1-2.1,1.7-3.2c2.1-3.9-4.3,5.2-2,2.7
			c2.2-2.5,2.8-0.3-2.8,1.9c1.1-0.4,2.1-1.3,3.2-1.8c-2.4,1-4.8,2-7.2,3c1.8-0.7,3.5-1.1,5.3-1.4c-2.7,0.4-5.3,0.7-8,1.1
			c2-0.2,4-0.2,6,0c-2.7-0.4-5.3-0.7-8-1.1c2.6,0.4,4.9,1.1,7.3,2c-2.4-1-4.8-2-7.2-3c1.4,0.6,2.8,1.3,4.2,2.1
			c1.1,0.6,4.9,3.5,0.9,0.3c-4.2-3.3-0.1,0.1,0.6,0.7c1.1,1.1,2.2,2.2,3.2,3.4c6.1,7.1,16.4,9.4,25.2,8.3
			c9.7-1.3,16.4-6.4,21.9-14.3c1.3-1.8,3.2-3.8,4.1-5.7c-2.9,3.7-3.4,4.4-1.4,1.9c0.7-0.9,1.5-1.8,2.2-2.7c2.8-3.4,5.8-6.6,8.9-9.8
			c3.1-3.1,6.3-6.2,9.7-9c0.9-0.8,1.8-1.5,2.7-2.2c-3.8,2.9-4.4,3.4-1.8,1.6c2-1.1,3.9-2.3,6.1-3.2c-2.4,1-4.8,2-7.2,3
			c1.6-0.6,3.1-1,4.8-1.3c-2.7,0.4-5.3,0.7-8,1.1c1.7-0.2,3.2-0.1,4.9,0c-2.7-0.4-5.3-0.7-8-1.1c1,0.2,1.9,0.4,2.8,0.8
			c-2.4-1-4.8-2-7.2-3c1.4,0.6,5.6,3.5,1,0c-4.5-3.5-1-0.5,0,0.5c4.3,4.2-4-5.9-1.3-1.7c0.7,1.1,1.4,2.1,2.1,3.2
			c4.1,6.3,8.3,13,14.3,17.7c7.8,6.2,15.1,9.6,25.2,8.3c8.9-1.2,17.6-6.1,21.9-14.3c0.6-1.2,1.3-2.4,2-3.5c1.9-2.9,3.6-2.8-1.5,1.8
			c1.7-1.5,3.5-3.4,5.1-5.1c2.3-2.5-6.3,4.4-2.4,1.9c1.1-0.7,2.2-1.5,3.4-2.2c2.3-1.4,4.8-2.6,7.2-3.7c-2.4,1-4.8,2-7.2,3
			c7.8-3.2,15.9-5.2,24.3-6.3c-2.7,0.4-5.3,0.7-8,1.1c7.1-0.9,14.2-1.4,21.3-0.5c-2.7-0.4-5.3-0.7-8-1.1c3.4,0.5,6.6,1.2,9.8,2.5
			c-2.4-1-4.8-2-7.2-3c1.1,0.5,2.2,1,3.2,1.6c1.2,0.7,4.3,3-0.2-0.4c-2.2-1.8-2.8-2.2-1.8-1.2c1.7,1.7,0.7,0.4-2.9-3.9
			c0.5,1,1.2,2,1.6,3c-1-2.4-2-4.8-3-7.2c0.5,1.3,0.7,2.4,1,3.8c-0.4-2.7-0.7-5.3-1.1-8c0.1,1,0.1,2,0,3.1c0.4-2.7,0.7-5.3,1.1-8
			c-0.1,1-0.4,2-0.9,2.9c1-2.4,2-4.8,3-7.2c-2.1,3.9,3.4-3.7,4.5-4.6c4.2-3.2,1-1-0.3-0.4c2.4-1,4.8-2,7.2-3
			c-7.9,3.2-16.9,3.7-25.2,5.9c-11.6,3.2-22.7,7.7-33.7,12.5c-18.2,8-35.4,18.1-52.4,28.2c-13.5,8-19.6,27.4-10.8,41
			c8.8,13.6,26.6,19.3,41,10.8c17.8-10.6,35.8-21,54.9-29.2c-2.4,1-4.8,2-7.2,3c7.3-3.1,14.8-5.8,22.4-8c7.4-2.1,15-3,22.4-4.9
			c11.9-3,23-10.2,29-21.1c7.2-13.2,6.4-29.8-1.4-42.6C257.2,7.3,236.1,0.4,216.3,0c-14.3-0.2-29.8,2-43.3,6.9
			c-19.1,6.9-36.6,18.4-46.3,36.8c15.7-2,31.4-4,47.1-6.1c-0.3-0.2-4.5-4.3-4.4-4.3c0.2-0.1,4.6,6.4,2.4,3c-0.6-0.9-1.2-1.8-1.8-2.6
			c-3.3-4.9-6.6-9.8-10.5-14.3C148.1,6.1,129.3,0.8,112.4,5.4C98.2,9.2,86.3,19.4,76,29.5c-9.4,9.2-17.7,19.6-25.1,30.4
			c15.7-2,31.4-4,47.1-6.1C86.4,40.4,68,31.1,50,31.8C29.9,32.5,12.7,44.4,4.9,62.9c-7.4,17.5-4.3,39,10.7,51.7
			c5.2,4.4,10.4,7.6,16.4,10.7c1.7,0.9,4.2,3.2,6,3.5c-1.5-1.1-2.9-2.2-4.4-3.3c0.5,0.5,1,1,1.5,1.5c-1.3-0.5-4.6-7.2-2.5-2.4
			c-1-2.4-2-4.8-3-7.2c0.1,0.4,0.2,0.7,0.3,1.1c7-12.3,14-24.6,21-36.9C17.6,90.4,4.5,136,31.1,159.4c11,9.7,25.5,14.5,40.2,14.1
			c15.7-0.4,28.8-5.5,42.9-11.6c-2.4,1-4.8,2-7.2,3c2.1-0.8,4.1-1.5,6.4-1.8c-2.7,0.4-5.3,0.7-8,1.1c1.1-0.1,2.2-0.1,3.3,0
			c-2.7-0.4-5.3-0.7-8-1.1c1,0.2,2,0.4,2.9,0.8c-2.4-1-4.8-2-7.2-3c3.7,1.7,6.9,4.2,10.5,6c4.9,2.4,10,4.7,15.3,5.9
			c11.4,2.7,22.4,2.6,33.8,0.2c11.1-2.3,20.9-8,29.5-15.1c5.7-4.7,10.3-11,12.4-18.1c1.9-6.2,2.1-12.1,0.6-18.4
			c-0.5-1.9-1.2-3.8-1.5-5.8c0.4,2.7,0.7,5.3,1.1,8c0-0.5,0-0.9,0.1-1.4c-0.4,2.7-0.7,5.3-1.1,8c0.1-0.9,0.4-1.8,0.8-2.6
			c-1,2.4-2,4.8-3,7.2c2.2-3.9-2.9,3.3-4,4.2c-4,3.2-0.3,0.7,0.9,0.1c-2.4,1-4.8,2-7.2,3c9.6-3.4,19-5.3,28-10.4
			c8.1-4.6,15.6-10.8,21.5-18.1c7.9-9.8,12-20,9.3-32.8c-2.6-12.5-13-20.4-24.4-24.1c-8.3-2.7-17-4.5-25.6-6.1
			c-19.8-3.7-40.1-5.7-60.3-5.3c-12.4,0.3-24.8,1.5-35.8,7.7c-4.9,2.7-9.2,6.4-13.4,10c-1.5,1.3-3.2,2.6-4.7,3.9
			c6.3-5.9,2.7-2.1,0.1-0.8c2.4-1,4.8-2,7.2-3c-2,0.9-4,1.4-6.2,1.7c2.7-0.4,5.3-0.7,8-1.1c-1.3,0.1-2.5,0.1-3.7-0.1
			c2.7,0.4,5.3,0.7,8,1.1c-0.8-0.1-1.6-0.3-2.3-0.6c2.4,1,4.8,2,7.2,3c-0.7-0.3-1.4-0.6-2.1-1c7.7,9.2,10.2,11.6,7.6,7
			c1,2.4,2,4.8,3,7.2c-0.4-0.9-0.6-1.8-0.7-2.7c0.4,2.7,0.7,5.3,1.1,8c-0.1-0.9-0.1-1.9,0-2.8c-0.4,2.7-0.7,5.3-1.1,8
			c0.1-1,0.4-1.9,0.7-2.8c-1,2.4-2,4.8-3,7.2c0.5-1.3,3-4.8-0.2-0.8c-1.7,2-2,2.5-0.9,1.3c1.7-1.6,0.7-0.9-3,2.2
			c2.4-1,4.7-2.6,7.1-3.6c-2.4,1-4.8,2-7.2,3c1-0.4,2-0.8,3-1.2c7.5-3,13.7-6.6,17.9-13.8c3.8-6.4,5.4-15.9,3-23.1
			c-2.3-7.3-6.8-14.3-13.8-17.9C102,37.7,93,35.3,85.6,38.2L85.6,38.2z"/>
	</g>
</g>
<g>
	<g>
		<path fill="#999999" d="M270.5,104.1c3.6-4.6,7.1-9.2,11.2-13.3c1-1,2-1.9,3-2.8c3.7-3.5-4.6,3-1.6,1.1c2.7-1.7,5.3-3.2,8.2-4.5
			c-2.4,1-4.8,2-7.2,3c6.4-2.4,13-3.6,19.7-4.5c-2.7,0.4-5.3,0.7-8,1.1c8-1,16.5-2,24.6-1.3c-2.7-0.4-5.3-0.7-8-1.1
			c1.6,0.2,3.1,0.6,4.6,1.2c-2.4-1-4.8-2-7.2-3c-3.1-2.1-5.7-4.7-7.8-7.9c-1-2.4-2-4.8-3-7.2c0.1,0.3,0.2,0.7,0.3,1
			c-0.4-2.7-0.7-5.3-1.1-8c0,0.5,0,1,0,1.6c0.4-2.7,0.7-5.3,1.1-8c-0.2,1.1-0.5,2.1-1,3c1-2.4,2-4.8,3-7.2
			c-3.1,5.8-6.3,11.6-9.5,17.3c-5.9,10.7-5.1,23.6,2.3,33.3c7.7,10,19.4,13.1,31.5,10.8c3.1-0.6,6.3-1.2,9.4-1.6
			c-2.7,0.4-5.3,0.7-8,1.1c5.7-0.7,11.4-1,17.1-0.3c-2.7-0.4-5.3-0.7-8-1.1c3.5,0.5,6.8,1.4,10.1,2.7c-2.4-1-4.8-2-7.2-3
			c1.4,0.6,2.7,1.2,4,2c1.1,0.6,4.8,3.4,0.6,0.1c-4.2-3.2-0.5-0.1,0.2,0.6c3.6,3.5-3.7-6.1-1.4-1.3c-1-2.4-2-4.8-3-7.2
			c0.4,0.9,0.6,1.8,0.7,2.7c-0.4-2.7-0.7-5.3-1.1-8c0,0.4-0.1,0.9-0.1,1.3c0.4-2.7,0.7-5.3,1.1-8c-0.1,0.4-0.3,0.8-0.4,1.2
			c2.6-4.4,5.1-8.8,7.7-13.2c-0.3,0.3-0.5,0.7-0.8,1c-4.9,6.2-9.2,12.9-8.8,21.2c0.3,6.8,2.3,12.8,6.4,18.2
			c9.3,12.1,25.3,14.8,38.7,7.7c3-1.6,6-3.2,9-4.7c6.2-3.3,12.2-11.1,13.8-17.9c1.9-8.3,0.4-15.4-3-23.1
			c-10.2-22.9-39-33.5-62.3-27.4c-15.2,4-25.9,21.6-21,36.9c5,15.6,20.6,25.3,36.9,21c0.8-0.3,1.7-0.5,2.6-0.6
			c-2.7,0.4-5.3,0.7-8,1.1c2.2-0.3,4.3-0.3,6.6-0.1c-2.7-0.4-5.3-0.7-8-1.1c2.2,0.3,4.3,0.9,6.4,1.7c-2.4-1-4.8-2-7.2-3
			c1.2,0.5,2.3,1.2,3.5,1.8c1.8,1.2,1.5,0.9-0.9-0.8c-2.3-1.9-2.6-2.1-1-0.7c0.3,0.3,0.6,0.6,0.9,0.9c2,2.3,1.2,1.3-2.3-3
			c0.3,1.2,1.3,2.4,1.8,3.5c3.6-13.7,7.2-27.4,10.8-41c-3,1.6-6,3.2-9,4.7c12.1,15.7,24.2,31.4,36.4,47.1c6-7.5,10.2-14.7,10.1-24.7
			c-0.1-7.3-2.4-14.2-6.2-20.3c-5.2-8.6-13.8-16-22.9-20.1c-19.8-9.1-39.4-8.2-60.4-4c11.3,14.7,22.6,29.4,33.9,44.1
			c2.9-5.3,6-10.5,8.7-15.9c6.3-12.4,8-25.6,0.9-38.2c-10-17.7-31.3-19-49.2-17.5c-16.3,1.4-32.6,3.6-47.2,11.4
			c-11.9,6.4-20.8,16.5-28.9,26.9c-5.1,6.6-8.8,12.5-8.8,21.2c0,7.4,3.3,16.1,8.8,21.2c5.7,5.2,13.2,9.1,21.2,8.8
			C256.7,112.6,265.8,110.2,270.5,104.1L270.5,104.1z"/>
	</g>
</g>
<g>
	<g>
		<path fill="#999999" d="M348.2,80c-12.9-9.9-32.8-5-43.4,5.8c-11.4,11.7-14.3,30.5-5.7,44.7c5.2,8.6,13,14.7,21.8,19.5
			c4.9,2.7,10.1,5,15.3,7c3.8,1.5,7.7,1.8,11.5,2.9c-2.4-1-4.8-2-7.2-3c-2.6-2.7-5.2-5.4-7.7-8.1c-1-2.4-2-4.8-3-7.2
			c0.1,0.4,0.2,0.8,0.3,1.2c-0.4-2.7-0.7-5.3-1.1-8c0,0.4-0.1,0.8-0.1,1.2c1.4-5,2.7-10.1,4.1-15.1c-0.2,0.3-0.4,0.7-0.6,1
			c6-4.6,12-9.2,17.9-13.8c-0.5,0.1-1,0.1-1.5,0.2c2.7-0.4,5.3-0.7,8-1.1c-4.5,0.5-9,0.5-13.5,0c2.7,0.4,5.3,0.7,8,1.1
			c-5.5-0.8-10.8-2.3-15.9-4.4c2.4,1,4.8,2,7.2,3c-3.7-1.6-7.3-3.5-10.8-5.7c-0.9-0.6-1.7-1.2-2.5-1.7c-3.7-2.5,2.5,1.8,2.4,1.9
			c-0.2,0.2-4.3-3.7-4.7-4c-1.5-1.4-2.9-2.9-4.3-4.4c-0.7-0.8-1.3-1.5-2-2.3c-2.9-3.3,2,2.3,1.8,2.5c0.1-0.1-3.1-4.3-3.4-4.8
			c-3.3-4.5-6.1-8.1-10.5-11.5c-16.9-13.1-40.3-9.9-53.4,7c-6,7.7-8.6,16.1-9.4,25.9c-0.4,5,0.5,10,0,15c0.4-2.7,0.7-5.3,1.1-8
			c-0.2,1.4-0.5,2.7-1,4.1c1-2.4,2-4.8,3-7.2c-0.3,0.9-0.7,1.7-1.2,2.4c1.7-3,4-5.3,6.9-7.2c-6.2,3.7-12.1,10.7-13.8,17.9
			c-1.7,7.3-1.8,16.9,3,23.1c1.7,2.2,3.4,4.4,5.1,6.6c1.6-12.1,3.1-24.2,4.7-36.4c7.4-6,2.4-2,0-0.9c2.4-1,4.8-2,7.2-3
			c-2.3,0.9-4.5,1.6-6.9,2c2.7-0.4,5.3-0.7,8-1.1c-2.4,0.3-4.8,0.3-7.2,0c2.7,0.4,5.3,0.7,8,1.1c-2.4-0.4-4.7-1-6.9-2
			c2.4,1,4.8,2,7.2,3c-0.3-0.1-3.6-2.2-3.8-2.1c0.2-0.1,6.8,4.9,2.2,1.4c-2-1.5,3.8,6.4,1.5,2.1c-0.7-1.3-1.4-2.5-2.1-3.8
			c1,2.4,2,4.8,3,7.2c-0.9-2.3-1.6-4.5-1.9-6.9c0.4,2.7,0.7,5.3,1.1,8c-0.1-1-0.2-1.9-0.2-2.9c-0.6-15.4-13.3-31.1-30-30
			c-16.4,1.1-31.6,10.6-35.7,27.4c-3.8,15.5,3.1,34.3,18.2,41.4c7.5,3.5,14.9,5.3,23.1,3c7-1.9,14.5-7.3,17.9-13.8
			c7.2-13.6,4.2-33.5-10.8-41c-22.8-11.5-49.4-14.9-73.8-6.6c-14.8,5.1-26.2,20.8-21,36.9c5.4,16.6,20.3,24,36.9,21
			c1.1-0.2,2.2-0.4,3.4-0.6c-2.7,0.4-5.3,0.7-8,1.1c5.1-0.6,10.2-0.6,15.3,0.1c-2.7-0.4-5.3-0.7-8-1.1c4.5,0.7,8.9,1.9,13.1,3.7
			c-2.4-1-4.8-2-7.2-3c1,0.4,2.1,0.9,3.1,1.4c7.4,3.5,15,5.3,23.1,3c7-1.9,14.5-7.3,17.9-13.8c7.1-13.4,4.3-33.8-10.8-41
			c-18.8-9-37.6-11.5-58-7.7c5.3,19.3,10.6,38.6,16,57.9c4.3-1.5,8.6-2.5,13.1-3.1c-2.7,0.4-5.3,0.7-8,1.1
			c5.6-0.6,11.2-0.6,16.8,0.1c-2.7-0.4-5.3-0.7-8-1.1c5.6,0.8,11,2.3,16.2,4.4c-2.4-1-4.8-2-7.2-3c1.6,0.7,3.1,1.4,4.6,2.2
			c10.1-17.3,20.2-34.5,30.3-51.8c-4.5-2.3-2.2,0.1,6.9,7.2c1,2.4,2,4.8,3,7.2c-0.4-0.8-0.6-1.7-0.6-2.6c0.4,2.7,0.7,5.3,1.1,8
			c0-0.4,0.1-0.9,0.1-1.3c-0.4,2.7-0.7,5.3-1.1,8c0.1-0.4,0.3-0.9,0.4-1.3c-1,2.4-2,4.8-3,7.2c-1.9,2.8-4.2,5.2-7,7.1
			c-2.4,1-4.8,2-7.2,3c0.4-0.1,0.9-0.2,1.3-0.4c-2.7,0.4-5.3,0.7-8,1.1c0.4,0,0.9-0.1,1.3-0.1c-10-10-20-20-30-30
			c0.8,21.7,13,41.8,33.4,50.4c9.6,4.1,19.3,5.4,29.7,4c11.8-1.6,21.1-6.6,30.2-14.1c9.2-7.4,12.1-26.7,4.7-36.4
			c-1.7-2.2-3.4-4.4-5.1-6.6c-3.6,13.7-7.2,27.4-10.8,41c9.8-5.8,17-15.5,19.6-26.6c2-8.7,0.5-16.6,1.4-25.3c-0.4,2.7-0.7,5.3-1.1,8
			c0.1-1.1,0.4-2.1,0.8-3.2c-1,2.4-2,4.8-3,7.2c0.6-1.3,2.9-4.7-0.2-0.6c-0.8,1.5-2,2.6-3.4,3.5c-2.4,1.6-2.7,2-0.8,1
			c-2.4,1-4.8,2-7.2,3c0.4-0.1,0.8-0.2,1.3-0.3c-2.7,0.4-5.3,0.7-8,1.1c0.9-0.2,1.8-0.1,2.6,0.1c-2.7-0.4-5.3-0.7-8-1.1
			c0.4,0.1,0.9,0.3,1.3,0.4c-2.4-1-4.8-2-7.2-3c4.5,2.4-4.8-3.8-2.4-1.8c2.6,2.2-4.4-6-1.8-2.2c2.6,3.8,5.5,7.4,8.4,11
			c3.4,4.2,7.2,8,11.4,11.4c11.5,9.3,23.6,16.8,37.9,20.9c16.6,4.8,39.5,6.3,53-6.1c13.2-12.2,12-35.5-0.8-47.4
			c-4.8-4.5-10.9-8.1-17.4-9.4c-3.2-0.7-6.1-1.2-9.2-2.4c2.4,1,4.8,2,7.2,3c-3.8-1.6-7.4-3.5-10.9-5.5c-1.2-0.7-2.4-1.5-3.6-2.3
			c4.1,3.4,5.1,4.1,3,2c3.1,4.5,3.9,5.4,2.6,2.7c1,2.4,2,4.8,3,7.2c-0.1-0.4-0.3-0.9-0.4-1.3c0.4,2.7,0.7,5.3,1.1,8
			c-0.2-0.8-0.2-1.5,0-2.3c-0.4,2.7-0.7,5.3-1.1,8c0.1-0.4,0.2-0.7,0.3-1.1c-1,2.4-2,4.8-3,7.2c1-1.8,0.6-1.5-1.1,1.1
			c-1.5,2.3-3.4,4.1-5.9,5.5c-2.4,1-4.8,2-7.2,3c0.6-0.3,1.3-0.5,2-0.5c-2.7,0.4-5.3,0.7-8,1.1c0.3,0,0.7,0.1,1,0.1
			c-2.7-0.4-5.3-0.7-8-1.1c0.3,0.1,0.6,0.2,0.9,0.4c-2.4-1-4.8-2-7.2-3c0.3,0.2,0.6,0.4,0.9,0.7c5.7,4.4,16.5,4.8,23.1,3
			c7-1.9,14.5-7.3,17.9-13.8c3.7-7,5.5-15.4,3-23.1C359.5,90,354.8,85.1,348.2,80L348.2,80z"/>
	</g>
</g>
<g>
	<g>
		<path fill="#999999" d="M293.7,172.8c15.1-3.2,29.8-11.7,40.3-23c10.7-11.5,12.3-31.2,0-42.4c-11.6-10.6-31-12.3-42.4,0
			c-1.1,1.2-2.2,2.3-3.3,3.4c-0.8,0.7-1.6,1.4-2.4,2.1c3.8-2.9,4.8-3.7,2.9-2.4c-3,1.8-5.8,3.5-9,4.8c2.4-1,4.8-2,7.2-3
			c-3,1.2-6,2-9.1,2.7c-15.4,3.2-25.7,22.2-21,36.9C262.1,168.1,277.2,176.3,293.7,172.8L293.7,172.8z"/>
	</g>
</g>
<g>
	<g>
		<path fill="#44869E" d="M44.9,198.4c1.2,5.3,1.8,10.7,1.9,16.1c0.3,9.6,15.3,9.7,15,0c-0.2-6.8-1-13.5-2.5-20.1
			C57.3,185,42.8,189,44.9,198.4L44.9,198.4z"/>
	</g>
</g>
<g>
	<g>
		<path fill="#44869E" d="M106.9,199.4c1.5,9.6,1.8,19.4,1.1,29.1c-0.7,9.6,14.3,9.6,15,0c0.8-11.1,0.1-22.1-1.7-33.1
			c-0.6-4-5.6-6.2-9.2-5.2C107.9,191.4,106.3,195.4,106.9,199.4L106.9,199.4z"/>
	</g>
</g>
<g>
	<g>
		<path fill="#44869E" d="M74.8,259.4c2.3,7.6,3,15.2,2.3,23.1c-0.9,9.6,14.1,9.5,15,0c0.9-9.1-0.1-18.3-2.8-27.1
			C86.4,246.2,71.9,250.1,74.8,259.4L74.8,259.4z"/>
	</g>
</g>
<g>
	<g>
		<path fill="#44869E" d="M110.3,287.5c1.5,8.3,2.1,16.6,1.9,25c-0.2,9.7,14.8,9.7,15,0c0.2-9.7-0.7-19.4-2.4-29
			C123,274.1,108.6,278.1,110.3,287.5L110.3,287.5z"/>
	</g>
</g>
<g>
	<g>
		<path fill="#44869E" d="M56.6,334.5c2,6.5,4.5,12.8,7.4,18.9c1.8,3.6,7,4.6,10.3,2.7c3.7-2.2,4.5-6.6,2.7-10.3
			c-2.4-5-4.3-10.1-5.9-15.3C68.2,321.3,53.8,325.2,56.6,334.5L56.6,334.5z"/>
	</g>
</g>
<g>
	<g>
		<path fill="#44869E" d="M143,240.3c2.4,8.7,2.9,17.2,1.9,26.1c-0.5,4,3.8,7.5,7.5,7.5c4.4,0,7-3.5,7.5-7.5
			c1.1-10.1,0.2-20.3-2.5-30.1C154.9,227.1,140.4,231,143,240.3L143,240.3z"/>
	</g>
</g>
<g>
	<g>
		<path fill="#44869E" d="M171.1,203.5c0.7,7.7,1.3,15.3,2,23c0.8,9.5,15.8,9.6,15,0c-0.7-7.7-1.3-15.3-2-23
			C185.3,194,170.3,193.9,171.1,203.5L171.1,203.5z"/>
	</g>
</g>
<g>
	<g>
		<path fill="#44869E" d="M172.2,289.5c0,10,0,20,0,30c0,9.7,15,9.7,15,0c0-10,0-20,0-30C187.2,279.9,172.2,279.9,172.2,289.5
			L172.2,289.5z"/>
	</g>
</g>
<g>
	<g>
		<path fill="#44869E" d="M146.5,342.5c-0.1,6.2,2.6,12.7,7.6,16.6c3.1,2.4,7.6,3.2,10.6,0c2.5-2.7,3.3-8,0-10.6
			c-0.7-0.6-1.4-1.2-2-1.8c0.9,1-0.6-1-0.8-1.3c0.7,1.3-0.3-1.1-0.4-1.4c-0.2-0.9-0.2-0.9,0,0c0-0.5,0-0.9,0-1.4
			c0.1-3.9-3.5-7.7-7.5-7.5C149.9,335.2,146.5,338.3,146.5,342.5L146.5,342.5z"/>
	</g>
</g>
<g>
	<g>
		<path fill="#44869E" d="M219.4,198.5c1.7,10.3,2.6,20.6,2.8,31c0.2,9.6,15.2,9.7,15,0c-0.2-11.7-1.4-23.4-3.3-35
			C232.3,185,217.8,189.1,219.4,198.5L219.4,198.5z"/>
	</g>
</g>
<g>
	<g>
		<path fill="#44869E" d="M204.6,260.5c1.3,10,3.3,19.6,6.7,29.1c3.2,9,17.7,5.1,14.5-4c-2.9-8.1-5.1-16.5-6.1-25.1
			c-0.5-4-3.1-7.5-7.5-7.5C208.5,253,204.1,256.4,204.6,260.5L204.6,260.5z"/>
	</g>
</g>
<g>
	<g>
		<path fill="#44869E" d="M259.9,305.5c0.4,6.3,0.8,12.7,1.2,19c0.3,4,3.3,7.5,7.5,7.5c3.9,0,7.8-3.4,7.5-7.5
			c-0.4-6.3-0.8-12.7-1.2-19c-0.3-4-3.3-7.5-7.5-7.5C263.6,298,259.7,301.5,259.9,305.5L259.9,305.5z"/>
	</g>
</g>
<g>
	<g>
		<path fill="#44869E" d="M222,323.5c0.7,8,1.9,16,3.7,23.9c2.1,9.4,16.6,5.4,14.5-4c-1.5-6.6-2.5-13.2-3.1-19.9
			c-0.4-4-3.2-7.5-7.5-7.5C225.7,316,221.6,319.5,222,323.5L222,323.5z"/>
	</g>
</g>
<g>
	<g>
		<path fill="#44869E" d="M258.2,253.5c0,3.7,0,7.3,0,11c0,3.9,3.4,7.7,7.5,7.5c4.1-0.2,7.5-3.3,7.5-7.5c0-3.7,0-7.3,0-11
			c0-3.9-3.4-7.7-7.5-7.5C261.6,246.2,258.2,249.3,258.2,253.5L258.2,253.5z"/>
	</g>
</g>
<g>
	<g>
		<path fill="#44869E" d="M264.2,192.5c0.8,6,1.6,12,2.3,18c0.5,4,3.1,7.5,7.5,7.5c3.6,0,8-3.5,7.5-7.5c-0.8-6-1.6-12-2.3-18
			c-0.5-4-3.1-7.5-7.5-7.5C268,185,263.6,188.5,264.2,192.5L264.2,192.5z"/>
	</g>
</g>
<g>
	<g>
		<path fill="#44869E" d="M311.7,168.6c-1.6,10.7-2,21.3-1,32c0.4,4,3.2,7.5,7.5,7.5c3.7,0,7.9-3.4,7.5-7.5
			c-0.9-9.3-0.9-18.7,0.4-28c0.6-4-1-8-5.2-9.2C317.4,162.3,312.3,164.6,311.7,168.6L311.7,168.6z"/>
	</g>
</g>
<g>
	<g>
		<path fill="#44869E" d="M351.1,188.5c-0.1,8,0.3,16,1.2,24c0.5,4,3.1,7.5,7.5,7.5c3.7,0,8-3.4,7.5-7.5c-0.9-8-1.3-16-1.2-24
			C366.2,178.9,351.2,178.9,351.1,188.5L351.1,188.5z"/>
	</g>
</g>
<g>
	<g>
		<path fill="#44869E" d="M294.3,253.5c0.7,7.1,1.9,14.2,3.9,21.1c2.7,9.3,17.2,5.3,14.5-4c-1.6-5.6-2.8-11.3-3.4-17.1
			c-0.4-4-3.2-7.5-7.5-7.5C298.1,246,294,249.4,294.3,253.5L294.3,253.5z"/>
	</g>
</g>
<g>
	<g>
		<path fill="#44869E" d="M337.2,246.5c0.4,7.3,0.8,14.7,1.2,22c0.5,9.6,15.5,9.7,15,0c-0.4-7.3-0.8-14.7-1.2-22
			C351.6,236.9,336.6,236.9,337.2,246.5L337.2,246.5z"/>
	</g>
</g>
<g>
	<g>
		<path fill="#44869E" d="M319.9,305.3c3.5,9.2,4.2,18.7,1.7,28.3c-2.5,9.3,12,13.3,14.5,4c3.2-12,2.7-24.6-1.7-36.3
			C331,292.4,316.5,296.3,319.9,305.3L319.9,305.3z"/>
	</g>
</g>
<g>
	<g>
		<path fill="#44869E" d="M288.4,317.5c0.3,10.5,3,20.4,7.9,29.7c4.5,8.5,17.5,1,13-7.6c-3.7-6.9-5.6-14.3-5.8-22.1
			C303.2,307.9,288.2,307.9,288.4,317.5L288.4,317.5z"/>
	</g>
</g>
<g>
	<g>
		<path fill="#44869E" d="M352.2,313.5c0,6.3,0,12.7,0,19c0,9.7,15,9.7,15,0c0-6.3,0-12.7,0-19C367.2,303.9,352.2,303.9,352.2,313.5
			L352.2,313.5z"/>
	</g>
</g>
<g>
	<g>
		<path fill="#44869E" d="M38,258.4c4.3,8.5,6.7,17.6,7.1,27.1c0.4,9.6,15.4,9.7,15,0c-0.5-12.2-3.6-23.8-9.2-34.7
			C46.6,242.2,33.6,249.8,38,258.4L38,258.4z"/>
	</g>
</g>
</svg>
